<?xml version="1.0" encoding="UTF-8"?>
<svg xmlns="http://www.w3.org/2000/svg" version="1.1" viewBox="0 0 1515.6 248.7">
  <defs>
    <style>
      .cls-1 {
        fill: #89a5ff;
      }
    </style>
  </defs>
  <!-- Generator: Adobe Illustrator 28.7.5, SVG Export Plug-In . SVG Version: 1.2.0 Build 176)  -->
  <g>
    <g id="Layer_1">
      <g>
        <path class="cls-1" d="M266.2,10.6h-.2c-.7-.5-1.3-.7-2-.7-17.3,0-43.4,0-61.9,0-.8,0-1.6.2-2.4.7-.4.3-.8.6-1.2,1-.5.5-1.3,1.5-1.6,2.9-.4,1.7-.6,3.5-.8,5.2,0,.6-.2,1.2-.2,1.8,0,0,0,0,0,0l-1.2,9.1c-10.4-8.3-22.7-14.7-39.8-20.5C125.1.1,94.7-1.2,64.4,6.2c-16.8,4.1-30.2,10.6-41,19.9-12.1,10.4-19,24.7-19.4,40.3-.4,15.5,5.6,30,17,41,11.1,10.7,25.1,16.6,36.1,20.4-16.5,0-36.1,0-50.9,0-1.3,0-3.1.2-4.6,1.6-1.4,1.4-1.6,3.3-1.6,4.5,0,34,0,68.4,0,102.4,0,.8,0,2.7,1.4,4.3,1.6,1.7,3.8,1.7,4.6,1.7,18.8,0,43.6,0,59.9,0,1.8,0,3.2-.5,4.3-1.5,1.5-1.4,1.7-3.4,1.7-4,0,0,0,0,0,0,.2-2.6.5-5.1.8-7.8.1-1,.2-2,.3-3.1.2-2.2.5-4.5.8-6.7,6.5,5.3,14.1,9.8,23.1,13.8,19.8,8.8,40.5,13.3,62,13.3s16.6-.7,25.1-2l1.7-.3c19.3-3.2,35.2-9.2,48.7-18.5,16.6-11.4,26.1-25.3,29-42.6,1.8-10.7,1-20.5-2.4-29.1-3.5-8.8-9.8-16.4-18.7-22.7-7.2-5-15.6-9-26.4-12.6-3.8-1.2-7.6-2.4-11.5-3.3,13.3,0,30.4,0,45.5,0h14.7c2.1,0,3.8-1.7,3.8-3.8V14c0-1.4-.8-2.8-2.1-3.4ZM119.8,141.9c10.9,1.8,22.1,3.8,33.2,5.8,7.2,1.3,12.6,3.2,17.1,6,1.8,1.1,2.9,2.5,3.2,3.9.3,1.4-.2,3.1-1.4,4.9-1.2,1.8-2.1,2.5-2.6,2.8,0,0,0,0,0,0-3.3,1.9-5.9,3.2-8.4,4l-.6.2c-7.2,2.3-15,2.6-21.6,2.6-20.2,0-37.2-5.4-51.9-16.2-8.7-6.4-13.6-14-14.9-23.2,0-.1,0-.3,0-.4,11.5,3.1,23,5.3,34.1,7.2,4.7.8,9.3,1.6,13.9,2.4ZM155.2,106.2c-12.1-1.9-24.9-4.2-40.1-7.3-5.9-1.2-11.2-3.4-15.5-6.5l-.7-.5c-2.5-1.9-3.9-4.3-3.9-6.8,0-2.6,1.3-5.1,3.8-7.1,2-1.6,4.8-3,8-4.1,8.2-2.8,16.8-3.3,24.3-3.3s1.4,0,2.1,0h1.7c17.5.5,33.1,5.9,46.3,16.1,8.4,6.4,13.3,13.9,15.2,22.8.3,1.3.8,2.9,2.1,4.1,0,0,0,0,0,0-11.8-2.7-23.4-4.5-33.3-6.1l-9.9-1.5Z"/>
        <path class="cls-1" d="M1235.9,150.4c-1.6-1.3-3.6-1.3-4.6-1.3-6.1,0-12.3,0-18.4,0-8.8,0-17.9,0-26.9,0,0-18.5-.2-35-.5-50.3v-2.5c-.2-4.9-.5-11.4-1.5-17.8-4.4-27.9-18.4-49.2-41.5-63.1-18.2-11-39.1-15.5-62.2-13.5-26.6,2.3-49,12.7-66.4,30.9l-.8.9c-1.2,1.3-2.3,2.6-3.5,3.9V5.1c0-2.1-1.7-3.8-3.8-3.8h-1.5c-.9,0-1.6,0-2.3,0-3.1,0-6.2,0-9.4.1-7,0-14.3.2-21.5.5-12.1.6-24.3,1.4-36.2,2.2-4.4.3-8.8.6-13.2.9l-7,.4c-1.3,0-3.3.4-4.7,1.8-1.8,1.8-1.8,4.3-1.8,5.1,0,25.5,0,51.3,0,76.8,0,1.5.2,3.5,1.6,5,1.6,1.6,3.7,1.8,5.1,1.8,8.9,0,18,0,26.7,0,2.9,0,5.9,0,8.8,0v13.7c0,13-.1,26.4-.1,39.7-10.9,0-21.8,0-32.7,0h-14.9c-2.1,0-3.8,1.7-3.8,3.8v84.1c0,1.9,1.4,3.5,3.3,3.8,51.5,6.1,103.7,6.1,155.2,0,1.9-.2,3.3-1.8,3.3-3.8v-84.1c0-2.1-1.7-3.8-3.8-3.8h-13c-11.5,0-23,0-34.5,0,0-8.1,0-16.2,0-24.3,0-9.9,0-20.1,0-30.2,22.3-10.1,43-14.1,63.2-12.3,16.6,1.5,30,6.6,40.9,15.8,10,8.4,14.4,17.5,13.8,28.5-.3,5.2-.2,10.5-.2,15.7,0,2.3,0,4.6,0,6.8h-44.1c-2.3,0-4.2.7-5.5,2-1.4,1.3-2.1,3.2-2.1,5.5v80.1c0,.5,0,1,.2,1.5.5,1.4,1.7,2.3,3.1,2.5,25.9,3.1,51.9,4.6,77.9,4.6s51.9-1.5,77.5-4.6c1.8-.2,3.2-1.7,3.3-3.5v-.6c0-.6.1-1.1.1-1.7v-21.1c0-19.1,0-38.8,0-58.3,0-.9,0-3.5-2.2-5.2Z"/>
        <path class="cls-1" d="M610.1,5.6c-5-.4-9.9-.8-14.9-1.2-8.4-.7-17.1-1.4-25.7-1.9l-2.7-.2c-27.9-1.6-56.9-1-88.7,1.6l-2.8.2c-4.1.4-8.2.8-12.1,1.2-1.8.2-3.5.4-5.2.6-1.9.2-3.4,1.8-3.4,3.8v84.1c0,2.1,1.7,3.8,3.8,3.8h20.3c-4,3.2-7.7,6.1-11.3,8.9l-2.3,1.8c-5.8,4.5-12.1,9.5-19.4,15.7-5.1-4-10.5-8.3-15.7-12.4-6.1-4.8-12.3-9.7-17.9-14.2h24c2,0,3.7-1.6,3.8-3.6,0-.3,0-.7,0-1,0-.8,0-1.6,0-2.3v-15.5c0-20.3,0-41.3,0-61.9v-.6c0-2-.7-3.6-1.8-4.8-1.6-1.7-3.7-2-5.1-2.1-5.3-.4-10.7-.8-16-1.3-8.8-.7-18-1.5-27-2-26.6-1.5-54.2-1.1-84.5,1.3-5.5.4-11.1,1-16.4,1.5-2.6.3-5.2.5-7.8.8-1.9.2-3.4,1.8-3.4,3.8v84c0,2.1,1.7,3.8,3.8,3.8h15.9c14.7,0,30,0,45,0,.7,0,1.8.4,2.4.8h.1c11.8,10.1,23.6,18.2,35.1,26.1h.2c11.3,7.9,23,15.9,34.6,25.7.1,0,.2.2.2.2,0,.1,0,.4.2.8,0,.1,0,.4,0,.8h-47.3c-2.1,0-3.8,1.7-3.8,3.8v78.3c0,1.4,0,2.6.1,3.6.1,1,.4,2.6,1.5,3.9,1.2,1.3,2.6,1.8,3.7,2.1,1,.2,2.3.4,3.7.5,23,2.6,47.4,4,72.6,4s1.6,0,2.3,0c23.3,0,47.6-1.5,72.3-4.2.8,0,3.2-.4,4.7-2.3,1.2-1.5,1.3-3.2,1.3-4.6h0c0-30.7,0-55.5,0-78.3,0-1.5-.2-3.6-1.8-5.2-1.6-1.5-3.7-1.7-5.1-1.7-7.1,0-15,0-21.9,0s-13,0-19.2,0c0-.1,0-.3,0-.4,0,0,0-.4.2-.8.2-.4.3-.5.3-.5,0,0,0,0,0,0,11.7-10,23.4-18,34.7-25.7l.6-.4c11.4-7.8,23.1-15.8,34.8-25.7,0,0,0,0,0,0,.5-.5,1.7-.8,2.5-.8,15.1-.1,30.4,0,45.2,0h15.7c2,0,3.6-1.5,3.8-3.5,0-.3,0-.6,0-.9,0-.7.1-1.4.1-2,0-7.1,0-14.1,0-21.2,0-18.8,0-38.3,0-57.4,0-2.3-.6-4-1.9-5.2-1.4-1.3-3.2-1.6-4.6-1.7Z"/>
        <path class="cls-1" d="M1514.8,184s0,0,0,0l-3.3-7.5c-5.2-12-10.3-24-15.5-36.1-2.4-5.6-4.8-11.1-7.1-16.7,0,0,0,0,0,0l-.2-.4c-.2-.4-.4-.9-.7-1.3-.1-.2-.3-.5-.4-.7-.2-.3-.4-.6-.6-.9h20.9c2,0,3.6-1.5,3.8-3.5,0-.3,0-.6,0-.8,0-.7.1-1.3.1-2h0c0-11.7-1.3-23-3.7-33.6-4.3-18.7-12-33.7-23.6-45.7l-.6-.6c-11.8-11.9-27-20.4-46.5-25.7-22.7-6.3-45.4-7.1-64.6-7-25.2,0-46.8,4.1-66.1,12.4-39.3,16.9-62.1,46.5-67.7,88-2.6,18.7-1.5,38.1,3.3,59.3l.4,1.8c4.7,19.7,12.8,35.9,24.8,49.4,17.7,19.8,41.1,31.3,71.5,34.9,8,1,16.3,1.4,24.9,1.4,13.5,0,27.8-1.2,43.2-3.5,40.1-6.1,75.6-23.8,105.7-52.6l.3-.3c1.1-1.2,1.8-2.4,2-3.7.4-1.8-.2-3.5-.6-4.5ZM1480.4,121s0,0,0,0c-10.8,10.1-24.4,17.7-43,23.8-17.9,5.9-37.3,9.2-59.4,10.2h-2c-24.1,1-43.6-1.7-61.3-8.5-12.5-4.8-21.3-10.7-27.9-18.4-2.3-2.8-4-5.3-5.1-7.8h199.6c-.2.2-.6.4-.9.7ZM1292.4,84.2c2.3-1.4,4.8-2.8,7.7-4.2,12.1-5.7,26-9.4,42.4-11.3,33.9-3.9,67.1-.5,98.6,10,0,0,0,0,0,0,4.7,1.6,9.1,3.4,13.3,5.4h-162.1Z"/>
        <path class="cls-1" d="M894.2,81.5c-4-19.6-12.4-35.9-25-48.5-11.6-11.6-26.4-19.9-45.5-25.3l-3.6-1C798.7,1,777.1.1,758.8,0c-.7,0-1.5,0-2.3,0-1.6,0-3.2,0-4.9,0-19.7.5-42.9,2-65.8,10.1l-1,.4c-30.4,11-50.2,31.7-58.7,61.6-7.5,25.9-8.3,53.1-2.6,80.7,8.3,39.6,31.4,67.2,68.7,82,16.3,6.5,34.4,10.1,55.2,11,4.1.2,8,.3,11.9.3,23.4,0,43.9-3.3,62.5-9.9,34.2-12.3,57.1-35.1,68.3-67.9,8.8-25.9,10.2-53.7,4.4-85l-.3-1.8ZM838.4,96.7c3.9,1.8,7.3,3.8,10,6,7,5.5,10.8,13.5,10.5,22-.4,8.5-5,16.2-12.6,21.1-6.1,3.9-13.3,6.7-23.2,9-18.6,4.3-37.9,5.1-54.5,5.5h-3.7c-1.3.1-2.6,0-4,0-.7,0-1.4,0-2.1,0s-.2,0-.2,0c-20.7-.2-41-.7-61-4.9-7.4-1.6-17.1-4.1-25.4-9.4l-.7-.5c-6.5-4.3-10.7-10.6-12-17.8-1.2-6.9.5-13.9,4.8-19.7,3.4-4.6,8.3-8.2,15.2-11.3,13.4-6,27.9-8.1,39.1-9.2,29.4-2.9,58.3-2.7,86,.6h0c10.5,1.3,22.8,3.3,34.2,8.6Z"/>
      </g>
    </g>
  </g>
</svg>