<svg width="158" height="26" viewBox="0 0 158 26" fill="none" xmlns="http://www.w3.org/2000/svg">
<path d="M27.3325 11.3281C27.3324 11.3556 27.3102 11.3779 27.2827 11.3779H27.0386C25.2289 11.3779 22.6828 11.3736 20.8745 11.3828C20.7622 11.3833 20.6764 11.3661 20.6138 11.3105C20.5524 11.256 20.5227 11.173 20.5005 11.0684C20.3023 10.1249 19.8005 9.36734 19.1021 8.74902L18.7905 8.49316C17.2618 7.31366 15.5102 6.75764 13.5835 6.73828C12.6097 6.72807 11.6417 6.78337 10.7173 7.09473C10.3866 7.20613 10.0553 7.36302 9.78662 7.57324C9.42004 7.85984 9.24868 8.2267 9.2583 8.58789C9.26807 8.94954 9.45913 9.3136 9.8335 9.59082C10.3705 9.98864 10.9885 10.2326 11.6353 10.3613C13.1227 10.6569 14.6156 10.9329 16.1128 11.166C18.1256 11.4798 20.1497 11.7605 22.1001 12.4014C23.0382 12.7091 23.9432 13.0945 24.7603 13.665C25.6483 14.2846 26.254 15.0246 26.5923 15.873C26.9304 16.7213 26.9997 17.6753 26.8218 18.7217C26.5084 20.5601 25.444 21.9079 23.9419 22.9375C22.397 23.9956 20.6594 24.5508 18.8315 24.835C15.7609 25.313 12.7921 24.9552 9.94775 23.6816C8.95864 23.2382 8.03325 22.6871 7.22705 21.9502C7.20914 21.9337 7.18783 21.9185 7.16064 21.8994C7.15132 21.8929 7.14137 21.8855 7.13037 21.8779C7.07763 22.3434 7.02831 22.7796 6.97998 23.2148L6.85791 24.3555C6.85045 24.4368 6.83092 24.5071 6.78076 24.5547C6.73019 24.6025 6.65834 24.6182 6.5708 24.6182C4.73567 24.613 2.16363 24.612 0.32959 24.6182C0.234874 24.6182 0.158303 24.6025 0.108887 24.5488C0.0606651 24.4962 0.0503283 24.419 0.050293 24.332C0.0543917 20.775 0.0543917 17.2162 0.050293 13.6592C0.0503048 13.5633 0.0636916 13.483 0.116699 13.4297C0.169791 13.3765 0.25003 13.3623 0.347168 13.3623L6.5376 13.3701C6.56948 13.3701 6.60434 13.3698 6.63623 13.3721C6.66846 13.3744 6.70249 13.3797 6.73389 13.3936C6.80256 13.424 6.84401 13.487 6.85889 13.5908L6.89502 13.7998C7.1022 14.8293 7.70765 15.6195 8.55029 16.2412C10.2115 17.4676 12.1079 17.9889 14.1597 17.9971C14.9617 18.0001 15.7602 17.9571 16.5229 17.709C16.8706 17.596 17.2055 17.4256 17.5269 17.2402C17.6783 17.153 17.8082 16.9966 17.9136 16.8389C18.0956 16.5662 18.1552 16.3027 18.105 16.0674C18.0547 15.832 17.8923 15.6153 17.6147 15.4404C17.0363 15.0771 16.3824 14.8869 15.7153 14.7637C14.0803 14.463 12.4403 14.1936 10.8003 13.9111C9.10916 13.6195 7.42547 13.2841 5.79834 12.7129C4.45876 12.2425 3.17498 11.6534 2.13232 10.6475C-0.18228 8.41399 -0.0648495 4.78563 2.37646 2.68066C3.57583 1.64709 4.99156 1.05406 6.50244 0.683594C9.61637 -0.0787571 12.6972 0.061744 15.7329 1.09277C17.213 1.59593 18.632 2.22954 19.8569 3.23438L20.2456 3.57031C20.3208 3.0183 20.3914 2.51038 20.4604 2.00293C20.4928 1.76959 20.5154 1.52823 20.564 1.29395C20.5734 1.24767 20.6074 1.19857 20.6421 1.16309C20.6601 1.14469 20.6806 1.12799 20.7017 1.11523C20.7218 1.10305 20.7478 1.09186 20.7749 1.0918C22.6778 1.08464 25.3184 1.08873 27.2212 1.0918C27.2429 1.0918 27.2605 1.1012 27.27 1.10645C27.2819 1.11301 27.2902 1.1182 27.3042 1.125C27.3214 1.13332 27.3324 1.15082 27.3325 1.16992V11.3281Z" fill="#89A5FF" stroke="#89A5FF" stroke-width="0.1" stroke-linejoin="round"/>
<path d="M104.573 0.188477C104.601 0.188699 104.623 0.210855 104.623 0.238281V4.62402C104.965 4.2034 105.254 3.82147 105.577 3.47559C107.414 1.51166 109.716 0.494712 112.369 0.265625C114.593 0.0733478 116.715 0.465384 118.647 1.62793C121.044 3.07064 122.377 5.23553 122.808 7.95996C122.916 8.6417 122.943 9.3389 122.956 10.0283C122.989 11.7839 123.002 13.5396 123.003 15.2949C123.003 15.4447 123.029 15.5165 123.072 15.5547C123.116 15.5943 123.194 15.6116 123.336 15.6104C124.913 15.5969 126.492 15.6067 128.069 15.6006C128.172 15.6006 128.266 15.608 128.331 15.6592C128.401 15.7135 128.426 15.8044 128.425 15.9307C128.416 18.6909 128.42 21.4517 128.419 24.2109C128.419 24.2728 128.411 24.337 128.406 24.4199C128.404 24.4438 128.385 24.4639 128.362 24.4668C122.994 25.1101 117.636 25.1076 112.239 24.4668C112.22 24.4646 112.204 24.4514 112.198 24.4336C112.195 24.4277 112.196 24.4211 112.197 24.415H112.196V16.041C112.196 15.9032 112.232 15.7904 112.312 15.7129C112.392 15.6358 112.507 15.6016 112.649 15.6016H117.576C117.584 15.4908 117.593 15.4015 117.593 15.3086L117.584 14.1211C117.582 13.7244 117.584 13.327 117.608 12.9316C117.688 11.552 117.064 10.5247 116.05 9.67676C114.766 8.6029 113.245 8.10103 111.596 7.9541C109.201 7.74166 106.95 8.30523 104.785 9.29199C104.754 9.30597 104.717 9.34414 104.686 9.39648C104.655 9.44816 104.638 9.50357 104.637 9.54297C104.626 11.4917 104.633 13.4382 104.624 15.3887C104.624 15.5104 104.655 15.5552 104.69 15.5762C104.71 15.5882 104.736 15.5952 104.772 15.5996C104.808 15.604 104.849 15.6055 104.898 15.6055C106.445 15.6018 107.992 15.6025 109.538 15.6025H109.919C109.947 15.6025 109.969 15.6249 109.969 15.6523V24.417C109.969 24.4422 109.95 24.4638 109.925 24.4668C104.555 25.1076 99.1966 25.1076 93.8245 24.4668C93.7994 24.4638 93.7807 24.4422 93.7805 24.417V15.6543C93.7805 15.6267 93.8027 15.6035 93.8303 15.6035H94.1946C95.7509 15.6035 97.3089 15.6016 98.8655 15.6064C98.9691 15.6064 99.0324 15.5984 99.0715 15.5713C99.1053 15.5477 99.1331 15.4999 99.1331 15.3818C99.1331 13.4228 99.1426 11.4647 99.1487 9.50586C99.1487 9.48484 99.1464 9.46285 99.1428 9.43262C99.1404 9.41226 99.1373 9.38798 99.134 9.35938H98.8225C97.5809 9.35938 96.34 9.35402 95.0979 9.36621C94.9729 9.36745 94.8756 9.34899 94.8137 9.28418C94.753 9.22014 94.7389 9.12331 94.7395 9.00488C94.7468 6.33611 94.7468 3.66682 94.7395 0.998047C94.7395 0.872569 94.7612 0.776903 94.8254 0.712891C94.8891 0.649574 94.9835 0.627924 95.0979 0.621094L98.0364 0.433594C99.0164 0.37045 99.9971 0.309055 100.978 0.257812C102.045 0.201675 103.117 0.209175 104.184 0.188477C104.296 0.186036 104.409 0.188477 104.573 0.188477Z" fill="#89A5FF" stroke="#89A5FF" stroke-width="0.1" stroke-linejoin="round"/>
<path d="M31.5852 0.424805C34.502 0.19657 37.4231 0.12522 40.3469 0.290039C41.8401 0.37422 43.332 0.51951 44.8206 0.62793C44.9548 0.637862 45.0601 0.665647 45.1292 0.739258C45.1982 0.813124 45.2206 0.922046 45.22 1.06445C45.209 3.7538 45.2122 6.44226 45.2122 9.13184C45.2122 9.23336 45.2035 9.33618 45.1975 9.46289C45.1961 9.48944 45.1743 9.51074 45.1477 9.51074H41.677C42.9384 10.546 44.6975 11.9105 46.1575 13.0811C46.9939 12.3594 47.688 11.813 48.387 11.2695C49.0653 10.7421 49.7478 10.2174 50.5706 9.53809H47.4846C47.4572 9.53783 47.4348 9.51573 47.4348 9.48828V0.722656C47.435 0.697311 47.4545 0.676576 47.4797 0.673828C48.0761 0.61051 48.6803 0.536878 49.2844 0.484375C52.4431 0.209789 55.6074 0.113019 58.7756 0.290039C60.2788 0.374227 61.7798 0.520476 63.2795 0.633789C63.3873 0.641781 63.4819 0.661351 63.5471 0.72168C63.6141 0.783763 63.6395 0.878491 63.6389 1.00879C63.6291 3.7385 63.6323 6.46831 63.6311 9.19824C63.6311 9.27948 63.6187 9.36445 63.6106 9.47461C63.6087 9.50071 63.587 9.52146 63.5608 9.52148H63.1917C61.1965 9.52148 59.2018 9.51686 57.2083 9.53027H57.2073C57.0446 9.53039 56.8466 9.59687 56.7258 9.69922V9.7002C55.5019 10.7364 54.2795 11.5669 53.0618 12.3984C51.8435 13.2303 50.6293 14.0627 49.4172 15.1035C49.3689 15.1449 49.3247 15.2098 49.2922 15.2832C49.2598 15.3565 49.241 15.4342 49.2405 15.499C49.2399 15.5463 49.2354 15.5995 49.2317 15.6484C49.2278 15.6987 49.2253 15.7457 49.2278 15.7861C49.2303 15.8274 49.2372 15.855 49.2483 15.8711C49.2568 15.8833 49.2704 15.8926 49.301 15.8926C50.0287 15.8871 50.8072 15.8877 51.5852 15.8877C52.3633 15.8877 53.1415 15.8873 53.8694 15.8818C53.9961 15.8812 54.0971 15.8978 54.1633 15.9619C54.2299 16.0264 54.2483 16.1269 54.2483 16.2559C54.2397 18.9756 54.2415 21.6942 54.2463 24.4141V24.415C54.2463 24.5201 54.2346 24.6105 54.1819 24.6768C54.1279 24.7445 54.0402 24.7758 53.9202 24.7891C51.4276 25.0637 48.9287 25.217 46.4211 25.2256C43.822 25.2341 41.2283 25.1101 38.6458 24.8135C38.5011 24.7969 38.3885 24.7829 38.303 24.7627C38.2171 24.7424 38.1495 24.7135 38.1028 24.6592C38.0563 24.6051 38.0371 24.5334 38.0276 24.4443C38.0181 24.3554 38.0178 24.2398 38.0178 24.0918V15.9385C38.0178 15.911 38.0402 15.8888 38.0676 15.8887H43.3342C43.3344 15.8844 43.335 15.8798 43.3352 15.875C43.3368 15.8376 43.3392 15.7862 43.3401 15.7295C43.342 15.6143 43.3397 15.4825 43.3254 15.4033C43.3082 15.3081 43.2985 15.2596 43.2795 15.2207C43.2616 15.1841 43.2333 15.1524 43.1692 15.0977C42.2607 14.3221 41.3531 13.6615 40.4446 13.0293L38.6262 11.7773C37.7162 11.1447 36.8048 10.4828 35.8918 9.70605C35.769 9.6016 35.5721 9.52946 35.4114 9.52832C33.4276 9.51491 31.4425 9.52051 29.4583 9.52051H29.0637C29.0361 9.52051 29.0139 9.49734 29.0139 9.46973V0.712891C29.0141 0.68733 29.0334 0.665562 29.0588 0.663086C29.9044 0.582683 30.7441 0.490712 31.5852 0.424805Z" fill="#89A5FF" stroke="#89A5FF" stroke-width="0.1" stroke-linejoin="round"/>
<path d="M142.838 0.200195C145.072 0.195315 147.3 0.319218 149.475 0.919922C151.243 1.40938 152.855 2.18808 154.164 3.51465C155.454 4.82054 156.194 6.41213 156.594 8.17285C156.85 9.29878 156.965 10.4415 156.969 11.5947V11.5957C156.969 11.6677 156.959 11.7423 156.949 11.8564L156.948 11.8555C156.948 11.8822 156.927 11.904 156.9 11.9043H132.848C132.978 12.4508 133.254 12.883 133.589 13.2832C134.401 14.2512 135.466 14.8563 136.633 15.3047H136.632C138.731 16.1101 140.923 16.3066 143.154 16.2227C145.365 16.1398 147.542 15.8302 149.649 15.1367C151.351 14.5768 152.941 13.8197 154.258 12.5801V12.5791C154.279 12.56 154.301 12.5446 154.324 12.5293C154.349 12.5133 154.373 12.4978 154.403 12.4775L154.422 12.4697C154.429 12.4684 154.437 12.468 154.444 12.4697C154.458 12.4732 154.469 12.4833 154.476 12.4961C154.518 12.5782 154.56 12.6491 154.591 12.7217C155.492 14.8186 156.386 16.9184 157.294 19.0127C157.338 19.1154 157.36 19.2049 157.344 19.292C157.327 19.3796 157.274 19.4558 157.192 19.5352C154.147 22.4584 150.552 24.291 146.368 24.9258C144.045 25.2787 141.704 25.4219 139.359 25.1406C136.545 24.8029 134.049 23.775 132.12 21.6133C130.791 20.1225 129.998 18.3592 129.567 16.4316C129.119 14.4317 128.951 12.4065 129.23 10.3672C129.811 6.10335 132.146 3.15646 136.086 1.46289C138.239 0.537349 140.515 0.205084 142.838 0.200195ZM150.043 7.60059C146.65 6.46374 143.169 6.13148 139.619 6.53809C138.052 6.71821 136.522 7.06787 135.088 7.74414C134.494 8.02396 133.931 8.35057 133.418 8.83203H152.618C151.773 8.28026 150.928 7.8966 150.043 7.60059Z" fill="#89A5FF" stroke="#89A5FF" stroke-width="0.1" stroke-linejoin="round"/>
<path d="M78.8086 0.0532227V0.0541992C81.0015 0.0676547 83.186 0.198012 85.3203 0.782715L85.6543 0.878418C87.3131 1.37276 88.8296 2.13282 90.0752 3.3833C91.4801 4.79211 92.2597 6.52646 92.6191 8.44678C93.164 11.3694 93.1355 14.2838 92.1719 17.1284C91.0145 20.5448 88.6408 22.7858 85.2656 23.9956C82.7958 24.8816 80.2351 25.099 77.6396 24.9829C75.7042 24.8974 73.8084 24.5793 71.9951 23.8608C68.1771 22.3481 65.8786 19.5479 65.0469 15.564C64.4711 12.8036 64.5248 10.0383 65.3066 7.31592C66.1911 4.23667 68.2183 2.20782 71.2168 1.12451C73.4344 0.324073 75.745 0.109384 78.0742 0.0532227C78.3193 0.0471062 78.566 0.0532216 78.8086 0.0532227ZM83.5898 8.55322C80.5822 8.19508 77.5666 8.19367 74.5547 8.48975C73.1176 8.63104 71.7007 8.87593 70.374 9.4751C69.7016 9.77928 69.1007 10.1718 68.6592 10.7651C67.596 12.196 67.972 14.1581 69.5029 15.1665C70.3674 15.7359 71.3428 16.0297 72.3496 16.2427C74.4736 16.6923 76.633 16.7448 78.7979 16.7632C78.7998 16.763 78.8017 16.7622 78.8037 16.7622C79.0187 16.7622 79.231 16.7659 79.4443 16.7622C81.5103 16.7207 83.5682 16.6446 85.5869 16.1763C86.4799 15.9695 87.3413 15.6897 88.1162 15.1929C89.9685 14.0036 90.0991 11.4986 88.3652 10.1431C88.0281 9.88006 87.6447 9.66112 87.2549 9.47803C86.0993 8.93518 84.8537 8.70427 83.5898 8.55322Z" fill="#89A5FF" stroke="#89A5FF" stroke-width="0.1" stroke-linejoin="round"/>
</svg>
