<svg width="1612" height="367" viewBox="0 0 1612 367" fill="none" xmlns="http://www.w3.org/2000/svg">
<path d="M198.157 359.468V357.67C199.012 357.67 199.853 357.695 200.695 357.695C202.25 357.695 203.538 357.657 204.762 357.594L206.751 357.479C211.608 357.198 216.632 356.905 221.591 356.14C227.979 355.146 232.237 352.902 234.609 349.268C236.955 345.672 237.299 340.955 235.68 334.873C233.104 325.26 230.121 315.621 227.227 306.301C226.551 304.121 225.875 301.953 225.212 299.773C221.158 286.603 217.065 273.445 212.934 260.211L206.814 240.525H157.728C133.006 240.525 108.271 240.525 83.5494 240.474C79.3547 240.474 76.9578 242.233 75.7338 246.16C70.9654 261.486 66.0694 277.053 61.3265 292.111C57.4123 304.542 53.4981 316.985 49.6094 329.429C48.6532 332.464 47.9775 335.855 47.5312 339.757C46.3965 349.727 52.2232 353.412 57.3231 354.75C63.239 356.306 69.2441 356.969 74.854 357.453C76.588 357.606 78.4495 357.67 80.6807 357.67C82.1597 357.67 83.6514 357.645 85.1559 357.606C85.3471 357.606 85.5511 357.606 85.7424 357.606V359.417H0V357.785C0.293245 357.759 0.586491 357.734 0.879736 357.708C2.23121 357.581 3.59544 357.479 4.94692 357.364C8.23637 357.096 11.6278 356.829 15.0065 356.306C25.2573 354.725 33.0857 348.72 37.0382 339.4C40.5698 331.074 43.8975 321.881 47.5312 310.47C65.5467 253.887 83.7789 196.334 101.412 140.669L112.683 105.097C121.442 77.455 132.955 41.0926 144.366 4.80672C145.909 4.90872 147.286 4.95972 148.573 4.95972C150.052 4.95972 151.391 4.89597 152.704 4.75572C152.87 4.74297 153.036 4.73022 153.189 4.73022C153.214 4.73022 153.24 4.73022 153.265 4.73022C153.342 4.88322 153.444 5.12547 153.584 5.54621C161.004 29.2353 168.654 53.2687 176.049 76.5243L178.484 84.1869C196.793 141.74 215.102 199.292 233.436 256.832C240.295 278.379 248.289 303.407 256.182 327.861C258.438 334.861 261.396 342.816 267.95 348.758C273.968 354.215 281.158 356.982 289.331 356.982C292.225 356.982 295.272 356.625 298.409 355.936C299.505 355.694 300.602 355.439 301.673 355.146C312.765 352.124 318.452 345.456 319.586 334.147C320.033 329.62 320.262 325.553 320.262 321.716C320.3 246.785 320.339 148.102 320.262 49.3162C320.262 44.3566 319.816 39.0527 318.962 33.5575C317.559 24.6327 312.064 18.5 303.879 16.7405C297.376 15.3381 290.721 14.6368 284.282 13.9483C282.421 13.7443 280.559 13.5531 278.71 13.3363C277.729 13.2216 276.683 13.1706 275.434 13.1706C275.013 13.1706 274.58 13.1706 274.146 13.1833V11.5641H386.484V13.1323C385.796 13.1578 385.12 13.1833 384.432 13.2088C380.008 13.3746 375.443 13.5531 370.93 13.9611C366.518 14.3563 362.005 15.1341 357.517 16.256C347.776 18.7167 342 25.4741 340.815 35.776C340.305 40.2384 340.037 44.6498 340.037 48.8828C340.012 123.877 340.012 222.752 340.113 322.557C340.113 327.925 340.611 333.356 341.592 338.698C342.957 346.157 347.776 351.499 355.541 354.151C365.014 357.377 374.729 357.53 384.126 357.683H384.712C385.311 357.695 385.898 357.708 386.497 357.708V359.455H198.17L198.157 359.468ZM136.92 51.0247C119.81 105.492 102.738 159.972 85.6659 214.452C84.6841 217.575 83.7406 220.724 82.7589 223.95L79.8392 233.564H204.417L202.645 227.418C202.403 226.577 202.186 225.812 201.957 225.059C201.957 225.059 190.877 189.704 188.302 181.481L181.085 158.429C169.878 122.628 158.684 86.8261 147.451 51.0247C147.018 49.6477 142.071 34.1313 142.071 34.1313C142.071 34.1313 137.29 49.89 136.933 51.0247H136.92Z" fill="white"/>
<path d="M1559.52 366.774C1558.67 366.774 1557.82 366.761 1556.95 366.735C1543.66 366.315 1531.3 361.725 1519.19 352.723L1518.82 352.43C1518.6 352.252 1518.37 352.086 1518.14 351.92C1515.04 349.676 1512.44 348.631 1509.96 348.631C1505.76 348.631 1502.61 351.55 1500.59 357.326C1500.46 357.696 1500.32 358.053 1500.18 358.41C1500.06 358.716 1499.94 359.034 1499.82 359.353C1499.35 360.628 1498.87 361.941 1498.56 362.541C1498.34 362.566 1497.96 362.592 1497.34 362.592C1496.77 362.592 1496.15 362.579 1495.42 362.553C1493.97 359.825 1489.69 359.736 1489.14 359.723C1473.23 359.685 1457.31 359.685 1441.4 359.685H1419.06V357.823C1419.12 357.823 1419.17 357.823 1419.23 357.823C1421.96 357.645 1424.78 357.453 1427.58 356.994C1439.59 355.056 1445.18 349.051 1446.26 336.926C1446.73 331.673 1446.94 327.657 1446.95 323.896C1447 283.964 1446.99 244.044 1446.99 204.112V182.603C1446.99 171.74 1445.33 163.695 1441.61 156.491C1436.47 146.546 1428 141.179 1416.43 140.554C1415.48 140.503 1414.54 140.477 1413.62 140.477C1400.17 140.477 1387.48 145.845 1374.81 156.899C1369.35 161.668 1364.32 166.959 1359.46 172.097L1356.79 174.902C1355.16 176.61 1354.1 179.415 1354.09 182.055C1354.02 229.484 1354.02 277.461 1354.09 324.623C1354.09 329.697 1354.44 334.147 1355.14 338.239C1357.34 351.232 1363.73 356.816 1377.17 357.543C1378.74 357.632 1380.32 357.696 1381.92 357.772V359.493H1308.23V357.798C1309.49 357.721 1310.77 357.645 1312.03 357.594C1328.13 356.956 1335.49 349.855 1336.61 333.854C1336.87 330.182 1336.99 326.357 1336.99 322.149C1337.03 269.238 1337.07 217.397 1337.02 164.957C1337.02 160.138 1336.66 155.471 1335.96 151.073C1334.64 142.747 1329.15 141.497 1326 141.497C1325.05 141.497 1324 141.612 1322.91 141.829C1319.03 142.607 1315.34 143.716 1311.44 144.876C1310.82 145.055 1310.19 145.246 1309.57 145.437L1308.83 143.627L1324.88 137.073L1334.43 133.185C1339.68 131.043 1344.94 128.913 1350.19 126.759C1350.45 126.657 1350.71 126.606 1351.01 126.606C1352.38 126.606 1354.04 127.791 1354.04 129.258C1354.05 136.793 1354.05 144.328 1354.05 151.863C1354.05 159.456 1354.09 165.64 1354.05 172.993C1360.11 167.576 1365.79 162.149 1371.19 156.096C1376.06 150.626 1381.11 144.965 1386.5 140.018C1396.87 130.52 1408.95 125.7 1422.43 125.7C1424.06 125.7 1425.73 125.777 1427.42 125.917C1442.65 127.205 1452.92 134.893 1458.79 149.415C1463.51 161.094 1464.16 173.219 1464.17 183.534C1464.19 201.855 1464.2 220.164 1464.21 238.485C1464.21 268.536 1464.24 298.588 1464.3 328.639C1464.3 333.05 1464.98 337.347 1465.63 340.968C1467.14 349.357 1472.47 354.852 1480.63 356.433C1483.08 356.905 1485.49 357.198 1488.04 357.504C1489.19 357.645 1490.36 357.785 1491.59 357.951L1496.02 358.55L1494.08 276.429C1494.49 276.403 1494.85 276.39 1495.16 276.39H1495.26C1495.46 277.257 1495.68 278.736 1495.82 279.705C1498.42 297.988 1502.56 312.255 1508.89 324.597C1516.84 340.139 1526.38 349.829 1538.9 355.12C1545.61 357.951 1552.07 359.391 1558.1 359.391C1565.56 359.391 1572.58 357.224 1578.99 352.953C1587.39 347.343 1592.47 338.494 1594.51 325.936C1595.99 316.871 1596.96 304.95 1591.39 293.156C1586.8 283.441 1579.5 276.021 1573.66 270.64C1565.46 263.092 1557.04 255.506 1548.91 248.162C1539.93 240.066 1530.65 231.702 1521.64 223.351C1512.16 214.579 1505.76 206.483 1501.53 197.864C1494.02 182.616 1495.18 162.407 1504.41 147.579C1513.17 133.516 1528.09 125.764 1546.43 125.764C1546.82 125.764 1547.2 125.764 1547.58 125.764C1560.33 125.981 1571.51 130.316 1581.74 139.011C1581.92 139.164 1582.1 139.317 1582.26 139.47C1582.7 139.853 1583.13 140.235 1583.6 140.592C1586.06 142.454 1588.48 143.41 1590.8 143.41C1592.87 143.41 1597.87 142.568 1599.59 134.804C1599.7 134.307 1599.78 133.797 1599.86 133.274C1599.89 133.019 1599.93 132.751 1599.97 132.496C1600.19 131.361 1600.56 129.398 1600.89 128.518C1600.93 128.518 1600.97 128.518 1601 128.518C1601.53 128.518 1602.22 128.582 1603.03 128.697V195.735H1601.93C1601.74 194.779 1601.57 193.835 1601.37 192.892C1600.53 188.544 1599.65 184.043 1598.48 179.645C1594.58 165.008 1588.32 153.852 1579.33 145.539C1570.51 137.379 1560.42 133.248 1549.37 133.248C1545.81 133.248 1542.14 133.695 1538.44 134.562C1517.88 139.406 1510.15 158.544 1511.62 175.361C1512.97 190.954 1522.68 201.676 1531.01 209.288C1538.53 216.16 1546.32 222.943 1553.87 229.509C1559.01 233.972 1564.31 238.587 1569.46 243.177C1581.73 254.104 1592.53 264.15 1600.47 276.594C1613.6 297.185 1614.8 318.847 1604 340.968C1595.65 358.078 1580.68 366.761 1559.52 366.761V366.774Z" fill="white"/>
<path d="M858.125 366.901C841.908 366.901 829.859 357.81 824.211 341.299C821.253 332.668 819.825 323.36 819.825 312.854V298.702C819.85 258.081 819.876 216.071 819.799 174.749C819.787 167.966 819.366 161.298 818.563 154.961C817.734 148.42 813.578 144.506 807.445 144.506C806.463 144.506 805.418 144.608 804.334 144.799C800.624 145.475 797.092 146.38 793.344 147.337C792.655 147.515 791.979 147.681 791.278 147.859L790.284 146.062L791.112 145.819C791.648 145.666 792.145 145.526 792.617 145.386C793.586 145.118 794.504 144.85 795.422 144.532C802.46 142.071 809.498 139.61 816.548 137.15C822.49 135.071 828.444 132.993 834.385 130.915C835.647 130.915 837.126 132.228 837.177 132.878C837.216 133.35 837.203 133.809 837.177 134.281C837.177 134.561 837.177 134.842 837.177 135.135V174.8C837.177 219.488 837.177 264.176 837.216 308.864C837.216 318.401 838.389 326.063 840.9 332.974C845.49 345.634 855.078 352.608 867.917 352.608C869.855 352.608 871.87 352.443 873.91 352.124C886.086 350.199 897.369 344.627 908.423 335.09C913.23 330.946 917.578 326.267 921.785 321.741C922.843 320.594 923.914 319.446 924.985 318.311C926.49 316.718 927.459 314.142 927.459 311.745C927.548 258.961 927.548 211.494 927.484 166.64C927.484 162.598 927.051 158.416 926.222 154.234C924.998 148.038 920.982 144.493 915.219 144.493C914.288 144.493 913.294 144.583 912.274 144.774C908.487 145.462 904.866 146.38 901.016 147.362C900.455 147.502 899.894 147.655 899.32 147.796L898.721 146.087L941.917 131.004C942.032 130.966 942.146 130.953 942.287 130.953C943.447 130.953 944.875 132.164 944.913 133.197C944.939 133.873 944.926 134.536 944.913 135.212V136.219V171.982C944.913 223.045 944.913 275.842 944.99 327.784C944.99 332.362 945.41 336.952 946.226 341.414C947.272 347.126 950.816 350.403 955.967 350.403C956.974 350.403 958.045 350.275 959.155 350.007C963.273 349.038 967.2 347.814 971.356 346.527C972.032 346.31 972.72 346.106 973.409 345.889L974.123 347.661C973.09 348.12 972.083 348.554 971.063 348.987L955.113 355.706C947.45 358.932 939.788 362.158 932.138 365.396C931.908 365.486 931.666 365.537 931.386 365.537C929.996 365.537 928.275 364.262 928.249 362.77C928.096 356.484 927.956 350.186 927.816 343.9L927.535 331.609C927.535 331.163 927.497 330.73 927.433 329.977L927.318 328.46L926.643 319.166L920.587 326.254C920.128 326.79 919.732 327.223 919.388 327.619C918.661 328.435 918.024 329.149 917.45 329.99C909.124 342.204 899.651 351.384 888.495 358.065C879.443 363.497 870.199 366.365 860.242 366.85C859.515 366.888 858.788 366.901 858.074 366.901H858.125ZM726.139 362.273C724.189 362.273 722.263 362.12 720.428 361.801C710.534 360.105 705.969 353.131 706.836 341.057C707.55 331.214 710.674 321.996 713.989 312.23C714.818 309.794 715.646 307.359 716.424 304.911C730.946 259.752 745.506 214.605 760.067 169.458L781.435 103.171C788.881 80.0432 795.129 60.6125 801.401 40.9268C802.128 38.6574 802.676 36.1202 803.084 33.175C804.232 24.7983 800.152 18.1557 792.693 16.2305C787.453 14.879 782.073 14.216 776.858 13.5785C774.984 13.349 773.097 13.1195 771.235 12.8518C771.388 12.3673 771.541 11.8956 771.707 11.4493C775.035 11.3218 778.477 11.2581 781.805 11.1816C787.147 11.0796 792.681 10.9648 798.15 10.6078C803.48 10.2636 810.441 9.62609 817.096 7.82837C822.12 6.46415 827.067 3.95244 831.045 0.739488C831.363 0.484492 831.733 0.203997 832.103 0L784.164 147.898H784.202L782.239 153.903C780.964 157.817 779.714 161.616 778.49 165.403L768.214 197.086C755.477 236.356 742.306 276.977 729.442 316.947C727.746 322.2 726.713 327.631 725.719 332.872L725.425 334.389C724.979 336.722 724.992 339.399 725.464 342.345C726.56 349.153 730.908 353.067 737.372 353.067C738.277 353.067 739.259 352.991 740.253 352.838C748.579 351.576 754.52 346.833 758.766 342.829C770.496 331.813 778.426 318.235 784.942 306.365C787.785 301.201 790.577 295.629 793.752 288.847C793.879 288.579 793.981 288.4 794.045 288.298C794.109 288.298 794.185 288.298 794.262 288.298C794.619 288.337 794.988 288.349 795.384 288.375C794.045 291.435 792.783 294.342 791.406 297.172C781.729 317.177 771.988 331.992 760.742 343.798C753.488 351.423 744.435 359.506 732.323 361.737C730.321 362.107 728.23 362.298 726.114 362.298L726.139 362.273Z" fill="white"/>
<path d="M1228 366.875C1212.59 366.875 1197.8 361.367 1186.36 351.384C1170.97 337.946 1160.6 320.262 1153.74 295.731C1149.7 281.26 1147.65 265.132 1147.47 246.453C1147.95 218.187 1152.3 195.62 1161.15 175.539C1169.87 155.726 1180.99 142.453 1196.11 133.784C1205.26 128.531 1215.85 125.764 1226.72 125.764C1243.04 125.764 1259.03 132.062 1270.57 143.053C1286.29 158.008 1296.58 177.12 1302.02 201.472C1311.15 242.272 1308.35 281.044 1293.68 316.73C1285.93 335.6 1274.94 349.115 1260.1 358.052C1250.5 363.841 1239.39 366.888 1228 366.888V366.875ZM1221.67 133.758C1208.67 133.758 1196.26 139.852 1187.64 150.46C1179.76 160.163 1174.35 171.905 1170.6 187.422C1166.4 204.749 1165.09 223.925 1166.57 246.045C1168.01 267.58 1171.49 286.322 1177.24 303.33C1183.74 322.595 1191.51 335.791 1202.41 346.119C1211 354.253 1222.06 358.741 1233.53 358.741C1242.12 358.741 1250.31 356.191 1257.22 351.346C1265.48 345.558 1271.97 337.27 1277.06 326.025C1286.99 304.032 1288.61 280.814 1288.89 261.001V260.861V260.72C1288.8 259.178 1288.7 257.482 1288.61 255.672C1288.37 251.26 1288.09 246.262 1287.7 241.213C1286.02 219.653 1281.95 200.592 1275.25 182.934C1268.96 166.385 1261.43 154.515 1251.51 145.564C1243.07 137.953 1232.48 133.745 1221.71 133.745L1221.67 133.758Z" fill="white"/>
<path d="M602.338 365.664C580.294 365.664 564.102 351.92 557.905 327.95C554.641 315.302 553.915 301.583 555.623 284.766C558.301 258.489 566.091 232.607 578.802 207.86C592.674 180.83 608.956 160.329 628.539 145.169C641.365 135.25 653.975 129.487 667.082 127.549C669.606 127.179 672.143 126.988 674.617 126.988C691.931 126.988 706.491 136.066 714.562 151.914C720.58 163.72 723.334 176.954 723.245 193.567C722.837 224.842 714.957 254.932 699.173 285.557C687.902 307.423 674.642 325.12 658.667 339.667C645.152 351.971 632.453 359.48 618.696 363.305C613.074 364.873 607.566 365.664 602.338 365.664ZM667.987 134.701C665.412 134.701 662.772 134.982 660.133 135.543C647.804 138.144 638.548 145.845 631.854 152.271C619.487 164.166 609.185 178.816 599.444 198.361C584.412 228.514 575.717 259.662 573.6 290.937C572.784 302.935 572.529 317.087 576.826 331.086C579.057 338.341 583.239 348.617 593.911 354.062C598.947 356.637 604.213 357.938 609.568 357.938C615.853 357.938 622.432 356.127 629.113 352.57C639.937 346.794 649.627 338.073 658.731 325.885C686.767 288.349 702.756 243.967 704.961 197.532V197.316C704.821 179.81 703.725 167.354 698.548 155.522C692.849 142.479 681.413 134.689 667.974 134.689L667.987 134.701Z" fill="white"/>
<path d="M1033.79 366.863C1032.84 366.863 1031.87 366.837 1030.87 366.786C1013.62 365.881 1003.84 358.269 998.169 341.312C993.923 328.626 992.839 315.213 992.304 302.617L992.278 302.005C992.163 299.429 992.061 296.764 992.049 294.189C992.049 253.479 992.049 212.756 992.049 172.046V140.936H960.314V135.594C961.181 135.39 962.048 135.199 962.903 135.008C966.983 134.09 971.203 133.133 975.193 131.476C986.388 126.797 994.05 117.757 999.316 103.006C1003.4 91.5691 1004.67 79.7883 1005.31 70.7615H1009.1V133.197H1063.18V140.72H1010.19L1009.92 144.264C1009.89 144.71 1009.85 145.118 1009.82 145.501C1009.75 146.33 1009.67 147.12 1009.67 147.961C1009.68 160.138 1009.69 172.314 1009.71 184.49C1009.73 221.222 1009.76 259.216 1009.96 296.586C1010.01 307.066 1010.66 320.772 1015.19 333.866C1017.37 340.165 1021.46 348.911 1031.88 352.226C1034.57 353.08 1037.32 353.514 1040.06 353.514C1048.35 353.514 1056.09 349.561 1061.31 342.676C1067.6 334.376 1070.23 324.635 1072.13 315.354C1075.04 301.189 1075.46 286.73 1075.87 272.744V272.616H1078.62C1078.63 274.835 1078.65 276.951 1078.58 279.093C1078.01 297.351 1077.18 313.76 1073 329.595C1071.49 335.294 1069.5 340.777 1067.09 345.889C1060.43 360.003 1049.54 366.863 1033.78 366.863H1033.79Z" fill="white"/>
<path d="M482.044 365.588C461.836 365.167 447.136 359.366 435.801 347.343C429.885 341.07 426.468 333.739 425.652 325.553C424.964 318.707 427.883 313.887 433.442 312.663C434.245 312.485 434.985 312.395 435.635 312.395C437.152 312.395 438.733 312.765 440.008 315.481C441.487 318.604 442.635 321.894 443.846 325.362C444.165 326.293 444.496 327.223 444.828 328.141C447.799 336.454 452.044 345.838 460.944 352.417C468.236 357.81 476.69 360.653 485.41 360.653C505.759 360.653 522.627 345.672 525.521 325.03C527.867 308.328 524.259 292.123 514.505 275.523L514.365 275.293C504.497 258.502 494.31 241.137 484.582 223.912C476.906 210.308 473.311 198.489 473.298 186.695C473.247 157.957 492.13 134.51 520.294 128.352C525.878 127.128 531.208 126.516 536.155 126.516C546.507 126.516 555.598 129.117 563.962 134.459C572.479 139.903 577.566 146.572 579.504 154.846C580.358 158.493 579.823 161.973 578.012 164.638C576.431 166.946 574.072 168.399 571.191 168.807C570.77 168.871 570.35 168.896 569.954 168.896C567.953 168.896 566.512 168.08 565.441 166.334C564.37 164.6 563.516 162.636 562.623 160.558C562.279 159.768 561.935 158.977 561.578 158.187C561.029 157.001 560.519 155.79 560.009 154.578C558.989 152.169 557.944 149.682 556.618 147.273C551.556 138.042 543.371 132.827 532.291 131.744C530.634 131.578 528.989 131.501 527.383 131.501C504.765 131.501 489.159 147.26 488.56 170.707C488.203 184.54 492.015 198.54 500.226 213.482C506.562 225.021 513.192 236.636 519.605 247.869C523.634 254.932 527.676 262.008 531.667 269.097C538.985 282.115 542.223 294.418 541.548 306.696C539.878 336.951 521.186 359.085 492.742 364.478C489.911 365.014 486.928 365.218 484.518 365.383C483.6 365.447 482.758 365.498 482.032 365.575L482.044 365.588Z" fill="white"/>
<path d="M1071.82 359.429V357.823C1072 357.823 1072.17 357.797 1072.35 357.785C1075.27 357.568 1078.3 357.351 1081.28 356.93C1092.33 355.375 1097.85 350.135 1099.72 339.399C1100.58 334.555 1100.97 329.225 1100.97 322.621C1101.03 266.42 1100.97 209.224 1100.92 160.035C1100.92 157.001 1100.54 154.081 1100.19 151.875C1098.71 142.16 1091.97 141.115 1089.14 141.115C1087.93 141.115 1086.61 141.28 1085.24 141.599C1082.01 142.351 1078.93 143.308 1075.65 144.302C1075.28 144.417 1074.9 144.532 1074.51 144.646L1073.75 142.734L1076.75 141.535C1081.48 139.636 1086.12 137.787 1090.77 135.951C1097.97 133.121 1105.19 130.328 1112.42 127.536L1115.21 126.452C1116.26 126.478 1117.98 127.753 1118.17 128.48C1118.2 128.862 1118.2 129.41 1118.17 129.984C1118.17 130.303 1118.17 130.634 1118.17 130.953V168.425C1118.2 220.278 1118.21 273.891 1118.28 326.624C1118.28 330.704 1118.71 335.167 1119.53 339.897C1121.29 349.969 1126.85 355.362 1137.05 356.841C1139.47 357.198 1141.9 357.338 1144.23 357.491C1145.3 357.555 1146.36 357.619 1147.43 357.708V359.429H1071.85H1071.82Z" fill="white"/>
</svg>
