<svg width="51" height="17" viewBox="0 0 51 17" fill="none" xmlns="http://www.w3.org/2000/svg">
<path d="M50.8597 1.09326V12.2082H49.2388V1.09326H50.8597Z" fill="black"/>
<path d="M47.0754 4.33474V12.2078H45.4545V4.33474H47.0754ZM47.3842 1.97282C47.3842 2.55944 46.9056 3.09975 46.2727 3.09975C45.6706 3.09975 45.1458 2.60575 45.1458 1.97282C45.1458 1.35532 45.6706 0.861328 46.2727 0.861328C46.9056 0.861328 47.3842 1.40164 47.3842 1.97282Z" fill="black"/>
<path fill-rule="evenodd" clip-rule="evenodd" d="M39.0553 4.13379C36.7664 4.13379 34.9241 6.01204 34.9241 8.31254C34.9241 10.613 36.7664 12.4913 39.0553 12.4913C40.1071 12.4913 41.0645 12.0948 41.7923 11.4429L42.1481 12.2063H43.3764V4.32371H42.1481L41.7686 5.16112C41.0438 4.52181 40.0957 4.13379 39.0553 4.13379ZM39.1503 5.70037C37.7383 5.70037 36.5804 6.86253 36.5804 8.31254C36.5804 9.76261 37.7383 10.9247 39.1503 10.9247C40.5624 10.9247 41.7203 9.76261 41.7203 8.31254C41.7203 6.86253 40.5624 5.70037 39.1503 5.70037Z" fill="black"/>
<path d="M24.7924 5.75473C23.6963 5.75473 22.8472 6.58835 22.8472 7.69984V12.2076H21.2263V4.33447H22.4689L22.8472 5.06003C23.403 4.45797 24.2057 4.13379 25.0702 4.13379C26.0891 4.13379 26.9381 4.58147 27.5093 5.35334C28.1577 4.59691 29.1303 4.13379 30.2417 4.13379C32.2332 4.13379 33.5608 5.60036 33.5608 7.69984V12.2076H31.9399V7.76159C31.9399 6.55747 31.2297 5.75473 30.1491 5.75473C29.0531 5.75473 28.204 6.58835 28.204 7.69984V12.2076H26.5831V7.76159C26.5831 6.55747 25.873 5.75473 24.7924 5.75473Z" fill="black"/>
<path d="M10.7578 8.27003C10.7578 9.6418 9.64181 10.7578 8.27003 10.7578C6.89826 10.7578 5.7823 9.6418 5.7823 8.27003C5.7823 6.89825 6.89826 5.78229 8.27003 5.78229C9.64181 5.78229 10.7578 6.89825 10.7578 8.27003ZM8.27003 0C3.71014 0 0 3.71014 0 8.27003C0 12.8299 3.71014 16.5401 8.27003 16.5401C9.94058 16.5401 11.5517 16.0428 12.9286 15.1016L12.9524 15.085L11.8381 13.7898L11.8194 13.8022C10.7593 14.4839 9.53171 14.8447 8.27003 14.8447C4.64466 14.8447 1.69536 11.8954 1.69536 8.27003C1.69536 4.64466 4.64466 1.69536 8.27003 1.69536C11.8954 1.69536 14.8447 4.64466 14.8447 8.27003C14.8447 8.73987 14.7925 9.2154 14.6896 9.68315C14.4819 10.5365 13.8843 10.7981 13.4357 10.7634C12.9844 10.7267 12.4567 10.4052 12.4531 9.61854V9.01896V8.27003C12.4531 5.96318 10.5769 4.08694 8.27003 4.08694C5.96319 4.08694 4.08694 5.96318 4.08694 8.27003C4.08694 10.5769 5.96319 12.4531 8.27003 12.4531C9.39062 12.4531 10.4414 12.0148 11.2338 11.2183C11.6943 11.9352 12.4453 12.3849 13.2998 12.4531C13.3731 12.4593 13.4481 12.4624 13.5225 12.4624C14.1237 12.4624 14.7202 12.2614 15.2008 11.8959C15.6965 11.5196 16.0666 10.9754 16.2713 10.3215C16.3039 10.2161 16.3638 9.97415 16.3643 9.9726L16.3659 9.96384C16.4863 9.43919 16.5401 8.91613 16.5401 8.27003C16.5401 3.71014 12.8299 0 8.27003 0Z" fill="black"/>
</svg>
