<svg width="85" height="20" viewBox="0 0 85 20" fill="none" xmlns="http://www.w3.org/2000/svg">
<g clip-path="url(#clip0_6584_1387)">
<path fill-rule="evenodd" clip-rule="evenodd" d="M9.45546 0.0371094C14.6887 0.0371094 18.9109 4.3964 18.9109 9.75384C18.9109 15.1113 14.6887 19.4909 9.45546 19.4909C4.22225 19.4909 0 15.1317 0 9.75384C0 4.37603 4.24207 0.0371094 9.45546 0.0371094ZM9.45546 1.89083C13.6975 1.89083 17.1269 5.41492 17.1269 9.77421C17.1269 12.6668 15.6005 15.2131 13.3209 16.578C13.7966 14.8668 13.9949 13.115 13.9156 11.0983C14.4112 11.2409 14.6887 11.3224 15.1842 11.4853C14.6094 9.99828 13.9949 8.65383 13.1821 7.28901C12.4685 8.69457 11.4972 10.0187 10.5259 11.0576L12.1117 10.9557C10.7439 13.4613 8.82113 14.6835 6.38293 15.0298C5.82789 12.1983 6.24417 7.57419 9.35635 5.41492L9.67351 6.96308C10.288 5.96493 11.4774 4.64084 12.3694 3.72417C10.962 3.1538 9.33652 2.97046 7.7507 3.27602C8.0084 3.50009 8.32556 3.78528 8.58326 4.00936C5.07463 5.53714 3.15182 8.04272 1.88316 10.9557C1.82369 10.5687 1.80387 10.1612 1.80387 9.77421C1.80387 5.41492 5.23321 1.89083 9.45546 1.89083Z" fill="black"/>
<path d="M27.3554 14.4795C27.3554 14.6221 27.3554 14.7647 27.3554 14.9073C26.9788 14.9073 26.622 14.9073 26.2454 14.9073C26.2454 15.1721 26.2454 15.4573 26.2454 15.7221H27.4744C27.4744 15.8647 27.4744 16.0073 27.4744 16.1499H25.7696V13.3184H27.4545C27.4545 13.461 27.4545 13.6035 27.4545 13.7461C27.0383 13.7461 26.6418 13.7461 26.2255 13.7461V14.4591C26.6022 14.4795 26.9788 14.4795 27.3554 14.4795ZM23.8468 16.1295H22.1619V13.3184C22.3204 13.3184 22.479 13.3184 22.6376 13.3184V15.7017H23.8666C23.8468 15.8443 23.8468 15.9869 23.8468 16.1295ZM32.8662 13.3387L32.2318 14.0924C32.1525 14.0517 32.0732 14.0313 31.994 13.9906L32.2318 13.3387C32.4301 13.3387 32.6481 13.3387 32.8662 13.3387ZM33.9961 13.848C33.9366 13.8887 33.8969 13.9702 33.8969 14.1128C33.8969 14.3573 33.9762 14.4387 34.1943 14.4795L34.6304 14.5202C35.0665 14.561 35.3242 14.8054 35.3242 15.2943V15.4573C35.3242 15.5795 35.3044 15.7017 35.2647 15.8036C35.2251 15.9054 35.1656 15.9869 35.0863 16.048C34.9872 16.1295 34.8683 16.1499 34.7493 16.1702C34.6304 16.1906 34.4916 16.1906 34.3727 16.1906H33.4807C33.4807 16.0276 33.4807 15.8647 33.4807 15.7017H34.452C34.4916 15.7017 34.5313 15.7017 34.5709 15.7017C34.7691 15.7017 34.8881 15.661 34.8683 15.3554C34.8683 15.2128 34.8286 15.1313 34.789 15.0906C34.7295 15.0499 34.6502 15.0295 34.5511 15.0091L34.0952 14.9684C33.9366 14.948 33.7582 14.9073 33.6392 14.785C33.5203 14.6628 33.441 14.4795 33.441 14.1739C33.441 14.1332 33.441 14.0924 33.441 14.0313C33.4608 13.7258 33.56 13.5424 33.7384 13.4406C33.9168 13.3387 34.1546 13.3184 34.3925 13.3184H35.2052C35.2052 13.4813 35.2052 13.6443 35.2052 13.8073H34.333C34.1745 13.8073 34.0555 13.8073 33.9961 13.848ZM39.5266 16.1295V13.3184H40.716C40.8151 13.3184 40.9538 13.3591 41.0728 13.4406C41.1917 13.5221 41.271 13.6647 41.271 13.8887V14.235C41.271 14.4795 41.1521 14.6017 41.0728 14.6832C41.1521 14.7443 41.271 14.8869 41.271 15.111V15.5591C41.271 15.8647 41.0133 16.1295 40.716 16.1295H39.5266ZM40.7556 14.948C40.7358 14.9276 40.6763 14.8869 40.6367 14.8869H39.9825V15.6813H40.6367C40.6763 15.6813 40.716 15.661 40.7556 15.6202C40.7754 15.5999 40.7953 15.5591 40.7953 15.498V15.0702C40.8151 15.0499 40.7953 14.9887 40.7556 14.948ZM40.7754 13.8073C40.7358 13.7665 40.6962 13.7461 40.6367 13.7461H39.9825V14.4591H40.6565C40.6962 14.4591 40.7358 14.4387 40.7754 14.398C40.8151 14.3573 40.8349 14.2961 40.8349 14.2554V13.9295C40.8151 13.9091 40.7953 13.848 40.7754 13.8073ZM57.9221 14.4795H59.0322C59.0322 14.6221 59.0322 14.7647 59.0322 14.9073H57.9221V15.7221H59.1511C59.1511 15.8647 59.1511 16.0073 59.1511 16.1499H57.4662V13.3184C58.0213 13.3184 58.5961 13.3184 59.1511 13.3184C59.1511 13.461 59.1511 13.6035 59.1511 13.7461H57.9221V14.4795ZM55.3254 16.1295H53.799V13.3184C53.9576 13.3184 54.1162 13.3184 54.2747 13.3184V15.7017H55.3254C55.3254 15.8443 55.3254 15.9869 55.3254 16.1295ZM51.9753 13.7665H51.2815V16.1295C51.1229 16.1295 50.9643 16.1295 50.8058 16.1295V13.7665H50.112C50.112 13.6239 50.112 13.4813 50.112 13.3387H51.9753C51.9753 13.4813 51.9753 13.6239 51.9753 13.7665ZM48.2685 13.7665H47.5747V16.1295C47.4161 16.1295 47.2575 16.1295 47.0989 16.1295V13.7665H46.4051C46.4051 13.6239 46.4051 13.4813 46.4051 13.3387H48.2685C48.2685 13.4813 48.2685 13.6239 48.2685 13.7665ZM43.4912 15.5387L43.3524 16.1499H42.8568L43.6101 13.3387C43.8083 13.3387 44.0066 13.3387 44.2246 13.3387L44.9779 16.1499C44.8193 16.1499 44.6409 16.1499 44.4823 16.1499L44.3237 15.5387H43.4912ZM43.5903 15.111H44.185L43.8876 13.8887L43.5903 15.111ZM31.0028 13.7665C30.7649 13.7665 30.5469 13.7665 30.309 13.7665V16.1295C30.1504 16.1295 29.9919 16.1295 29.8333 16.1295V13.7665C29.5954 13.7665 29.3774 13.7665 29.1395 13.7665C29.1395 13.6239 29.1395 13.4813 29.1395 13.3387H31.0028C31.0028 13.4813 31.0028 13.6239 31.0028 13.7665Z" fill="black"/>
<path d="M24.1244 5.65908L24.7984 9.61095H26.3049L27.97 3.39795H26.5032L25.5913 7.43131L24.957 3.39795H24.3028H23.946H23.2919L22.6575 7.43131L21.7457 3.39795H20.2788L21.9439 9.61095H23.4505L24.1244 5.65908Z" fill="black"/>
<path d="M28.9017 9.61095L29.1792 8.32761H30.7056L30.9831 9.61095H32.3509L30.6858 3.39795H29.1792L27.5339 9.61095H28.9017ZM29.9523 4.92574L30.4677 7.26834H29.4369L29.9523 4.92574Z" fill="black"/>
<path d="M34.3529 7.28903H35.1855L35.9982 9.61126H37.5048L36.4343 7.02421C36.8902 6.86124 37.1876 6.45383 37.1876 5.96494V4.57975C37.1876 4.00937 36.811 3.58159 36.3154 3.45937C35.9982 3.37789 35.6811 3.39826 35.3441 3.39826H33.0645V9.61126H34.3529V7.28903ZM34.3529 4.60012H35.4432C35.6811 4.60012 35.8991 4.72234 35.8991 5.00753V5.61864C35.8991 5.9242 35.7009 6.0668 35.4432 6.0668H34.3529V4.60012Z" fill="black"/>
<path d="M41.053 9.67228C41.6874 9.67228 42.064 9.48894 42.3812 9.2445V5.94448H40.3394V7.12596H41.0927C41.0927 7.53337 41.0927 7.87967 41.0927 8.30745C40.9738 8.32782 40.835 8.34819 40.6962 8.34819H40.1808C39.4474 8.34819 39.269 7.81856 39.269 7.24819V5.70003C39.269 5.10928 39.5267 4.6815 40.2205 4.6815H42.2821V3.35742H40.1412C38.9518 3.35742 38.0995 4.09076 37.9805 5.35373C37.9805 5.45558 37.9607 5.55744 37.9607 5.65929V7.45189C37.9607 8.75561 38.8329 9.67228 40.0223 9.67228H41.053Z" fill="black"/>
<path d="M44.1651 9.61095L44.4427 8.32761H45.969L46.2465 9.61095H47.6143L45.9492 3.39795H44.4427L42.7974 9.61095H44.1651ZM45.1959 4.92574L45.7113 7.26834H44.6805L45.1959 4.92574Z" fill="black"/>
<path d="M52.6297 5.80167V9.61095H53.8785V3.39795H52.253L51.0438 8.02205L49.8545 3.39795H48.229V9.61095H49.458V5.80167L50.3897 9.61095H51.698L52.6297 5.80167Z" fill="black"/>
<path d="M56.2372 9.61095V3.39795H54.9487V9.61095H56.2372Z" fill="black"/>
<path d="M61.768 9.61095V3.39795H60.5191V7.10538L58.5765 3.39795H57.3079V9.61095H58.5369V5.90352L60.4993 9.61095H61.768Z" fill="black"/>
<path d="M74.6327 9.61095V3.39795H73.3839V7.10538L71.4413 3.39795H70.1726V9.61095H71.4016V5.90352L73.3641 9.61095H74.6327Z" fill="black"/>
<path d="M79.2318 5.80167H76.9125V4.59981H79.4696V3.39795H75.624V9.61095H79.4696V8.40909H76.9125V6.98316H79.2318V5.80167Z" fill="black"/>
<path d="M84.3262 4.59981V3.39795H80.1238V4.59981H81.5907V9.61095H82.8791V4.59981H84.3262Z" fill="black"/>
<path d="M65.6136 9.67228C66.2479 9.67228 66.6246 9.48894 66.9417 9.2445V5.94448H64.9V7.12596H65.6532C65.6532 7.53337 65.6532 7.87967 65.6532 8.30745C65.5343 8.32782 65.3955 8.34819 65.2568 8.34819H64.7414C64.008 8.34819 63.8295 7.81856 63.8295 7.24819V5.70003C63.8295 5.10928 64.0872 4.6815 64.781 4.6815H66.8426V3.35742H64.7017C63.5124 3.35742 62.66 4.09076 62.5411 5.35373C62.5411 5.45558 62.5212 5.55744 62.5212 5.65929V7.45189C62.5212 8.75561 63.3934 9.67228 64.5828 9.67228H65.6136Z" fill="black"/>
<path fill-rule="evenodd" clip-rule="evenodd" d="M67.9724 8.4502H69.2206V9.71247H67.9724V8.4502Z" fill="black"/>
</g>
<defs>
<clipPath id="clip0_6584_1387">
<rect width="84.3261" height="19.5281" fill="white"/>
</clipPath>
</defs>
</svg>
