<svg width="34" height="15" viewBox="0 0 34 15" fill="none" xmlns="http://www.w3.org/2000/svg">
<path d="M13.47 9.20558C13.5329 7.137 14.392 5.52176 16.2866 4.60117C18.6367 3.45903 21.7333 4.23996 23.0049 6.99514C23.4612 7.98373 23.554 9.02717 23.4005 10.0977C23.2491 11.1542 22.7943 12.0683 22.0602 12.8346C21.3092 13.6177 20.3894 14.0988 19.3109 14.2597C18.3713 14.3993 17.4492 14.3277 16.5681 13.9657C15.2249 13.4144 14.3079 12.4382 13.7939 11.0848C13.5767 10.5122 13.4766 9.8739 13.4707 9.20485L13.47 9.20558ZM20.6541 9.23702C20.6402 8.66887 20.5576 8.13802 20.276 7.65762C19.8746 6.97321 19.294 6.57982 18.4802 6.57616C17.681 6.5725 17.0741 6.93445 16.7034 7.61813C16.1184 8.6952 16.1264 9.80736 16.7341 10.8713C17.4134 12.0609 19.0615 12.2189 19.9733 11.2054C20.4793 10.6431 20.6395 9.95141 20.6548 9.23702H20.6541Z" fill="black"/>
<path d="M24.6347 4.28055C24.6998 4.2769 24.7532 4.27105 24.8066 4.27105C25.6467 4.27105 26.4862 4.27397 27.3263 4.26739C27.4769 4.26593 27.5259 4.30907 27.5223 4.46189C27.5135 4.90573 27.5186 5.34958 27.5193 5.79342C27.5193 5.8563 27.5259 5.91919 27.5735 5.99523C27.651 5.88409 27.7277 5.77148 27.8074 5.66107C28.527 4.66444 29.4834 4.10506 30.7301 4.11238C32.3088 4.12261 33.5759 5.25306 33.7704 6.81126C33.8026 7.07011 33.8209 7.33188 33.8209 7.59219C33.8245 9.6966 33.8209 11.801 33.8275 13.9054C33.8275 14.0912 33.7785 14.1409 33.5935 14.1387C32.784 14.1284 31.9746 14.1343 31.1651 14.1343C31.0072 14.1343 30.928 14.0526 30.9275 13.8893C30.9275 12.0401 30.9304 10.1916 30.9253 8.34241C30.9238 7.78596 30.7893 7.26973 30.3762 6.86244C29.9587 6.45077 29.4475 6.36303 28.8911 6.44054C28.3778 6.51146 27.9647 6.76592 27.6429 7.16151C27.5676 7.25437 27.5237 7.40134 27.5237 7.52419C27.5164 9.63445 27.5186 11.7447 27.5186 13.8557C27.5186 14.0419 27.4265 14.135 27.2422 14.135C26.4386 14.135 25.635 14.1321 24.8322 14.138C24.6808 14.1394 24.6194 14.1087 24.6194 13.9391C24.6245 10.7766 24.623 7.61412 24.6238 4.45092C24.6238 4.39755 24.6304 4.3449 24.634 4.28128L24.6347 4.28055Z" fill="black"/>
<path d="M7.99034 5.2091C7.70005 5.62735 7.42658 6.02074 7.15311 6.41413C7.03173 6.58889 6.9045 6.75999 6.78897 6.9384C6.7217 7.04223 6.66101 7.05247 6.55206 6.99032C5.89032 6.61448 5.18982 6.34466 4.42644 6.27081C3.96505 6.22621 3.50073 6.19623 3.06493 6.40974C2.71907 6.57938 2.57649 6.91062 2.72785 7.26233C2.78488 7.39468 2.90992 7.54604 3.03861 7.59064C3.39763 7.71568 3.77274 7.79757 4.14493 7.88166C4.92074 8.05788 5.70605 8.19462 6.47236 8.40594C7.07999 8.57338 7.60427 8.91778 7.97279 9.44864C8.4978 10.2054 8.5541 11.0383 8.28502 11.8894C7.95817 12.9226 7.20722 13.5675 6.23398 13.9799C5.42161 14.3236 4.56756 14.3638 3.70547 14.3075C2.71688 14.2432 1.75023 14.0633 0.842798 13.6458C0.58395 13.5266 0.339727 13.3767 0.0881923 13.2421C-0.0163703 13.1866 -0.0229512 13.1215 0.0421262 13.022C0.40188 12.4656 0.758709 11.9077 1.11042 11.3461C1.18646 11.2247 1.24715 11.2013 1.38389 11.273C2.05221 11.6225 2.73004 11.9552 3.48099 12.0934C4.03013 12.1943 4.58219 12.2404 5.12328 12.0583C5.46037 11.945 5.73969 11.7534 5.7821 11.3578C5.81793 11.0266 5.69582 10.7641 5.38286 10.6551C5.01287 10.5264 4.62167 10.4548 4.23706 10.3707C3.4905 10.2069 2.72054 10.1411 2.00103 9.86031C1.14844 9.52761 0.470613 8.99821 0.254907 8.06958C-0.121664 6.45215 0.537153 4.95976 2.30521 4.38503C3.2375 4.08231 4.19099 4.05306 5.15619 4.19053C6.08847 4.32361 6.95788 4.6373 7.78122 5.08553C7.8441 5.11989 7.90479 5.15791 7.99034 5.20837V5.2091Z" fill="black"/>
<path d="M12.314 0V0.23618C12.314 4.78502 12.314 9.33385 12.314 13.8827C12.314 14.0499 12.2321 14.1337 12.0683 14.1342C11.2589 14.1342 10.4495 14.1306 9.64001 14.1379C9.47695 14.1393 9.41772 14.0977 9.41772 13.9251C9.42211 9.49764 9.42138 5.07092 9.41772 0.643462C9.41772 0.49064 9.46233 0.437993 9.61661 0.415325C10.4765 0.286633 11.3342 0.144779 12.1927 0.00804327C12.2219 0.00365603 12.2526 0.00365603 12.314 0Z" fill="black"/>
</svg>
