<svg width="61" height="39" viewBox="0 0 61 39" fill="none" xmlns="http://www.w3.org/2000/svg">
<mask id="path-1-outside-1_4473_1267" maskUnits="userSpaceOnUse" x="0.206055" y="-0.74231" width="61" height="40" fill="black">
<rect fill="white" x="0.206055" y="-0.74231" width="61" height="40"/>
<path d="M10.104 21.3102C10.849 21.0987 11.5713 21.1911 12.1738 21.7658C12.9787 22.5385 13.1213 23.5095 12.5419 24.6271C11.9532 25.7677 11.0698 26.6506 10.0074 27.3542C9.612 27.6163 9.18897 27.8376 8.84406 28.1731C8.51754 28.4997 8.53559 28.762 8.96313 28.969C9.2529 29.107 9.55667 29.2313 9.84644 29.3693C11.2401 30.027 11.6908 30.9795 11.3275 32.4834C10.5639 35.6157 7.22909 37.8143 4.05997 37.2808C1.76856 36.8989 0.94651 34.82 1.27578 33.2002L3.71248 32.1152C3.7058 32.2016 3.70228 32.2856 3.71065 32.3637C3.74095 32.6672 3.69243 33.015 3.69243 33.3436C3.7017 34.1714 4.07419 34.5532 4.89286 34.6175C6.12076 34.7094 7.03141 34.185 7.66611 33.1687C8.24085 32.2488 7.97881 31.2735 7.05435 30.7216C6.7784 30.5561 6.47511 30.4315 6.21296 30.2429C5.55984 29.7783 5.48153 29.2309 5.93229 28.5777C6.24506 28.1318 6.69582 27.8372 7.10964 27.5061C7.84082 26.9267 8.54478 26.3196 9.2116 25.6666C9.48748 25.3999 9.72253 25.1006 9.8191 24.7189C9.92934 24.2822 9.80018 24.1486 9.36347 24.2359C8.86686 24.3371 8.44336 24.6038 8.05248 24.8981C7.50522 25.3074 6.98518 25.7537 6.45171 26.186C6.24476 26.3543 6.02953 26.51 5.79743 26.6258L4.18572 25.2608C4.25571 25.1311 4.33972 25.0064 4.44209 24.9072C6.07026 23.2975 7.86878 21.9495 10.104 21.3102Z"/>
<path d="M22.2474 23.0677C22.6934 23.1045 22.9421 23.3345 23.0019 23.7712C23.0111 23.8262 23.011 23.8862 23.011 23.9413C22.9329 26.2456 23.1628 28.537 23.2364 30.8322C23.2404 30.9931 23.2428 31.1575 23.2352 31.3194L21.6126 32.34C21.3105 32.2388 21.152 32.0083 21.047 31.591C20.7849 30.5791 20.9043 29.5484 20.9273 28.5273C20.9272 27.803 20.6748 28.1558 20.5039 28.6792C20.0439 30.0866 19.5935 31.4991 19.1382 32.9111C19.0049 33.3251 18.8479 33.7321 18.6443 34.1139L16.1317 34.9243C16.1437 34.8383 16.1737 34.7395 16.2216 34.6267C17.2733 32.9033 18.3355 30.6767 19.0781 28.449C19.607 26.8623 20.1361 25.2754 20.9455 23.7991C21.2307 23.2841 21.645 23.0171 22.2474 23.0677Z"/>
<path d="M16.9992 24.0057C17.3144 23.9077 17.6271 23.8902 17.9329 23.9747L18.3412 25.2638C18.1692 25.4233 17.9555 25.5233 17.744 25.6253C16.8886 26.0438 16.0285 26.4487 15.2605 27.0189C15.118 27.1246 14.8836 27.2166 14.9568 27.4508C15.0303 27.6854 15.2649 27.6215 15.4488 27.6306C15.8628 27.6536 16.2865 27.5756 16.6912 27.7503C17.2243 27.9849 17.3162 28.3207 16.9348 28.7667C16.5531 29.2173 16.1066 29.6037 15.656 29.9853C15.3203 30.2658 14.9707 30.538 14.7545 30.9288C14.6487 31.1173 14.4739 31.3473 14.653 31.5588C14.8048 31.7428 15.0534 31.6504 15.2465 31.5952C15.665 31.4711 16.0791 31.3195 16.4883 31.1724C16.628 31.1225 16.7678 31.0733 16.9032 31.0728L16.3759 33.0034C15.4421 33.7386 14.0411 34.2607 13.1719 34.0562C12.2154 33.8308 11.7967 33.0858 12.1185 32.1614C12.4313 31.2693 13.0619 30.6112 13.7241 29.972C13.9127 29.7881 14.1336 29.6357 14.3359 29.4702C14.2853 29.461 13.434 29.3048 13.0522 29.1622L13.048 29.167C12.036 28.7852 11.7142 27.7958 12.4271 27.0001C13.6782 25.602 15.1963 24.5714 16.9992 24.0057Z"/>
<path d="M30.8612 22.767C30.9094 22.9567 30.8734 23.1697 30.8351 23.3666C30.6833 24.1115 30.5039 24.8522 30.3108 25.5834C29.8693 27.2575 29.6991 28.9828 29.4002 30.6846C29.3572 30.9326 29.2532 31.1357 29.1086 31.286H27.5922C27.5136 31.1821 27.4884 31.054 27.4914 30.91C27.5189 30.0703 28.0777 28.1139 27.8316 28.0583C27.6216 27.9945 27.1093 28.8673 26.8608 29.2861C26.5159 29.8748 26.2214 30.4964 25.7892 31.0345C25.4627 31.4437 25.0487 31.5677 24.5705 31.4482C24.1335 31.3332 24.0549 30.9284 23.9721 30.5558C23.7699 29.6223 23.9908 28.7022 24.1058 27.7825C24.253 26.6143 24.46 25.4545 24.6531 24.2955C24.6758 24.1618 24.7053 24.0295 24.7418 23.8994L26.4598 23.2706C26.5871 23.4319 26.6589 23.6425 26.6634 23.8957C26.6726 24.4061 26.6862 24.9214 26.5437 25.4272C26.4563 25.7307 26.2953 26.5951 26.5157 26.6416C26.856 26.7105 27.1875 25.9382 27.2933 25.731C27.7532 24.8342 28.1764 23.9185 28.7696 23.0999C28.8567 22.9795 28.9512 22.8677 29.0545 22.767H30.8612Z"/>
<path d="M37.2236 21.7154C38.1665 20.6531 39.4685 20.6254 40.2642 21.6601C40.6742 22.1977 40.7745 22.8006 40.6596 23.4219L39.3754 24.3034C39.2579 24.188 39.1916 23.9853 39.1008 23.8404C38.9492 23.5967 38.9991 23.1278 38.65 23.1412C38.3603 23.1504 38.2402 23.5645 38.116 23.8313C37.6424 24.8753 37.3248 25.9703 37.288 27.1246C37.2788 27.3544 37.3066 27.58 37.449 27.7777C37.7434 28.1824 38.0654 28.1915 38.3414 27.7637C38.5762 27.396 38.7818 27.0031 39.0103 26.6295L40.1506 26.9332C40.4545 28.4061 38.7092 30.3511 37.2145 30.1281C36.2717 29.9854 35.6281 29.2955 35.3981 28.1871C35.3522 27.9618 35.4113 27.6214 35.0621 27.6258C34.7402 27.6304 34.5748 27.8839 34.5287 28.2011C34.4597 28.7298 34.3811 29.2543 34.3167 29.783C34.2959 29.9662 34.2552 30.1208 34.1733 30.2356L32.9273 30.1949C32.8503 30.093 32.8021 29.9559 32.7894 29.7739C32.7665 29.4337 32.7852 29.0886 32.7761 28.7485C32.7715 28.5092 32.8373 27.9807 32.6169 28.0535C32.4776 28.0543 32.3849 28.8219 32.27 29.1944C32.1965 29.4288 32.1501 29.6731 32.072 29.9076C32.0386 30.0064 31.9956 30.0915 31.945 30.1633L30.7045 30.1232C30.632 29.9899 30.6013 29.8256 30.5909 29.65C30.5265 28.5416 30.7428 27.451 30.8715 26.361C30.9314 25.8316 31.1888 24.1208 31.2992 23.6011C31.3772 23.2327 31.5149 22.9435 31.6856 22.767H32.5391C32.8019 23.0084 32.7868 23.3974 32.7761 23.776C32.7686 24.131 32.4605 26.2918 32.6795 26.3379C32.8983 26.3835 32.9693 25.8639 33.0015 25.6156C33.1394 24.5211 33.2588 23.4262 33.5531 22.3593C33.6201 22.119 33.7297 21.9372 33.9133 21.8308L35.1933 22.0841C35.2497 22.2121 35.2808 22.3767 35.2875 22.5847C35.3013 23.1917 35.2182 23.799 35.186 24.406C35.1768 24.5578 34.9424 26.6638 35.1125 26.655C35.2827 26.6447 35.5911 24.9496 35.6234 24.8386C35.95 23.6935 36.4281 22.6214 37.2236 21.7154Z"/>
<path d="M48.6805 21.0003C48.6148 21.1532 48.5005 21.297 48.3737 21.4396C47.4907 22.4283 46.3962 23.1508 45.3569 23.951C43.9908 25.0043 43.9491 25.3676 44.9747 26.7382C45.6371 27.6259 46.3734 28.4401 47.2243 29.153C47.4144 29.3142 47.5164 29.4471 47.5323 29.5728L45.3933 30.2156C45.1631 30.1044 44.9404 29.9441 44.7354 29.7326C44.2663 29.2451 43.9628 28.6515 43.6455 28.0674C43.5628 27.9157 43.4705 27.7728 43.374 27.6349C43.2637 27.4787 43.1439 27.2903 42.9281 27.336C42.7075 27.382 42.6843 27.6074 42.6614 27.7959C42.6016 28.3063 42.5464 28.8127 42.5004 29.3232C42.4914 29.4298 42.471 29.5235 42.4415 29.605L40.981 29.7836C40.9061 29.6705 40.86 29.5265 40.8395 29.3554C40.7749 28.2974 41.222 25.5753 41.5023 23.7208C41.6207 22.953 41.7195 22.1814 41.9518 21.4292L43.9948 20.7999C44.0279 20.9048 44.0279 21.0252 44.0046 21.154C43.8988 21.7335 43.77 22.3088 43.6504 22.8836C43.6182 23.0399 43.5776 23.2901 43.6729 23.3435C43.7839 23.4052 43.9304 23.2284 44.027 23.1272C44.8227 22.2855 45.6143 21.4347 46.4054 20.5885C46.6537 20.3218 46.9251 20.0829 47.2608 19.9311C47.3258 19.9017 47.39 19.8779 47.4534 19.8601L48.6805 21.0003Z"/>
<path d="M59.8227 19.9056C59.9532 20.0577 60.0128 20.2778 59.9977 20.5702C59.9839 20.8138 59.9329 21.0621 59.8732 21.3011C59.3626 23.3478 58.9392 25.4136 58.5069 27.4788C58.4088 27.949 58.2329 28.2618 57.9711 28.4404L56.4718 28.2527C56.4235 28.15 56.3993 28.0231 56.4007 27.87C56.4007 27.47 56.3869 27.0695 56.4742 26.6787C56.5156 26.481 56.5661 26.2735 56.3685 26.0299V26.0159C55.9822 26.6046 55.6231 27.1569 55.2598 27.7042C55.0252 28.0583 54.7443 28.3759 54.3121 28.4818C53.475 28.6886 52.6838 28.095 52.6378 27.2303C52.5964 26.5267 52.6423 25.8227 52.7757 25.1283C53.0563 23.6519 53.3416 22.1796 53.659 20.7124C53.6842 20.5943 53.7176 20.4876 53.758 20.3922L55.3047 20.0879C55.6385 20.3248 55.6807 20.6354 55.6091 21.0161C55.3791 22.212 55.1588 23.4083 54.9427 24.6041C54.8875 24.9122 54.7124 25.3675 55.0344 25.4825C55.3747 25.6066 55.4988 25.1189 55.6644 24.8659C56.3956 23.7483 56.8652 22.4926 57.4401 21.2968C57.5919 20.9852 57.7514 20.6775 57.9292 20.3789L59.8227 19.9056Z"/>
<path d="M52.2466 19.9627C52.5303 20.1078 52.7165 20.416 52.7022 20.8412C52.6608 22.2946 52.2103 23.6841 51.9665 25.1053C51.8147 25.9883 51.7546 26.8762 51.5753 27.7546C51.5226 28.0127 51.4433 28.2062 51.3335 28.3445L49.8542 28.2266C49.7656 28.0755 49.7146 27.8772 49.6987 27.6258C49.662 27.0326 49.8134 26.4572 49.887 25.8731C49.9055 25.7353 49.9746 25.574 49.8093 25.4224V25.4133C49.4874 25.726 49.3765 26.1589 49.1604 26.5268C48.9398 26.9038 48.7276 27.29 48.415 27.6027C48.3025 27.7152 48.1838 27.8004 48.0639 27.8609L46.6982 27.2935C46.4192 26.7623 46.4191 26.1846 46.4929 25.6113C46.5803 24.9168 46.7089 24.2219 46.9941 23.5689C47.0202 23.5107 47.0536 23.4469 47.0931 23.3812L48.1969 22.8253C48.4408 22.9696 48.4745 23.2453 48.457 23.5002C48.4339 23.8219 48.3603 24.1393 48.3051 24.4564C48.2821 24.6036 48.1902 24.7879 48.3926 24.8477C48.5717 24.9026 48.6499 24.7143 48.7097 24.581C48.843 24.2867 48.9582 23.9828 49.0869 23.6886C49.5239 22.6537 50.0621 21.6691 50.6324 20.7033C50.6981 20.592 50.7695 20.4851 50.8505 20.3868L52.2466 19.9627Z"/>
<path fill-rule="evenodd" clip-rule="evenodd" d="M15.009 5.05345C15.1285 5.28262 15.2465 5.79149 15.2465 5.79149C15.0993 7.6773 14.699 9.69235 14.3954 11.7207C14.1701 13.2247 14.0001 14.7335 13.8851 16.2466C13.83 16.9823 13.9222 17.0381 14.6396 17.0151C14.6947 17.0151 14.7547 17.0149 14.8097 17.0103C16.4148 16.9092 16.9899 17.5486 16.7416 19.1444C16.6658 19.638 16.526 20.0996 16.3048 20.5198L13.6877 21.0909C13.6876 21.0845 13.6871 21.0778 13.6871 21.0714V20.9566C13.7054 19.7518 13.4984 19.6 12.2613 19.738C10.3203 19.9541 8.47105 20.5284 6.62667 21.131C6.02877 21.3241 5.42592 21.4944 4.80963 21.6048C4.43736 21.6703 4.07278 21.6893 3.71794 21.5902L3.54845 19.3279C3.88955 19.1516 4.26169 19.0421 4.63953 18.9743C5.83531 18.7535 6.53451 18.0819 6.99907 16.9368C8.41116 13.4502 9.91996 10.0001 11.401 6.54115C11.4708 6.37844 11.5465 6.21661 11.6258 6.05636L15.009 5.05345ZM12.4314 10.2214C12.2843 10.1709 12.1784 10.2853 12.1094 10.4049C12.0174 10.5704 11.9302 10.7411 11.8567 10.9158C11.5853 11.5643 11.3135 12.2128 11.056 12.8659C10.4672 14.3469 9.79591 15.7962 9.28997 17.314C9.18422 17.6359 9.11098 17.9351 9.6168 17.9167L9.62106 17.9118C10.7938 17.8796 11.2354 17.539 11.4654 16.3894C11.7368 15.051 11.9622 13.7029 12.206 12.3598C12.3164 11.762 12.4225 11.1637 12.5237 10.5659C12.5422 10.4463 12.6057 10.2766 12.4314 10.2214Z"/>
<path d="M59.2979 16.8183C59.385 17.1392 59.3003 17.4655 59.1095 17.7739C58.5438 18.689 57.7158 19.1997 56.8375 19.255C56.128 19.255 55.7068 19.0912 55.4906 18.7738L55.8041 17.7903C56.8238 17.6476 57.6385 17.1304 58.3617 16.4344L59.2979 16.8183Z"/>
<path d="M23.1994 8.60181C23.618 8.28902 24.0047 8.2156 24.5061 8.48699C24.9841 8.74455 25.0762 9.09904 25.0486 9.56348C24.9658 11.1226 24.7311 12.664 24.5517 14.2139C24.4439 15.1754 24.4311 18.9144 24.4235 19.8801L22.2474 20.5198C22.2095 20.4134 22.188 20.2911 22.183 20.1511C22.1371 18.9967 22.3255 15.1056 22.5141 13.9788C22.5551 13.7374 22.609 13.5005 22.4133 13.1921C21.9869 14.0722 21.5513 14.9434 21.1296 15.8281C20.8977 16.3135 20.6521 16.6171 20.3295 16.7703L18.4628 16.096C18.4497 16.0502 18.4379 16.0025 18.4282 15.9526C18.2949 15.2628 18.5194 14.8853 18.6344 14.2139C18.6757 13.9703 18.9894 13.2968 18.3466 13.0639C18.0274 13.0639 18.0478 13.3536 17.9742 13.5329C17.6339 14.3378 17.3028 15.1477 16.9579 15.9526C16.8957 16.0989 16.8171 16.2245 16.7191 16.3165C16.2863 16.0048 15.9879 15.9098 15.4488 15.8281C15.4621 15.6491 15.6098 15.1279 15.6742 14.9587C16.2584 13.4501 16.8472 11.9456 17.4451 10.4462C17.6015 10.0553 17.8178 9.70105 18.0891 9.37455C18.3834 9.02501 18.7654 8.81827 19.2069 8.73546C20.0301 8.57914 20.7015 9.09867 20.6971 9.93102C20.6924 10.5565 20.5961 11.1779 20.5409 11.8034C20.5179 12.0608 20.4214 12.3186 20.5501 12.5852C20.8258 12.553 20.8586 12.3095 20.9413 12.1393C21.3828 11.2333 21.8839 10.3545 22.4266 9.5082C22.6428 9.17246 22.8728 8.85018 23.1994 8.60181Z"/>
<path d="M28.6062 9.11332C28.697 9.21513 28.7646 9.35047 28.8018 9.52825C28.9304 10.1444 28.7924 10.7427 28.6499 11.3313C28.4751 12.0533 28.2776 12.7666 28.0983 13.4886C28.0477 13.6909 28.0197 13.8983 28.0059 14.1052C27.9967 14.2293 27.9694 14.3993 28.1256 14.4545C28.2818 14.5094 28.3513 14.3533 28.4294 14.2522C28.9766 13.5394 29.3582 12.7251 29.795 11.9479C30.209 11.2212 30.6096 10.4849 31.0143 9.75363C31.1192 9.56925 31.2469 9.40474 31.4128 9.27796L33.0385 9.90429C33.0368 9.98036 33.0304 10.0594 33.0148 10.14C32.8676 10.9035 32.707 11.6677 32.5598 12.4358C32.4403 13.0519 32.3524 13.6728 32.2099 14.2844C32.0995 14.7489 32.0905 15.2093 31.8606 16.2807L31.8697 16.2764C31.7915 16.6488 31.7086 17.0216 31.589 17.3802C31.5307 17.5525 31.4538 17.6913 31.3606 17.8L29.8436 17.7259C29.7496 17.5527 29.7174 17.312 29.7355 16.9939C29.7723 16.304 29.9428 15.6278 30.0945 14.915C29.7359 14.984 29.6712 15.2274 29.5563 15.4113C29.1194 16.1012 28.7141 16.8193 28.2496 17.4908C27.8771 18.0288 27.4399 18.5484 26.6767 18.4106C26.111 18.3048 25.6189 17.5042 25.582 16.6901C25.5452 15.8486 25.7017 15.0252 25.8949 14.2066C26.2552 12.6853 26.6225 11.1675 26.9501 9.6382L28.6062 9.11332Z"/>
<path d="M40.1815 4.87781C40.6033 4.82536 40.9606 4.84623 41.2392 4.93673L41.6888 6.91598C41.2392 7.09086 38.996 7.4746 38.4751 7.51802C37.7392 7.57781 37.3025 7.89085 37.1185 8.64494C36.5436 10.9677 35.9682 13.2912 35.6739 15.6738C35.6371 15.991 35.5862 16.3177 35.4758 16.6166C35.434 16.7321 35.3805 16.835 35.3179 16.9252H33.5932C33.4664 16.708 33.4274 16.4198 33.4893 16.0741C33.9262 13.664 34.3811 11.2533 35.025 8.88915C35.048 8.79725 35.0711 8.70465 35.0894 8.61274C35.3101 7.6701 35.2091 7.53202 34.2711 7.53199H33.5859C33.5796 7.53647 32.7104 7.52704 32.2749 7.48582C32.2749 7.48582 31.9136 7.39626 31.8606 7.36493L32.2238 5.72953C33.9519 5.53297 35.6803 5.37233 37.4083 5.19067C38.3327 5.09409 39.2572 4.99278 40.1815 4.87781Z"/>
<path fill-rule="evenodd" clip-rule="evenodd" d="M38.2357 9.61147C38.5577 8.39254 38.9077 8.15771 40.1542 8.3831C41.0004 8.53496 41.7182 8.95346 42.3758 9.48694C42.9275 9.93301 43.1068 10.5311 43.0793 11.115L43.0884 11.1108C43.0791 13.2126 41.8005 14.7397 39.6573 15.2503C39.2802 15.3377 39.1009 15.4805 39.0595 15.8621C39.0273 16.161 38.6348 18.362 38.5382 18.6471C38.5202 18.7031 38.4989 18.7557 38.4751 18.8051H36.7996C36.7599 18.7003 36.7985 18.488 36.7996 18.3664C36.8042 17.3684 37.3852 14.5097 37.5784 13.5438C37.8359 12.2378 37.8955 10.9038 38.2357 9.61147ZM40.3194 10.5264C40.0482 10.5356 39.9884 10.7703 39.9562 10.968C39.8574 11.5474 39.6941 12.0908 39.6252 12.8319C39.5888 12.9643 39.6391 13.0526 39.7678 13.121C39.9331 13.2078 40.2046 13.061 40.3194 12.9691C40.8253 12.5644 41.1364 11.517 40.9481 10.9007C40.8791 10.6661 40.5953 10.5172 40.3194 10.5264Z"/>
<path d="M46.129 7.22399C46.2178 7.36527 46.2721 7.54544 46.2851 7.76223C46.3264 8.37839 46.1562 8.96727 46.0367 9.56044C45.8619 10.4112 45.6869 11.2624 45.5075 12.1132H45.5124C45.9491 11.8695 46.1564 11.4834 46.3908 11.1248C47.09 10.0577 47.7525 8.97164 48.3689 7.85397C48.4858 7.64056 48.6128 7.43698 48.7729 7.27441L50.2764 7.42021C50.2819 7.46898 50.2846 7.52173 50.2825 7.57816C50.2687 7.8632 50.232 8.14857 50.1768 8.42441C49.7306 10.5816 49.2746 12.739 48.8239 14.8961C48.7697 15.1547 48.6937 15.3735 48.6009 15.5516L47.1156 15.6154C47.0219 15.3663 47.0021 15.0265 47.0627 14.6064C47.1639 13.8982 47.283 13.1897 47.4072 12.4218C47.1085 12.4954 47.0806 12.7023 46.9886 12.8495C46.3953 13.7969 45.8893 14.8089 45.1442 15.6598C44.9039 15.934 44.6423 16.1761 44.315 16.2873L42.9912 15.8335C42.9568 15.7318 42.9373 15.6131 42.9317 15.4757C42.9041 14.8503 42.923 14.2248 43.0471 13.604C43.4381 11.6492 43.6172 9.65247 44.2427 7.74826C44.3094 7.54827 44.3902 7.36885 44.5057 7.22399H46.129Z"/>
<path d="M57.9328 5.65784C58.0116 5.78983 58.0347 5.97581 58.0148 6.23072C57.9457 7.09062 57.6141 7.89098 57.4255 8.7233C57.0438 10.4297 56.6666 12.1369 56.4596 13.8755C56.4357 14.0823 56.3031 14.8356 56.236 15.0322L54.7118 15.4757C54.6681 15.3805 54.6435 15.2717 54.6353 15.1549C54.6123 14.7963 54.7256 13.8842 54.7118 13.5256C54.7118 13.3831 54.7531 13.1808 54.5648 13.1392C54.4084 13.1071 54.3714 13.2959 54.3024 13.4017C53.9529 13.9489 53.5846 14.4874 53.088 14.9059C52.8482 15.1101 52.5897 15.3142 52.311 15.4429L50.6446 14.9539C50.43 14.6466 50.3151 14.2603 50.2685 13.8567C50.2456 13.6591 50.2432 13.4601 50.2467 13.2607L50.2594 12.6654C50.2686 10.6877 50.7607 8.7925 51.308 6.91598C51.3452 6.78718 51.3919 6.66251 51.4513 6.54783L53.306 6.21978C53.5499 6.47995 53.6622 6.87228 53.5667 7.32058C53.3597 8.28643 53.0925 9.23889 52.8626 10.2001C52.7108 10.8255 52.5088 11.4466 52.4719 12.095C52.4627 12.2789 52.426 12.5044 52.6742 12.5688C52.8856 12.6238 52.9779 12.4309 53.0606 12.293C53.8839 10.8994 54.5508 9.4273 55.1304 7.91411C55.3465 7.34841 55.5539 6.77291 55.8114 6.221C55.8426 6.15507 55.877 6.09315 55.9135 6.0351L57.9328 5.65784Z"/>
<path d="M57.5738 1.91136C57.6126 2.21796 57.5545 2.51395 57.4486 2.79893C56.9931 4.02231 55.3282 5.14924 54.3485 5.14936V5.14511C53.2728 5.15878 52.6891 4.84666 52.2624 4.27698L52.6329 3.34204C54.0486 3.42492 54.8935 2.53916 55.7701 1.66715C55.9034 1.53384 56.0321 1.39144 56.1838 1.27652C56.1925 1.26992 56.2017 1.26398 56.2105 1.25769L57.5738 1.91136Z"/>
</mask>
<path d="M10.104 21.3102C10.849 21.0987 11.5713 21.1911 12.1738 21.7658C12.9787 22.5385 13.1213 23.5095 12.5419 24.6271C11.9532 25.7677 11.0698 26.6506 10.0074 27.3542C9.612 27.6163 9.18897 27.8376 8.84406 28.1731C8.51754 28.4997 8.53559 28.762 8.96313 28.969C9.2529 29.107 9.55667 29.2313 9.84644 29.3693C11.2401 30.027 11.6908 30.9795 11.3275 32.4834C10.5639 35.6157 7.22909 37.8143 4.05997 37.2808C1.76856 36.8989 0.94651 34.82 1.27578 33.2002L3.71248 32.1152C3.7058 32.2016 3.70228 32.2856 3.71065 32.3637C3.74095 32.6672 3.69243 33.015 3.69243 33.3436C3.7017 34.1714 4.07419 34.5532 4.89286 34.6175C6.12076 34.7094 7.03141 34.185 7.66611 33.1687C8.24085 32.2488 7.97881 31.2735 7.05435 30.7216C6.7784 30.5561 6.47511 30.4315 6.21296 30.2429C5.55984 29.7783 5.48153 29.2309 5.93229 28.5777C6.24506 28.1318 6.69582 27.8372 7.10964 27.5061C7.84082 26.9267 8.54478 26.3196 9.2116 25.6666C9.48748 25.3999 9.72253 25.1006 9.8191 24.7189C9.92934 24.2822 9.80018 24.1486 9.36347 24.2359C8.86686 24.3371 8.44336 24.6038 8.05248 24.8981C7.50522 25.3074 6.98518 25.7537 6.45171 26.186C6.24476 26.3543 6.02953 26.51 5.79743 26.6258L4.18572 25.2608C4.25571 25.1311 4.33972 25.0064 4.44209 24.9072C6.07026 23.2975 7.86878 21.9495 10.104 21.3102Z" stroke="white" stroke-width="2" mask="url(#path-1-outside-1_4473_1267)"/>
<path d="M22.2474 23.0677C22.6934 23.1045 22.9421 23.3345 23.0019 23.7712C23.0111 23.8262 23.011 23.8862 23.011 23.9413C22.9329 26.2456 23.1628 28.537 23.2364 30.8322C23.2404 30.9931 23.2428 31.1575 23.2352 31.3194L21.6126 32.34C21.3105 32.2388 21.152 32.0083 21.047 31.591C20.7849 30.5791 20.9043 29.5484 20.9273 28.5273C20.9272 27.803 20.6748 28.1558 20.5039 28.6792C20.0439 30.0866 19.5935 31.4991 19.1382 32.9111C19.0049 33.3251 18.8479 33.7321 18.6443 34.1139L16.1317 34.9243C16.1437 34.8383 16.1737 34.7395 16.2216 34.6267C17.2733 32.9033 18.3355 30.6767 19.0781 28.449C19.607 26.8623 20.1361 25.2754 20.9455 23.7991C21.2307 23.2841 21.645 23.0171 22.2474 23.0677Z" stroke="white" stroke-width="2" mask="url(#path-1-outside-1_4473_1267)"/>
<path d="M16.9992 24.0057C17.3144 23.9077 17.6271 23.8902 17.9329 23.9747L18.3412 25.2638C18.1692 25.4233 17.9555 25.5233 17.744 25.6253C16.8886 26.0438 16.0285 26.4487 15.2605 27.0189C15.118 27.1246 14.8836 27.2166 14.9568 27.4508C15.0303 27.6854 15.2649 27.6215 15.4488 27.6306C15.8628 27.6536 16.2865 27.5756 16.6912 27.7503C17.2243 27.9849 17.3162 28.3207 16.9348 28.7667C16.5531 29.2173 16.1066 29.6037 15.656 29.9853C15.3203 30.2658 14.9707 30.538 14.7545 30.9288C14.6487 31.1173 14.4739 31.3473 14.653 31.5588C14.8048 31.7428 15.0534 31.6504 15.2465 31.5952C15.665 31.4711 16.0791 31.3195 16.4883 31.1724C16.628 31.1225 16.7678 31.0733 16.9032 31.0728L16.3759 33.0034C15.4421 33.7386 14.0411 34.2607 13.1719 34.0562C12.2154 33.8308 11.7967 33.0858 12.1185 32.1614C12.4313 31.2693 13.0619 30.6112 13.7241 29.972C13.9127 29.7881 14.1336 29.6357 14.3359 29.4702C14.2853 29.461 13.434 29.3048 13.0522 29.1622L13.048 29.167C12.036 28.7852 11.7142 27.7958 12.4271 27.0001C13.6782 25.602 15.1963 24.5714 16.9992 24.0057Z" stroke="white" stroke-width="2" mask="url(#path-1-outside-1_4473_1267)"/>
<path d="M30.8612 22.767C30.9094 22.9567 30.8734 23.1697 30.8351 23.3666C30.6833 24.1115 30.5039 24.8522 30.3108 25.5834C29.8693 27.2575 29.6991 28.9828 29.4002 30.6846C29.3572 30.9326 29.2532 31.1357 29.1086 31.286H27.5922C27.5136 31.1821 27.4884 31.054 27.4914 30.91C27.5189 30.0703 28.0777 28.1139 27.8316 28.0583C27.6216 27.9945 27.1093 28.8673 26.8608 29.2861C26.5159 29.8748 26.2214 30.4964 25.7892 31.0345C25.4627 31.4437 25.0487 31.5677 24.5705 31.4482C24.1335 31.3332 24.0549 30.9284 23.9721 30.5558C23.7699 29.6223 23.9908 28.7022 24.1058 27.7825C24.253 26.6143 24.46 25.4545 24.6531 24.2955C24.6758 24.1618 24.7053 24.0295 24.7418 23.8994L26.4598 23.2706C26.5871 23.4319 26.6589 23.6425 26.6634 23.8957C26.6726 24.4061 26.6862 24.9214 26.5437 25.4272C26.4563 25.7307 26.2953 26.5951 26.5157 26.6416C26.856 26.7105 27.1875 25.9382 27.2933 25.731C27.7532 24.8342 28.1764 23.9185 28.7696 23.0999C28.8567 22.9795 28.9512 22.8677 29.0545 22.767H30.8612Z" stroke="white" stroke-width="2" mask="url(#path-1-outside-1_4473_1267)"/>
<path d="M37.2236 21.7154C38.1665 20.6531 39.4685 20.6254 40.2642 21.6601C40.6742 22.1977 40.7745 22.8006 40.6596 23.4219L39.3754 24.3034C39.2579 24.188 39.1916 23.9853 39.1008 23.8404C38.9492 23.5967 38.9991 23.1278 38.65 23.1412C38.3603 23.1504 38.2402 23.5645 38.116 23.8313C37.6424 24.8753 37.3248 25.9703 37.288 27.1246C37.2788 27.3544 37.3066 27.58 37.449 27.7777C37.7434 28.1824 38.0654 28.1915 38.3414 27.7637C38.5762 27.396 38.7818 27.0031 39.0103 26.6295L40.1506 26.9332C40.4545 28.4061 38.7092 30.3511 37.2145 30.1281C36.2717 29.9854 35.6281 29.2955 35.3981 28.1871C35.3522 27.9618 35.4113 27.6214 35.0621 27.6258C34.7402 27.6304 34.5748 27.8839 34.5287 28.2011C34.4597 28.7298 34.3811 29.2543 34.3167 29.783C34.2959 29.9662 34.2552 30.1208 34.1733 30.2356L32.9273 30.1949C32.8503 30.093 32.8021 29.9559 32.7894 29.7739C32.7665 29.4337 32.7852 29.0886 32.7761 28.7485C32.7715 28.5092 32.8373 27.9807 32.6169 28.0535C32.4776 28.0543 32.3849 28.8219 32.27 29.1944C32.1965 29.4288 32.1501 29.6731 32.072 29.9076C32.0386 30.0064 31.9956 30.0915 31.945 30.1633L30.7045 30.1232C30.632 29.9899 30.6013 29.8256 30.5909 29.65C30.5265 28.5416 30.7428 27.451 30.8715 26.361C30.9314 25.8316 31.1888 24.1208 31.2992 23.6011C31.3772 23.2327 31.5149 22.9435 31.6856 22.767H32.5391C32.8019 23.0084 32.7868 23.3974 32.7761 23.776C32.7686 24.131 32.4605 26.2918 32.6795 26.3379C32.8983 26.3835 32.9693 25.8639 33.0015 25.6156C33.1394 24.5211 33.2588 23.4262 33.5531 22.3593C33.6201 22.119 33.7297 21.9372 33.9133 21.8308L35.1933 22.0841C35.2497 22.2121 35.2808 22.3767 35.2875 22.5847C35.3013 23.1917 35.2182 23.799 35.186 24.406C35.1768 24.5578 34.9424 26.6638 35.1125 26.655C35.2827 26.6447 35.5911 24.9496 35.6234 24.8386C35.95 23.6935 36.4281 22.6214 37.2236 21.7154Z" stroke="white" stroke-width="2" mask="url(#path-1-outside-1_4473_1267)"/>
<path d="M48.6805 21.0003C48.6148 21.1532 48.5005 21.297 48.3737 21.4396C47.4907 22.4283 46.3962 23.1508 45.3569 23.951C43.9908 25.0043 43.9491 25.3676 44.9747 26.7382C45.6371 27.6259 46.3734 28.4401 47.2243 29.153C47.4144 29.3142 47.5164 29.4471 47.5323 29.5728L45.3933 30.2156C45.1631 30.1044 44.9404 29.9441 44.7354 29.7326C44.2663 29.2451 43.9628 28.6515 43.6455 28.0674C43.5628 27.9157 43.4705 27.7728 43.374 27.6349C43.2637 27.4787 43.1439 27.2903 42.9281 27.336C42.7075 27.382 42.6843 27.6074 42.6614 27.7959C42.6016 28.3063 42.5464 28.8127 42.5004 29.3232C42.4914 29.4298 42.471 29.5235 42.4415 29.605L40.981 29.7836C40.9061 29.6705 40.86 29.5265 40.8395 29.3554C40.7749 28.2974 41.222 25.5753 41.5023 23.7208C41.6207 22.953 41.7195 22.1814 41.9518 21.4292L43.9948 20.7999C44.0279 20.9048 44.0279 21.0252 44.0046 21.154C43.8988 21.7335 43.77 22.3088 43.6504 22.8836C43.6182 23.0399 43.5776 23.2901 43.6729 23.3435C43.7839 23.4052 43.9304 23.2284 44.027 23.1272C44.8227 22.2855 45.6143 21.4347 46.4054 20.5885C46.6537 20.3218 46.9251 20.0829 47.2608 19.9311C47.3258 19.9017 47.39 19.8779 47.4534 19.8601L48.6805 21.0003Z" stroke="white" stroke-width="2" mask="url(#path-1-outside-1_4473_1267)"/>
<path d="M59.8227 19.9056C59.9532 20.0577 60.0128 20.2778 59.9977 20.5702C59.9839 20.8138 59.9329 21.0621 59.8732 21.3011C59.3626 23.3478 58.9392 25.4136 58.5069 27.4788C58.4088 27.949 58.2329 28.2618 57.9711 28.4404L56.4718 28.2527C56.4235 28.15 56.3993 28.0231 56.4007 27.87C56.4007 27.47 56.3869 27.0695 56.4742 26.6787C56.5156 26.481 56.5661 26.2735 56.3685 26.0299V26.0159C55.9822 26.6046 55.6231 27.1569 55.2598 27.7042C55.0252 28.0583 54.7443 28.3759 54.3121 28.4818C53.475 28.6886 52.6838 28.095 52.6378 27.2303C52.5964 26.5267 52.6423 25.8227 52.7757 25.1283C53.0563 23.6519 53.3416 22.1796 53.659 20.7124C53.6842 20.5943 53.7176 20.4876 53.758 20.3922L55.3047 20.0879C55.6385 20.3248 55.6807 20.6354 55.6091 21.0161C55.3791 22.212 55.1588 23.4083 54.9427 24.6041C54.8875 24.9122 54.7124 25.3675 55.0344 25.4825C55.3747 25.6066 55.4988 25.1189 55.6644 24.8659C56.3956 23.7483 56.8652 22.4926 57.4401 21.2968C57.5919 20.9852 57.7514 20.6775 57.9292 20.3789L59.8227 19.9056Z" stroke="white" stroke-width="2" mask="url(#path-1-outside-1_4473_1267)"/>
<path d="M52.2466 19.9627C52.5303 20.1078 52.7165 20.416 52.7022 20.8412C52.6608 22.2946 52.2103 23.6841 51.9665 25.1053C51.8147 25.9883 51.7546 26.8762 51.5753 27.7546C51.5226 28.0127 51.4433 28.2062 51.3335 28.3445L49.8542 28.2266C49.7656 28.0755 49.7146 27.8772 49.6987 27.6258C49.662 27.0326 49.8134 26.4572 49.887 25.8731C49.9055 25.7353 49.9746 25.574 49.8093 25.4224V25.4133C49.4874 25.726 49.3765 26.1589 49.1604 26.5268C48.9398 26.9038 48.7276 27.29 48.415 27.6027C48.3025 27.7152 48.1838 27.8004 48.0639 27.8609L46.6982 27.2935C46.4192 26.7623 46.4191 26.1846 46.4929 25.6113C46.5803 24.9168 46.7089 24.2219 46.9941 23.5689C47.0202 23.5107 47.0536 23.4469 47.0931 23.3812L48.1969 22.8253C48.4408 22.9696 48.4745 23.2453 48.457 23.5002C48.4339 23.8219 48.3603 24.1393 48.3051 24.4564C48.2821 24.6036 48.1902 24.7879 48.3926 24.8477C48.5717 24.9026 48.6499 24.7143 48.7097 24.581C48.843 24.2867 48.9582 23.9828 49.0869 23.6886C49.5239 22.6537 50.0621 21.6691 50.6324 20.7033C50.6981 20.592 50.7695 20.4851 50.8505 20.3868L52.2466 19.9627Z" stroke="white" stroke-width="2" mask="url(#path-1-outside-1_4473_1267)"/>
<path fill-rule="evenodd" clip-rule="evenodd" d="M15.009 5.05345C15.1285 5.28262 15.2465 5.79149 15.2465 5.79149C15.0993 7.6773 14.699 9.69235 14.3954 11.7207C14.1701 13.2247 14.0001 14.7335 13.8851 16.2466C13.83 16.9823 13.9222 17.0381 14.6396 17.0151C14.6947 17.0151 14.7547 17.0149 14.8097 17.0103C16.4148 16.9092 16.9899 17.5486 16.7416 19.1444C16.6658 19.638 16.526 20.0996 16.3048 20.5198L13.6877 21.0909C13.6876 21.0845 13.6871 21.0778 13.6871 21.0714V20.9566C13.7054 19.7518 13.4984 19.6 12.2613 19.738C10.3203 19.9541 8.47105 20.5284 6.62667 21.131C6.02877 21.3241 5.42592 21.4944 4.80963 21.6048C4.43736 21.6703 4.07278 21.6893 3.71794 21.5902L3.54845 19.3279C3.88955 19.1516 4.26169 19.0421 4.63953 18.9743C5.83531 18.7535 6.53451 18.0819 6.99907 16.9368C8.41116 13.4502 9.91996 10.0001 11.401 6.54115C11.4708 6.37844 11.5465 6.21661 11.6258 6.05636L15.009 5.05345ZM12.4314 10.2214C12.2843 10.1709 12.1784 10.2853 12.1094 10.4049C12.0174 10.5704 11.9302 10.7411 11.8567 10.9158C11.5853 11.5643 11.3135 12.2128 11.056 12.8659C10.4672 14.3469 9.79591 15.7962 9.28997 17.314C9.18422 17.6359 9.11098 17.9351 9.6168 17.9167L9.62106 17.9118C10.7938 17.8796 11.2354 17.539 11.4654 16.3894C11.7368 15.051 11.9622 13.7029 12.206 12.3598C12.3164 11.762 12.4225 11.1637 12.5237 10.5659C12.5422 10.4463 12.6057 10.2766 12.4314 10.2214Z" stroke="white" stroke-width="2" mask="url(#path-1-outside-1_4473_1267)"/>
<path d="M59.2979 16.8183C59.385 17.1392 59.3003 17.4655 59.1095 17.7739C58.5438 18.689 57.7158 19.1997 56.8375 19.255C56.128 19.255 55.7068 19.0912 55.4906 18.7738L55.8041 17.7903C56.8238 17.6476 57.6385 17.1304 58.3617 16.4344L59.2979 16.8183Z" stroke="white" stroke-width="2" mask="url(#path-1-outside-1_4473_1267)"/>
<path d="M23.1994 8.60181C23.618 8.28902 24.0047 8.2156 24.5061 8.48699C24.9841 8.74455 25.0762 9.09904 25.0486 9.56348C24.9658 11.1226 24.7311 12.664 24.5517 14.2139C24.4439 15.1754 24.4311 18.9144 24.4235 19.8801L22.2474 20.5198C22.2095 20.4134 22.188 20.2911 22.183 20.1511C22.1371 18.9967 22.3255 15.1056 22.5141 13.9788C22.5551 13.7374 22.609 13.5005 22.4133 13.1921C21.9869 14.0722 21.5513 14.9434 21.1296 15.8281C20.8977 16.3135 20.6521 16.6171 20.3295 16.7703L18.4628 16.096C18.4497 16.0502 18.4379 16.0025 18.4282 15.9526C18.2949 15.2628 18.5194 14.8853 18.6344 14.2139C18.6757 13.9703 18.9894 13.2968 18.3466 13.0639C18.0274 13.0639 18.0478 13.3536 17.9742 13.5329C17.6339 14.3378 17.3028 15.1477 16.9579 15.9526C16.8957 16.0989 16.8171 16.2245 16.7191 16.3165C16.2863 16.0048 15.9879 15.9098 15.4488 15.8281C15.4621 15.6491 15.6098 15.1279 15.6742 14.9587C16.2584 13.4501 16.8472 11.9456 17.4451 10.4462C17.6015 10.0553 17.8178 9.70105 18.0891 9.37455C18.3834 9.02501 18.7654 8.81827 19.2069 8.73546C20.0301 8.57914 20.7015 9.09867 20.6971 9.93102C20.6924 10.5565 20.5961 11.1779 20.5409 11.8034C20.5179 12.0608 20.4214 12.3186 20.5501 12.5852C20.8258 12.553 20.8586 12.3095 20.9413 12.1393C21.3828 11.2333 21.8839 10.3545 22.4266 9.5082C22.6428 9.17246 22.8728 8.85018 23.1994 8.60181Z" stroke="white" stroke-width="2" mask="url(#path-1-outside-1_4473_1267)"/>
<path d="M28.6062 9.11332C28.697 9.21513 28.7646 9.35047 28.8018 9.52825C28.9304 10.1444 28.7924 10.7427 28.6499 11.3313C28.4751 12.0533 28.2776 12.7666 28.0983 13.4886C28.0477 13.6909 28.0197 13.8983 28.0059 14.1052C27.9967 14.2293 27.9694 14.3993 28.1256 14.4545C28.2818 14.5094 28.3513 14.3533 28.4294 14.2522C28.9766 13.5394 29.3582 12.7251 29.795 11.9479C30.209 11.2212 30.6096 10.4849 31.0143 9.75363C31.1192 9.56925 31.2469 9.40474 31.4128 9.27796L33.0385 9.90429C33.0368 9.98036 33.0304 10.0594 33.0148 10.14C32.8676 10.9035 32.707 11.6677 32.5598 12.4358C32.4403 13.0519 32.3524 13.6728 32.2099 14.2844C32.0995 14.7489 32.0905 15.2093 31.8606 16.2807L31.8697 16.2764C31.7915 16.6488 31.7086 17.0216 31.589 17.3802C31.5307 17.5525 31.4538 17.6913 31.3606 17.8L29.8436 17.7259C29.7496 17.5527 29.7174 17.312 29.7355 16.9939C29.7723 16.304 29.9428 15.6278 30.0945 14.915C29.7359 14.984 29.6712 15.2274 29.5563 15.4113C29.1194 16.1012 28.7141 16.8193 28.2496 17.4908C27.8771 18.0288 27.4399 18.5484 26.6767 18.4106C26.111 18.3048 25.6189 17.5042 25.582 16.6901C25.5452 15.8486 25.7017 15.0252 25.8949 14.2066C26.2552 12.6853 26.6225 11.1675 26.9501 9.6382L28.6062 9.11332Z" stroke="white" stroke-width="2" mask="url(#path-1-outside-1_4473_1267)"/>
<path d="M40.1815 4.87781C40.6033 4.82536 40.9606 4.84623 41.2392 4.93673L41.6888 6.91598C41.2392 7.09086 38.996 7.4746 38.4751 7.51802C37.7392 7.57781 37.3025 7.89085 37.1185 8.64494C36.5436 10.9677 35.9682 13.2912 35.6739 15.6738C35.6371 15.991 35.5862 16.3177 35.4758 16.6166C35.434 16.7321 35.3805 16.835 35.3179 16.9252H33.5932C33.4664 16.708 33.4274 16.4198 33.4893 16.0741C33.9262 13.664 34.3811 11.2533 35.025 8.88915C35.048 8.79725 35.0711 8.70465 35.0894 8.61274C35.3101 7.6701 35.2091 7.53202 34.2711 7.53199H33.5859C33.5796 7.53647 32.7104 7.52704 32.2749 7.48582C32.2749 7.48582 31.9136 7.39626 31.8606 7.36493L32.2238 5.72953C33.9519 5.53297 35.6803 5.37233 37.4083 5.19067C38.3327 5.09409 39.2572 4.99278 40.1815 4.87781Z" stroke="white" stroke-width="2" mask="url(#path-1-outside-1_4473_1267)"/>
<path fill-rule="evenodd" clip-rule="evenodd" d="M38.2357 9.61147C38.5577 8.39254 38.9077 8.15771 40.1542 8.3831C41.0004 8.53496 41.7182 8.95346 42.3758 9.48694C42.9275 9.93301 43.1068 10.5311 43.0793 11.115L43.0884 11.1108C43.0791 13.2126 41.8005 14.7397 39.6573 15.2503C39.2802 15.3377 39.1009 15.4805 39.0595 15.8621C39.0273 16.161 38.6348 18.362 38.5382 18.6471C38.5202 18.7031 38.4989 18.7557 38.4751 18.8051H36.7996C36.7599 18.7003 36.7985 18.488 36.7996 18.3664C36.8042 17.3684 37.3852 14.5097 37.5784 13.5438C37.8359 12.2378 37.8955 10.9038 38.2357 9.61147ZM40.3194 10.5264C40.0482 10.5356 39.9884 10.7703 39.9562 10.968C39.8574 11.5474 39.6941 12.0908 39.6252 12.8319C39.5888 12.9643 39.6391 13.0526 39.7678 13.121C39.9331 13.2078 40.2046 13.061 40.3194 12.9691C40.8253 12.5644 41.1364 11.517 40.9481 10.9007C40.8791 10.6661 40.5953 10.5172 40.3194 10.5264Z" stroke="white" stroke-width="2" mask="url(#path-1-outside-1_4473_1267)"/>
<path d="M46.129 7.22399C46.2178 7.36527 46.2721 7.54544 46.2851 7.76223C46.3264 8.37839 46.1562 8.96727 46.0367 9.56044C45.8619 10.4112 45.6869 11.2624 45.5075 12.1132H45.5124C45.9491 11.8695 46.1564 11.4834 46.3908 11.1248C47.09 10.0577 47.7525 8.97164 48.3689 7.85397C48.4858 7.64056 48.6128 7.43698 48.7729 7.27441L50.2764 7.42021C50.2819 7.46898 50.2846 7.52173 50.2825 7.57816C50.2687 7.8632 50.232 8.14857 50.1768 8.42441C49.7306 10.5816 49.2746 12.739 48.8239 14.8961C48.7697 15.1547 48.6937 15.3735 48.6009 15.5516L47.1156 15.6154C47.0219 15.3663 47.0021 15.0265 47.0627 14.6064C47.1639 13.8982 47.283 13.1897 47.4072 12.4218C47.1085 12.4954 47.0806 12.7023 46.9886 12.8495C46.3953 13.7969 45.8893 14.8089 45.1442 15.6598C44.9039 15.934 44.6423 16.1761 44.315 16.2873L42.9912 15.8335C42.9568 15.7318 42.9373 15.6131 42.9317 15.4757C42.9041 14.8503 42.923 14.2248 43.0471 13.604C43.4381 11.6492 43.6172 9.65247 44.2427 7.74826C44.3094 7.54827 44.3902 7.36885 44.5057 7.22399H46.129Z" stroke="white" stroke-width="2" mask="url(#path-1-outside-1_4473_1267)"/>
<path d="M57.9328 5.65784C58.0116 5.78983 58.0347 5.97581 58.0148 6.23072C57.9457 7.09062 57.6141 7.89098 57.4255 8.7233C57.0438 10.4297 56.6666 12.1369 56.4596 13.8755C56.4357 14.0823 56.3031 14.8356 56.236 15.0322L54.7118 15.4757C54.6681 15.3805 54.6435 15.2717 54.6353 15.1549C54.6123 14.7963 54.7256 13.8842 54.7118 13.5256C54.7118 13.3831 54.7531 13.1808 54.5648 13.1392C54.4084 13.1071 54.3714 13.2959 54.3024 13.4017C53.9529 13.9489 53.5846 14.4874 53.088 14.9059C52.8482 15.1101 52.5897 15.3142 52.311 15.4429L50.6446 14.9539C50.43 14.6466 50.3151 14.2603 50.2685 13.8567C50.2456 13.6591 50.2432 13.4601 50.2467 13.2607L50.2594 12.6654C50.2686 10.6877 50.7607 8.7925 51.308 6.91598C51.3452 6.78718 51.3919 6.66251 51.4513 6.54783L53.306 6.21978C53.5499 6.47995 53.6622 6.87228 53.5667 7.32058C53.3597 8.28643 53.0925 9.23889 52.8626 10.2001C52.7108 10.8255 52.5088 11.4466 52.4719 12.095C52.4627 12.2789 52.426 12.5044 52.6742 12.5688C52.8856 12.6238 52.9779 12.4309 53.0606 12.293C53.8839 10.8994 54.5508 9.4273 55.1304 7.91411C55.3465 7.34841 55.5539 6.77291 55.8114 6.221C55.8426 6.15507 55.877 6.09315 55.9135 6.0351L57.9328 5.65784Z" stroke="white" stroke-width="2" mask="url(#path-1-outside-1_4473_1267)"/>
<path d="M57.5738 1.91136C57.6126 2.21796 57.5545 2.51395 57.4486 2.79893C56.9931 4.02231 55.3282 5.14924 54.3485 5.14936V5.14511C53.2728 5.15878 52.6891 4.84666 52.2624 4.27698L52.6329 3.34204C54.0486 3.42492 54.8935 2.53916 55.7701 1.66715C55.9034 1.53384 56.0321 1.39144 56.1838 1.27652C56.1925 1.26992 56.2017 1.26398 56.2105 1.25769L57.5738 1.91136Z" stroke="white" stroke-width="2" mask="url(#path-1-outside-1_4473_1267)"/>
</svg>
