<svg width="1662" height="576" viewBox="0 0 1662 576" fill="none" xmlns="http://www.w3.org/2000/svg">
<mask id="mask0_5841_2887" style="mask-type:alpha" maskUnits="userSpaceOnUse" x="49" y="-24" width="3520" height="469">
<path opacity="0.9" d="M66.9458 -12.0967C69.8655 -12.0967 73.2024 -12.0967 76.9564 -12.0967C80.7103 -12.5138 84.2558 -12.5138 87.5926 -12.0967C91.3466 -12.0967 94.6835 -11.6796 97.6032 -10.8454C100.523 -10.0112 102.608 -8.75986 103.86 -7.09143C106.362 -3.75456 107.614 0.625078 107.614 6.04748C107.614 11.4699 107.614 17.1008 107.614 22.9404V88.6348V289.472V347.033C107.614 351.621 107.614 356.627 107.614 362.049C107.614 367.471 108.239 371.851 109.491 375.188C110.742 378.108 113.036 380.61 116.373 382.696C118.459 383.53 121.17 384.156 124.507 384.573C127.844 384.573 131.18 384.573 134.517 384.573H166.426H279.045H314.082C317.002 384.573 319.922 384.573 322.841 384.573C326.178 384.156 329.098 384.364 331.601 385.198C337.023 386.867 340.568 389.161 342.237 392.081C342.654 393.332 343.071 395.418 343.488 398.337C343.905 401.257 344.114 404.385 344.114 407.722C344.531 410.642 344.531 413.77 344.114 417.107C343.697 420.027 343.28 422.321 342.863 423.989C342.028 426.909 340.151 429.203 337.232 430.872C335.146 432.54 332.018 433.374 327.847 433.374C324.093 433.374 320.339 433.374 316.585 433.374H275.291H116.999H76.3307C70.4912 433.374 65.4859 433.166 61.3148 432.749C57.1438 431.914 54.0155 429.829 51.9299 426.492C50.2615 423.989 49.4273 420.861 49.4273 417.107C49.4273 412.936 49.4273 408.974 49.4273 405.22V360.172V189.366V53.5977V14.8067C49.4273 11.0528 49.4273 7.2988 49.4273 3.54483C49.8444 -0.209139 50.6786 -3.12889 51.9299 -5.21443C53.5983 -7.71707 56.7267 -9.8026 61.3148 -11.471C62.149 -11.8882 62.9833 -11.8882 63.8175 -11.471C65.0688 -11.471 66.1116 -11.6796 66.9458 -12.0967ZM798.134 201.88C798.551 203.965 798.76 207.093 798.76 211.264C798.76 215.018 798.551 217.938 798.134 220.024V227.532C797.3 231.703 796.883 236.082 796.883 240.671C796.883 244.842 796.466 248.804 795.631 252.558C794.797 255.895 794.171 259.023 793.754 261.943C793.337 264.863 792.92 267.991 792.503 271.328C790.418 278.419 788.541 285.301 786.872 291.975C785.204 298.649 783.118 305.114 780.615 311.37C768.102 341.819 751.627 367.263 731.188 387.701C711.167 408.139 684.889 423.781 652.355 434.626C647.767 435.877 643.178 436.92 638.59 437.754C634.002 438.588 629.414 439.631 624.826 440.882C622.74 441.299 620.863 441.508 619.195 441.508C617.526 441.508 615.858 441.716 614.189 442.134L593.543 444.011C592.291 444.428 589.372 444.428 584.783 444.011C580.612 444.011 577.901 443.802 576.65 443.385C574.564 442.968 572.479 442.759 570.393 442.759C568.725 443.176 567.056 443.176 565.388 442.759H558.506C555.586 441.925 552.666 441.299 549.746 440.882C547.244 440.882 544.532 440.674 541.613 440.257C537.442 439.005 533.271 437.963 529.1 437.128C525.346 436.711 521.383 435.877 517.212 434.626C513.041 432.957 508.87 431.289 504.699 429.62C500.528 427.952 496.357 426.284 492.185 424.615C466.742 413.353 445.678 397.92 428.994 378.316C412.726 358.295 399.17 335.145 388.326 308.868C385.823 303.028 383.946 296.98 382.695 290.723C381.443 284.467 379.775 278.002 377.689 271.328C376.855 269.66 376.438 268.2 376.438 266.948C376.855 265.697 376.647 264.029 375.812 261.943C374.978 259.023 374.561 255.895 374.561 252.558C374.561 249.221 374.144 245.884 373.31 242.548C372.476 240.879 372.058 239.211 372.058 237.542C372.476 235.874 372.476 234.414 372.058 233.163V220.024C371.224 217.938 370.807 215.018 370.807 211.264C370.807 207.511 371.224 204.591 372.058 202.505V194.372L373.935 171.848C374.77 169.345 375.187 166.843 375.187 164.34C375.187 161.837 375.604 159.335 376.438 156.832C378.107 150.158 379.566 143.693 380.818 137.436C382.069 130.763 383.946 124.506 386.449 118.667C389.786 110.742 392.914 103.025 395.834 95.5171C398.753 88.0091 402.507 80.9183 407.096 74.2446C418.775 55.4747 432.539 39.2075 448.389 25.443C464.239 11.6784 483.009 0.416515 504.699 -8.34273C509.287 -10.4283 514.084 -12.0967 519.089 -13.348C524.511 -14.5994 529.934 -16.0593 535.356 -17.7277C537.859 -18.5619 540.361 -18.979 542.864 -18.979C545.784 -18.979 548.495 -19.3961 550.998 -20.2303C554.335 -20.6474 557.463 -20.856 560.383 -20.856C563.719 -21.2731 567.056 -21.6902 570.393 -22.1073C571.227 -22.5244 572.27 -22.5244 573.521 -22.1073C574.773 -21.6902 575.816 -21.6902 576.65 -22.1073C604.596 -22.9415 628.997 -20.0217 649.852 -13.348C670.708 -7.09143 689.06 1.66783 704.91 12.9297C711.167 17.1008 717.215 21.4805 723.055 26.0687C728.894 30.6568 734.108 35.8707 738.696 41.7102C739.947 43.7957 741.407 45.4642 743.076 46.7155C744.744 47.9668 746.204 49.6352 747.455 51.7208C749.958 55.0576 752.461 58.603 754.963 62.357C757.466 65.6939 759.76 69.0307 761.846 72.3676C762.68 74.4531 763.514 76.3301 764.348 77.9986C765.182 79.2499 766.225 80.9183 767.477 83.0038C769.145 85.5065 770.605 88.0091 771.856 90.5118C775.193 98.0197 778.53 105.945 781.867 114.287C782.701 116.79 783.327 119.292 783.744 121.795C784.578 123.88 785.412 126.174 786.246 128.677C787.498 132.848 788.541 137.228 789.375 141.816C790.626 145.987 791.877 150.367 793.129 154.955C793.963 157.04 794.38 159.126 794.38 161.212C794.38 163.297 794.589 165.383 795.006 167.468C795.84 170.388 796.257 173.308 796.257 176.227C796.257 179.147 796.674 182.275 797.508 185.612V189.366C797.925 191.452 797.925 193.537 797.508 195.623C797.091 197.708 797.3 199.794 798.134 201.88ZM739.322 221.901C740.156 219.815 740.573 216.27 740.573 211.264C740.573 205.842 740.156 202.088 739.322 200.003V194.997C739.322 192.912 739.113 191.035 738.696 189.366C738.696 187.698 738.696 185.821 738.696 183.735C737.862 181.65 737.445 179.773 737.445 178.104C737.862 176.019 737.653 173.933 736.819 171.848C735.985 168.094 735.151 164.34 734.317 160.586C733.899 156.832 733.274 153.287 732.44 149.95C730.354 144.11 728.477 138.688 726.809 133.682C725.557 128.26 723.889 123.046 721.803 118.041C714.712 100.939 704.91 85.5065 692.397 71.7419C680.301 57.9774 665.911 47.3411 649.227 39.8332C640.05 35.6621 629.205 32.3253 616.692 29.8226C610.853 28.1542 604.179 27.32 596.671 27.32C589.58 26.9029 582.489 26.6943 575.398 26.6943C572.479 27.1114 569.559 27.5285 566.639 27.9456C564.137 27.9456 561.217 28.1542 557.88 28.5713C551.623 30.2397 545.575 31.9081 539.736 33.5766C534.313 34.8279 528.891 36.4963 523.469 38.5819C500.945 48.1754 483.218 61.9399 470.287 79.8755C457.357 97.8112 446.929 118.875 439.004 143.067C437.336 147.656 436.084 152.452 435.25 157.458C434.833 162.046 433.999 166.842 432.748 171.848C432.331 173.933 432.122 176.019 432.122 178.104C432.122 179.773 431.913 181.65 431.496 183.735C430.662 185.404 430.245 187.281 430.245 189.366C430.662 191.035 430.662 192.703 430.245 194.372V200.003C429.828 202.088 429.619 205.842 429.619 211.264C429.619 216.687 429.828 220.441 430.245 222.526C430.245 224.195 430.245 225.863 430.245 227.532C430.662 228.783 430.871 230.243 430.871 231.911C431.705 235.248 432.122 239.002 432.122 243.173C432.539 246.927 433.165 250.473 433.999 253.809C434.416 255.478 434.416 257.146 433.999 258.815C433.999 260.066 434.416 261.526 435.25 263.194C436.502 267.783 437.544 272.371 438.379 276.959C439.213 281.547 440.673 286.135 442.758 290.723C444.844 295.312 446.512 299.9 447.764 304.488C449.432 308.659 451.517 312.83 454.02 317.001C456.106 320.338 457.983 323.675 459.651 327.012C461.737 329.932 463.822 333.06 465.908 336.397C478.838 354.75 495.731 369.14 516.586 379.567C522.426 382.904 528.265 385.407 534.105 387.075C540.361 388.744 547.035 390.621 554.126 392.706C557.046 393.541 559.757 393.958 562.26 393.958C564.762 393.541 567.473 393.749 570.393 394.583C572.896 395.418 575.607 395.835 578.527 395.835C581.864 395.418 585.2 395.209 588.537 395.209H594.794C596.88 394.792 598.965 394.583 601.051 394.583C603.136 394.166 605.222 393.958 607.307 393.958C613.147 392.706 618.569 391.664 623.574 390.829C628.997 389.995 634.002 388.535 638.59 386.45C659.863 377.69 677.173 366.22 690.52 352.038C704.285 337.857 715.547 320.13 724.306 298.857C726.391 293.435 728.06 287.804 729.311 281.964C730.98 276.125 732.648 270.285 734.317 264.446C735.151 261.943 735.568 259.44 735.568 256.938C735.985 254.018 736.611 251.098 737.445 248.179L739.322 227.532V221.901ZM1054.51 -22.1073C1083.29 -22.9415 1108.52 -20.2303 1130.21 -13.9737C1151.9 -8.13418 1171.09 0.625078 1187.77 12.3041C1195.28 17.3094 1202.16 22.9403 1208.42 29.197C1209.26 30.0312 1210.09 30.8654 1210.92 31.6996C1211.76 32.5338 1212.59 33.368 1213.43 34.2022C1215.51 37.5391 1217.81 40.6674 1220.31 43.5872C1222.81 46.0898 1225.11 49.0096 1227.19 52.3464C1231.78 59.4373 1235.74 66.9452 1239.08 74.8703C1242.42 82.7953 1245.75 90.9289 1249.09 99.271C1250.34 103.442 1250.97 107.822 1250.97 112.41C1250.97 116.998 1249.3 120.335 1245.96 122.421C1245.13 123.255 1243.88 123.672 1242.21 123.672C1240.96 123.672 1239.7 123.88 1238.45 124.298H1234.07C1231.99 125.132 1228.44 125.549 1223.44 125.549C1218.85 125.549 1215.51 125.132 1213.43 124.298C1212.18 123.88 1210.92 123.88 1209.67 124.298C1208.42 124.715 1206.96 124.506 1205.29 123.672C1202.79 123.255 1200.5 122.212 1198.41 120.544C1195.91 118.458 1194.03 115.538 1192.78 111.784C1191.95 108.03 1190.69 104.485 1189.03 101.148C1186.94 95.7256 1184.44 90.7203 1181.52 86.1321C1179.02 81.1269 1176.1 76.3301 1172.76 71.7419C1171.92 70.9077 1170.88 70.0735 1169.63 69.2393C1168.38 67.988 1167.34 66.7366 1166.5 65.4853C1162.75 61.3142 1158.99 57.7688 1155.24 54.8491C1153.15 53.5978 1151.28 52.3464 1149.61 51.0951C1147.94 49.4267 1146.06 47.9668 1143.98 46.7155C1138.14 43.3786 1131.88 40.4589 1125.21 37.9562C1118.53 35.4536 1111.65 33.1595 1104.56 31.0739C1100.81 30.2397 1097.05 29.6141 1093.3 29.197C1089.55 28.7799 1085.79 28.1542 1082.04 27.32C1080.37 26.9029 1078.7 26.9029 1077.03 27.32C1075.78 27.32 1074.53 27.1114 1073.28 26.6943H1065.77C1062.85 26.6943 1059.93 26.6943 1057.01 26.6943C1054.09 26.6943 1051.38 26.9029 1048.88 27.32C1048.04 27.32 1047 27.5285 1045.75 27.9456C1044.5 27.9456 1043.46 27.9456 1042.62 27.9456C1040.12 28.3627 1037.41 28.7799 1034.49 29.197C1031.98 29.6141 1029.48 30.0312 1026.98 30.4483C1012.38 34.2022 999.659 39.4161 988.814 46.0898C971.296 56.9346 957.114 69.8649 946.269 84.8808C935.841 99.4796 927.082 117.415 919.991 138.688C918.323 143.276 917.072 148.073 916.237 153.078C915.403 158.083 914.36 163.089 913.109 168.094C912.275 170.179 911.858 172.265 911.858 174.35C912.275 176.019 912.066 177.896 911.232 179.981C910.398 182.901 909.981 186.029 909.981 189.366C910.398 192.286 910.189 195.414 909.355 198.751V205.634C908.938 208.136 908.729 211.682 908.729 216.27C908.729 220.858 908.938 224.195 909.355 226.28V232.537C909.772 233.371 909.981 234.623 909.981 236.291C909.981 237.542 910.189 238.585 910.606 239.419C911.441 242.339 911.649 245.05 911.232 247.553C910.815 250.055 911.024 252.767 911.858 255.686C912.692 259.023 913.318 262.36 913.735 265.697C914.569 268.617 915.403 271.745 916.237 275.082C918.323 281.339 920.408 287.595 922.494 293.852C924.997 299.691 927.499 305.531 930.002 311.37C932.087 316.376 934.59 321.172 937.51 325.761C940.847 330.349 944.184 334.728 947.52 338.899C962.953 359.755 983.183 375.188 1008.21 385.198C1011.13 386.45 1014.05 387.492 1016.97 388.327C1019.89 389.161 1023.02 389.995 1026.35 390.829C1036.36 393.749 1048.04 395.209 1061.39 395.209C1064.31 395.209 1067.02 395.209 1069.52 395.209C1072.44 395.209 1075.16 395 1077.66 394.583C1079.74 393.749 1081.83 393.541 1083.91 393.958C1086.42 394.375 1088.71 394.166 1090.8 393.332C1096.64 391.664 1102.06 390.412 1107.06 389.578C1112.49 388.327 1117.49 386.658 1122.08 384.573C1160.87 369.14 1186.94 341.402 1200.29 301.36C1201.12 298.023 1201.75 294.686 1202.16 291.349C1203 288.012 1203.83 284.675 1204.67 281.339C1205.92 276.333 1206.34 270.911 1205.92 265.071C1205.5 258.815 1203.62 254.435 1200.29 251.932C1196.95 249.847 1192.36 248.804 1186.52 248.804C1180.68 248.804 1175.05 248.804 1169.63 248.804H1100.18C1095.59 248.804 1090.59 248.804 1085.17 248.804C1079.74 248.804 1075.36 248.179 1072.03 246.927C1068.69 245.259 1066.6 242.965 1065.77 240.045C1064.94 238.376 1064.31 236.082 1063.89 233.163C1063.48 229.826 1063.27 226.489 1063.27 223.152C1063.27 219.815 1063.48 216.687 1063.89 213.767C1064.73 210.43 1065.56 208.136 1066.4 206.885C1068.06 203.965 1070.98 201.88 1075.16 200.628C1077.24 199.794 1079.74 199.377 1082.66 199.377C1085.58 199.377 1088.5 199.377 1091.42 199.377H1119.58H1214.68C1219.27 199.377 1223.85 199.377 1228.44 199.377C1233.03 198.96 1237.2 199.168 1240.96 200.003C1245.13 200.42 1248.67 201.462 1251.59 203.131C1254.51 204.382 1256.6 206.885 1257.85 210.639C1258.68 213.141 1258.89 216.061 1258.47 219.398C1258.47 222.735 1258.47 226.072 1258.47 229.409V263.82V379.567V408.348C1258.47 411.268 1258.47 414.187 1258.47 417.107C1258.47 420.027 1258.06 422.53 1257.22 424.615C1255.97 427.952 1253.47 430.455 1249.72 432.123C1248.46 432.957 1245.75 433.374 1241.58 433.374C1235.74 433.374 1231.36 432.749 1228.44 431.497C1225.52 430.246 1223.23 428.369 1221.56 425.866C1219.89 423.364 1218.43 420.444 1217.18 417.107C1216.35 413.77 1215.3 410.016 1214.05 405.845C1213.22 402.925 1211.76 399.172 1209.67 394.583C1208 389.995 1204.88 388.327 1200.29 389.578C1197.37 390.412 1195.07 391.664 1193.41 393.332C1191.74 395 1189.86 396.669 1187.77 398.337C1184.44 400.84 1181.31 403.551 1178.39 406.471C1175.47 408.974 1172.34 411.268 1169 413.353C1160.25 419.193 1150.86 423.989 1140.85 427.743C1131.26 431.497 1120.83 435.043 1109.57 438.38C1106.65 439.214 1103.73 439.84 1100.81 440.257C1097.89 440.674 1094.76 441.299 1091.42 442.134C1088.09 442.134 1085.58 442.342 1083.91 442.759C1082.66 442.759 1081.2 442.759 1079.54 442.759C1078.28 442.759 1077.03 442.968 1075.78 443.385H1069.52C1067.86 443.802 1065.56 444.011 1062.64 444.011C1059.72 444.011 1057.22 443.802 1055.13 443.385H1044.5C1039.91 442.551 1035.53 441.925 1031.36 441.508C1027.61 441.508 1023.64 440.882 1019.47 439.631C1011.96 437.545 1004.66 435.668 997.573 434C990.483 432.332 983.6 430.037 976.927 427.118C953.151 416.273 932.296 401.883 914.36 383.947C896.425 365.594 882.035 344.322 871.19 320.13C869.104 315.124 867.019 309.91 864.933 304.488C863.265 299.066 861.388 293.435 859.302 287.595C858.885 285.927 858.677 284.467 858.677 283.216C858.677 281.547 858.259 279.879 857.425 278.21C856.174 273.622 855.131 268.825 854.297 263.82C853.88 258.815 853.046 253.809 851.794 248.804C851.377 247.136 851.169 245.467 851.169 243.799C851.586 242.13 851.586 240.671 851.169 239.419V233.788C850.334 231.703 849.917 227.74 849.917 221.901C849.917 216.061 850.334 211.89 851.169 209.387V203.757C851.169 201.254 851.169 198.751 851.169 196.249C851.169 193.746 851.377 191.243 851.794 188.741C852.211 186.655 852.42 184.57 852.42 182.484C852.42 179.981 852.628 177.687 853.046 175.602C854.297 170.596 855.131 165.591 855.548 160.586C856.382 155.581 857.425 150.575 858.677 145.57C862.848 131.805 867.019 118.667 871.19 106.153C875.778 93.223 881.617 81.3354 888.708 70.4906C901.221 50.8866 916.029 34.2023 933.13 20.4377C950.649 6.25602 971.296 -4.79734 995.071 -12.7224C999.659 -14.3908 1004.04 -15.4336 1008.21 -15.8507C1012.8 -16.6849 1017.39 -17.7277 1021.97 -18.979C1024.06 -19.8132 1025.94 -20.2303 1027.61 -20.2303C1029.69 -20.2303 1031.78 -20.4389 1033.86 -20.856C1037.2 -21.2731 1040.54 -21.4816 1043.87 -21.4816C1047.63 -21.8987 1051.17 -22.1073 1054.51 -22.1073ZM1748.24 201.88C1748.65 203.965 1748.86 207.093 1748.86 211.264C1748.86 215.018 1748.65 217.938 1748.24 220.024V227.532C1747.4 231.703 1746.98 236.082 1746.98 240.671C1746.98 244.842 1746.57 248.804 1745.73 252.558C1744.9 255.895 1744.27 259.023 1743.86 261.943C1743.44 264.863 1743.02 267.991 1742.6 271.328C1740.52 278.419 1738.64 285.301 1736.97 291.975C1735.3 298.649 1733.22 305.114 1730.72 311.37C1718.2 341.819 1701.73 367.263 1681.29 387.701C1661.27 408.139 1634.99 423.781 1602.46 434.626C1597.87 435.877 1593.28 436.92 1588.69 437.754C1584.1 438.588 1579.52 439.631 1574.93 440.882C1572.84 441.299 1570.96 441.508 1569.3 441.508C1567.63 441.508 1565.96 441.716 1564.29 442.134L1543.64 444.011C1542.39 444.428 1539.47 444.428 1534.88 444.011C1530.71 444.011 1528 443.802 1526.75 443.385C1524.67 442.968 1522.58 442.759 1520.49 442.759C1518.83 443.176 1517.16 443.176 1515.49 442.759H1508.61C1505.69 441.925 1502.77 441.299 1499.85 440.882C1497.34 440.882 1494.63 440.674 1491.71 440.257C1487.54 439.005 1483.37 437.963 1479.2 437.128C1475.45 436.711 1471.48 435.877 1467.31 434.626C1463.14 432.957 1458.97 431.289 1454.8 429.62C1450.63 427.952 1446.46 426.284 1442.29 424.615C1416.84 413.353 1395.78 397.92 1379.09 378.316C1362.83 358.295 1349.27 335.145 1338.43 308.868C1335.92 303.028 1334.05 296.98 1332.8 290.723C1331.54 284.467 1329.88 278.002 1327.79 271.328C1326.96 269.66 1326.54 268.2 1326.54 266.948C1326.96 265.697 1326.75 264.029 1325.91 261.943C1325.08 259.023 1324.66 255.895 1324.66 252.558C1324.66 249.221 1324.25 245.884 1323.41 242.548C1322.58 240.879 1322.16 239.211 1322.16 237.542C1322.58 235.874 1322.58 234.414 1322.16 233.163V220.024C1321.33 217.938 1320.91 215.018 1320.91 211.264C1320.91 207.511 1321.33 204.591 1322.16 202.505V194.372L1324.04 171.848C1324.87 169.345 1325.29 166.843 1325.29 164.34C1325.29 161.837 1325.71 159.335 1326.54 156.832C1328.21 150.158 1329.67 143.693 1330.92 137.436C1332.17 130.763 1334.05 124.506 1336.55 118.667C1339.89 110.742 1343.02 103.025 1345.93 95.5171C1348.85 88.0091 1352.61 80.9183 1357.2 74.2446C1368.88 55.4747 1382.64 39.2075 1398.49 25.443C1414.34 11.6784 1433.11 0.416515 1454.8 -8.34273C1459.39 -10.4283 1464.18 -12.0967 1469.19 -13.348C1474.61 -14.5994 1480.03 -16.0593 1485.46 -17.7277C1487.96 -18.5619 1490.46 -18.979 1492.97 -18.979C1495.89 -18.979 1498.6 -19.3961 1501.1 -20.2303C1504.44 -20.6474 1507.56 -20.856 1510.48 -20.856C1513.82 -21.2731 1517.16 -21.6902 1520.49 -22.1073C1521.33 -22.5244 1522.37 -22.5244 1523.62 -22.1073C1524.87 -21.6902 1525.92 -21.6902 1526.75 -22.1073C1554.7 -22.9415 1579.1 -20.0217 1599.95 -13.348C1620.81 -7.09143 1639.16 1.66783 1655.01 12.9297C1661.27 17.1008 1667.32 21.4805 1673.16 26.0687C1679 30.6568 1684.21 35.8707 1688.8 41.7102C1690.05 43.7957 1691.51 45.4642 1693.18 46.7155C1694.85 47.9668 1696.31 49.6352 1697.56 51.7208C1700.06 55.0576 1702.56 58.603 1705.06 62.357C1707.57 65.6939 1709.86 69.0307 1711.95 72.3676C1712.78 74.4531 1713.62 76.3301 1714.45 77.9986C1715.28 79.2499 1716.33 80.9183 1717.58 83.0038C1719.25 85.5065 1720.71 88.0091 1721.96 90.5118C1725.29 98.0197 1728.63 105.945 1731.97 114.287C1732.8 116.79 1733.43 119.292 1733.85 121.795C1734.68 123.88 1735.51 126.174 1736.35 128.677C1737.6 132.848 1738.64 137.228 1739.48 141.816C1740.73 145.987 1741.98 150.367 1743.23 154.955C1744.06 157.04 1744.48 159.126 1744.48 161.212C1744.48 163.297 1744.69 165.383 1745.11 167.468C1745.94 170.388 1746.36 173.308 1746.36 176.227C1746.36 179.147 1746.78 182.275 1747.61 185.612V189.366C1748.03 191.452 1748.03 193.537 1747.61 195.623C1747.19 197.708 1747.4 199.794 1748.24 201.88ZM1689.42 221.901C1690.26 219.815 1690.67 216.27 1690.67 211.264C1690.67 205.842 1690.26 202.088 1689.42 200.003V194.997C1689.42 192.912 1689.21 191.035 1688.8 189.366C1688.8 187.698 1688.8 185.821 1688.8 183.735C1687.96 181.65 1687.55 179.773 1687.55 178.104C1687.96 176.019 1687.75 173.933 1686.92 171.848C1686.09 168.094 1685.25 164.34 1684.42 160.586C1684 156.832 1683.38 153.287 1682.54 149.95C1680.46 144.11 1678.58 138.688 1676.91 133.682C1675.66 128.26 1673.99 123.046 1671.9 118.041C1664.81 100.939 1655.01 85.5065 1642.5 71.7419C1630.4 57.9774 1616.01 47.3411 1599.33 39.8332C1590.15 35.6621 1579.31 32.3253 1566.79 29.8226C1560.95 28.1542 1554.28 27.32 1546.77 27.32C1539.68 26.9029 1532.59 26.6943 1525.5 26.6943C1522.58 27.1114 1519.66 27.5285 1516.74 27.9456C1514.24 27.9456 1511.32 28.1542 1507.98 28.5713C1501.72 30.2397 1495.68 31.9081 1489.84 33.5766C1484.41 34.8279 1478.99 36.4963 1473.57 38.5819C1451.05 48.1754 1433.32 61.9399 1420.39 79.8755C1407.46 97.8112 1397.03 118.875 1389.11 143.067C1387.44 147.656 1386.19 152.452 1385.35 157.458C1384.93 162.046 1384.1 166.842 1382.85 171.848C1382.43 173.933 1382.22 176.019 1382.22 178.104C1382.22 179.773 1382.01 181.65 1381.6 183.735C1380.76 185.404 1380.35 187.281 1380.35 189.366C1380.76 191.035 1380.76 192.703 1380.35 194.372V200.003C1379.93 202.088 1379.72 205.842 1379.72 211.264C1379.72 216.687 1379.93 220.441 1380.35 222.526C1380.35 224.195 1380.35 225.863 1380.35 227.532C1380.76 228.783 1380.97 230.243 1380.97 231.911C1381.81 235.248 1382.22 239.002 1382.22 243.173C1382.64 246.927 1383.27 250.473 1384.1 253.809C1384.52 255.478 1384.52 257.146 1384.1 258.815C1384.1 260.066 1384.52 261.526 1385.35 263.194C1386.6 267.783 1387.65 272.371 1388.48 276.959C1389.31 281.547 1390.77 286.135 1392.86 290.723C1394.95 295.312 1396.61 299.9 1397.86 304.488C1399.53 308.659 1401.62 312.83 1404.12 317.001C1406.21 320.338 1408.08 323.675 1409.75 327.012C1411.84 329.932 1413.92 333.06 1416.01 336.397C1428.94 354.75 1445.83 369.14 1466.69 379.567C1472.53 382.904 1478.37 385.407 1484.21 387.075C1490.46 388.744 1497.14 390.621 1504.23 392.706C1507.15 393.541 1509.86 393.958 1512.36 393.958C1514.86 393.541 1517.57 393.749 1520.49 394.583C1523 395.418 1525.71 395.835 1528.63 395.835C1531.96 395.418 1535.3 395.209 1538.64 395.209H1544.9C1546.98 394.792 1549.07 394.583 1551.15 394.583C1553.24 394.166 1555.32 393.958 1557.41 393.958C1563.25 392.706 1568.67 391.664 1573.68 390.829C1579.1 389.995 1584.1 388.535 1588.69 386.45C1609.96 377.69 1627.27 366.22 1640.62 352.038C1654.39 337.857 1665.65 320.13 1674.41 298.857C1676.49 293.435 1678.16 287.804 1679.41 281.964C1681.08 276.125 1682.75 270.285 1684.42 264.446C1685.25 261.943 1685.67 259.44 1685.67 256.938C1686.09 254.018 1686.71 251.098 1687.55 248.179L1689.42 227.532V221.901ZM1839.44 -12.0967H2032.76H2083.44C2088.03 -12.0967 2092.41 -12.0967 2096.58 -12.0967C2101.17 -12.0967 2104.72 -11.2625 2107.22 -9.59408C2110.56 -7.50854 2112.43 -4.38022 2112.85 -0.209126C2113.68 3.54482 2114.1 8.133 2114.1 13.5554C2114.1 15.6409 2114.1 17.7265 2114.1 19.812C2114.52 21.4804 2114.31 23.1489 2113.48 24.8173C2111.81 31.491 2108.05 35.245 2102.21 36.0792C2096.79 36.4963 2089.91 36.7049 2081.57 36.7049H2016.5H1924.53C1917.85 36.7049 1910.76 36.7049 1903.25 36.7049C1895.74 36.2878 1890.11 37.5391 1886.36 40.4589C1882.61 42.9615 1880.52 47.3411 1880.1 53.5977C1880.1 59.8544 1880.1 66.111 1880.1 72.3676V134.308C1880.1 137.645 1879.89 141.816 1879.48 146.821C1879.48 151.827 1879.89 155.998 1880.73 159.335V164.34C1881.56 166.843 1882.19 169.345 1882.61 171.848C1883.44 173.933 1884.9 175.602 1886.99 176.853C1890.74 179.356 1896.58 180.607 1904.5 180.607C1912.43 180.19 1919.31 179.981 1925.15 179.981H2037.77C2041.52 179.981 2045.49 179.981 2049.66 179.981C2054.25 179.564 2058.63 179.564 2062.8 179.981C2067.38 179.981 2071.35 180.399 2074.68 181.233C2078.44 182.067 2080.94 183.527 2082.19 185.612C2084.28 188.115 2085.32 191.243 2085.32 194.997C2085.32 198.751 2085.32 202.922 2085.32 207.511C2085.32 210.013 2085.32 212.307 2085.32 214.393C2085.32 216.478 2084.9 218.355 2084.07 220.024C2082.4 224.195 2080.11 226.489 2077.19 226.906C2075.52 227.74 2073.85 228.157 2072.18 228.157C2070.93 228.157 2069.26 228.366 2067.18 228.783C2065.51 229.2 2063.63 229.409 2061.55 229.409C2059.88 228.992 2058.21 228.783 2056.54 228.783H2034.64H1928.9C1922.23 228.783 1914.31 228.783 1905.13 228.783C1896.37 228.366 1890.11 229.617 1886.36 232.537C1884.27 234.205 1882.61 236.917 1881.35 240.671C1880.52 244.007 1879.89 247.97 1879.48 252.558C1879.48 257.146 1879.48 261.943 1879.48 266.948C1879.89 271.537 1880.1 275.708 1880.1 279.462V387.075C1880.1 394.166 1880.31 401.883 1880.73 410.225C1881.15 418.567 1879.69 424.824 1876.35 428.995C1875.1 430.663 1873.22 431.706 1870.72 432.123C1868.22 432.123 1865.71 432.54 1863.21 433.374H1851.32C1845.48 433.374 1840.06 433.166 1835.06 432.749C1830.05 432.332 1826.5 430.246 1824.42 426.492C1822.75 423.989 1821.92 420.653 1821.92 416.481C1821.92 411.893 1821.92 407.305 1821.92 402.717V352.664V91.1374V23.566C1821.92 18.9778 1821.71 13.9725 1821.29 8.55013C1821.29 2.71063 1822.33 -1.87756 1824.42 -5.21443C1826.09 -7.71707 1829.22 -9.8026 1833.8 -11.471C1834.64 -11.8882 1835.47 -11.8882 1836.31 -11.471C1837.56 -11.471 1838.6 -11.6796 1839.44 -12.0967ZM2582.86 201.88C2583.28 203.965 2583.48 207.093 2583.48 211.264C2583.48 215.018 2583.28 217.938 2582.86 220.024V227.532C2582.02 231.703 2581.61 236.082 2581.61 240.671C2581.61 244.842 2581.19 248.804 2580.36 252.558C2579.52 255.895 2578.9 259.023 2578.48 261.943C2578.06 264.863 2577.64 267.991 2577.23 271.328C2575.14 278.419 2573.26 285.301 2571.6 291.975C2569.93 298.649 2567.84 305.114 2565.34 311.37C2552.83 341.819 2536.35 367.263 2515.91 387.701C2495.89 408.139 2469.61 423.781 2437.08 434.626C2432.49 435.877 2427.9 436.92 2423.31 437.754C2418.73 438.588 2414.14 439.631 2409.55 440.882C2407.46 441.299 2405.59 441.508 2403.92 441.508C2402.25 441.508 2400.58 441.716 2398.91 442.134L2378.27 444.011C2377.02 444.428 2374.1 444.428 2369.51 444.011C2365.34 444.011 2362.63 443.802 2361.37 443.385C2359.29 442.968 2357.2 442.759 2355.12 442.759C2353.45 443.176 2351.78 443.176 2350.11 442.759H2343.23C2340.31 441.925 2337.39 441.299 2334.47 440.882C2331.97 440.882 2329.26 440.674 2326.34 440.257C2322.17 439.005 2317.99 437.963 2313.82 437.128C2310.07 436.711 2306.11 435.877 2301.94 434.626C2297.76 432.957 2293.59 431.289 2289.42 429.62C2285.25 427.952 2281.08 426.284 2276.91 424.615C2251.47 413.353 2230.4 397.92 2213.72 378.316C2197.45 358.295 2183.89 335.145 2173.05 308.868C2170.55 303.028 2168.67 296.98 2167.42 290.723C2166.17 284.467 2164.5 278.002 2162.41 271.328C2161.58 269.66 2161.16 268.2 2161.16 266.948C2161.58 265.697 2161.37 264.029 2160.54 261.943C2159.7 259.023 2159.29 255.895 2159.29 252.558C2159.29 249.221 2158.87 245.884 2158.03 242.548C2157.2 240.879 2156.78 239.211 2156.78 237.542C2157.2 235.874 2157.2 234.414 2156.78 233.163V220.024C2155.95 217.938 2155.53 215.018 2155.53 211.264C2155.53 207.511 2155.95 204.591 2156.78 202.505V194.372L2158.66 171.848C2159.49 169.345 2159.91 166.843 2159.91 164.34C2159.91 161.837 2160.33 159.335 2161.16 156.832C2162.83 150.158 2164.29 143.693 2165.54 137.436C2166.79 130.763 2168.67 124.506 2171.17 118.667C2174.51 110.742 2177.64 103.025 2180.56 95.5171C2183.48 88.0091 2187.23 80.9183 2191.82 74.2446C2203.5 55.4747 2217.26 39.2075 2233.11 25.443C2248.96 11.6784 2267.73 0.416515 2289.42 -8.34273C2294.01 -10.4283 2298.81 -12.0967 2303.81 -13.348C2309.24 -14.5994 2314.66 -16.0593 2320.08 -17.7277C2322.58 -18.5619 2325.09 -18.979 2327.59 -18.979C2330.51 -18.979 2333.22 -19.3961 2335.72 -20.2303C2339.06 -20.6474 2342.19 -20.856 2345.11 -20.856C2348.44 -21.2731 2351.78 -21.6902 2355.12 -22.1073C2355.95 -22.5244 2356.99 -22.5244 2358.25 -22.1073C2359.5 -21.6902 2360.54 -21.6902 2361.37 -22.1073C2389.32 -22.9415 2413.72 -20.0217 2434.58 -13.348C2455.43 -7.09143 2473.78 1.66783 2489.63 12.9297C2495.89 17.1008 2501.94 21.4805 2507.78 26.0687C2513.62 30.6568 2518.83 35.8707 2523.42 41.7102C2524.67 43.7957 2526.13 45.4642 2527.8 46.7155C2529.47 47.9668 2530.93 49.6352 2532.18 51.7208C2534.68 55.0576 2537.18 58.603 2539.69 62.357C2542.19 65.6939 2544.48 69.0307 2546.57 72.3676C2547.4 74.4531 2548.24 76.3301 2549.07 77.9986C2549.91 79.2499 2550.95 80.9183 2552.2 83.0038C2553.87 85.5065 2555.33 88.0091 2556.58 90.5118C2559.92 98.0197 2563.25 105.945 2566.59 114.287C2567.42 116.79 2568.05 119.292 2568.47 121.795C2569.3 123.88 2570.14 126.174 2570.97 128.677C2572.22 132.848 2573.26 137.228 2574.1 141.816C2575.35 145.987 2576.6 150.367 2577.85 154.955C2578.69 157.04 2579.1 159.126 2579.1 161.212C2579.1 163.297 2579.31 165.383 2579.73 167.468C2580.56 170.388 2580.98 173.308 2580.98 176.227C2580.98 179.147 2581.4 182.275 2582.23 185.612V189.366C2582.65 191.452 2582.65 193.537 2582.23 195.623C2581.82 197.708 2582.02 199.794 2582.86 201.88ZM2524.05 221.901C2524.88 219.815 2525.3 216.27 2525.3 211.264C2525.3 205.842 2524.88 202.088 2524.05 200.003V194.997C2524.05 192.912 2523.84 191.035 2523.42 189.366C2523.42 187.698 2523.42 185.821 2523.42 183.735C2522.59 181.65 2522.17 179.773 2522.17 178.104C2522.59 176.019 2522.38 173.933 2521.54 171.848C2520.71 168.094 2519.87 164.34 2519.04 160.586C2518.62 156.832 2518 153.287 2517.16 149.95C2515.08 144.11 2513.2 138.688 2511.53 133.682C2510.28 128.26 2508.61 123.046 2506.53 118.041C2499.44 100.939 2489.63 85.5065 2477.12 71.7419C2465.02 57.9774 2450.63 47.3411 2433.95 39.8332C2424.77 35.6621 2413.93 32.3253 2401.42 29.8226C2395.58 28.1542 2388.9 27.32 2381.39 27.32C2374.3 26.9029 2367.21 26.6943 2360.12 26.6943C2357.2 27.1114 2354.28 27.5285 2351.36 27.9456C2348.86 27.9456 2345.94 28.1542 2342.6 28.5713C2336.35 30.2397 2330.3 31.9081 2324.46 33.5766C2319.04 34.8279 2313.61 36.4963 2308.19 38.5819C2285.67 48.1754 2267.94 61.9399 2255.01 79.8755C2242.08 97.8112 2231.65 118.875 2223.73 143.067C2222.06 147.656 2220.81 152.452 2219.97 157.458C2219.56 162.046 2218.72 166.842 2217.47 171.848C2217.05 173.933 2216.85 176.019 2216.85 178.104C2216.85 179.773 2216.64 181.65 2216.22 183.735C2215.39 185.404 2214.97 187.281 2214.97 189.366C2215.39 191.035 2215.39 192.703 2214.97 194.372V200.003C2214.55 202.088 2214.34 205.842 2214.34 211.264C2214.34 216.687 2214.55 220.441 2214.97 222.526C2214.97 224.195 2214.97 225.863 2214.97 227.532C2215.39 228.783 2215.59 230.243 2215.59 231.911C2216.43 235.248 2216.85 239.002 2216.85 243.173C2217.26 246.927 2217.89 250.473 2218.72 253.809C2219.14 255.478 2219.14 257.146 2218.72 258.815C2218.72 260.066 2219.14 261.526 2219.97 263.194C2221.23 267.783 2222.27 272.371 2223.1 276.959C2223.94 281.547 2225.4 286.135 2227.48 290.723C2229.57 295.312 2231.24 299.9 2232.49 304.488C2234.16 308.659 2236.24 312.83 2238.74 317.001C2240.83 320.338 2242.71 323.675 2244.38 327.012C2246.46 329.932 2248.55 333.06 2250.63 336.397C2263.56 354.75 2280.45 369.14 2301.31 379.567C2307.15 382.904 2312.99 385.407 2318.83 387.075C2325.09 388.744 2331.76 390.621 2338.85 392.706C2341.77 393.541 2344.48 393.958 2346.98 393.958C2349.49 393.541 2352.2 393.749 2355.12 394.583C2357.62 395.418 2360.33 395.835 2363.25 395.835C2366.59 395.418 2369.92 395.209 2373.26 395.209H2379.52C2381.6 394.792 2383.69 394.583 2385.77 394.583C2387.86 394.166 2389.95 393.958 2392.03 393.958C2397.87 392.706 2403.29 391.664 2408.3 390.829C2413.72 389.995 2418.73 388.535 2423.31 386.45C2444.59 377.69 2461.9 366.22 2475.24 352.038C2489.01 337.857 2500.27 320.13 2509.03 298.857C2511.12 293.435 2512.78 287.804 2514.04 281.964C2515.7 276.125 2517.37 270.285 2519.04 264.446C2519.87 261.943 2520.29 259.44 2520.29 256.938C2520.71 254.018 2521.33 251.098 2522.17 248.179L2524.05 227.532V221.901ZM2674.68 -12.0967C2677.6 -12.0967 2680.94 -12.0967 2684.69 -12.0967C2688.45 -12.5138 2691.99 -12.5138 2695.33 -12.0967C2699.08 -12.0967 2702.42 -11.6796 2705.34 -10.8454C2708.26 -10.0112 2710.35 -8.75986 2711.6 -7.09143C2714.1 -3.75456 2715.35 0.625078 2715.35 6.04748C2715.35 11.4699 2715.35 17.1008 2715.35 22.9404V88.6348V289.472V347.033C2715.35 351.621 2715.35 356.627 2715.35 362.049C2715.35 367.471 2715.98 371.851 2717.23 375.188C2718.48 378.108 2720.77 380.61 2724.11 382.696C2726.2 383.53 2728.91 384.156 2732.24 384.573C2735.58 384.573 2738.92 384.573 2742.26 384.573H2774.16H2886.78H2921.82C2924.74 384.573 2927.66 384.573 2930.58 384.573C2933.92 384.156 2936.84 384.364 2939.34 385.198C2944.76 386.867 2948.31 389.161 2949.97 392.081C2950.39 393.332 2950.81 395.418 2951.23 398.337C2951.64 401.257 2951.85 404.385 2951.85 407.722C2952.27 410.642 2952.27 413.77 2951.85 417.107C2951.43 420.027 2951.02 422.321 2950.6 423.989C2949.77 426.909 2947.89 429.203 2944.97 430.872C2942.88 432.54 2939.76 433.374 2935.58 433.374C2931.83 433.374 2928.08 433.374 2924.32 433.374H2883.03H2724.74H2684.07C2678.23 433.374 2673.22 433.166 2669.05 432.749C2664.88 431.914 2661.75 429.829 2659.67 426.492C2658 423.989 2657.17 420.861 2657.17 417.107C2657.17 412.936 2657.17 408.974 2657.17 405.22V360.172V189.366V53.5977V14.8067C2657.17 11.0528 2657.17 7.2988 2657.17 3.54483C2657.58 -0.209139 2658.42 -3.12889 2659.67 -5.21443C2661.34 -7.71707 2664.46 -9.8026 2669.05 -11.471C2669.89 -11.8882 2670.72 -11.8882 2671.56 -11.471C2672.81 -11.471 2673.85 -11.6796 2674.68 -12.0967ZM3024.84 -10.8454C3027.76 -10.8454 3031.1 -10.8454 3034.85 -10.8454C3038.61 -11.2625 3042.15 -11.2625 3045.49 -10.8454C3049.24 -10.8454 3052.58 -10.4283 3055.5 -9.59408C3058.42 -8.75985 3060.51 -7.50852 3061.76 -5.84008C3064.26 -2.92034 3065.51 1.25073 3065.51 6.67314C3065.93 11.6784 3066.14 16.8923 3066.14 22.3147V83.0038V324.509V397.712C3066.14 403.134 3066.14 408.974 3066.14 415.23C3066.14 421.07 3065.09 425.658 3063.01 428.995C3061.34 431.08 3059.26 432.332 3056.75 432.749C3054.67 433.166 3051.96 433.791 3048.62 434.626H3036.73C3030.89 434.626 3025.47 434.417 3020.46 434C3015.46 433.583 3011.91 431.497 3009.83 427.743C3008.16 425.241 3007.33 421.904 3007.33 417.733C3007.33 413.145 3007.33 408.556 3007.33 403.968V353.915V92.3888V24.8173C3007.33 20.2291 3007.12 15.2238 3006.7 9.80144C3006.7 3.96193 3007.74 -0.626253 3009.83 -3.96312C3011.5 -6.88286 3014.83 -8.9684 3019.84 -10.2197C3020.67 -10.6368 3021.51 -10.6368 3022.34 -10.2197C3023.18 -10.2197 3024.01 -10.4283 3024.84 -10.8454ZM3567.79 201.88C3568.2 203.965 3568.41 207.093 3568.41 211.264C3568.41 215.018 3568.2 217.938 3567.79 220.024V227.532C3566.95 231.703 3566.53 236.082 3566.53 240.671C3566.53 244.842 3566.12 248.804 3565.28 252.558C3564.45 255.895 3563.82 259.023 3563.41 261.943C3562.99 264.863 3562.57 267.991 3562.16 271.328C3560.07 278.419 3558.19 285.301 3556.52 291.975C3554.86 298.649 3552.77 305.114 3550.27 311.37C3537.75 341.819 3521.28 367.263 3500.84 387.701C3480.82 408.139 3454.54 423.781 3422.01 434.626C3417.42 435.877 3412.83 436.92 3408.24 437.754C3403.65 438.588 3399.07 439.631 3394.48 440.882C3392.39 441.299 3390.52 441.508 3388.85 441.508C3387.18 441.508 3385.51 441.716 3383.84 442.134L3363.19 444.011C3361.94 444.428 3359.02 444.428 3354.44 444.011C3350.26 444.011 3347.55 443.802 3346.3 443.385C3344.22 442.968 3342.13 442.759 3340.05 442.759C3338.38 443.176 3336.71 443.176 3335.04 442.759H3328.16C3325.24 441.925 3322.32 441.299 3319.4 440.882C3316.9 440.882 3314.18 440.674 3311.26 440.257C3307.09 439.005 3302.92 437.963 3298.75 437.128C3295 436.711 3291.04 435.877 3286.86 434.626C3282.69 432.957 3278.52 431.289 3274.35 429.62C3270.18 427.952 3266.01 426.284 3261.84 424.615C3236.39 413.353 3215.33 397.92 3198.65 378.316C3182.38 358.295 3168.82 335.145 3157.98 308.868C3155.48 303.028 3153.6 296.98 3152.35 290.723C3151.1 284.467 3149.43 278.002 3147.34 271.328C3146.51 269.66 3146.09 268.2 3146.09 266.948C3146.51 265.697 3146.3 264.029 3145.46 261.943C3144.63 259.023 3144.21 255.895 3144.21 252.558C3144.21 249.221 3143.8 245.884 3142.96 242.548C3142.13 240.879 3141.71 239.211 3141.71 237.542C3142.13 235.874 3142.13 234.414 3141.71 233.163V220.024C3140.88 217.938 3140.46 215.018 3140.46 211.264C3140.46 207.511 3140.88 204.591 3141.71 202.505V194.372L3143.59 171.848C3144.42 169.345 3144.84 166.843 3144.84 164.34C3144.84 161.837 3145.26 159.335 3146.09 156.832C3147.76 150.158 3149.22 143.693 3150.47 137.436C3151.72 130.763 3153.6 124.506 3156.1 118.667C3159.44 110.742 3162.57 103.025 3165.49 95.5171C3168.41 88.0091 3172.16 80.9183 3176.75 74.2446C3188.43 55.4747 3202.19 39.2075 3218.04 25.443C3233.89 11.6784 3252.66 0.416515 3274.35 -8.34273C3278.94 -10.4283 3283.74 -12.0967 3288.74 -13.348C3294.16 -14.5994 3299.59 -16.0593 3305.01 -17.7277C3307.51 -18.5619 3310.01 -18.979 3312.52 -18.979C3315.44 -18.979 3318.15 -19.3961 3320.65 -20.2303C3323.99 -20.6474 3327.11 -20.856 3330.03 -20.856C3333.37 -21.2731 3336.71 -21.6902 3340.05 -22.1073C3340.88 -22.5244 3341.92 -22.5244 3343.17 -22.1073C3344.42 -21.6902 3345.47 -21.6902 3346.3 -22.1073C3374.25 -22.9415 3398.65 -20.0217 3419.5 -13.348C3440.36 -7.09143 3458.71 1.66783 3474.56 12.9297C3480.82 17.1008 3486.87 21.4805 3492.71 26.0687C3498.55 30.6568 3503.76 35.8707 3508.35 41.7102C3509.6 43.7957 3511.06 45.4642 3512.73 46.7155C3514.4 47.9668 3515.86 49.6352 3517.11 51.7208C3519.61 55.0576 3522.11 58.603 3524.62 62.357C3527.12 65.6939 3529.41 69.0307 3531.5 72.3676C3532.33 74.4531 3533.17 76.3301 3534 77.9986C3534.83 79.2499 3535.88 80.9183 3537.13 83.0038C3538.8 85.5065 3540.26 88.0091 3541.51 90.5118C3544.85 98.0197 3548.18 105.945 3551.52 114.287C3552.35 116.79 3552.98 119.292 3553.4 121.795C3554.23 123.88 3555.06 126.174 3555.9 128.677C3557.15 132.848 3558.19 137.228 3559.03 141.816C3560.28 145.987 3561.53 150.367 3562.78 154.955C3563.62 157.04 3564.03 159.126 3564.03 161.212C3564.03 163.297 3564.24 165.383 3564.66 167.468C3565.49 170.388 3565.91 173.308 3565.91 176.227C3565.91 179.147 3566.33 182.275 3567.16 185.612V189.366C3567.58 191.452 3567.58 193.537 3567.16 195.623C3566.74 197.708 3566.95 199.794 3567.79 201.88ZM3508.97 221.901C3509.81 219.815 3510.23 216.27 3510.23 211.264C3510.23 205.842 3509.81 202.088 3508.97 200.003V194.997C3508.97 192.912 3508.77 191.035 3508.35 189.366C3508.35 187.698 3508.35 185.821 3508.35 183.735C3507.51 181.65 3507.1 179.773 3507.1 178.104C3507.51 176.019 3507.31 173.933 3506.47 171.848C3505.64 168.094 3504.8 164.34 3503.97 160.586C3503.55 156.832 3502.93 153.287 3502.09 149.95C3500.01 144.11 3498.13 138.688 3496.46 133.682C3495.21 128.26 3493.54 123.046 3491.46 118.041C3484.36 100.939 3474.56 85.5065 3462.05 71.7419C3449.95 57.9774 3435.56 47.3411 3418.88 39.8332C3409.7 35.6621 3398.86 32.3253 3386.34 29.8226C3380.5 28.1542 3373.83 27.32 3366.32 27.32C3359.23 26.9029 3352.14 26.6943 3345.05 26.6943C3342.13 27.1114 3339.21 27.5285 3336.29 27.9456C3333.79 27.9456 3330.87 28.1542 3327.53 28.5713C3321.28 30.2397 3315.23 31.9081 3309.39 33.5766C3303.97 34.8279 3298.54 36.4963 3293.12 38.5819C3270.6 48.1754 3252.87 61.9399 3239.94 79.8755C3227.01 97.8112 3216.58 118.875 3208.66 143.067C3206.99 147.656 3205.74 152.452 3204.9 157.458C3204.49 162.046 3203.65 166.842 3202.4 171.848C3201.98 173.933 3201.77 176.019 3201.77 178.104C3201.77 179.773 3201.57 181.65 3201.15 183.735C3200.31 185.404 3199.9 187.281 3199.9 189.366C3200.31 191.035 3200.31 192.703 3199.9 194.372V200.003C3199.48 202.088 3199.27 205.842 3199.27 211.264C3199.27 216.687 3199.48 220.441 3199.9 222.526C3199.9 224.195 3199.9 225.863 3199.9 227.532C3200.31 228.783 3200.52 230.243 3200.52 231.911C3201.36 235.248 3201.77 239.002 3201.77 243.173C3202.19 246.927 3202.82 250.473 3203.65 253.809C3204.07 255.478 3204.07 257.146 3203.65 258.815C3203.65 260.066 3204.07 261.526 3204.9 263.194C3206.15 267.783 3207.2 272.371 3208.03 276.959C3208.86 281.547 3210.32 286.135 3212.41 290.723C3214.5 295.312 3216.16 299.9 3217.42 304.488C3219.08 308.659 3221.17 312.83 3223.67 317.001C3225.76 320.338 3227.63 323.675 3229.3 327.012C3231.39 329.932 3233.47 333.06 3235.56 336.397C3248.49 354.75 3265.38 369.14 3286.24 379.567C3292.08 382.904 3297.92 385.407 3303.76 387.075C3310.01 388.744 3316.69 390.621 3323.78 392.706C3326.7 393.541 3329.41 393.958 3331.91 393.958C3334.41 393.541 3337.13 393.749 3340.05 394.583C3342.55 395.418 3345.26 395.835 3348.18 395.835C3351.52 395.418 3354.85 395.209 3358.19 395.209H3364.45C3366.53 394.792 3368.62 394.583 3370.7 394.583C3372.79 394.166 3374.87 393.958 3376.96 393.958C3382.8 392.706 3388.22 391.664 3393.23 390.829C3398.65 389.995 3403.65 388.535 3408.24 386.45C3429.51 377.69 3446.82 366.22 3460.17 352.038C3473.94 337.857 3485.2 320.13 3493.96 298.857C3496.04 293.435 3497.71 287.804 3498.96 281.964C3500.63 276.125 3502.3 270.285 3503.97 264.446C3504.8 261.943 3505.22 259.44 3505.22 256.938C3505.64 254.018 3506.26 251.098 3507.1 248.179L3508.97 227.532V221.901Z" fill="#FFC9A7"/>
</mask>
<g mask="url(#mask0_5841_2887)">
<rect x="-16" width="1678" height="498" fill="#FFC9A7"/>
</g>
</svg>
