<svg width="62" height="19" viewBox="0 0 62 19" fill="none" xmlns="http://www.w3.org/2000/svg">
<path d="M18.4193 14.4899C18.4779 14.3908 18.5268 14.2846 18.5976 14.1947C19.2412 13.377 19.8977 12.5691 20.5317 11.7436C20.8638 11.311 21.1347 10.836 21.3233 10.3181C21.6258 9.4893 21.499 8.70029 21.1077 7.93473C20.7087 7.15354 20.1886 6.45574 19.6081 5.81137C18.2591 4.31348 16.8875 2.8358 15.5243 1.35094C15.3164 1.12486 15.1028 0.903986 14.8929 0.679206C14.6979 0.470062 14.6825 0.277207 14.8453 0.107807C14.9991 -0.0524713 15.2038 -0.0342282 15.4104 0.163839C16.4634 1.17503 17.5105 2.19208 18.568 3.19805C19.5708 4.1519 20.5658 5.11813 21.685 5.93451C22.0995 6.23682 22.5456 6.50721 23.0064 6.72873C23.7974 7.10858 24.5884 7.01932 25.353 6.6095C26.0816 6.21858 26.7188 5.6967 27.3605 5.18068C27.6205 4.97154 27.876 4.75718 28.1354 4.54673C28.3317 4.38711 28.5209 4.3858 28.667 4.54022C28.8073 4.68812 28.8002 4.87315 28.6516 5.06796C28.0974 5.79182 27.5355 6.50917 26.9942 7.2428C26.7188 7.61613 26.5057 8.03051 26.3667 8.48072C26.1704 9.11857 26.2464 9.73363 26.5122 10.3317C26.8584 11.111 27.3566 11.7925 27.9159 12.4212C29.1047 13.7588 30.3166 15.0756 31.524 16.3956C32.0151 16.9325 32.5249 17.4517 33.014 17.9906C33.09 18.0746 33.1479 18.2271 33.1318 18.3352C33.0848 18.6512 32.7617 18.7405 32.5223 18.5157C32.2243 18.2355 31.9347 17.945 31.6373 17.6641C30.3308 16.4275 29.0307 15.1837 27.7119 13.9615C27.0329 13.3321 26.3139 12.7463 25.5056 12.287C24.9405 11.9658 24.347 11.7495 23.6848 11.8049C23.121 11.8518 22.6202 12.0811 22.1446 12.3717C21.3253 12.8727 20.598 13.4976 19.863 14.1113C19.5984 14.3322 19.3371 14.557 19.0732 14.7778C18.9484 14.8827 18.8042 14.9212 18.6542 14.8488C18.5184 14.7837 18.4464 14.6658 18.4193 14.4905V14.4899Z" fill="black"/>
<path d="M11.6806 10.2707C11.8982 10.874 12.2547 11.3275 12.7555 11.665C13.2176 11.9764 13.7312 12.1295 14.2866 12.1302C15.2083 12.1315 16.1306 12.1282 17.0523 12.1321C17.4603 12.1341 17.7853 12.3797 17.9134 12.7661C18.0383 13.1413 17.9224 13.5381 17.6148 13.7877C17.4545 13.9173 17.2692 13.9851 17.0651 13.9851C16.0952 13.987 15.1246 14.002 14.1547 13.9799C12.1839 13.9349 10.3689 12.4846 9.8476 10.5632C9.19111 8.1421 10.5099 5.67017 12.8784 4.88246C15.1478 4.12732 17.6862 5.34114 18.5564 7.59416C18.7617 8.12516 18.8711 8.6731 18.8801 9.2419C18.8898 9.84978 18.4837 10.2694 17.8825 10.27C15.8886 10.2713 13.8947 10.27 11.9007 10.27C11.837 10.27 11.7733 10.27 11.68 10.27L11.6806 10.2707ZM16.8489 8.36037C16.6095 7.51858 15.6678 6.50674 14.2493 6.51065C13.1082 6.51391 11.855 7.42606 11.6961 8.36037H16.8489Z" fill="black"/>
<path d="M37.9179 10.2576C38.0402 10.6232 38.2191 10.9203 38.4534 11.1828C39.0217 11.8181 39.738 12.1197 40.5792 12.123C41.4739 12.1263 42.3691 12.121 43.2638 12.1249C43.836 12.1269 44.2273 12.5563 44.1925 13.1316C44.1648 13.5824 43.8051 13.9681 43.323 13.9695C42.1773 13.9734 41.0311 13.9414 39.8854 13.9238C38.0666 13.585 36.7787 12.5686 36.164 10.7965C35.3119 8.33886 36.6596 5.73141 39.0378 4.89679C41.0381 4.19443 43.3816 5.06228 44.4609 6.92503C44.8702 7.63129 45.0955 8.38903 45.1168 9.20736C45.1335 9.86672 44.7563 10.2576 44.1063 10.2576C42.113 10.2583 40.1191 10.2576 38.1258 10.2576H37.9172H37.9179ZM37.9391 8.3545H43.0919C42.8622 7.53356 41.9315 6.50674 40.5072 6.5113C39.0938 6.51586 38.165 7.5492 37.9391 8.3545Z" fill="black"/>
<path d="M56.0221 13.9622C55.159 13.9622 54.2959 13.9557 53.4328 13.9642C52.7789 13.9707 52.3811 13.3517 52.5208 12.8122C52.6334 12.379 52.9842 12.1125 53.4643 12.1086C53.9522 12.1047 54.44 12.1073 54.9279 12.1073C56.1019 12.1073 57.2758 12.1105 58.4498 12.106C59.0484 12.1034 59.4686 11.6036 59.3779 11.0179C59.309 10.5742 58.9171 10.2445 58.4408 10.2432C57.5346 10.24 56.629 10.2445 55.7228 10.2406C55.2941 10.2387 54.8629 10.2563 54.4381 10.21C53.1972 10.0758 52.1822 9.03853 52.0406 7.79279C51.8965 6.52164 52.6218 5.30522 53.7893 4.85501C54.1182 4.72796 54.4568 4.65499 54.8088 4.65434C56.3259 4.65303 57.8429 4.65173 59.3599 4.65434C59.8361 4.65499 60.1921 4.94232 60.2931 5.39123C60.3845 5.79648 60.1798 6.23692 59.7879 6.41349C59.6424 6.47929 59.4674 6.5021 59.3052 6.5034C57.8255 6.50992 56.3458 6.50731 54.8661 6.50731C54.4349 6.50731 54.1092 6.68388 53.9329 7.09435C53.707 7.62014 54.0494 8.25995 54.608 8.35637C54.7129 8.37462 54.8211 8.37983 54.9279 8.37983C56.0806 8.38178 57.2334 8.37983 58.3854 8.38113C59.8844 8.38244 61.0397 9.41252 61.227 10.913C61.3615 11.99 60.723 13.1452 59.7177 13.6534C59.2974 13.8658 58.8546 13.9655 58.3841 13.9629C57.5964 13.9583 56.8079 13.9616 56.0201 13.9616L56.0221 13.9622Z" fill="black"/>
<path d="M1.85455 5.6326C2.06244 5.49969 2.25231 5.37133 2.44797 5.2534C3.21902 4.78821 4.06924 4.6579 4.94907 4.65529C6.37854 4.65138 7.4772 5.26122 8.23281 6.48676C8.56813 7.0308 8.74126 7.63347 8.74448 8.27458C8.7522 9.85717 8.75027 11.4398 8.74706 13.0223C8.74577 13.554 8.34737 13.9521 7.83376 13.9527C7.31436 13.9534 6.91274 13.5488 6.9121 13.0106C6.90953 11.5362 6.88507 10.0618 6.91918 8.58863C6.94814 7.34419 6.2112 6.68874 5.16017 6.54931C4.39749 6.44832 3.66955 6.53628 3.01821 6.97607C2.19631 7.53183 1.84747 8.34365 1.84296 9.32095C1.83782 10.5458 1.83975 11.7707 1.84232 12.9956C1.84296 13.354 1.7136 13.6426 1.4111 13.8335C0.807383 14.2147 0.0440521 13.8035 0.00157329 13.0784C0.000286052 13.0517 0.000286052 13.0243 0.000286052 12.9969C0.000286052 10.5471 -0.000357566 8.09737 0.000286052 5.64758C0.000286052 5.25927 0.153467 4.94979 0.502308 4.76801C1.08864 4.46244 1.76959 4.84424 1.83653 5.50946C1.84039 5.54529 1.84683 5.58048 1.85455 5.63195V5.6326Z" fill="black"/>
<path d="M31.3135 6.50717V6.70328C31.3135 7.86302 31.3122 9.02275 31.3135 10.1831C31.3148 11.2569 32.0093 12.0322 33.0706 12.1C33.7 12.1397 34.334 12.1189 34.966 12.1254C35.5878 12.1312 35.992 12.616 35.8922 13.2343C35.8278 13.6317 35.4861 13.9653 35.0471 13.9699C34.2175 13.9783 33.3744 14.0337 32.5608 13.908C31.0767 13.6786 30.0964 12.7626 29.6382 11.3168C29.5243 10.9572 29.4792 10.561 29.4766 10.1818C29.4625 7.90537 29.4689 5.62889 29.4695 3.35307C29.4695 2.85008 29.7038 2.50607 30.1312 2.37251C30.6692 2.20441 31.2491 2.57188 31.2955 3.14132C31.3296 3.56678 31.309 3.99679 31.3129 4.42485C31.3129 4.49391 31.3129 4.56363 31.3129 4.65419C31.3907 4.65419 31.4532 4.65419 31.5156 4.65419C32.5068 4.65419 33.4986 4.65224 34.4898 4.65484C34.9474 4.65615 35.3052 4.91676 35.414 5.31681C35.582 5.93512 35.1617 6.50326 34.5239 6.50651C33.5269 6.51173 32.5299 6.50782 31.5336 6.50782C31.4699 6.50782 31.4062 6.50782 31.3135 6.50782V6.50717Z" fill="black"/>
<path d="M47.8739 5.53914C48.2169 5.35802 48.54 5.16581 48.8805 5.0127C49.4353 4.76316 50.0242 4.6524 50.6311 4.65631C51.1525 4.65957 51.5509 5.0531 51.5554 5.55999C51.5599 6.08839 51.1853 6.48648 50.6575 6.50668C49.5209 6.55033 48.6771 7.06765 48.15 8.09252C47.9376 8.50494 47.8707 8.9532 47.8713 9.41449C47.8726 10.5964 47.87 11.7783 47.8726 12.9595C47.8732 13.3765 47.7168 13.6977 47.3365 13.8821C46.7817 14.1505 46.1149 13.7726 46.0473 13.1556C46.0396 13.0859 46.0364 13.0149 46.0364 12.9445C46.0364 10.5215 46.0376 8.09838 46.0344 5.67532C46.0344 5.2655 46.1741 4.94234 46.5448 4.75404C47.1099 4.46736 47.7651 4.81789 47.8584 5.45054C47.8629 5.48181 47.8687 5.51308 47.8732 5.5398L47.8739 5.53914Z" fill="black"/>
</svg>
