<svg width="72" height="15" viewBox="0 0 72 15" fill="none" xmlns="http://www.w3.org/2000/svg">
<path fill-rule="evenodd" clip-rule="evenodd" d="M32.2465 9.58602C30.7801 9.58602 30.1649 8.45534 30.1649 7.35427C30.1649 6.25319 30.7997 5.29189 32.2634 5.29189C33.7269 5.29189 34.2508 6.54073 34.2508 7.43196C34.2508 8.32319 33.7131 9.58602 32.2465 9.58602ZM32.4445 3.4034C31.3696 3.4034 30.6017 3.90628 30.3866 4.06017C30.4458 3.79961 30.6776 1.73698 33.5773 1.73698H35.3686L36.0326 0H33.608C30.4116 0 27.9829 1.41335 27.9829 6.3846C27.9829 9.11386 29.1973 11.2879 32.1834 11.2879C35.0231 11.2879 36.4161 9.2971 36.4161 7.36064C36.4161 4.55643 34.2593 3.4034 32.4445 3.4034ZM3.41464 5.34598H2.30832V1.86077H3.44674C4.2554 1.86077 5.56057 2.33617 5.56057 3.61074C5.56057 4.89618 4.2554 5.34598 3.41464 5.34598ZM3.60525 0H0V11.1055H2.30832V7.19001H3.55766C5.91294 7.19001 7.88563 5.98402 7.88563 3.6035C7.88563 1.22298 5.91294 0 3.60525 0ZM41.8314 3.4034L44.7756 11.1055H42.3845L40.6741 6.19336H40.6445L38.9398 11.1055H36.557L39.5012 3.4034H41.8314ZM71.8995 0L66.2512 14.773H63.9495L69.5967 0H71.8995ZM24.6855 3.4034H26.5894V11.1055H24.3609V6.5932L22.2008 9.3051H21.5968L21.5464 9.24427L19.4197 6.63054V11.1055H17.1901V3.4034H19.0952L19.1442 3.4606L21.9123 6.65415L24.6855 3.4034ZM13.278 7.8945C13.278 8.94798 12.6658 9.67383 11.4799 9.67383C10.3328 9.67383 10.2355 9.02655 10.2355 8.77985C10.2355 8.21014 10.7739 7.83042 12.0556 7.71825C12.4086 7.68727 12.7692 7.67229 13.1261 7.67229H13.278V7.8945ZM15.3648 7.05636C15.3648 6.9011 15.3623 6.75221 15.3557 6.60806C15.2468 4.20931 14.1894 3.22103 11.9074 3.22103C10.3623 3.22103 9.35768 3.82609 9.00419 4.07266L9.606 5.64626C9.606 5.64626 10.5453 4.87907 11.7323 4.87907C13.4117 4.87907 13.2457 6.21085 13.2457 6.21085C12.6714 6.21585 8.10122 5.98789 8.10122 8.84068C8.10122 10.4233 9.46186 11.2879 10.989 11.2879C12.3475 11.2879 13.0783 10.6324 13.3193 10.3778C13.3205 10.4125 13.3669 11.1054 13.3669 11.1054H15.4432C15.4432 11.1054 15.3648 10.4373 15.3648 9.39078V7.05636ZM58.6558 9.58652C57.1832 9.58652 56.3702 8.38552 56.3702 7.23898C56.3702 6.09256 57.2012 4.89131 58.6558 4.89131C60.1102 4.89131 60.9071 5.9358 60.9071 7.23898C60.9071 8.54215 60.1283 9.58652 58.6558 9.58652ZM58.9348 3.2209C57.5124 3.2209 56.6547 3.96586 56.4023 4.23154V3.40327H54.2526V14.7674H56.4809V10.3506C56.7333 10.609 57.6206 11.2879 58.9348 11.2879C60.9961 11.2879 62.8918 9.80798 62.8918 7.23898C62.8918 4.55193 60.8051 3.2209 58.9348 3.2209ZM47.1239 6.39334C47.1865 5.87584 47.7356 4.83498 49.0896 4.83498C50.5974 4.83498 50.8415 5.96865 50.8776 6.39334H47.1239ZM49.0896 3.2209C46.5974 3.2209 44.9047 4.97662 44.9047 7.27008C44.9047 9.56341 46.6179 11.2879 49.1682 11.2879C51.7184 11.2879 52.8058 9.54842 52.8058 9.54842L51.1816 8.49793C51.1816 8.49793 50.6269 9.58602 49.1837 9.58602C47.6975 9.58602 47.0994 8.36728 47.0994 7.90199H52.9888C52.9888 7.90199 53.0209 7.56549 53.0209 7.46743V7.20787C53.0209 4.93615 51.5817 3.2209 49.0896 3.2209Z" fill="black"/>
</svg>
