<svg width="1615" height="892" viewBox="0 0 1615 892" fill="none" xmlns="http://www.w3.org/2000/svg">
<path d="M1614.45 179.544C1614.45 174.389 1612.81 170.824 1608.67 167.905C1603.93 164.567 1599.44 160.88 1594.8 157.385C1576.87 143.823 1558.92 130.279 1541 116.7C1524.71 104.362 1508.41 92.0063 1492.14 79.6507C1482.21 72.101 1472.16 64.6911 1461.64 57.9802C1456.62 54.7821 1451.03 52.5626 1445.13 51.3742C1422.41 46.778 1399.7 42.1468 1376.94 37.6904C1370.49 36.4321 1364.23 36.6593 1359.27 42.1119C1357.33 44.244 1354.99 45.9741 1352.94 48.0188C1351.19 49.749 1349.55 49.7315 1347.51 48.4557C1340.74 44.2265 1333.92 40.1021 1327.07 36.0127C1320.5 32.0805 1314.33 27.2571 1306.37 26.2435C1280.19 22.8531 1254 19.4278 1227.8 16.1248C1222.8 15.4957 1218.55 16.719 1215.48 21.4725C1213.34 24.758 1212.22 28.2183 1211.49 31.9058C1210.79 35.401 1209.29 35.8904 1206.44 33.8456C1199.85 29.1096 1193.15 24.4959 1186.49 19.8647C1180.53 15.7229 1174.5 11.5985 1166.98 10.9519C1144.54 8.99452 1122.06 7.36924 1099.65 5.09734C1092.92 4.41577 1088.67 7.08962 1084.79 11.8781C1079.51 18.4142 1073.99 24.7755 1068.67 31.2941C1066.91 33.4437 1065.53 33.4612 1063.24 31.766C1053.48 24.4959 1043.59 17.3831 1033.64 10.3577C1026 4.94005 1017.74 1.32249 1008.05 2.30115C1007.19 2.38853 1006.3 2.24872 1005.45 2.21377C987.581 1.5322 969.716 1.06034 951.869 0.0292487C946.502 -0.285322 943.251 1.95163 940.926 6.05853C938.409 10.4975 935.245 14.482 932.64 18.8336C931.277 21.123 930.14 21.1929 928.2 19.8647C923.655 16.7539 918.988 13.8354 914.478 10.6722C906.559 5.11481 898.221 1.39239 888.152 2.3361C878.328 3.26234 868.452 4.06624 858.592 4.1012C828.911 4.22353 799.386 7.21196 769.774 8.62753C744.951 9.79843 720.164 11.5985 695.342 12.9616C674.61 14.115 653.93 15.9675 633.233 17.4006C611.645 18.886 590.039 20.1618 568.45 21.7696C561.948 22.2589 557.018 24.426 553.574 29.931C552.875 31.032 552.071 32.0805 551.442 33.2165C550.131 35.5933 548.627 36.5195 545.918 34.9466C539.852 31.4165 533.472 28.4805 526.235 28.8824C521.603 29.1445 517.04 30.2455 512.408 30.5252C496.605 31.4689 480.978 34.0204 465.21 35.4709C448.307 37.0263 431.525 39.7701 414.691 42.0594C399.169 44.1741 383.611 46.1838 368.123 48.5955C351.377 51.1995 334.701 54.3102 317.954 56.9666C309.983 58.2249 303.166 61.0036 298.865 68.3087C297.397 70.7903 295.754 73.202 294.006 75.5088C287.625 83.9498 281.158 92.3559 274.707 100.762C273.256 102.649 271.683 103.785 269.183 102.212C258.38 95.3792 246.948 89.7869 235.254 84.6664C219.696 77.8506 203.719 73.0447 186.588 72.5379C170.681 72.066 155.018 73.2719 139.443 76.7846C123.098 80.4721 106.772 84.1071 90.8294 89.35C79.7293 92.985 68.4893 96.2006 57.3542 99.7832C41.9538 104.729 26.7108 110.164 11.7999 116.403C4.1259 119.496 -0.0519539 125.263 0.000487752 134.124C0.524904 223.899 0.857034 313.674 1.32901 403.467C1.87091 506.786 2.48273 610.087 3.0421 713.407C3.0421 715.923 3.11203 718.178 5.10481 720.187C9.54487 724.679 14.2297 728.96 18.8795 733.172C32.5143 745.545 46.691 757.307 60.5356 769.453C77.8938 784.657 94.9723 800.193 112.453 815.24C138.289 837.487 164.038 859.804 188.633 883.397C197.985 892.38 205.572 892.642 212.197 888.43C212.407 888.256 212.599 888.081 212.809 887.906C214.015 887.626 214.889 886.875 215.675 885.984C215.99 885.774 216.305 885.564 216.619 885.372C217.179 885.005 217.738 884.638 218.298 884.271C218.822 884.341 219.172 884.201 219.259 883.624C219.556 883.432 219.871 883.223 220.168 883.03C221.339 882.733 222.318 882.139 222.947 881.073L223.28 881.108L223.524 880.881C224.591 880.479 225.744 880.217 226.706 879.657C233.873 875.55 240.882 871.216 248.137 867.284C265.198 858.057 282.399 849.109 299.477 839.899C317.185 830.357 334.753 820.57 352.461 811.046C379.416 796.541 406.004 781.441 430.354 762.777C450.177 747.572 466.032 728.558 481.03 708.793C487.69 700.02 493.773 690.827 498.948 681.093C500.801 677.598 502.356 676.864 506.324 679.101C515.449 684.256 524.766 689.167 534.503 693.152C534.765 693.274 535.045 693.326 535.325 693.326C540.551 698.727 547.037 700.177 553.539 697.416C558.067 695.493 562.35 693.047 566.755 690.862C582.784 682.893 598.989 675.239 615.088 667.374C633.81 658.217 652.375 648.745 671.219 639.814C697.894 627.179 724.639 614.649 751.612 602.677C758.516 599.619 760.789 595.39 760.754 588.382C760.684 574.156 760.579 559.931 761.61 545.74C762.012 540.165 762.012 540.06 767.274 542.664C776.084 547.033 784.79 551.595 793.617 555.929C803.494 560.787 813.405 565.593 822.897 571.168C825.799 572.881 828.491 573.352 831.48 571.762C833.246 571.885 834.749 571.22 836.147 570.224L836.427 570.364L836.637 570.102C836.987 570.015 837.336 569.927 837.668 569.84C837.983 569.665 838.298 569.49 838.612 569.315C839.154 569.211 839.713 569.106 840.255 569.001C841.881 568.791 843.227 568.022 844.398 566.921C845.272 566.991 846.041 566.851 846.513 566.013L846.915 566.065L847.178 565.768C847.492 565.68 847.789 565.611 848.104 565.523C848.926 565.279 849.817 565.156 850.569 564.772C866.703 556.593 883.432 549.795 900.126 542.874C908.936 539.222 909.706 537.352 909.304 527.582C908.849 517.009 908.709 506.436 909.443 495.846C909.706 491.983 910.929 491.844 913.971 493.277C919.04 495.653 923.865 498.554 929.231 500.285C929.511 500.389 929.791 500.512 930.088 500.617C934.563 503.885 939.737 505.842 944.702 508.166C951.502 511.347 957.777 515.611 965.049 517.796L965.259 518.11L965.643 518.058C969.769 521.588 974.104 520.959 978.544 518.774L978.911 518.827L979.173 518.582C985.799 516.45 992.336 514.073 998.559 510.893C999.206 510.98 999.783 510.893 1000.13 510.246C1007.68 508.236 1014.9 505.335 1022.02 502.137H1022.04C1031.49 499.428 1040.76 496.178 1049.67 492.018C1053.22 490.358 1055.46 487.492 1055.44 483.071C1055.41 473.633 1055.65 464.196 1055.91 454.759C1055.97 452.68 1055.53 450.268 1057.89 448.905L1058.24 449.044L1058.6 448.975C1068.66 455.581 1079.97 459.775 1090.58 465.297C1093.22 466.678 1096.07 465.472 1097.73 462.816C1099.26 460.387 1100.72 457.87 1101.9 455.249C1103.29 452.208 1105.02 451.509 1108.04 453.151C1115.68 457.276 1123.49 461.051 1131.06 465.28C1136.48 468.303 1141.83 470.278 1147.86 467.255C1148.7 467.185 1149.54 467.097 1150.38 467.027C1152.67 466.311 1155.24 466.695 1157.37 465.28C1157.95 465.21 1158.54 465.158 1159.12 465.088C1161.76 464.371 1164.59 464.301 1167.02 462.851C1167.93 463.043 1168.82 463.113 1169.68 462.606C1170.25 462.414 1170.81 462.204 1171.39 462.012C1171.97 461.959 1172.54 461.889 1173.12 461.837C1177.56 461.033 1182 460.177 1186.23 458.534C1187.47 458.604 1188.73 458.779 1189.81 457.957C1190.08 457.852 1190.32 457.748 1190.58 457.643C1191.16 457.573 1191.74 457.52 1192.31 457.451C1197.37 456.682 1202.49 456.192 1207.28 454.182L1207.68 454.27L1208.05 454.06C1209.32 454.357 1210.46 454.13 1211.45 453.256L1211.54 453.239C1217.01 453.134 1222.12 451.386 1227.24 449.761C1227.82 449.709 1228.41 449.674 1228.99 449.621C1231.66 449.359 1234.34 449.114 1236.85 448.048C1237.73 447.926 1238.6 447.821 1239.48 447.699C1240.72 447.874 1241.92 447.961 1242.88 446.912C1243.88 446.72 1244.88 446.528 1245.87 446.336L1246.17 446.528L1246.4 446.231L1246.49 446.213C1247.55 446.51 1248.46 446.213 1249.23 445.444C1249.77 445.392 1250.3 445.34 1250.84 445.287C1251.87 445.514 1252.8 445.375 1253.57 444.588C1254.11 444.518 1254.65 444.448 1255.19 444.396C1256.71 444.536 1258.23 444.623 1259.51 443.522C1260.1 443.435 1260.71 443.347 1261.31 443.242C1264.04 442.91 1266.73 442.404 1269.19 441.093C1270.07 441.023 1270.94 440.953 1271.82 440.866C1272.58 441.075 1273.23 440.866 1273.72 440.219L1274.11 440.289L1274.42 440.079C1285.28 440.027 1288.14 437.72 1290.36 427.182C1291.55 421.52 1292.95 415.91 1294.43 410.317C1295.52 406.263 1297.32 406.473 1300.41 407.976C1313.84 414.442 1327.32 420.786 1340.81 427.129C1344.41 428.825 1348.15 429.856 1352.17 428.79C1353.38 429.087 1354.57 429.069 1355.72 428.545C1356.68 428.842 1357.43 428.283 1358.24 427.898C1359.72 427.846 1361.19 427.776 1362.68 427.724C1363.68 427.916 1364.65 428.021 1365.41 427.112C1366.24 427.007 1367.07 426.92 1367.91 426.815C1369.69 426.867 1371.52 427.374 1373.13 426.151C1374.6 425.993 1376.05 425.836 1377.52 425.661C1382.82 425.522 1388.04 424.7 1393.2 423.547C1394.97 423.477 1396.71 423.407 1398.48 423.337C1398.67 422.795 1398.9 422.393 1399.16 422.131C1398.92 422.393 1398.69 422.778 1398.48 423.337C1399.74 423.634 1400.87 423.302 1401.98 422.673C1402.57 422.638 1403.15 422.586 1403.74 422.551C1406.66 422.428 1409.65 423.18 1412.43 421.729C1413.6 421.589 1414.77 421.467 1415.94 421.327C1423.28 420.943 1430.61 420.401 1437.88 419.213C1440.76 419.108 1443.65 419.02 1446.52 418.916C1448.32 419.143 1450.08 419.108 1451.76 418.286C1453.21 418.234 1454.68 418.164 1456.13 418.112C1459.07 418.217 1462 418.479 1464.82 417.29C1465.71 417.203 1466.58 417.133 1467.47 417.046C1470.11 417.378 1472.74 417.238 1475.27 416.347C1476.51 416.679 1477.7 416.539 1478.84 415.945C1481.77 416.382 1484.68 416.067 1487.58 415.648C1490.85 415.822 1494.15 416.434 1497.19 414.599C1500.58 413.393 1500.44 410.754 1500.13 407.871C1499.66 403.624 1501 402.575 1505.04 403.746C1507.38 404.428 1509.73 405.144 1512.07 405.843C1512.73 406.001 1513.4 406.175 1514.04 406.333C1517 408.045 1520.09 409.409 1523.41 410.23C1524.04 410.44 1524.67 410.649 1525.3 410.859C1527.87 412.764 1530.75 413.935 1533.9 414.494C1534.72 414.983 1535.6 415.088 1536.52 414.826C1537.9 415.333 1539.3 415.787 1540.81 415.403C1543.18 415.927 1545.56 415.91 1547.94 415.455C1554.34 415.84 1560.73 415.787 1567.1 414.826C1573.51 415.246 1579.91 415.001 1586.33 414.651C1587.2 414.651 1588.07 414.634 1588.95 414.616C1591.59 414.616 1594.21 414.616 1596.85 414.616C1597.69 414.616 1598.54 414.616 1599.38 414.616C1601.15 414.616 1602.91 414.599 1604.66 414.582C1605.62 414.774 1606.59 415.036 1607.34 414.11C1607.9 413.987 1608.46 413.865 1609.01 413.725C1610.17 413.69 1611.15 413.323 1611.76 412.275C1615.05 410.108 1614.36 406.682 1614.36 403.589C1614.4 328.948 1614.36 254.29 1614.49 179.649L1614.45 179.544Z" fill="black"/>
<path d="M493.493 301.248C496.097 311.944 498.02 322.674 498.125 333.789C498.23 344.869 496.884 355.687 494.139 366.347C488.179 389.485 477.113 409.863 461.031 427.583C453.06 436.374 444.914 444.885 435.37 451.98C434.671 452.487 434.129 453.204 433.517 453.833C433.027 454.357 432.433 454.916 432.783 455.72C433.167 456.611 433.971 456.314 434.671 456.262C442.502 455.738 450.368 456 458.042 457.276C471.799 459.565 483.791 465.699 493.161 476.202C510.484 495.636 517.878 519.106 520.255 544.464C522.703 570.678 518.909 596.124 510.484 620.992C503.352 642.086 493.615 661.887 481.798 680.726C471.38 697.346 459.353 712.742 446.435 727.422C433.936 741.613 419.323 753.497 403.485 763.842C383.558 776.88 362.284 787.523 341.429 798.917C324.77 808.005 308.129 817.11 291.313 825.883C267.452 838.308 243.87 851.328 219.8 863.352C217.755 864.383 215.832 865.676 213.856 866.83C213 867.232 212.143 867.633 211.287 868.053C209.399 868.088 208.193 870.482 206.043 869.573C206.043 868.997 206.043 868.42 206.043 867.843C206.147 849.091 206.392 830.357 206.34 811.605C206.235 767.652 205.973 723.7 205.798 679.747C205.693 652.24 205.623 624.75 205.536 597.242C205.466 573.422 205.361 549.602 205.308 525.8C205.221 491.808 205.134 457.8 205.064 423.809C205.029 401.072 205.064 378.318 205.029 355.582C205.011 338.63 204.959 321.695 204.924 304.743C205.134 303.538 206.13 302.891 206.917 302.122C207.633 302.14 208.35 302.174 208.7 301.371C209.311 301.091 209.923 300.829 210.535 300.549L210.797 300.672L210.85 300.374C212.912 299.903 214.783 299.011 216.531 297.823C222.09 295.691 227.579 293.436 232.84 290.64L233.05 290.553C233.382 290.343 233.714 290.133 234.046 289.906H234.011C235.69 289.871 237.071 289.12 238.329 288.089C238.923 287.827 239.518 287.547 240.112 287.285C240.934 286.953 241.738 286.638 242.559 286.306C243.468 285.939 244.377 285.555 245.304 285.188C247.437 284.366 249.814 284.052 251.597 282.426C253.292 281.64 254.971 280.871 256.666 280.085C258.711 280.259 260.127 278.966 261.666 277.97C262.819 278.057 263.711 277.481 264.532 276.782C271.315 274.982 277.608 271.958 284.006 269.162V269.197C287.1 268.096 290.176 266.995 293.271 265.894C294.844 265.177 296.4 264.443 297.973 263.727L298.27 263.849L298.515 263.622C299.878 263.849 301.032 263.36 302.081 262.521C303.147 262.748 303.951 262.311 304.563 261.49C306.416 262.049 307.57 260.441 309.09 260.004C309.842 260.197 310.349 259.795 310.803 259.288C311.38 259.201 311.957 259.096 312.534 259.008C316.922 257.418 321.327 255.828 325.714 254.237C326.274 254.115 326.833 253.993 327.375 253.87C328.197 254.045 328.739 253.696 329.088 252.962C329.787 252.769 330.469 252.577 331.168 252.367L331.378 252.525L331.5 252.263C332.252 252 333.021 251.756 333.773 251.494L334 251.633L334.158 251.371L334.315 251.319C335.171 251.057 336.045 250.795 336.902 250.532C337.217 250.497 337.514 250.445 337.828 250.41C339.944 250.148 342.024 249.763 343.912 248.697C344.681 248.785 345.38 248.645 345.939 248.033L346.219 248.173L346.359 247.876L346.551 247.806C347.006 247.614 347.443 247.404 347.897 247.212C349.96 247.614 351.621 246.146 353.561 245.971C354.505 246.041 355.449 246.146 356.218 245.394C356.795 245.237 357.354 245.062 357.931 244.905C359.487 244.818 361.078 244.818 362.301 243.594C365.22 242.983 368.14 242.371 371.041 241.759C374.135 241.637 377.195 241.357 380.044 240.029C380.341 239.994 380.656 239.959 380.953 239.924C381.355 239.924 381.757 239.924 382.142 239.907C382.334 239.75 382.526 239.61 382.701 239.453C383.82 240.169 384.851 239.715 385.865 239.243C389.379 238.893 392.875 238.544 396.388 238.194C398.801 238.544 401.143 237.967 403.485 237.548C405.129 237.548 406.772 237.548 408.415 237.548C411.002 238.736 413.746 237.967 416.403 238.142C419.34 238.491 422.19 239.487 425.196 239.243C429.846 240.344 434.496 241.462 439.146 242.563C439.862 242.668 440.579 242.773 441.296 242.878C441.75 243.105 442.205 243.35 442.642 243.577H442.694C452.326 247.544 460.996 253.084 468.88 259.865C468.915 260.162 469.09 260.319 469.404 260.284C469.772 260.616 470.121 260.948 470.488 261.263L470.418 261.21C473.425 265.789 477.48 269.494 480.609 274.02C486.273 282.199 489.053 291.654 493.3 300.444C493.178 300.707 493.196 300.969 493.405 301.196L493.493 301.248ZM316.467 631.338C316.467 631.338 316.327 631.338 316.257 631.338C316.257 649.059 316.257 666.78 316.257 684.501C316.257 689.307 316.992 689.936 320.68 688.276C341.394 678.978 362.004 669.559 380.603 656.277C396.511 644.917 408.852 630.971 414.376 611.852C419.095 595.547 420.022 579.277 411.946 563.67C406.719 553.552 398.381 548.344 386.599 549.025C373.594 549.759 361.934 555.107 350.082 559.529C339.944 563.321 330.259 568.319 320.208 572.356C317.289 573.527 316.45 575.03 316.467 577.791C316.502 595.652 316.485 613.495 316.485 631.356L316.467 631.338ZM315.943 467.691C317.691 467.342 318.845 467.254 319.911 466.87C336.71 461.015 353.229 454.549 368.332 444.937C380.184 437.388 389.885 427.828 395.846 414.931C401.265 403.187 402.874 390.953 401.003 378.039C399.587 368.234 391.546 358.902 381.932 356.753C372.545 354.655 363.752 357.259 354.924 359.514C343.562 362.415 332.689 366.889 321.589 370.681C315.663 372.708 315.261 372.901 315.331 379.157C315.541 396.948 315.785 414.756 315.925 432.547C316.013 444.151 315.925 455.738 315.925 467.656L315.943 467.691Z" fill="#F5E920"/>
<path d="M750.527 509.04C749.461 519.124 749.793 529.26 749.478 539.379C749.024 554.163 748.744 568.948 748.499 583.733C748.465 586.11 747.625 587.473 745.475 588.417C733.571 593.695 721.649 598.92 709.833 604.425C689.87 613.722 669.924 623.002 650.329 633.068C634.876 641.003 619.283 648.675 603.726 656.452C588.308 664.159 572.855 671.796 557.455 679.52C554.64 680.936 553.277 682.037 553.294 677.143C553.417 648.745 553.015 620.363 552.927 591.964C552.805 551.577 552.805 511.172 552.735 470.785C552.7 448.73 552.857 426.675 552.577 404.62C551.948 355.617 551.913 306.614 552.001 257.628C552.001 253.014 551.354 248.365 552.193 243.752C554.308 243.944 556.144 242.878 558.119 242.424C558.801 242.528 559.465 242.528 559.989 241.952C560.793 241.829 561.615 241.707 562.419 241.585C565.793 241.532 568.939 240.449 572.051 239.313C573.799 238.946 575.547 238.579 577.295 238.212C577.942 238.002 578.571 237.81 579.218 237.6C580.686 237.653 582.137 237.6 583.378 236.656C583.675 237.233 583.99 237.216 584.305 236.656C587.661 236.534 590.912 235.922 594.024 234.612C594.863 234.35 595.702 234.105 596.541 233.843C597.835 234.175 599.041 234.018 600.107 233.179C600.387 233.336 600.632 233.301 600.859 233.074C604.128 232.829 607.344 232.357 610.421 231.134C611.085 230.977 611.767 230.802 612.431 230.645C612.676 230.61 612.92 230.575 613.165 230.54C613.724 230.487 614.301 230.435 614.861 230.4C616.591 229.666 618.671 230.103 620.245 228.827C620.507 228.932 620.752 228.88 620.961 228.687C624.038 229.019 626.94 228.338 629.684 226.975C631.467 226.712 633.355 227.01 634.981 225.944C635.872 225.734 636.746 225.507 637.638 225.297C638.197 225.244 638.774 225.192 639.333 225.14C640.33 225.122 641.414 225.559 642.183 224.51C643.861 224.353 645.539 224.196 647.217 224.039C647.479 223.864 647.742 223.689 648.004 223.514H648.039C649.49 223.235 651.115 223.724 652.391 222.606C653.038 222.448 653.668 222.274 654.314 222.116C654.716 222.081 655.136 222.029 655.538 221.994C655.957 221.907 656.377 221.802 656.814 221.714C657.094 221.697 657.373 221.679 657.653 221.662C658.737 221.994 659.628 221.382 660.572 221.033L660.869 221.19L661.132 220.945H661.167C662.46 220.91 663.841 221.417 664.89 220.194C665.974 220.106 667.058 220.019 668.141 219.932C672.249 219.53 676.27 218.726 680.168 217.398L680.343 217.328C680.78 217.136 681.217 216.926 681.654 216.734C682.406 216.594 683.157 216.436 683.926 216.297C684.905 216.454 685.937 216.908 686.671 215.807C687.772 215.668 688.873 215.528 689.957 215.388C692.702 214.357 695.883 215.178 698.435 213.326C699.117 213.203 699.816 213.099 700.498 212.976C701.512 213.116 702.508 213.273 703.26 212.312C704.361 212.172 705.462 212.033 706.581 211.893C707.175 211.735 707.77 211.596 708.364 211.438C709.238 211.333 710.112 211.211 710.986 211.106C711.668 211.264 712.21 211.054 712.612 210.477C713.836 210.512 715.059 210.687 716.195 210.005C718.153 210.425 719.796 209.481 721.51 208.782C722.366 208.712 723.24 208.66 724.097 208.59C724.534 208.397 724.988 208.223 725.425 208.03C727.016 207.891 728.624 207.768 730.215 207.629C730.932 207.803 731.578 207.751 732.015 207.052L734.568 206.79C735.774 206.79 736.997 206.947 738.011 206.073C738.588 205.916 739.182 205.759 739.759 205.601C740.965 205.933 742.172 206.126 743.255 205.217C745.353 205.811 744.933 207.594 744.986 209.062C745.108 212.155 745.108 215.266 745.178 218.359C745.178 218.953 745.178 219.53 745.178 220.124C745.178 227.394 745.196 234.664 745.213 241.934C744.898 258.257 745.633 274.545 746.14 290.85C746.07 291.479 746.017 292.091 745.947 292.72C738.973 294.607 732.015 296.495 725.041 298.4C712.07 301.93 699.117 305.495 686.146 309.008C671.34 313.01 656.517 316.994 641.693 320.944C639.613 321.503 638.547 322.447 638.512 324.824C638.232 342.737 637.883 360.65 637.411 378.545C637.323 381.796 638.302 382.006 641.134 381.132C649.402 378.545 657.828 376.431 666.096 373.844C675.868 370.786 685.954 368.776 695.481 364.879C696.268 364.599 697.072 364.32 697.858 364.058C700.778 363.254 703.697 362.432 706.616 361.629C707.543 361.384 708.469 361.139 709.378 360.895L709.675 361.034L709.798 360.702C710.077 360.755 710.252 360.632 710.287 360.353C715.514 359.217 720.828 358.43 725.827 356.368C727.907 356.193 729.883 355.634 731.753 354.69C731.893 355.232 732.033 355.774 732.173 356.316L732.103 362.467C732.103 362.747 732.103 363.044 732.103 363.324C732.103 364.198 732.12 365.089 732.138 365.963V366.801C732.138 371.171 732.138 375.557 732.138 379.926C732.138 397.367 732.138 414.826 732.138 432.267C732.05 432.547 731.963 432.826 731.875 433.124C731.159 433.211 730.39 433.158 729.725 433.403C714.797 438.803 699.921 444.273 684.975 449.639C670.134 454.969 655.765 461.592 640.697 466.328C638.599 466.992 638.057 468.495 638.057 470.313C638.057 474.944 638.302 479.575 638.25 484.206C638.11 495.723 637.83 507.257 637.673 518.774C637.585 524.699 637.603 530.623 637.638 536.548C637.638 539.064 638.407 540.252 641.344 539.012C648.651 535.918 656.062 533.07 663.474 530.186C683.786 522.287 704.116 514.423 724.446 506.523C731.386 503.815 738.308 501.036 745.231 498.275C746.804 498.275 748.185 497.715 749.496 496.894L749.758 497.121L750.108 497.086C750.108 497.366 750.23 497.593 750.457 497.768C750.51 500.669 750.562 503.587 750.597 506.488C750.16 507.345 749.985 508.201 750.492 509.075L750.527 509.04Z" fill="#F5E920"/>
<path d="M1043.99 438.402C1043.68 450.967 1043.27 463.533 1043.12 476.098C1043.08 478.632 1042.14 479.628 1039.87 480.362C1023.47 485.64 1007.23 491.407 991.13 497.559C986.952 499.149 982.705 500.6 978.597 502.33C976.219 503.343 975.922 501.928 975.555 500.303L975.433 497.699C975.607 496.72 975.922 495.724 975.94 494.745C976.062 481.83 976.167 468.915 976.219 456.018C976.377 418.602 976.516 381.202 976.639 343.786C976.726 317.589 976.726 291.41 976.831 265.213C976.936 237.339 977.146 209.464 977.303 181.59L977.39 181.485C977.688 181.24 977.967 180.995 978.264 180.751C978.562 180.681 978.876 180.611 979.173 180.541C980.956 180.611 982.792 180.961 984.365 179.737C985.536 179.562 986.725 179.37 987.896 179.195C988.823 179.615 989.697 179.65 990.501 178.933C991.41 178.863 992.301 178.793 993.21 178.741C993.77 178.986 994.242 178.881 994.626 178.409C996.846 178.461 999.066 178.601 1001.16 177.623C1002.07 177.937 1002.96 178.112 1003.73 177.325C1005.45 177.238 1007.16 177.133 1008.86 177.046C1010.08 177.116 1011.27 177.046 1012.33 176.329C1014.12 176.626 1015.87 176.504 1017.6 176.015C1018.8 176.155 1020.06 176.504 1021.06 175.421C1022.56 175.578 1024.05 175.683 1025.43 174.861C1026.93 175.211 1028.36 174.984 1029.8 174.494C1033.03 174.18 1036.25 173.848 1039.48 173.533C1040.09 173.341 1040.7 173.166 1041.3 172.974C1043.06 173.725 1044.74 173.044 1046.44 172.659L1046.86 172.712L1047.26 172.607C1047.85 172.607 1048.43 172.607 1049.03 172.624C1050.2 172.432 1051.37 172.24 1052.54 172.048C1054.15 172.205 1055.09 173.061 1055.39 174.652C1055.44 176.015 1055.44 177.395 1056.91 178.147C1057.94 180.419 1057.78 183.128 1059.51 185.137C1059.99 187.497 1060.11 189.978 1061.91 191.848C1061.98 192.233 1062.05 192.6 1062.14 192.984C1062 193.875 1062.05 194.697 1062.82 195.326C1062.94 196.007 1063.06 196.689 1063.18 197.371C1063.05 198.105 1063.31 198.664 1063.92 199.066C1064.01 199.363 1064.09 199.66 1064.16 199.957C1064.64 201.425 1065.13 202.911 1065.6 204.379V204.361C1065.86 204.815 1066.12 205.27 1066.37 205.724L1066.28 205.934L1066.44 206.091C1067.83 211.159 1068.87 216.367 1071.63 220.981C1071.73 221.54 1071.84 222.099 1071.94 222.659C1072.2 224.214 1072.64 225.717 1073.66 226.993C1073.34 228.129 1074.06 228.88 1074.69 229.649C1074.97 232.847 1076.19 235.783 1077.19 238.789C1082.8 255.636 1088.43 272.501 1094.11 289.33C1094.6 290.763 1094.79 292.493 1096.77 293.49C1099.77 285.451 1103.01 277.604 1105.63 269.547C1107.67 263.221 1110.64 257.192 1111.78 250.568C1112.48 250.201 1112.78 249.624 1112.72 248.855C1122.65 222.292 1131.95 195.518 1140.75 168.552C1140.82 168.168 1140.89 167.766 1140.97 167.364C1141.2 166.875 1141.43 166.403 1141.66 165.931L1141.88 165.756L1141.79 165.494C1142 165.04 1142.23 164.603 1142.44 164.166C1143.37 163.764 1144.29 163.379 1145.2 162.978C1146.69 163.135 1148.21 163.589 1149.49 162.366C1150.08 162.331 1150.69 162.278 1151.29 162.244C1151.57 162.226 1151.83 162.209 1152.11 162.191C1153.09 162.471 1154.01 162.331 1154.89 161.859C1157.47 162.174 1160.08 162.453 1162.54 161.23C1166.69 161.51 1170.78 160.985 1174.89 160.513C1177.53 160.723 1180.13 160.583 1182.68 159.832C1184.15 159.762 1185.62 159.692 1187.09 159.622C1187.37 159.622 1187.65 159.622 1187.93 159.622C1188.5 159.622 1189.1 159.587 1189.67 159.587C1190.67 159.884 1191.53 159.552 1192.28 158.923C1192.87 158.941 1193.45 158.975 1194.04 158.993C1194.94 159.622 1195.79 159.395 1196.65 158.923C1197.24 158.871 1197.86 158.801 1198.45 158.748C1200.74 158.871 1203.05 158.993 1205.34 159.133C1205.25 159.412 1205.3 159.675 1205.49 159.902C1204.36 164.201 1204.69 168.587 1204.79 172.974C1204.5 174.722 1204.31 176.452 1204.79 178.199C1204.78 179.073 1204.74 179.947 1204.72 180.838C1204.1 182.568 1204.32 184.316 1204.62 186.064C1204.62 186.64 1204.62 187.234 1204.62 187.811C1204.62 188.405 1204.66 188.982 1204.67 189.576C1204.67 189.856 1204.67 190.135 1204.67 190.415C1204.66 191.289 1204.64 192.18 1204.6 193.054C1204.64 194.819 1204.65 196.567 1204.69 198.332L1204.64 198.507C1204.55 198.542 1204.46 198.559 1204.38 198.594C1204.45 198.716 1204.53 198.839 1204.6 198.961C1204.6 201.076 1204.6 203.19 1204.6 205.305C1204.18 207.612 1203.96 209.936 1204.57 212.243C1204.57 213.711 1204.57 215.179 1204.57 216.647C1204.08 218.674 1203.57 220.701 1204.57 222.729C1204.55 223.323 1204.52 223.899 1204.5 224.494C1204.39 224.896 1204.2 225.298 1204.2 225.7C1204.1 234.944 1204.24 244.207 1204.08 253.434C1203.69 273.776 1203.71 294.101 1203.83 314.426C1203.83 315.579 1203.83 316.733 1203.82 317.904C1203.48 320.525 1203.4 323.164 1203.82 325.786C1203.82 326.362 1203.82 326.939 1203.82 327.498C1203.57 332.182 1202.78 336.848 1203.62 341.532C1203.57 342.091 1203.54 342.668 1203.48 343.227C1203.33 349.903 1203.06 356.579 1203.01 363.254C1202.8 387.407 1202.59 411.576 1202.59 435.728C1202.59 439.363 1201.21 440.569 1197.89 441.286C1188.17 443.383 1178.36 445.095 1168.68 447.437C1162.19 449.01 1155.5 450.67 1148.65 450.565C1148.59 450.006 1148.54 449.429 1148.49 448.87V317.013C1137.34 338.945 1128.79 361.839 1119.16 384.278C1119.02 385.012 1118.88 385.746 1118.74 386.498C1113.18 397.281 1108.84 408.57 1104.82 420L1104.84 419.965C1103.41 422.149 1102.03 424.351 1101.68 427.025C1101.61 427.34 1101.52 427.654 1101.45 427.986C1101.21 428.563 1100.94 429.14 1100.7 429.716L1100.65 429.891C1099.02 432.25 1097.76 434.767 1097.15 437.581V437.651C1096.66 438.087 1096.22 438.542 1096.4 439.258C1096.33 439.538 1096.26 439.835 1096.19 440.115C1096.01 440.429 1095.82 440.761 1095.65 441.076L1095.42 441.128L1095.44 441.355C1095.03 442.089 1094.63 442.841 1094.21 443.575C1093.65 443.016 1093.09 442.456 1092.52 441.88C1092.6 441.198 1092.41 440.656 1091.73 440.359L1091.64 440.22C1091.28 439.136 1091 438.018 1090.54 436.969C1081.94 416.906 1073.22 396.896 1064.74 376.781C1059.37 364.023 1054.41 351.091 1049.13 338.298C1047.98 335.485 1046.23 332.898 1044.76 330.224C1044.41 330.294 1044.04 330.364 1043.69 330.434C1043.29 343.419 1042.73 356.421 1043.69 369.424C1043.03 370.455 1043.45 371.451 1043.82 372.429C1042.91 382.024 1043.71 391.636 1043.76 401.23C1043.82 411.594 1043.2 421.957 1044.17 432.303C1043.55 434.348 1043.57 436.41 1043.96 438.489L1043.99 438.402Z" fill="#F5E920"/>
<path d="M14.7899 131.205C21.1004 128.199 27.1312 125.857 33.2494 123.76C51.9011 117.381 70.5179 110.897 89.2396 104.711C97.368 102.037 105.636 99.73 113.957 97.7378C126.928 94.662 139.863 91.4289 153.114 89.5065C175.017 86.3258 196.483 87.0598 217.757 93.5959C233.419 98.4019 247.561 106.126 261.633 114.305C284.864 127.797 306.593 143.508 328.863 158.432C352.689 174.406 375.956 191.148 399.31 207.803C404.606 211.578 410.182 214.985 415.199 219.285C414.098 220.683 412.682 220.036 411.511 220.036C386.584 220.088 362.496 224.894 338.704 232.077C321.783 237.18 304.985 242.58 288.465 248.819C274.481 254.097 260.724 259.934 246.757 265.247C237.947 268.602 229.329 272.36 220.816 276.344C218.701 277.34 216.918 277.061 214.802 275.54C201.133 265.596 187.305 255.862 173.531 246.041C162.238 237.984 150.963 229.91 139.671 221.854C125.424 211.7 111.143 201.581 96.931 191.393C87.8761 184.891 78.9086 178.25 69.8886 171.697C56.2713 161.823 42.619 152.019 29.0191 142.11C24.3693 138.719 19.8768 135.119 14.7725 131.205H14.7899Z" fill="#EB1F25"/>
<path d="M319.65 72.4858C324.213 70.3013 328.268 70.0217 332.184 69.3227C345.626 66.9808 359.017 64.2895 372.547 62.6293C386.251 60.9516 399.851 58.6797 413.538 56.932C444.968 52.895 476.451 49.3823 507.968 46.0793C514.034 45.4502 520.117 45.1007 526.148 44.3842C531.829 43.7026 536.357 45.625 540.744 48.6658C556.739 59.7108 572.769 70.7033 588.728 81.7832C603.709 92.1815 618.498 102.859 633.566 113.118C660.067 131.171 685.676 150.447 711.826 168.989C719.518 174.442 726.895 180.349 734.394 186.063C735.268 186.728 736.736 187.199 736.247 188.65C735.81 189.943 734.289 189.733 733.24 189.943C717.56 193.002 701.862 195.955 686.2 199.031C666.971 202.806 647.76 206.72 628.514 210.495C611.715 213.798 594.812 216.629 578.1 220.369C568.049 222.624 557.945 224.651 547.876 226.87C545.307 227.43 543.209 227.028 540.972 225.402C527.249 215.493 513.457 205.672 499.578 195.955C475.717 179.248 451.716 162.768 427.925 145.956C403.05 128.375 377.686 111.51 352.461 94.4359C341.798 87.2357 331.083 80.1054 319.668 72.4509L319.65 72.4858Z" fill="#EB1F25"/>
<path d="M1459.61 159.604C1461.62 159.674 1463.65 159.761 1465.66 159.831C1465.92 159.901 1466.18 159.971 1466.44 160.041C1469.75 161.439 1473.33 160.39 1476.76 161.247C1478.84 161.754 1480.01 162.662 1480.87 164.515C1489.57 183.441 1499.74 201.634 1508.64 220.456C1517.31 238.789 1526.77 256.702 1535.79 274.842C1537.33 277.918 1539.27 280.801 1541.21 284.052C1543.01 281.85 1542.4 279.456 1542.45 277.341C1542.96 247.771 1543.36 218.202 1543.81 188.614C1543.88 183.424 1544.16 178.216 1544.08 173.026C1544.02 170.125 1544.63 168.919 1547.92 169.426C1562.24 171.61 1576.71 172.764 1590.98 175.35C1593.69 175.839 1596.45 176.259 1599.19 176.294C1602.78 176.329 1604.14 177.517 1604.02 181.397C1603.65 193.298 1603.75 205.199 1603.63 217.101C1603.28 248.435 1602.91 279.77 1602.57 311.105C1602.27 338.403 1602.01 365.7 1601.69 392.998C1601.62 399.237 1601.22 399.29 1594.89 399.29C1577.64 399.29 1560.4 399.464 1543.15 399.744C1539.88 399.796 1537.8 398.905 1536.17 395.864C1527.71 380.083 1519.34 364.267 1510.77 348.539C1501.27 331.063 1492.77 313.027 1483.84 295.237C1483.58 294.712 1483.4 294.153 1482.74 293.856C1481.01 298.33 1480.97 302.646 1480.9 306.876C1480.41 337.179 1480.03 367.483 1479.64 397.804C1479.64 398.958 1479.94 400.163 1478.82 401.002L1476.27 401.649C1475.97 401.666 1475.66 401.684 1475.36 401.719C1466.2 401.212 1457.28 403.152 1448.28 404.253C1446.83 404.305 1445.38 404.358 1443.91 404.393C1437.79 404.987 1431.68 405.581 1425.56 406.175C1424.98 406.175 1424.4 406.21 1423.84 406.21C1420.84 406.507 1419.65 405.599 1419.72 402.173C1419.77 399.307 1419.82 396.389 1419.86 393.505C1420.03 369.493 1420.26 345.481 1420.59 321.468C1420.91 298.435 1421.36 275.401 1421.73 252.367C1421.97 236.726 1422.22 221.085 1422.41 205.444C1422.52 196.636 1422.53 187.811 1422.59 179.003C1423.01 178.146 1423.01 177.272 1422.66 176.399C1423.04 175.822 1423.04 175.228 1422.66 174.651C1423.41 172.571 1422.66 170.509 1422.66 168.429C1424.12 164.515 1422.55 160.268 1423.91 156.336C1428.55 156.616 1433.2 156.895 1437.83 157.175C1439.19 157.786 1440.59 158.014 1442.04 157.507C1442.97 157.664 1443.91 157.821 1444.84 157.979C1446.81 158.87 1448.88 158.765 1450.94 158.451C1451.81 158.608 1452.69 158.765 1453.56 158.905C1455.61 159.132 1457.63 159.359 1459.68 159.587L1459.61 159.604Z" fill="#F5E920"/>
<path d="M898.865 342.3C897.886 362.188 898.096 382.11 897.973 402.016C897.851 422.48 898.026 442.962 897.833 463.427C897.641 483.962 897.047 504.479 896.889 525.013C896.872 527.565 896.068 528.683 894.005 529.539C882.538 534.31 871.071 539.081 859.638 543.94C851.51 547.383 843.451 550.948 835.358 554.478C834.694 554.758 834.082 555.177 833.05 554.67C833.05 541.79 833.05 528.753 833.05 515.716C833.05 488.61 832.98 461.487 833.015 434.382C833.068 398.503 833.208 362.625 833.295 326.746C833.33 315.561 833.015 304.376 833.452 293.227C833.627 288.735 831.739 288.386 828.505 289.137C818.786 291.392 809.05 293.611 799.4 296.163C793.527 297.718 787.426 298.33 781.745 300.602C780.626 300.811 779.507 301.004 778.406 301.213C777.724 289.784 778.004 278.319 777.689 266.89C777.113 245.622 777.322 224.336 777.165 203.067C777.165 201.826 777.218 200.76 778.231 199.956C780.102 199.904 782.025 200.341 783.738 199.24L784.052 199.362L784.315 199.135C786.08 199.082 787.846 199.013 789.611 198.96C797.145 198.016 804.784 198.034 812.231 196.321C814.591 196.077 816.933 195.849 819.293 195.605L821.88 195.412C822.614 195.605 823.279 195.5 823.856 194.958L824.223 195.063L824.52 194.783C825.691 194.713 826.88 194.644 828.051 194.574C829.869 194.818 831.634 194.539 833.365 193.944C834.501 193.84 835.655 193.735 836.791 193.63C838.592 193.979 840.34 193.892 841.965 192.931C843.189 193.193 844.395 193.333 845.479 192.494C847.245 192.739 849.045 193.176 850.706 192.075C851.283 191.9 851.877 191.743 852.454 191.568C855.058 191.568 857.733 192.162 860.198 190.764C861.526 191.061 862.872 191.393 864.113 190.484L864.41 190.624L864.673 190.397H864.725C866.805 190.362 868.955 191.026 870.896 189.68C873.78 189.523 876.682 189.366 879.566 189.191C881.349 189.366 883.115 189.383 884.81 188.632C885.702 188.509 886.611 188.387 887.502 188.265C889.53 188.317 891.558 188.44 893.516 187.688C896.452 187.391 899.372 187.076 902.308 186.779C902.588 186.727 902.85 186.674 903.13 186.622C903.759 186.57 904.388 186.517 905.018 186.465C905.507 186.849 905.735 186.465 905.979 186.133C907.972 186.028 909.965 185.94 911.94 185.836C912.674 186.01 913.339 185.888 913.828 185.276C916.1 185.171 918.355 185.049 920.628 184.944C924.421 184.455 928.214 183.966 932.008 183.494C932.899 183.406 933.773 183.319 934.665 183.232C935.224 183.441 935.609 183.197 935.923 182.742C936.273 182.742 936.623 182.725 936.972 182.707C937.339 182.672 937.706 182.637 938.091 182.585C939.944 182.515 941.902 183.284 943.58 181.886C943.842 181.851 944.087 181.799 944.349 181.764C946.01 182.515 947.688 181.519 949.348 181.764C949.471 182.026 949.593 182.288 949.698 182.568C949.733 184.333 949.768 186.115 949.786 187.88C949.768 189.313 949.751 190.729 949.733 192.162C949.733 192.774 949.733 193.368 949.733 193.979C949.558 194.259 949.558 194.521 949.733 194.801C949.751 195.395 949.768 196.007 949.786 196.601C949.383 199.782 949.383 202.945 949.768 206.125C949.768 207.296 949.733 208.485 949.716 209.656C949.663 211.526 949.576 213.413 949.576 215.283C949.611 231.186 949.663 247.09 949.716 262.993L949.558 263.272C949.296 263.465 949.034 263.639 948.789 263.832C948.457 263.919 948.107 263.989 947.775 264.076C942.986 264.391 938.563 266.296 933.931 267.327C923.565 269.669 913.269 272.255 902.903 274.614C899.721 275.331 898.812 276.851 900.246 279.77L899.791 280.923L899.546 280.871H899.826C899.861 281.587 899.878 282.304 899.913 283.021C899.459 283.877 899.249 284.751 899.861 285.624C899.861 286.516 899.861 287.425 899.861 288.316C899.005 296.739 898.97 305.163 899.407 313.604C898.847 314.443 898.934 315.317 899.319 316.208C899.162 318.253 898.777 320.297 899.267 322.342C899.214 322.936 899.162 323.513 899.109 324.107C899.057 324.194 898.952 324.299 898.97 324.369C898.987 324.544 899.057 324.736 899.109 324.911C899.004 326.379 898.48 327.847 899.197 329.297C899.197 329.892 899.197 330.486 899.197 331.063C898.428 334.837 899.004 338.63 898.952 342.422L898.865 342.3Z" fill="#F5E920"/>
<path d="M1352.24 410.317C1349.58 400.88 1346.91 391.443 1344.29 382.005C1343.66 379.716 1341.93 380.677 1340.72 380.869C1329.03 382.827 1317.35 384.924 1305.67 386.951C1300.43 387.86 1295.17 388.734 1289.89 389.52C1286.86 389.974 1285.17 391.058 1284.54 394.571C1282.95 403.501 1280.66 412.292 1278.7 421.152C1278.02 424.228 1276.3 425.573 1273.09 426.115C1258.56 428.614 1244.12 431.603 1229.49 433.455C1228.67 433.56 1227.9 434.102 1227.11 434.434C1226.31 434.556 1225.52 434.661 1224.72 434.783C1222.59 434.591 1221.77 433.7 1222.31 431.376C1223.67 425.469 1224.72 419.474 1226.01 413.55C1229.81 396.336 1233.81 379.174 1237.46 361.943C1240.73 346.529 1243.35 330.957 1246.85 315.596C1250.63 298.959 1254.1 282.269 1257.36 265.527C1257.44 264.898 1257.51 264.268 1257.6 263.657C1258.72 260.266 1259.87 256.893 1259.54 253.241C1259.61 252.856 1259.7 252.472 1259.77 252.088C1262.08 246.583 1263.26 240.815 1263.84 234.908C1263.89 234.332 1263.95 233.755 1264 233.178C1266.55 227.009 1267.27 220.456 1268.25 213.937C1268.3 213.483 1268.33 213.046 1268.39 212.591C1271.34 205.129 1272.16 197.16 1273.77 189.401C1275.99 178.67 1279 168.08 1280.4 157.192C1280.47 156.772 1280.54 156.353 1280.59 155.916C1280.83 155.462 1281.08 155.007 1281.3 154.57H1281.32C1287.7 153.959 1294.17 154.763 1300.52 153.627C1301.41 153.627 1302.3 153.627 1303.19 153.627C1303.77 154.186 1304.33 154.221 1304.87 153.557C1306.07 153.557 1307.26 153.557 1308.47 153.557C1308.99 154.081 1309.54 154.413 1310.16 153.697C1311.63 153.662 1313.1 153.644 1314.59 153.609C1326.77 154.745 1338.97 154.378 1351.19 154.308C1351.79 154.273 1352.38 154.238 1352.97 154.203C1353.59 154.238 1354.2 154.256 1354.83 154.291L1354.93 154.553H1355.21C1355.35 154.798 1355.51 155.025 1355.67 155.27L1355.75 155.427C1355.98 156.353 1356.19 157.297 1356.42 158.223C1356.28 158.538 1356.35 158.8 1356.65 158.974C1356.63 160.18 1356.12 161.491 1357.33 162.452C1357.97 168.115 1359.16 173.672 1360.79 179.125C1360.86 179.963 1360.95 180.802 1361.02 181.641C1361.58 184.507 1361.45 187.566 1363.1 190.169C1362.78 190.903 1363.08 191.533 1363.48 192.127C1363.13 193.962 1363.59 195.692 1364.28 197.37C1364.37 197.964 1364.46 198.558 1364.55 199.135C1364.55 200.323 1364.42 201.511 1365.23 202.525V202.56C1365.26 203.783 1365 205.077 1366 206.09C1366.12 206.667 1366.22 207.244 1366.35 207.803C1366.21 208.519 1366.36 209.114 1367.03 209.533C1367.13 210.407 1367.22 211.298 1367.33 212.172C1366.99 213.727 1367.62 215.038 1368.39 216.314L1368.15 216.401V216.663C1368.11 217.083 1367.97 217.537 1368.06 217.922C1370.87 231.798 1373.46 245.744 1376.66 259.55C1378.2 266.156 1378.25 273.059 1380.87 279.42C1380.94 280.294 1381 281.15 1381.07 282.024C1382.25 288.123 1383.43 294.205 1384.61 300.304C1384.42 301.003 1384.61 301.58 1385.14 302.069C1385.59 305.635 1385.87 309.217 1386.55 312.73C1390.03 330.66 1393.53 348.608 1397.24 366.504C1398.95 374.788 1400.01 383.229 1402.64 391.32L1402.6 391.303C1403.28 396.493 1403.97 401.684 1404.63 406.874C1404.28 407.014 1403.93 407.154 1403.58 407.311C1402.29 407.328 1400.98 407.189 1399.72 407.381C1384.51 409.827 1369.23 411.627 1353.94 413.393C1353.57 412.956 1353.18 412.536 1352.82 412.099C1352.9 411.383 1352.92 410.701 1352.17 410.299L1352.24 410.317ZM1318.29 254.517C1316.63 255.635 1316.53 257.051 1316.25 258.239C1311.35 278.809 1306.53 299.396 1301.67 319.982C1300.88 323.285 1301.91 324.439 1305.38 323.757C1312.87 322.254 1320.39 320.647 1327.98 319.738C1331.82 319.266 1332.56 318.078 1331.82 314.512C1327.73 294.59 1323.78 274.632 1318.29 254.534V254.517Z" fill="#F5E920"/>
<path d="M790.871 183.477C788.284 184.176 785.662 181.642 783.04 179.824C753.987 159.744 725.214 139.245 695.934 119.462C679.712 108.504 663.7 97.2668 647.531 86.2568C630.05 74.373 613.024 61.8077 595.771 49.6093C590.439 45.8519 584.985 42.2868 579.584 38.6343C578.64 37.9876 577.224 37.4983 577.451 36.1526C577.766 34.2827 579.584 34.9817 580.702 34.9293C611.94 33.671 643.073 30.9622 674.241 28.6379C694.536 27.1175 714.883 26.7854 735.126 24.6883C739.094 24.2863 742.275 25.7543 745.264 27.834C762.36 39.7877 779.351 51.8987 796.482 63.8349C813.823 75.9284 831.513 87.5326 848.592 99.9582C865.233 112.052 882.312 123.516 898.988 135.54C912.169 145.029 925.629 154.099 938.949 163.397C939.945 164.096 941.763 164.585 941.186 166.175C940.697 167.504 939.001 167.259 937.725 167.399C911.732 170.3 885.773 173.55 859.727 176.014C842.072 177.675 824.451 179.615 806.831 181.415C801.919 181.921 797.024 182.655 790.924 183.459L790.871 183.477Z" fill="#EB1F25"/>
<path d="M863.853 17.6275C871.352 17.2605 879.533 17.3479 887.591 16.3343C895.353 15.3556 901.244 18.3441 907.117 22.6607C921.241 33.0415 935.505 43.2127 949.735 53.4362C968.561 66.9628 987.388 80.5068 1006.28 93.946C1023.29 106.039 1040.42 117.976 1057.47 130.017C1066.57 136.466 1075.65 142.984 1084.7 149.485C1085.35 149.957 1086.57 150.097 1086.31 151.233C1086.03 152.421 1084.75 152.421 1083.83 152.648C1077.74 154.169 1071.47 154.448 1065.26 155.095C1040.7 157.647 1016.14 160.146 991.618 162.994C984.853 163.781 978.001 164.06 971.218 164.934C969.68 165.126 968.351 164.742 967.11 163.886C949.805 151.984 932.446 140.153 915.211 128.182C895.213 114.288 875.285 100.307 855.375 86.3089C827.878 66.9628 800.433 47.5642 772.971 28.2006C771.678 27.2919 770.297 26.5054 768.933 25.6841C768.112 25.1772 766.766 25.0549 767.045 23.6918C767.325 22.3985 768.636 22.5733 769.58 22.5034C776.537 22.0141 783.495 21.5422 790.469 21.1752C813.561 19.9694 836.635 18.8159 859.727 17.645C860.881 17.5926 862.052 17.645 863.853 17.645V17.6275Z" fill="#EB1F25"/>
<path d="M1152.39 146.235C1144.71 149.119 1139.14 140.975 1132.43 136.553C1116.82 126.277 1101.7 115.267 1086.36 104.572C1063.53 88.6335 1040.69 72.7477 1017.89 56.7919C1001.06 45.013 984.296 33.1292 967.497 21.2803C965.487 19.8648 963.511 18.3793 961.536 16.8938C960.854 16.387 959.928 15.7579 960.277 14.8316C960.732 13.6083 961.991 14.0452 962.952 14.0802C971.815 14.4821 980.677 14.919 989.54 15.321C997.668 15.688 1005.83 16.6492 1013.93 16.2297C1020.43 15.8802 1024.15 20.0745 1028.38 23.2027C1051.46 40.2944 1074.65 57.1589 1098.18 73.639C1121.43 89.9093 1144.47 106.477 1167.63 122.887C1174.73 127.92 1181.88 132.866 1188.98 137.864C1190.04 138.615 1191.07 139.437 1192 140.345C1192.49 140.817 1193.1 141.586 1193.01 142.128C1192.84 143.247 1191.7 142.967 1190.88 143.037C1178.85 144.05 1166.83 145.047 1152.41 146.235H1152.39Z" fill="#EB1F25"/>
<path d="M1105.66 19.0955C1110.02 18.1168 1113.58 19.113 1117.04 19.445C1132.95 20.913 1148.84 22.5383 1164.82 22.9752C1169.17 23.0975 1172 26.051 1175.04 28.3054C1188.89 38.6339 1203.4 47.9661 1217.59 57.7703C1237.45 71.5065 1257.39 85.1205 1277.51 98.4723C1295.01 110.059 1312.25 122.03 1330.22 132.918C1332.54 134.333 1335.18 135.697 1337.49 138.912C1333.71 138.912 1330.73 138.93 1327.74 138.912C1316.69 138.825 1305.59 138.108 1294.59 138.825C1286.2 139.367 1279.72 136.011 1273.28 131.799C1260.84 123.638 1248.5 115.319 1236.14 107.036C1214.72 92.6702 1193.38 78.2174 1171.95 63.8869C1153.28 51.3915 1134.52 39.0533 1115.84 26.5753C1112.55 24.3733 1109.44 21.9092 1105.66 19.1305V19.0955Z" fill="#EB1F25"/>
<path d="M1458.84 144.225C1447.72 143.404 1436.6 141.971 1425.47 141.901C1411.75 141.796 1401.43 134.473 1390.72 127.623C1368.99 113.747 1347.21 99.9929 1325.57 86.0119C1308.79 75.1592 1292.2 64.0094 1275.47 53.0694C1265.63 46.6381 1255.7 40.3642 1245.8 34.0378C1244.6 33.2689 1243.41 32.4999 1242.4 30.7872C1247.8 29.8086 1252.67 31.4863 1257.55 32.0455C1271.83 33.6883 1286.06 36.1699 1300.38 37.2185C1307.79 37.7602 1312.7 42.0769 1318.1 45.6769C1331.35 54.5199 1344.25 63.9046 1357.35 72.9922C1374.48 84.8935 1391.59 96.7947 1408.83 108.521C1421.76 117.329 1434.93 125.823 1447.88 134.596C1451.78 137.235 1455.82 139.786 1458.82 144.208L1458.84 144.225Z" fill="#EB1F25"/>
<path d="M1578.81 158.661C1572.99 159.115 1567.29 158.364 1561.59 157.595C1559.58 157.315 1557.55 156.546 1555.58 156.668C1541.64 157.42 1530.67 150.657 1519.67 143.334C1503.29 132.429 1486.53 122.083 1470.11 111.248C1446.2 95.4493 1422.43 79.4062 1398.6 63.4505C1394.98 61.0388 1391.42 58.5571 1387.82 56.1105C1387.13 55.6386 1385.98 55.394 1386.49 54.2755C1386.94 53.2619 1387.97 53.7337 1388.81 53.891C1398.65 55.7784 1408.48 57.7358 1418.34 59.5533C1423.9 60.5669 1429.49 61.6679 1435.12 62.1572C1440.26 62.5941 1444.63 64.3942 1448.77 67.2778C1466.53 79.5635 1484.34 91.7968 1502.12 104.065C1517.75 114.848 1533.36 125.648 1548.95 136.466C1558.13 142.827 1567.29 149.206 1576.43 155.585C1577.44 156.284 1578.84 156.703 1578.79 158.678L1578.81 158.661Z" fill="#EB1F25"/>
<path d="M13.8969 149.835C77.089 195.116 139.39 239.768 201.988 284.611C199.121 286.342 196.953 287.757 194.698 288.998C192.094 290.431 189.646 290.466 187.007 288.596C173.669 279.124 160.261 269.757 146.836 260.407C127.398 246.88 107.855 233.459 88.4689 219.862C81.8263 215.214 75.5333 210.058 68.9781 205.287C55.4132 195.431 41.7958 185.661 28.1959 175.857C24.2104 172.991 20.2073 170.143 16.2567 167.224C14.8233 166.158 13.8095 164.882 13.8794 162.855C14.0017 158.835 13.9143 154.798 13.9143 149.853L13.8969 149.835Z" fill="#E01F25"/>
<path d="M14.0704 184.7C21.8143 190.327 28.6667 195.413 35.6064 200.359C47.0212 208.503 58.5409 216.489 69.9382 224.651C90.8799 239.645 111.717 254.762 132.676 269.722C145.769 279.071 158.984 288.264 172.147 297.526C176.412 300.532 180.643 303.573 184.943 306.526C186.271 307.435 186.761 308.659 187.023 310.162C187.25 311.472 187.145 312.731 187.023 314.041C186.201 322.884 186.079 323.111 178.772 318.026C164.63 308.169 150.681 298.051 136.644 288.054C118.954 275.436 101.246 262.836 83.5731 250.201C70.2704 240.676 57.0376 231.047 43.7349 221.522C35.3792 215.546 27.041 209.551 18.5279 203.802C15.3115 201.635 13.581 199.258 14.018 195.221C14.3676 192.093 14.0879 188.894 14.0879 184.683L14.0704 184.7Z" fill="#E01F25"/>
<path d="M14.2798 227.429C14.6644 225.192 13.1086 221.889 14.8916 220.91C16.8145 219.844 18.5975 222.938 20.4155 224.213C39.4867 237.373 58.1735 251.057 76.9476 264.636C95.2497 277.865 114.059 290.396 132.273 303.747C149.23 316.173 166.623 328.004 183.561 340.43C186.621 342.667 188.753 351.615 187.023 354.9C186.061 356.718 185.012 355.826 183.859 355.022C172.479 346.983 161.081 338.962 149.702 330.923C134.231 320 118.726 309.13 103.308 298.155C91.7536 289.924 80.3563 281.5 68.8191 273.269C60.341 267.205 51.7406 261.298 43.1926 255.356C34.295 249.169 25.3799 243 16.4998 236.796C13.0212 234.367 15.1713 230.557 14.2448 227.446L14.2798 227.429Z" fill="#E01F25"/>
<path d="M14.8406 254.57C32.4261 267.013 49.1025 278.792 65.744 290.606C82.8574 302.769 100.076 314.793 117.014 327.218C139.337 343.611 162.272 359.13 184.752 375.295C186.867 376.816 188.492 383.439 187.286 385.606C186.482 387.039 185.643 386.218 184.804 385.658C174.456 378.755 163.985 372.079 153.898 364.757C143.375 357.102 132.572 349.867 121.909 342.422C105.739 331.15 89.6049 319.808 73.4179 308.571C59.6433 299.012 45.7987 289.54 31.989 280.015C27.9336 277.219 24.0529 274.161 19.8575 271.609C16.1167 269.32 14.1589 266.523 14.8057 261.997C15.1028 259.9 14.8581 257.733 14.8581 254.552L14.8406 254.57Z" fill="#E01F25"/>
</svg>
