<svg width="312" height="71" viewBox="0 0 312 71" fill="none" xmlns="http://www.w3.org/2000/svg">
<path d="M38.2751 69.4343V69.0871C38.4401 69.0871 38.6026 69.092 38.7651 69.092C39.0656 69.092 39.3143 69.0846 39.5507 69.0723L39.9349 69.0501C40.8732 68.996 41.8435 68.9393 42.8015 68.7916C44.0353 68.5995 44.8578 68.166 45.3159 67.4642C45.769 66.7697 45.8355 65.8585 45.5227 64.6838C45.0253 62.8269 44.449 60.9651 43.89 59.1649C43.7595 58.7438 43.6289 58.3252 43.5009 57.904C42.7177 55.3601 41.9272 52.8186 41.1293 50.2623L39.9472 46.4599H30.4659C25.6907 46.4599 20.9131 46.4599 16.138 46.4501C15.3278 46.4501 14.8648 46.7899 14.6283 47.5484C13.7073 50.5086 12.7616 53.5155 11.8455 56.424C11.0895 58.8251 10.3334 61.2287 9.58231 63.6322C9.39761 64.2184 9.26708 64.8734 9.18089 65.627C8.96171 67.5528 10.0872 68.2645 11.0722 68.5231C12.2149 68.8236 13.3748 68.9516 14.4584 69.0452C14.7933 69.0748 15.1529 69.0871 15.5839 69.0871C15.8695 69.0871 16.1577 69.0822 16.4483 69.0748C16.4852 69.0748 16.5246 69.0748 16.5616 69.0748V69.4245H0V69.1092C0.0566418 69.1043 0.113284 69.0994 0.169925 69.0945C0.43097 69.0698 0.694477 69.0501 0.955522 69.028C1.59089 68.9763 2.24597 68.9245 2.89858 68.8236C4.87858 68.5182 6.39067 67.3583 7.1541 65.5581C7.83626 63.9499 8.47902 62.1743 9.18089 59.9702C12.6607 49.0408 16.1823 37.9243 19.5882 27.1722L21.7652 20.3013C23.4571 14.9622 25.6809 7.93862 27.885 0.929815C28.183 0.949517 28.4489 0.959367 28.6977 0.959367C28.9833 0.959367 29.2419 0.947054 29.4956 0.919964C29.5276 0.917502 29.5596 0.915039 29.5892 0.915039C29.5941 0.915039 29.599 0.915039 29.6039 0.915039C29.6187 0.944591 29.6384 0.991382 29.6655 1.07265C31.0988 5.64832 32.5764 10.2905 34.0048 14.7824L34.4751 16.2625C38.0115 27.3791 41.548 38.4956 45.0893 49.6097C46.4142 53.7716 47.9583 58.6059 49.4827 63.3293C49.9186 64.6813 50.49 66.2181 51.7558 67.3657C52.9182 68.4197 54.3071 68.9541 55.8857 68.9541C56.4447 68.9541 57.0333 68.8851 57.6391 68.7522C57.8509 68.7054 58.0627 68.6561 58.2696 68.5995C60.4121 68.0158 61.5105 66.7278 61.7297 64.5434C61.8159 63.6692 61.8602 62.8836 61.8602 62.1423C61.8676 47.6691 61.875 28.6079 61.8602 9.52705C61.8602 8.56906 61.774 7.54459 61.609 6.48317C61.3381 4.75929 60.2767 3.57474 58.6956 3.23489C57.4397 2.96399 56.1541 2.82855 54.9105 2.69556C54.5509 2.65616 54.1914 2.61922 53.8343 2.57735C53.6447 2.55519 53.4427 2.54534 53.2014 2.54534C53.1201 2.54534 53.0364 2.54534 52.9527 2.5478V2.23504H74.6514V2.53795C74.5184 2.54287 74.3879 2.5478 74.2549 2.55272C73.4003 2.58474 72.5187 2.61922 71.6469 2.69802C70.7948 2.77437 69.923 2.92459 69.0562 3.14131C67.1747 3.6166 66.0591 4.92183 65.83 6.91168C65.7315 7.77362 65.6798 8.62571 65.6798 9.44332C65.6749 23.9288 65.6749 43.027 65.6946 62.3048C65.6946 63.3416 65.7906 64.3907 65.9803 65.4226C66.2438 66.8633 67.1747 67.8951 68.6744 68.4074C70.5042 69.0304 72.3808 69.06 74.1958 69.0895H74.3091C74.4248 69.092 74.5381 69.0945 74.6538 69.0945V69.4319H38.2775L38.2751 69.4343ZM26.4468 9.85705C23.1419 20.3776 19.8443 30.9007 16.5468 41.4237C16.3572 42.0271 16.1749 42.6354 15.9853 43.2584L15.4213 45.1153H39.4842L39.1419 43.9283C39.0951 43.7658 39.0533 43.618 39.0089 43.4727C39.0089 43.4727 36.8689 36.6437 36.3714 35.0552L34.9775 30.6027C32.8128 23.6875 30.6506 16.7723 28.481 9.85705C28.3972 9.59108 27.4417 6.59399 27.4417 6.59399C27.4417 6.59399 26.5182 9.63787 26.4492 9.85705H26.4468Z" fill="white"/>
<path d="M301.228 70.8452C301.065 70.8452 300.9 70.8428 300.733 70.8378C298.164 70.7566 295.778 69.87 293.439 68.1313L293.367 68.0747C293.325 68.0402 293.281 68.0082 293.237 67.9762C292.638 67.5428 292.136 67.3408 291.656 67.3408C290.845 67.3408 290.237 67.9048 289.845 69.0204C289.821 69.0918 289.794 69.1607 289.767 69.2297C289.744 69.2888 289.72 69.3504 289.698 69.4119C289.607 69.6582 289.513 69.9119 289.454 70.0276C289.412 70.0325 289.338 70.0375 289.217 70.0375C289.109 70.0375 288.988 70.035 288.848 70.0301C288.567 69.5031 287.74 69.4858 287.634 69.4833C284.561 69.476 281.487 69.476 278.414 69.476H274.099V69.1164C274.109 69.1164 274.119 69.1164 274.131 69.1164C274.658 69.0819 275.202 69.045 275.744 68.9563C278.064 68.582 279.143 67.4221 279.352 65.0801C279.443 64.0654 279.482 63.2897 279.485 62.5632C279.495 54.8501 279.492 47.1394 279.492 39.4263V35.2717C279.492 33.1735 279.172 31.6196 278.453 30.2281C277.461 28.3073 275.825 27.2705 273.589 27.1498C273.407 27.1399 273.225 27.135 273.047 27.135C270.449 27.135 267.999 28.1718 265.551 30.307C264.497 31.228 263.524 32.25 262.586 33.2425L262.071 33.7843C261.756 34.1143 261.552 34.6561 261.549 35.1658C261.534 44.327 261.534 53.5941 261.549 62.7036C261.549 63.6837 261.616 64.5432 261.751 65.3337C262.177 67.8432 263.411 68.9219 266.007 69.0622C266.31 69.0795 266.615 69.0918 266.925 69.1066V69.439H252.691V69.1115C252.935 69.0967 253.181 69.0819 253.425 69.0721C256.535 68.9489 257.956 67.5772 258.173 64.4866C258.222 63.7773 258.247 63.0385 258.247 62.2258C258.254 52.0057 258.262 41.9924 258.252 31.8634C258.252 30.9325 258.183 30.0311 258.047 29.1815C257.791 27.5734 256.732 27.332 256.124 27.332C255.939 27.332 255.737 27.3542 255.525 27.3961C254.777 27.5463 254.065 27.7605 253.312 27.9846C253.191 28.0191 253.07 28.0561 252.95 28.093L252.807 27.7433L255.907 26.4775L257.752 25.7264C258.766 25.3126 259.781 24.9014 260.796 24.4852C260.845 24.4655 260.897 24.4556 260.953 24.4556C261.219 24.4556 261.539 24.6846 261.539 24.9679C261.542 26.4233 261.542 27.8787 261.542 29.3342C261.542 30.8008 261.549 31.9953 261.542 33.4155C262.711 32.3692 263.808 31.321 264.852 30.1518C265.792 29.0953 266.768 28.0019 267.809 27.0464C269.812 25.2117 272.146 24.2808 274.749 24.2808C275.064 24.2808 275.387 24.2955 275.712 24.3226C278.655 24.5714 280.637 26.0564 281.773 28.8614C282.684 31.1172 282.81 33.4592 282.812 35.4515C282.814 38.9904 282.817 42.5268 282.819 46.0657C282.819 51.8702 282.824 57.6748 282.837 63.4793C282.837 64.3314 282.967 65.1613 283.093 65.8607C283.386 67.4812 284.415 68.5426 285.991 68.848C286.464 68.9391 286.93 68.9957 287.422 69.0548C287.644 69.0819 287.87 69.109 288.107 69.141L288.964 69.2568L288.589 53.3946C288.668 53.3897 288.737 53.3872 288.796 53.3872H288.816C288.855 53.5547 288.897 53.8404 288.924 54.0275C289.427 57.559 290.227 60.3148 291.449 62.6987C292.985 65.7007 294.827 67.5723 297.246 68.5943C298.541 69.141 299.79 69.4193 300.955 69.4193C302.395 69.4193 303.752 69.0007 304.988 68.1757C306.611 67.0921 307.594 65.383 307.988 62.9572C308.274 61.2063 308.461 58.9037 307.385 56.6257C306.498 54.7491 305.087 53.3158 303.959 52.2766C302.376 50.8187 300.75 49.3534 299.179 47.9349C297.445 46.371 295.652 44.7555 293.911 43.1425C292.082 41.4481 290.845 39.8843 290.028 38.2196C288.577 35.2742 288.801 31.3708 290.584 28.5067C292.276 25.7904 295.157 24.2931 298.701 24.2931C298.775 24.2931 298.849 24.2931 298.923 24.2931C301.386 24.3349 303.545 25.1723 305.52 26.8518C305.555 26.8814 305.589 26.9109 305.621 26.9405C305.705 27.0143 305.789 27.0882 305.88 27.1572C306.355 27.5167 306.823 27.7014 307.271 27.7014C307.67 27.7014 308.636 27.5389 308.968 26.0391C308.99 25.9431 309.005 25.8446 309.02 25.7436C309.027 25.6943 309.035 25.6426 309.042 25.5934C309.084 25.3742 309.155 24.9949 309.219 24.825C309.227 24.825 309.234 24.825 309.242 24.825C309.343 24.825 309.476 24.8373 309.633 24.8595V37.8083H309.421C309.384 37.6236 309.35 37.4414 309.313 37.2591C309.15 36.4193 308.981 35.55 308.754 34.7004C308 31.8732 306.791 29.7184 305.055 28.1127C303.351 26.5366 301.403 25.7387 299.268 25.7387C298.581 25.7387 297.871 25.8249 297.157 25.9923C293.185 26.9281 291.692 30.6246 291.976 33.8729C292.237 36.8848 294.113 38.9559 295.721 40.4261C297.174 41.7535 298.679 43.0637 300.137 44.3319C301.129 45.1939 302.154 46.0854 303.149 46.9719C305.518 49.0825 307.604 51.0231 309.138 53.4266C311.675 57.4039 311.906 61.588 309.82 65.8607C308.207 69.1657 305.316 70.8428 301.228 70.8428V70.8452Z" fill="white"/>
<path d="M165.751 70.8687C162.619 70.8687 160.291 69.1128 159.2 65.9236C158.629 64.2564 158.353 62.4586 158.353 60.4294V57.6958C158.358 49.8497 158.363 41.7351 158.348 33.7536C158.346 32.4434 158.265 31.1554 158.109 29.9315C157.949 28.6681 157.146 27.9121 155.962 27.9121C155.772 27.9121 155.57 27.9318 155.361 27.9687C154.644 28.0992 153.962 28.2741 153.238 28.4588C153.105 28.4933 152.975 28.5253 152.839 28.5598L152.647 28.2125L152.807 28.1657C152.911 28.1362 153.007 28.1091 153.098 28.082C153.285 28.0303 153.462 27.9786 153.64 27.917C154.999 27.4417 156.358 26.9664 157.72 26.4911C158.868 26.0897 160.018 25.6883 161.166 25.2868C161.409 25.2868 161.695 25.5405 161.705 25.6661C161.712 25.7572 161.71 25.8459 161.705 25.937C161.705 25.9912 161.705 26.0454 161.705 26.102V33.7634C161.705 42.3951 161.705 51.0268 161.712 59.6585C161.712 61.5006 161.939 62.9807 162.424 64.3155C163.311 66.7609 165.162 68.108 167.642 68.108C168.017 68.108 168.406 68.076 168.8 68.0144C171.152 67.6426 173.331 66.5664 175.466 64.7243C176.395 63.9239 177.235 63.0201 178.047 62.1459C178.252 61.9242 178.459 61.7026 178.665 61.4834C178.956 61.1756 179.143 60.6781 179.143 60.2151C179.16 50.0196 179.16 40.851 179.148 32.1873C179.148 31.4066 179.064 30.5989 178.904 29.7911C178.668 28.5942 177.892 27.9096 176.779 27.9096C176.599 27.9096 176.407 27.9268 176.21 27.9638C175.479 28.0968 174.779 28.2741 174.036 28.4637C173.927 28.4908 173.819 28.5204 173.708 28.5474L173.592 28.2174L181.936 25.3041C181.958 25.2967 181.98 25.2942 182.007 25.2942C182.231 25.2942 182.507 25.5282 182.515 25.7277C182.519 25.8582 182.517 25.9863 182.515 26.1168V26.3113V33.2192C182.515 43.0822 182.515 53.2802 182.529 63.3132C182.529 64.1973 182.611 65.0838 182.768 65.9458C182.97 67.0491 183.655 67.682 184.65 67.682C184.844 67.682 185.051 67.6573 185.265 67.6056C186.061 67.4185 186.819 67.182 187.622 66.9333C187.753 66.8914 187.886 66.852 188.019 66.8102L188.157 67.1525C187.957 67.2411 187.763 67.3249 187.566 67.4086L184.485 68.7064C183.005 69.3295 181.525 69.9526 180.047 70.5781C180.003 70.5953 179.956 70.6052 179.902 70.6052C179.633 70.6052 179.301 70.3589 179.296 70.0708C179.266 68.8567 179.239 67.6401 179.212 66.426L179.158 64.052C179.158 63.9658 179.151 63.882 179.138 63.7367L179.116 63.4437L178.986 61.6484L177.816 63.0176C177.727 63.1211 177.651 63.2048 177.584 63.2812C177.444 63.4388 177.321 63.5767 177.21 63.7392C175.602 66.0985 173.772 67.8716 171.617 69.162C169.869 70.2111 168.083 70.7652 166.16 70.8588C166.02 70.8662 165.879 70.8687 165.741 70.8687H165.751ZM140.257 69.9747C139.881 69.9747 139.509 69.9452 139.154 69.8836C137.243 69.5561 136.361 68.209 136.529 65.8768C136.667 63.9756 137.27 62.1951 137.91 60.3087C138.07 59.8383 138.231 59.3679 138.381 58.8951C141.186 50.1723 143.998 41.4519 146.811 32.7315L150.938 19.928C152.376 15.4607 153.583 11.7076 154.795 7.90522C154.935 7.46686 155.041 6.97679 155.12 6.40791C155.341 4.78992 154.553 3.50686 153.113 3.135C152.1 2.87395 151.061 2.74589 150.054 2.62276C149.692 2.57843 149.327 2.5341 148.968 2.48239C148.997 2.3888 149.027 2.29768 149.059 2.21149C149.702 2.18686 150.367 2.17455 151.009 2.15977C152.041 2.14007 153.11 2.11791 154.167 2.04895C155.196 1.98246 156.541 1.85933 157.826 1.51209C158.796 1.24858 159.752 0.763432 160.52 0.142836C160.582 0.093582 160.653 0.039403 160.725 0L151.465 28.5671H151.472L151.093 29.7271C150.847 30.4831 150.606 31.217 150.369 31.9484L148.384 38.0682C145.924 45.6533 143.38 53.4994 140.895 61.2199C140.568 62.2345 140.368 63.2836 140.176 64.2958L140.119 64.5888C140.033 65.0395 140.036 65.5567 140.127 66.1255C140.339 67.4406 141.178 68.1967 142.427 68.1967C142.602 68.1967 142.791 68.1819 142.984 68.1523C144.592 67.9085 145.739 66.9924 146.559 66.2191C148.825 64.0914 150.357 61.4686 151.615 59.1759C152.164 58.1785 152.704 57.1023 153.317 55.7921C153.342 55.7404 153.361 55.7059 153.374 55.6862C153.386 55.6862 153.401 55.6862 153.415 55.6862C153.484 55.6936 153.556 55.6961 153.632 55.701C153.374 56.2921 153.13 56.8535 152.864 57.4003C150.995 61.2642 149.113 64.1259 146.941 66.4063C145.54 67.879 143.791 69.4403 141.452 69.8713C141.065 69.9427 140.661 69.9797 140.252 69.9797L140.257 69.9747Z" fill="white"/>
<path d="M237.193 70.8643C234.219 70.8643 231.362 69.8004 229.15 67.8722C226.178 65.2765 224.176 61.8607 222.851 57.1225C222.07 54.3274 221.674 51.2121 221.639 47.6043C221.733 42.1445 222.573 37.7855 224.282 33.9068C225.966 30.0798 228.114 27.5161 231.034 25.8415C232.803 24.8269 234.847 24.2925 236.947 24.2925C240.099 24.2925 243.188 25.509 245.416 27.6319C248.453 30.5206 250.44 34.2122 251.492 38.9159C253.255 46.7965 252.713 54.2855 249.881 61.1786C248.384 64.8234 246.261 67.4338 243.395 69.1601C241.54 70.2782 239.395 70.8668 237.193 70.8668V70.8643ZM235.972 25.8366C233.46 25.8366 231.064 27.0137 229.399 29.0627C227.877 30.9368 226.831 33.2049 226.106 36.202C225.296 39.5488 225.043 43.2527 225.328 47.5255C225.607 51.6849 226.279 55.3051 227.39 58.5903C228.646 62.3114 230.145 64.8603 232.251 66.8551C233.911 68.4263 236.046 69.2931 238.262 69.2931C239.922 69.2931 241.503 68.8006 242.838 67.8648C244.434 66.7467 245.687 65.146 246.67 62.9739C248.588 58.7257 248.901 54.2412 248.955 50.4142V50.3871V50.36C248.938 50.062 248.918 49.7345 248.901 49.3848C248.854 48.5327 248.8 47.5673 248.726 46.5921C248.401 42.4277 247.616 38.746 246.32 35.3352C245.106 32.1386 243.651 29.8458 241.735 28.117C240.104 26.6468 238.06 25.8341 235.979 25.8341L235.972 25.8366Z" fill="white"/>
<path d="M116.345 70.6308C112.087 70.6308 108.959 67.976 107.762 63.3461C107.132 60.9032 106.991 58.2533 107.321 55.005C107.839 49.9294 109.343 44.9302 111.799 40.1501C114.478 34.9292 117.623 30.9692 121.406 28.0411C123.883 26.1251 126.319 25.012 128.85 24.6377C129.338 24.5662 129.828 24.5293 130.306 24.5293C133.65 24.5293 136.462 26.2827 138.021 29.3438C139.184 31.6243 139.716 34.1806 139.698 37.3894C139.62 43.4304 138.098 49.2423 135.049 55.1577C132.872 59.3812 130.311 62.7994 127.225 65.6094C124.614 67.9858 122.162 69.4364 119.504 70.1752C118.418 70.4781 117.354 70.6308 116.345 70.6308ZM129.025 26.0192C128.528 26.0192 128.018 26.0734 127.508 26.1818C125.127 26.6841 123.339 28.1716 122.046 29.4128C119.657 31.7105 117.667 34.5401 115.786 38.3154C112.882 44.1397 111.203 50.156 110.794 56.197C110.636 58.5144 110.587 61.2479 111.417 63.952C111.848 65.3532 112.656 67.3381 114.717 68.3897C115.69 68.8872 116.707 69.1384 117.741 69.1384C118.955 69.1384 120.226 68.7887 121.516 68.1016C123.607 66.986 125.479 65.3015 127.237 62.9472C132.653 55.697 135.741 47.1244 136.167 38.1553V38.1135C136.14 34.7322 135.928 32.3262 134.928 30.0408C133.827 27.5215 131.618 26.0168 129.023 26.0168L129.025 26.0192Z" fill="white"/>
<path d="M199.682 70.8619C199.497 70.8619 199.31 70.8569 199.118 70.8471C195.786 70.6722 193.897 69.202 192.801 65.9266C191.981 63.4763 191.772 60.8855 191.668 58.4524L191.663 58.3342C191.641 57.8367 191.622 57.322 191.619 56.8245C191.619 48.9612 191.619 41.0954 191.619 33.232V27.2231H185.49V26.1912C185.657 26.1518 185.824 26.1149 185.989 26.0779C186.777 25.9006 187.593 25.7159 188.363 25.3958C190.526 24.492 192.006 22.7459 193.023 19.8966C193.811 17.6876 194.057 15.412 194.18 13.6685H194.912V25.7282H205.358V27.1812H195.124L195.072 27.8658C195.064 27.952 195.057 28.0308 195.052 28.1047C195.037 28.2648 195.023 28.4175 195.023 28.58C195.025 30.9319 195.027 33.2837 195.03 35.6356C195.035 42.7306 195.04 50.0694 195.079 57.2875C195.089 59.3119 195.215 61.9592 196.089 64.4884C196.51 65.705 197.301 67.3944 199.313 68.0347C199.832 68.1997 200.364 68.2834 200.894 68.2834C202.494 68.2834 203.989 67.52 204.996 66.1901C206.213 64.5869 206.72 62.7054 207.087 60.9126C207.649 58.1766 207.73 55.3839 207.809 52.6823V52.6577H208.341C208.343 53.0862 208.346 53.495 208.333 53.9087C208.223 57.4353 208.062 60.6048 207.255 63.6634C206.964 64.7642 206.58 65.8232 206.114 66.8107C204.827 69.5369 202.723 70.8619 199.679 70.8619H199.682Z" fill="white"/>
<path d="M93.1096 70.6153C89.2063 70.5341 86.3668 69.4135 84.1775 67.0912C83.0348 65.8796 82.3748 64.4635 82.2172 62.8825C82.0842 61.56 82.6482 60.6291 83.7219 60.3927C83.877 60.3582 84.0199 60.341 84.1455 60.341C84.4385 60.341 84.7439 60.4124 84.9902 60.937C85.2758 61.5403 85.4975 62.1757 85.7314 62.8455C85.793 63.0253 85.857 63.2051 85.9211 63.3824C86.4949 64.9881 87.315 66.8006 89.0339 68.0714C90.4426 69.1131 92.0753 69.6623 93.7598 69.6623C97.6902 69.6623 100.948 66.7686 101.507 62.7815C101.961 59.5554 101.264 56.4253 99.3796 53.2189L99.3526 53.1746C97.4464 49.9312 95.4788 46.577 93.5997 43.25C92.1172 40.6223 91.4227 38.3394 91.4202 36.0614C91.4104 30.5105 95.0576 25.9816 100.498 24.7921C101.576 24.5557 102.606 24.4375 103.561 24.4375C105.561 24.4375 107.317 24.9399 108.932 25.9718C110.577 27.0233 111.56 28.3113 111.934 29.9096C112.099 30.6139 111.996 31.2862 111.646 31.8009C111.341 32.2467 110.885 32.5274 110.329 32.6062C110.247 32.6185 110.166 32.6235 110.09 32.6235C109.703 32.6235 109.425 32.4659 109.218 32.1285C109.011 31.7935 108.846 31.4143 108.674 31.0129C108.607 30.8602 108.541 30.7075 108.472 30.5548C108.366 30.3258 108.267 30.0918 108.169 29.8579C107.972 29.3924 107.77 28.9122 107.514 28.4468C106.536 26.6638 104.955 25.6565 102.815 25.4472C102.495 25.4152 102.177 25.4004 101.867 25.4004C97.4982 25.4004 94.4838 28.4443 94.3681 32.9732C94.2991 35.6452 95.0355 38.3492 96.6214 41.2355C97.8454 43.4642 99.126 45.7077 100.365 47.8773C101.143 49.2417 101.924 50.6085 102.694 51.9777C104.108 54.4921 104.734 56.8686 104.603 59.2402C104.28 65.0841 100.67 69.3594 95.1758 70.4011C94.6291 70.5045 94.0529 70.5439 93.5874 70.5759C93.4101 70.5882 93.2476 70.5981 93.1072 70.6129L93.1096 70.6153Z" fill="white"/>
<path d="M207.028 69.4259V69.1156C207.063 69.1156 207.095 69.1107 207.129 69.1082C207.693 69.0664 208.279 69.0245 208.855 68.9432C210.988 68.6428 212.054 67.6306 212.416 65.5571C212.581 64.6212 212.658 63.5918 212.658 62.3162C212.67 51.4606 212.658 40.413 212.648 30.912C212.648 30.3259 212.574 29.7619 212.508 29.3359C212.222 27.4593 210.919 27.2574 210.372 27.2574C210.138 27.2574 209.885 27.2894 209.619 27.351C208.996 27.4963 208.4 27.681 207.767 27.8731C207.695 27.8952 207.622 27.9174 207.548 27.9395L207.4 27.5701L207.979 27.3386C208.892 26.9717 209.789 26.6146 210.688 26.26C212.079 25.7133 213.473 25.1739 214.869 24.6346L215.409 24.4253C215.611 24.4302 215.943 24.6765 215.98 24.8169C215.985 24.8907 215.985 24.9966 215.98 25.1075C215.98 25.169 215.98 25.2331 215.98 25.2946V32.5325C215.985 42.5482 215.987 52.9038 216.002 63.0894C216.002 63.8775 216.083 64.7394 216.243 65.6531C216.583 67.5986 217.657 68.6403 219.627 68.926C220.095 68.995 220.563 69.0221 221.014 69.0516C221.221 69.0639 221.425 69.0762 221.632 69.0935V69.4259H207.033H207.028Z" fill="white"/>
</svg>
