<svg width="1617" height="311" viewBox="0 0 1617 311" fill="none" xmlns="http://www.w3.org/2000/svg">
<g clip-path="url(#clip0_6895_7204)">
<path d="M1696.26 149.166C1696.54 150.556 1696.68 152.642 1696.68 155.424C1696.68 157.927 1696.54 159.874 1696.26 161.264V166.271C1695.7 169.052 1695.42 171.972 1695.42 175.032C1695.42 177.813 1695.15 180.455 1694.59 182.958C1694.03 185.183 1693.62 187.269 1693.34 189.216C1693.06 191.163 1692.78 193.249 1692.5 195.474C1691.11 200.202 1689.86 204.792 1688.75 209.242C1687.64 213.692 1686.25 218.003 1684.58 222.175C1676.23 242.478 1665.25 259.444 1651.62 273.072C1638.27 286.7 1620.75 297.13 1599.05 304.362C1595.99 305.196 1592.93 305.891 1589.87 306.448C1586.82 307.004 1583.76 307.699 1580.7 308.534C1579.31 308.812 1578.05 308.951 1576.94 308.951C1575.83 308.951 1574.72 309.09 1573.6 309.368L1559.84 310.62C1559 310.898 1557.06 310.898 1554 310.62C1551.21 310.62 1549.41 310.48 1548.57 310.202C1547.18 309.924 1545.79 309.785 1544.4 309.785C1543.29 310.063 1542.18 310.063 1541.06 309.785H1536.47C1534.53 309.229 1532.58 308.812 1530.63 308.534C1528.96 308.534 1527.16 308.394 1525.21 308.116C1522.43 307.282 1519.65 306.587 1516.87 306.03C1514.36 305.752 1511.72 305.196 1508.94 304.362C1506.16 303.249 1503.38 302.137 1500.6 301.024C1497.81 299.912 1495.03 298.799 1492.25 297.687C1475.29 290.177 1461.24 279.886 1450.12 266.814C1439.27 253.464 1430.23 238.028 1423 220.506C1421.33 216.612 1420.08 212.579 1419.24 208.407C1418.41 204.235 1417.3 199.924 1415.91 195.474C1415.35 194.362 1415.07 193.388 1415.07 192.554C1415.35 191.719 1415.21 190.607 1414.65 189.216C1414.1 187.269 1413.82 185.183 1413.82 182.958C1413.82 180.733 1413.54 178.508 1412.99 176.283C1412.43 175.171 1412.15 174.058 1412.15 172.946C1412.43 171.833 1412.43 170.86 1412.15 170.025V161.264C1411.59 159.874 1411.32 157.927 1411.32 155.424C1411.32 152.921 1411.59 150.974 1412.15 149.583V144.159L1413.4 129.141C1413.96 127.472 1414.24 125.803 1414.24 124.134C1414.24 122.465 1414.51 120.797 1415.07 119.128C1416.18 114.678 1417.16 110.367 1417.99 106.195C1418.83 101.745 1420.08 97.5729 1421.75 93.6791C1423.97 88.3946 1426.06 83.2493 1428 78.243C1429.95 73.2366 1432.45 68.5084 1435.51 64.0584C1443.3 51.5426 1452.48 40.6956 1463.05 31.5173C1473.62 22.3391 1486.13 14.8296 1500.6 8.9889C1503.65 7.59826 1506.85 6.48574 1510.19 5.65134C1513.81 4.81695 1517.42 3.8435 1521.04 2.73098C1522.71 2.17473 1524.38 1.89661 1526.04 1.89661C1527.99 1.89661 1529.8 1.61848 1531.47 1.06223C1533.69 0.784085 1535.78 0.645016 1537.73 0.645016C1539.95 0.366891 1542.18 0.0887698 1544.4 -0.189355C1544.96 -0.467481 1545.65 -0.467481 1546.49 -0.189355C1547.32 0.0887698 1548.02 0.0887698 1548.57 -0.189355C1567.21 -0.745606 1583.48 1.20129 1597.38 5.65134C1611.29 9.82327 1623.53 15.664 1634.1 23.1734C1638.27 25.9547 1642.3 28.8751 1646.2 31.9345C1650.09 34.9939 1653.57 38.4705 1656.63 42.3643C1657.46 43.755 1658.43 44.8675 1659.55 45.7019C1660.66 46.5363 1661.63 47.6488 1662.47 49.0394C1664.14 51.2645 1665.8 53.6285 1667.47 56.1317C1669.14 58.3567 1670.67 60.5818 1672.06 62.8068C1672.62 64.1975 1673.17 65.449 1673.73 66.5616C1674.29 67.3959 1674.98 68.5084 1675.82 69.8991C1676.93 71.5679 1677.9 73.2366 1678.74 74.9054C1680.96 79.9117 1683.19 85.1962 1685.41 90.7587C1685.97 92.4275 1686.39 94.0963 1686.66 95.7651C1687.22 97.1557 1687.78 98.6854 1688.33 100.354C1689.17 103.135 1689.86 106.056 1690.42 109.115C1691.25 111.897 1692.09 114.817 1692.92 117.876C1693.48 119.267 1693.76 120.658 1693.76 122.048C1693.76 123.439 1693.89 124.83 1694.17 126.22C1694.73 128.167 1695.01 130.114 1695.01 132.061C1695.01 134.008 1695.29 136.094 1695.84 138.319V140.822C1696.12 142.213 1696.12 143.603 1695.84 144.994C1695.56 146.384 1695.7 147.775 1696.26 149.166ZM1657.04 162.516C1657.6 161.125 1657.88 158.761 1657.88 155.424C1657.88 151.808 1657.6 149.305 1657.04 147.914V144.577C1657.04 143.186 1656.9 141.934 1656.63 140.822C1656.63 139.709 1656.63 138.458 1656.63 137.067C1656.07 135.677 1655.79 134.425 1655.79 133.312C1656.07 131.922 1655.93 130.531 1655.37 129.141C1654.82 126.637 1654.26 124.134 1653.71 121.631C1653.43 119.128 1653.01 116.764 1652.45 114.539C1651.06 110.645 1649.81 107.029 1648.7 103.692C1647.86 100.076 1646.75 96.5994 1645.36 93.2619C1640.63 81.8586 1634.1 71.5679 1625.75 62.3896C1617.69 53.2114 1608.09 46.1191 1596.97 41.1127C1590.85 38.3315 1583.62 36.1064 1575.27 34.4377C1571.38 33.3252 1566.93 32.7689 1561.92 32.7689C1557.19 32.4908 1552.47 32.3517 1547.74 32.3517C1545.79 32.6298 1543.84 32.908 1541.9 33.1861C1540.23 33.1861 1538.28 33.3252 1536.06 33.6033C1531.88 34.7158 1527.85 35.8283 1523.96 36.9408C1520.34 37.7752 1516.73 38.8877 1513.11 40.2784C1498.09 46.6753 1486.27 55.8536 1477.65 67.8131C1469.03 79.7727 1462.07 93.8182 1456.79 109.95C1455.68 113.009 1454.84 116.208 1454.29 119.545C1454.01 122.604 1453.45 125.803 1452.62 129.141C1452.34 130.531 1452.2 131.922 1452.2 133.312C1452.2 134.425 1452.06 135.677 1451.78 137.067C1451.23 138.18 1450.95 139.431 1450.95 140.822C1451.23 141.934 1451.23 143.047 1450.95 144.159V147.914C1450.67 149.305 1450.53 151.808 1450.53 155.424C1450.53 159.039 1450.67 161.542 1450.95 162.933C1450.95 164.046 1450.95 165.158 1450.95 166.271C1451.23 167.105 1451.37 168.079 1451.37 169.191C1451.92 171.416 1452.2 173.919 1452.2 176.701C1452.48 179.204 1452.9 181.568 1453.45 183.793C1453.73 184.905 1453.73 186.018 1453.45 187.13C1453.45 187.965 1453.73 188.938 1454.29 190.051C1455.12 193.11 1455.82 196.17 1456.37 199.229C1456.93 202.288 1457.9 205.348 1459.29 208.407C1460.68 211.467 1461.8 214.526 1462.63 217.585C1463.74 220.367 1465.13 223.148 1466.8 225.929C1468.19 228.154 1469.45 230.379 1470.56 232.604C1471.95 234.551 1473.34 236.637 1474.73 238.862C1483.35 251.1 1494.62 260.695 1508.52 267.649C1512.42 269.874 1516.31 271.542 1520.2 272.655C1524.38 273.767 1528.83 275.019 1533.55 276.41C1535.5 276.966 1537.31 277.244 1538.98 277.244C1540.65 276.966 1542.45 277.105 1544.4 277.661C1546.07 278.218 1547.88 278.496 1549.82 278.496C1552.05 278.218 1554.27 278.078 1556.5 278.078H1560.67C1562.06 277.8 1563.45 277.661 1564.84 277.661C1566.23 277.383 1567.62 277.244 1569.02 277.244C1572.91 276.41 1576.52 275.714 1579.86 275.158C1583.48 274.602 1586.82 273.628 1589.87 272.238C1604.06 266.397 1615.6 258.749 1624.5 249.292C1633.68 239.836 1641.19 228.015 1647.03 213.831C1648.42 210.215 1649.53 206.46 1650.37 202.566C1651.48 198.673 1652.59 194.779 1653.71 190.885C1654.26 189.216 1654.54 187.548 1654.54 185.879C1654.82 183.932 1655.24 181.985 1655.79 180.038L1657.04 166.271V162.516Z" fill="#FFC9A7"/>
<path d="M1200.54 6.48584H1329.45H1363.25C1366.31 6.48584 1369.23 6.48584 1372.01 6.48584C1375.07 6.48584 1377.43 7.0421 1379.1 8.15461C1381.33 9.54525 1382.58 11.6312 1382.86 14.4125C1383.41 16.9157 1383.69 19.9751 1383.69 23.5908C1383.69 24.9814 1383.69 26.372 1383.69 27.7627C1383.97 28.8752 1383.83 29.9877 1383.27 31.1002C1382.16 35.5503 1379.66 38.0535 1375.76 38.6097C1372.15 38.8878 1367.56 39.0269 1362 39.0269H1318.61H1257.28C1252.83 39.0269 1248.1 39.0269 1243.1 39.0269C1238.09 38.7488 1234.33 39.5832 1231.83 41.5301C1229.33 43.1988 1227.94 46.1192 1227.66 50.2911C1227.66 54.463 1227.66 58.635 1227.66 62.8069V104.109C1227.66 106.334 1227.52 109.115 1227.24 112.453C1227.24 115.79 1227.52 118.572 1228.08 120.797V124.134C1228.63 125.803 1229.05 127.472 1229.33 129.141C1229.88 130.531 1230.86 131.644 1232.25 132.478C1234.75 134.147 1238.65 134.981 1243.93 134.981C1249.21 134.703 1253.8 134.564 1257.7 134.564H1332.79C1335.3 134.564 1337.94 134.564 1340.72 134.564C1343.78 134.286 1346.7 134.286 1349.48 134.564C1352.54 134.564 1355.18 134.842 1357.41 135.399C1359.91 135.955 1361.58 136.928 1362.41 138.319C1363.8 139.988 1364.5 142.074 1364.5 144.577C1364.5 147.08 1364.5 149.861 1364.5 152.921C1364.5 154.589 1364.5 156.119 1364.5 157.51C1364.5 158.9 1364.22 160.152 1363.66 161.264C1362.55 164.046 1361.02 165.575 1359.08 165.854C1357.96 166.41 1356.85 166.688 1355.74 166.688C1354.9 166.688 1353.79 166.827 1352.4 167.105C1351.29 167.383 1350.04 167.522 1348.65 167.522C1347.53 167.244 1346.42 167.105 1345.31 167.105H1330.71H1260.2C1255.75 167.105 1250.47 167.105 1244.35 167.105C1238.51 166.827 1234.33 167.661 1231.83 169.608C1230.44 170.721 1229.33 172.529 1228.49 175.032C1227.94 177.257 1227.52 179.899 1227.24 182.959C1227.24 186.018 1227.24 189.216 1227.24 192.554C1227.52 195.613 1227.66 198.395 1227.66 200.898V272.655C1227.66 277.383 1227.8 282.529 1228.08 288.091C1228.35 293.654 1227.38 297.826 1225.16 300.607C1224.32 301.719 1223.07 302.415 1221.4 302.693C1219.73 302.693 1218.06 302.971 1216.4 303.527H1208.47C1204.57 303.527 1200.96 303.388 1197.62 303.11C1194.28 302.832 1191.92 301.441 1190.53 298.938C1189.42 297.269 1188.86 295.044 1188.86 292.263C1188.86 289.204 1188.86 286.144 1188.86 283.085V249.709V75.3227V30.2659C1188.86 27.2064 1188.72 23.8689 1188.44 20.2532C1188.44 16.3594 1189.14 13.3 1190.53 11.075C1191.64 9.40621 1193.73 8.01557 1196.79 6.90305C1197.34 6.62491 1197.9 6.62491 1198.46 6.90305C1199.29 6.90305 1199.99 6.76398 1200.54 6.48584Z" fill="#FFC9A7"/>
<path d="M1139.73 149.166C1140.01 150.556 1140.15 152.642 1140.15 155.424C1140.15 157.927 1140.01 159.874 1139.73 161.264V166.271C1139.17 169.052 1138.89 171.972 1138.89 175.032C1138.89 177.813 1138.62 180.455 1138.06 182.958C1137.5 185.183 1137.09 187.269 1136.81 189.216C1136.53 191.163 1136.25 193.249 1135.97 195.474C1134.58 200.202 1133.33 204.792 1132.22 209.242C1131.11 213.692 1129.72 218.003 1128.05 222.175C1119.7 242.478 1108.72 259.444 1095.09 273.072C1081.74 286.7 1064.22 297.13 1042.52 304.362C1039.46 305.196 1036.4 305.891 1033.35 306.448C1030.29 307.004 1027.23 307.699 1024.17 308.534C1022.78 308.812 1021.52 308.951 1020.41 308.951C1019.3 308.951 1018.19 309.09 1017.07 309.368L1003.31 310.62C1002.47 310.898 1000.53 310.898 997.466 310.62C994.685 310.62 992.877 310.48 992.043 310.202C990.652 309.924 989.262 309.785 987.871 309.785C986.758 310.063 985.646 310.063 984.533 309.785H979.944C977.997 309.229 976.05 308.812 974.104 308.534C972.435 308.534 970.627 308.394 968.68 308.116C965.899 307.282 963.117 306.587 960.336 306.03C957.833 305.752 955.191 305.196 952.41 304.362C949.628 303.249 946.847 302.137 944.066 301.024C941.284 299.912 938.503 298.799 935.722 297.687C918.756 290.177 904.71 279.886 893.585 266.814C882.738 253.464 873.699 238.028 866.468 220.506C864.799 216.612 863.547 212.579 862.713 208.407C861.879 204.235 860.766 199.924 859.375 195.474C858.819 194.362 858.541 193.388 858.541 192.554C858.819 191.719 858.68 190.607 858.124 189.216C857.568 187.269 857.29 185.183 857.29 182.958C857.29 180.733 857.011 178.508 856.455 176.283C855.899 175.171 855.621 174.058 855.621 172.946C855.899 171.833 855.899 170.86 855.621 170.025V161.264C855.064 159.874 854.786 157.927 854.786 155.424C854.786 152.921 855.064 150.974 855.621 149.583V144.159L856.872 129.141C857.429 127.472 857.707 125.803 857.707 124.134C857.707 122.465 857.985 120.797 858.541 119.128C859.654 114.678 860.627 110.367 861.461 106.195C862.296 101.745 863.547 97.5729 865.216 93.6791C867.441 88.3946 869.527 83.2493 871.474 78.243C873.421 73.2366 875.924 68.5084 878.984 64.0584C886.771 51.5426 895.949 40.6956 906.518 31.5173C917.087 22.3391 929.603 14.8296 944.066 8.9889C947.125 7.59826 950.324 6.48574 953.661 5.65134C957.277 4.81695 960.892 3.8435 964.508 2.73098C966.177 2.17473 967.846 1.89661 969.514 1.89661C971.461 1.89661 973.269 1.61848 974.938 1.06223C977.163 0.784085 979.249 0.645016 981.196 0.645016C983.421 0.366891 985.646 0.0887698 987.871 -0.189355C988.427 -0.467481 989.123 -0.467481 989.957 -0.189355C990.791 0.0887698 991.487 0.0887698 992.043 -0.189355C1010.68 -0.745606 1026.95 1.20129 1040.85 5.65134C1054.76 9.82327 1067 15.664 1077.57 23.1734C1081.74 25.9547 1085.77 28.8751 1089.67 31.9345C1093.56 34.9939 1097.04 38.4705 1100.1 42.3643C1100.93 43.755 1101.9 44.8675 1103.02 45.7019C1104.13 46.5363 1105.1 47.6488 1105.94 49.0394C1107.61 51.2645 1109.27 53.6285 1110.94 56.1317C1112.61 58.3567 1114.14 60.5818 1115.53 62.8068C1116.09 64.1975 1116.64 65.449 1117.2 66.5616C1117.76 67.3959 1118.45 68.5084 1119.29 69.8991C1120.4 71.5679 1121.37 73.2366 1122.21 74.9054C1124.43 79.9117 1126.66 85.1962 1128.88 90.7587C1129.44 92.4275 1129.86 94.0963 1130.13 95.7651C1130.69 97.1557 1131.25 98.6854 1131.8 100.354C1132.64 103.135 1133.33 106.056 1133.89 109.115C1134.72 111.897 1135.56 114.817 1136.39 117.876C1136.95 119.267 1137.23 120.658 1137.23 122.048C1137.23 123.439 1137.37 124.83 1137.64 126.22C1138.2 128.167 1138.48 130.114 1138.48 132.061C1138.48 134.008 1138.76 136.094 1139.31 138.319V140.822C1139.59 142.213 1139.59 143.603 1139.31 144.994C1139.03 146.384 1139.17 147.775 1139.73 149.166ZM1100.51 162.516C1101.07 161.125 1101.35 158.761 1101.35 155.424C1101.35 151.808 1101.07 149.305 1100.51 147.914V144.577C1100.51 143.186 1100.37 141.934 1100.1 140.822C1100.1 139.709 1100.1 138.458 1100.1 137.067C1099.54 135.677 1099.26 134.425 1099.26 133.312C1099.54 131.922 1099.4 130.531 1098.84 129.141C1098.29 126.637 1097.73 124.134 1097.18 121.631C1096.9 119.128 1096.48 116.764 1095.92 114.539C1094.53 110.645 1093.28 107.029 1092.17 103.692C1091.33 100.076 1090.22 96.5994 1088.83 93.2619C1084.1 81.8586 1077.57 71.5679 1069.22 62.3896C1061.16 53.2114 1051.56 46.1191 1040.44 41.1127C1034.32 38.3315 1027.09 36.1064 1018.74 34.4377C1014.85 33.3252 1010.4 32.7689 1005.39 32.7689C1000.66 32.4908 995.937 32.3517 991.209 32.3517C989.262 32.6298 987.315 32.908 985.368 33.1861C983.699 33.1861 981.752 33.3252 979.527 33.6033C975.355 34.7158 971.322 35.8283 967.429 36.9408C963.813 37.7752 960.197 38.8877 956.581 40.2784C941.563 46.6753 929.742 55.8536 921.12 67.8131C912.498 79.7727 905.545 93.8182 900.26 109.95C899.148 113.009 898.314 116.208 897.757 119.545C897.479 122.604 896.923 125.803 896.088 129.141C895.81 130.531 895.671 131.922 895.671 133.312C895.671 134.425 895.532 135.677 895.254 137.067C894.698 138.18 894.42 139.431 894.42 140.822C894.698 141.934 894.698 143.047 894.42 144.159V147.914C894.142 149.305 894.003 151.808 894.003 155.424C894.003 159.039 894.142 161.542 894.42 162.933C894.42 164.046 894.42 165.158 894.42 166.271C894.698 167.105 894.837 168.079 894.837 169.191C895.393 171.416 895.671 173.919 895.671 176.701C895.949 179.204 896.367 181.568 896.923 183.793C897.201 184.905 897.201 186.018 896.923 187.13C896.923 187.965 897.201 188.938 897.757 190.051C898.592 193.11 899.287 196.17 899.843 199.229C900.399 202.288 901.373 205.348 902.764 208.407C904.154 211.467 905.267 214.526 906.101 217.585C907.214 220.367 908.604 223.148 910.273 225.929C911.664 228.154 912.915 230.379 914.028 232.604C915.418 234.551 916.809 236.637 918.2 238.862C926.822 251.1 938.086 260.695 951.992 267.649C955.886 269.874 959.78 271.542 963.674 272.655C967.846 273.767 972.296 275.019 977.024 276.41C978.971 276.966 980.779 277.244 982.447 277.244C984.116 276.966 985.924 277.105 987.871 277.661C989.54 278.218 991.348 278.496 993.294 278.496C995.52 278.218 997.745 278.078 999.97 278.078H1004.14C1005.53 277.8 1006.92 277.661 1008.31 277.661C1009.7 277.383 1011.09 277.244 1012.49 277.244C1016.38 276.41 1019.99 275.714 1023.33 275.158C1026.95 274.602 1030.29 273.628 1033.35 272.238C1047.53 266.397 1059.07 258.749 1067.97 249.292C1077.15 239.836 1084.66 228.015 1090.5 213.831C1091.89 210.215 1093 206.46 1093.84 202.566C1094.95 198.673 1096.06 194.779 1097.18 190.885C1097.73 189.216 1098.01 187.548 1098.01 185.879C1098.29 183.932 1098.71 181.985 1099.26 180.038L1100.51 166.271V162.516Z" fill="#FFC9A7"/>
<path d="M677.151 -0.186996C696.342 -0.743246 713.169 1.0646 727.631 5.23652C742.094 9.13032 754.888 14.971 766.013 22.7586C771.019 26.0962 775.608 29.8509 779.78 34.0228C780.337 34.5791 780.893 35.1354 781.449 35.6916C782.005 36.2479 782.562 36.8041 783.118 37.3604C784.509 39.5854 786.038 41.6714 787.707 43.6183C789.376 45.2871 790.906 47.234 792.296 49.459C795.356 54.1872 797.998 59.1935 800.223 64.478C802.448 69.7624 804.673 75.1859 806.898 80.7485C807.732 83.5298 808.15 86.4501 808.15 89.5095C808.15 92.5689 807.037 94.794 804.812 96.1846C804.256 96.7409 803.421 97.019 802.309 97.019C801.475 97.019 800.64 97.1581 799.806 97.4362H796.885C795.495 97.9924 793.131 98.2706 789.793 98.2706C786.734 98.2706 784.509 97.9924 783.118 97.4362C782.284 97.1581 781.449 97.1581 780.615 97.4362C779.78 97.7143 778.807 97.5753 777.694 97.019C776.026 96.7409 774.496 96.0455 773.105 94.933C771.437 93.5424 770.185 91.5955 769.351 89.0923C768.794 86.5892 767.96 84.2251 766.847 82.0001C765.457 78.3844 763.788 75.0468 761.841 71.9874C760.172 68.6499 758.225 65.4514 756 62.392C755.444 61.8357 754.749 61.2795 753.914 60.7232C753.08 59.8888 752.385 59.0544 751.829 58.22C749.325 55.4388 746.822 53.0747 744.319 51.1278C742.928 50.2934 741.677 49.459 740.564 48.6246C739.452 47.5121 738.2 46.5386 736.81 45.7043C732.916 43.4792 728.744 41.5323 724.294 39.8635C719.844 38.1948 715.255 36.6651 710.526 35.2744C708.023 34.7182 705.52 34.301 703.017 34.0228C700.514 33.7447 698.011 33.3275 695.507 32.7713C694.395 32.4931 693.282 32.4931 692.17 32.7713C691.335 32.7713 690.501 32.6322 689.667 32.3541H684.66C682.714 32.3541 680.767 32.3541 678.82 32.3541C676.873 32.3541 675.065 32.4931 673.396 32.7713C672.84 32.7713 672.145 32.9103 671.31 33.1884C670.476 33.1884 669.781 33.1884 669.224 33.1884C667.555 33.4666 665.748 33.7447 663.801 34.0228C662.132 34.301 660.463 34.5791 658.794 34.8572C649.06 37.3604 640.577 40.837 633.346 45.2871C621.664 52.5184 612.208 61.1404 604.977 71.153C598.023 80.8875 592.183 92.8471 587.454 107.032C586.342 110.091 585.508 113.29 584.951 116.627C584.395 119.965 583.7 123.302 582.865 126.64C582.309 128.03 582.031 129.421 582.031 130.812C582.309 131.924 582.17 133.176 581.614 134.566C581.057 136.513 580.779 138.599 580.779 140.824C581.057 142.771 580.918 144.857 580.362 147.082V151.671C580.084 153.34 579.945 155.704 579.945 158.764C579.945 161.823 580.084 164.048 580.362 165.439V169.611C580.64 170.167 580.779 171.001 580.779 172.114C580.779 172.948 580.918 173.643 581.197 174.2C581.753 176.147 581.892 177.954 581.614 179.623C581.336 181.292 581.475 183.1 582.031 185.047C582.587 187.272 583.004 189.497 583.282 191.722C583.839 193.669 584.395 195.755 584.951 197.98C586.342 202.152 587.733 206.324 589.123 210.496C590.792 214.389 592.461 218.283 594.129 222.177C595.52 225.514 597.189 228.713 599.136 231.772C601.361 234.832 603.586 237.752 605.811 240.533C616.102 254.44 629.591 264.731 646.279 271.406C648.226 272.24 650.172 272.935 652.119 273.492C654.066 274.048 656.152 274.604 658.377 275.16C665.052 277.107 672.84 278.081 681.74 278.081C683.687 278.081 685.495 278.081 687.164 278.081C689.11 278.081 690.918 277.942 692.587 277.664C693.978 277.107 695.368 276.968 696.759 277.246C698.428 277.525 699.957 277.386 701.348 276.829C705.242 275.717 708.858 274.882 712.195 274.326C715.811 273.492 719.148 272.379 722.208 270.989C748.074 260.698 765.457 242.202 774.357 215.502C774.913 213.277 775.33 211.052 775.609 208.827C776.165 206.602 776.721 204.377 777.277 202.152C778.112 198.814 778.39 195.198 778.112 191.305C777.834 187.133 776.582 184.212 774.357 182.544C772.132 181.153 769.072 180.458 765.179 180.458C761.285 180.458 757.53 180.458 753.914 180.458H707.606C704.547 180.458 701.209 180.458 697.593 180.458C693.978 180.458 691.057 180.04 688.832 179.206C686.607 178.094 685.217 176.564 684.66 174.617C684.104 173.504 683.687 171.975 683.409 170.028C683.131 167.803 682.992 165.578 682.992 163.353C682.992 161.128 683.131 159.042 683.409 157.095C683.965 154.87 684.521 153.34 685.078 152.506C686.19 150.559 688.137 149.168 690.918 148.334C692.309 147.778 693.978 147.499 695.925 147.499C697.872 147.499 699.818 147.499 701.765 147.499H720.539H783.952C787.012 147.499 790.071 147.499 793.131 147.499C796.19 147.221 798.971 147.36 801.474 147.917C804.256 148.195 806.62 148.89 808.567 150.003C810.514 150.837 811.904 152.506 812.739 155.009C813.295 156.678 813.434 158.625 813.156 160.85C813.156 163.075 813.156 165.3 813.156 167.525V190.47V267.651V286.842C813.156 288.789 813.156 290.736 813.156 292.683C813.156 294.63 812.878 296.298 812.321 297.689C811.487 299.914 809.818 301.583 807.315 302.695C806.481 303.251 804.673 303.53 801.892 303.53C797.998 303.53 795.077 303.112 793.131 302.278C791.184 301.444 789.654 300.192 788.542 298.523C787.429 296.855 786.456 294.908 785.621 292.683C785.065 290.458 784.37 287.954 783.535 285.173C782.979 283.226 782.005 280.723 780.615 277.664C779.502 274.604 777.416 273.492 774.357 274.326C772.41 274.882 770.88 275.717 769.768 276.829C768.655 277.942 767.404 279.054 766.013 280.167C763.788 281.836 761.702 283.643 759.755 285.59C757.808 287.259 755.722 288.789 753.497 290.179C747.657 294.073 741.399 297.272 734.724 299.775C728.327 302.278 721.373 304.642 713.864 306.867C711.917 307.423 709.97 307.841 708.023 308.119C706.076 308.397 703.99 308.814 701.765 309.37C699.54 309.37 697.872 309.509 696.759 309.787C695.925 309.787 694.951 309.787 693.839 309.787C693.004 309.787 692.17 309.927 691.335 310.205H687.164C686.051 310.483 684.521 310.622 682.574 310.622C680.628 310.622 678.959 310.483 677.568 310.205H670.476C667.416 309.648 664.496 309.231 661.715 308.953C659.212 308.953 656.569 308.536 653.788 307.702C648.782 306.311 643.915 305.059 639.186 303.947C634.458 302.834 629.869 301.305 625.419 299.358C609.566 292.126 595.659 282.531 583.7 270.571C571.74 258.334 562.145 244.149 554.913 228.018C553.523 224.68 552.132 221.203 550.741 217.588C549.629 213.972 548.377 210.217 546.987 206.324C546.709 205.211 546.569 204.238 546.569 203.403C546.569 202.291 546.291 201.178 545.735 200.066C544.901 197.006 544.205 193.808 543.649 190.47C543.371 187.133 542.815 183.795 541.98 180.458C541.702 179.345 541.563 178.233 541.563 177.12C541.841 176.008 541.841 175.034 541.563 174.2V170.445C541.007 169.054 540.729 166.412 540.729 162.518C540.729 158.625 541.007 155.843 541.563 154.174V150.42C541.563 148.751 541.563 147.082 541.563 145.413C541.563 143.745 541.702 142.076 541.98 140.407C542.258 139.016 542.398 137.626 542.398 136.235C542.398 134.566 542.537 133.037 542.815 131.646C543.649 128.308 544.205 124.971 544.484 121.633C545.04 118.296 545.735 114.958 546.569 111.621C549.351 102.443 552.132 93.6815 554.913 85.3376C557.973 76.7156 561.867 68.7889 566.595 61.5576C574.939 48.4855 584.812 37.3604 596.215 28.1821C607.897 18.7258 621.664 11.3553 637.518 6.07089C640.577 4.95838 643.497 4.26306 646.279 3.98493C649.338 3.42868 652.397 2.73336 655.457 1.89897C656.848 1.34272 658.099 1.06459 659.212 1.06459C660.602 1.06459 661.993 0.925518 663.384 0.647376C665.609 0.369251 667.834 0.230195 670.059 0.230195C672.562 -0.04793 674.926 -0.186996 677.151 -0.186996Z" fill="#FFC9A7"/>
<path d="M506.199 149.166C506.477 150.556 506.616 152.642 506.616 155.424C506.616 157.927 506.477 159.874 506.199 161.264V166.271C505.643 169.052 505.365 171.972 505.365 175.032C505.365 177.813 505.087 180.455 504.531 182.958C503.974 185.183 503.557 187.269 503.279 189.216C503.001 191.163 502.723 193.249 502.445 195.474C501.054 200.202 499.802 204.792 498.69 209.242C497.577 213.692 496.187 218.003 494.518 222.175C486.174 242.478 475.188 259.444 461.56 273.072C448.209 286.7 430.687 297.13 408.993 304.362C405.934 305.196 402.874 305.891 399.815 306.448C396.756 307.004 393.696 307.699 390.637 308.534C389.246 308.812 387.995 308.951 386.882 308.951C385.77 308.951 384.657 309.09 383.544 309.368L369.777 310.62C368.943 310.898 366.996 310.898 363.936 310.62C361.155 310.62 359.347 310.48 358.513 310.202C357.122 309.924 355.732 309.785 354.341 309.785C353.228 310.063 352.116 310.063 351.003 309.785H346.414C344.467 309.229 342.52 308.812 340.574 308.534C338.905 308.534 337.097 308.394 335.15 308.116C332.369 307.282 329.588 306.587 326.806 306.03C324.303 305.752 321.661 305.196 318.88 304.362C316.098 303.249 313.317 302.137 310.536 301.024C307.754 299.912 304.973 298.799 302.192 297.687C285.226 290.177 271.18 279.886 260.055 266.814C249.208 253.464 240.169 238.028 232.938 220.506C231.269 216.612 230.017 212.579 229.183 208.407C228.349 204.235 227.236 199.924 225.845 195.474C225.289 194.362 225.011 193.388 225.011 192.554C225.289 191.719 225.15 190.607 224.594 189.216C224.038 187.269 223.76 185.183 223.76 182.958C223.76 180.733 223.481 178.508 222.925 176.283C222.369 175.171 222.091 174.058 222.091 172.946C222.369 171.833 222.369 170.86 222.091 170.025V161.264C221.534 159.874 221.256 157.927 221.256 155.424C221.256 152.921 221.534 150.974 222.091 149.583V144.159L223.342 129.141C223.899 127.472 224.177 125.803 224.177 124.134C224.177 122.465 224.455 120.797 225.011 119.128C226.124 114.678 227.097 110.367 227.931 106.195C228.766 101.745 230.017 97.5729 231.686 93.6791C233.911 88.3946 235.997 83.2493 237.944 78.243C239.891 73.2366 242.394 68.5084 245.454 64.0584C253.241 51.5426 262.419 40.6956 272.988 31.5173C283.557 22.3391 296.073 14.8296 310.536 8.9889C313.595 7.59826 316.794 6.48574 320.131 5.65134C323.747 4.81695 327.362 3.8435 330.978 2.73098C332.647 2.17473 334.316 1.89661 335.984 1.89661C337.931 1.89661 339.739 1.61848 341.408 1.06223C343.633 0.784085 345.719 0.645016 347.666 0.645016C349.891 0.366891 352.116 0.0887698 354.341 -0.189355C354.897 -0.467481 355.593 -0.467481 356.427 -0.189355C357.261 0.0887698 357.957 0.0887698 358.513 -0.189355C377.148 -0.745606 393.418 1.20129 407.324 5.65134C421.231 9.82327 433.469 15.664 444.038 23.1734C448.209 25.9547 452.242 28.8751 456.136 31.9345C460.03 34.9939 463.506 38.4705 466.566 42.3643C467.4 43.755 468.374 44.8675 469.486 45.7019C470.599 46.5363 471.572 47.6488 472.407 49.0394C474.075 51.2645 475.744 53.6285 477.413 56.1317C479.082 58.3567 480.611 60.5818 482.002 62.8068C482.558 64.1975 483.115 65.449 483.671 66.5616C484.227 67.3959 484.922 68.5084 485.757 69.8991C486.869 71.5679 487.843 73.2366 488.677 74.9054C490.902 79.9117 493.127 85.1962 495.352 90.7587C495.909 92.4275 496.326 94.0963 496.604 95.7651C497.16 97.1557 497.716 98.6854 498.273 100.354C499.107 103.135 499.802 106.056 500.359 109.115C501.193 111.897 502.027 114.817 502.862 117.876C503.418 119.267 503.696 120.658 503.696 122.048C503.696 123.439 503.835 124.83 504.113 126.22C504.67 128.167 504.948 130.114 504.948 132.061C504.948 134.008 505.226 136.094 505.782 138.319V140.822C506.06 142.213 506.06 143.603 505.782 144.994C505.504 146.384 505.643 147.775 506.199 149.166ZM466.983 162.516C467.539 161.125 467.817 158.761 467.817 155.424C467.817 151.808 467.539 149.305 466.983 147.914V144.577C466.983 143.186 466.844 141.934 466.566 140.822C466.566 139.709 466.566 138.458 466.566 137.067C466.01 135.677 465.732 134.425 465.732 133.312C466.01 131.922 465.871 130.531 465.314 129.141C464.758 126.637 464.202 124.134 463.646 121.631C463.367 119.128 462.95 116.764 462.394 114.539C461.003 110.645 459.752 107.029 458.639 103.692C457.805 100.076 456.692 96.5994 455.302 93.2619C450.574 81.8586 444.037 71.5679 435.694 62.3896C427.628 53.2114 418.032 46.1191 406.907 41.1127C400.788 38.3315 393.557 36.1064 385.213 34.4377C381.319 33.3252 376.869 32.7689 371.863 32.7689C367.135 32.4908 362.407 32.3517 357.679 32.3517C355.732 32.6298 353.785 32.908 351.838 33.1861C350.169 33.1861 348.222 33.3252 345.997 33.6033C341.825 34.7158 337.792 35.8283 333.899 36.9408C330.283 37.7752 326.667 38.8877 323.051 40.2784C308.033 46.6753 296.212 55.8536 287.59 67.8131C278.968 79.7727 272.015 93.8182 266.73 109.95C265.618 113.009 264.783 116.208 264.227 119.545C263.949 122.604 263.393 125.803 262.558 129.141C262.28 130.531 262.141 131.922 262.141 133.312C262.141 134.425 262.002 135.677 261.724 137.067C261.168 138.18 260.89 139.431 260.89 140.822C261.168 141.934 261.168 143.047 260.89 144.159V147.914C260.612 149.305 260.473 151.808 260.473 155.424C260.473 159.039 260.612 161.542 260.89 162.933C260.89 164.046 260.89 165.158 260.89 166.271C261.168 167.105 261.307 168.079 261.307 169.191C261.863 171.416 262.141 173.919 262.141 176.701C262.419 179.204 262.837 181.568 263.393 183.793C263.671 184.905 263.671 186.018 263.393 187.13C263.393 187.965 263.671 188.938 264.227 190.051C265.062 193.11 265.757 196.17 266.313 199.229C266.869 202.288 267.843 205.348 269.234 208.407C270.624 211.467 271.737 214.526 272.571 217.585C273.684 220.367 275.074 223.148 276.743 225.929C278.134 228.154 279.385 230.379 280.498 232.604C281.888 234.551 283.279 236.637 284.67 238.862C293.292 251.1 304.556 260.695 318.462 267.649C322.356 269.874 326.25 271.542 330.144 272.655C334.316 273.767 338.766 275.019 343.494 276.41C345.441 276.966 347.249 277.244 348.917 277.244C350.586 276.966 352.394 277.105 354.341 277.661C356.01 278.218 357.818 278.496 359.764 278.496C361.989 278.218 364.215 278.078 366.44 278.078H370.611C372.002 277.8 373.393 277.661 374.783 277.661C376.174 277.383 377.565 277.244 378.955 277.244C382.849 276.41 386.465 275.714 389.802 275.158C393.418 274.602 396.756 273.628 399.815 272.238C414 266.397 425.542 258.749 434.442 249.292C443.62 239.836 451.13 228.015 456.97 213.831C458.361 210.215 459.474 206.46 460.308 202.566C461.421 198.673 462.533 194.779 463.646 190.885C464.202 189.216 464.48 187.548 464.48 185.879C464.758 183.932 465.175 181.985 465.732 180.038L466.983 166.271V162.516Z" fill="#FFC9A7"/>
<path d="M18.6406 6.48643C20.5875 6.48643 22.8126 6.48643 25.3157 6.48643C27.8189 6.2083 30.183 6.2083 32.408 6.48643C34.9112 6.48643 37.1362 6.76456 39.0831 7.32083C41.03 7.87708 42.4206 8.71145 43.255 9.82397C44.9238 12.049 45.7582 14.9694 45.7582 18.585C45.7582 22.2007 45.7582 25.9555 45.7582 29.8493V73.6545V207.574V245.955C45.7582 249.015 45.7582 252.352 45.7582 255.968C45.7582 259.584 46.1754 262.504 47.0098 264.729C47.8441 266.676 49.3739 268.345 51.5989 269.735C52.9895 270.292 54.7974 270.709 57.0224 270.987C59.2474 270.987 61.4725 270.987 63.6975 270.987H84.9743H160.069H183.432C185.379 270.987 187.326 270.987 189.273 270.987C191.498 270.709 193.445 270.848 195.113 271.404C198.729 272.517 201.093 274.046 202.206 275.993C202.484 276.828 202.762 278.218 203.04 280.165C203.318 282.112 203.457 284.198 203.457 286.423C203.735 288.37 203.735 290.456 203.457 292.681C203.179 294.628 202.901 296.158 202.623 297.27C202.067 299.217 200.815 300.747 198.868 301.859C197.477 302.972 195.391 303.528 192.61 303.528C190.107 303.528 187.604 303.528 185.101 303.528H157.566H52.0161H24.8985C21.0047 303.528 17.6672 303.389 14.8859 303.111C12.1046 302.555 10.0186 301.164 8.628 298.939C7.51549 297.27 6.95923 295.184 6.95923 292.681C6.95923 289.9 6.95923 287.257 6.95923 284.754V254.716V140.823V50.2917V24.4257C6.95923 21.9226 6.95923 19.4194 6.95923 16.9163C7.23736 14.4131 7.79362 12.4662 8.628 11.0756C9.74052 9.4068 11.8265 8.01615 14.8859 6.90364C15.4422 6.62549 15.9984 6.62549 16.5547 6.90364C17.3891 6.90364 18.0844 6.76457 18.6406 6.48643Z" fill="#FFC9A7"/>
</g>
<defs>
<clipPath id="clip0_6895_7204">
<rect width="1617" height="311" fill="white"/>
</clipPath>
</defs>
</svg>
