<svg width="1603" height="234" viewBox="0 0 1603 234" fill="none" xmlns="http://www.w3.org/2000/svg">
<path d="M1567.84 199.033C1544.76 221.525 1516.69 232.772 1483.64 232.772C1451.58 232.772 1423.91 221.723 1400.63 199.624C1377.35 177.921 1365.7 151.087 1365.7 119.124C1365.7 102.057 1368.61 86.0748 1374.43 71.1782C1377.2 63.5819 1382.08 55.1964 1389.08 46.0217C1412.47 15.3406 1444.08 0 1483.94 0C1516.89 0 1544.86 11.1971 1567.84 33.5914C1590.83 55.9856 1602.32 83.5591 1602.32 116.312C1602.32 149.361 1590.83 176.934 1567.84 199.033ZM1528.19 69.9943C1516.54 56.8735 1501.89 50.3131 1484.24 50.3131C1466.18 50.3131 1451.53 56.6762 1440.29 69.4024C1428.74 82.4246 1422.97 97.8638 1422.97 115.72C1422.97 134.07 1428.74 149.755 1440.29 162.778C1451.93 175.898 1466.77 182.459 1484.83 182.459C1502.39 182.459 1516.84 175.898 1528.19 162.778C1539.43 149.755 1545.06 134.365 1545.06 116.608C1545.06 98.5544 1539.43 83.0166 1528.19 69.9943Z" fill="#EBD790"/>
<path d="M1361.71 228.48H1304.44V4.14331H1361.71V228.48Z" fill="#EBD790"/>
<path d="M1294.08 228.48H1170.37V4.14331H1227.64V178.167H1294.08V228.48Z" fill="#EBD790"/>
<path d="M1125.68 199.033C1102.6 221.525 1074.53 232.772 1041.48 232.772C1009.42 232.772 981.746 221.723 958.464 199.624C935.182 177.921 923.541 151.087 923.541 119.124C923.541 102.057 926.451 86.0748 932.272 71.1782C935.034 63.5819 939.917 55.1964 946.922 46.0217C970.303 15.3406 1001.92 0 1041.78 0C1074.73 0 1102.69 11.1971 1125.68 33.5914C1148.67 55.9856 1160.16 83.5591 1160.16 116.312C1160.16 149.361 1148.67 176.934 1125.68 199.033ZM1086.02 69.9943C1074.38 56.8735 1059.73 50.3131 1042.07 50.3131C1024.02 50.3131 1009.37 56.6762 998.123 69.4024C986.58 82.4246 980.809 97.8638 980.809 115.72C980.809 134.07 986.58 149.755 998.123 162.778C1009.76 175.898 1024.61 182.459 1042.66 182.459C1060.22 182.459 1074.68 175.898 1086.02 162.778C1097.27 149.755 1102.89 134.365 1102.89 116.608C1102.89 98.5544 1097.27 83.0166 1086.02 69.9943Z" fill="#EBD790"/>
<path d="M914.218 54.4564H846.739V92.6351H911.85V142.948H846.739V228.48H791.839V4.14331H914.218V54.4564Z" fill="#EBD790"/>
<path d="M788.584 228.48H664.133V4.14331H788.584V54.4564H718.885V89.3795H786.512V139.693H718.885V178.167H788.584V228.48Z" fill="#EBD790"/>
<path d="M655.254 228.48H602.425L604.349 60.5235L603.757 59.9316L555.811 228.48H517.929L469.983 59.9316L469.391 60.5235L471.315 228.48H418.486V4.14331H492.18L536.722 151.827H537.314L581.264 4.14331H655.254V228.48Z" fill="#EBD790"/>
<path d="M350.416 228.48V196.369H285.897L266.216 228.48H197.701L351.008 5.1792H407.684V228.48H350.416ZM350.416 88.7877H349.824L313.125 150.643H350.416V88.7877Z" fill="#EBD790"/>
<path d="M204.952 198.441C182.163 221.525 153.553 233.068 119.124 233.068C85.9761 233.068 57.9093 221.723 34.9232 199.033C11.6411 176.342 0 148.473 0 115.424C0 82.5726 11.7397 54.9991 35.2191 32.7035C58.6986 10.9012 86.9627 0 120.011 0C145.168 0 168.401 7.34965 189.71 22.049C211.413 37.0442 225.57 56.1336 232.18 79.3171H167.957C157.006 59.9811 140.531 50.3131 118.532 50.3131C100.577 50.3131 85.9268 56.5775 74.5817 69.1065C63.0393 81.8327 57.2681 97.2719 57.2681 115.424C57.2681 134.267 62.9406 150.249 74.2858 163.369C85.4335 176.293 100.281 182.755 118.828 182.755C131.653 182.755 142.998 179.697 152.863 173.58C162.531 167.562 169.091 158.585 172.544 146.648H105.509V100.922H238.543C238.74 102.698 238.839 106.644 238.839 112.76C238.839 147.289 227.543 175.849 204.952 198.441Z" fill="#EBD790"/>
</svg>
