<svg width="390" height="80" viewBox="0 0 390 80" fill="none" xmlns="http://www.w3.org/2000/svg">
<path d="M194.033 37.4036C194.081 34.4257 195.41 33.1674 198.394 32.9992C200.373 32.8907 202.364 32.9396 204.349 32.9884C206.465 33.0372 208.097 34.0515 209.507 35.5919C213.467 39.9149 217.47 44.1999 221.457 48.4958C221.766 48.8266 222.064 49.1846 222.417 49.4395C222.791 49.7107 223.089 50.0904 223.93 50.085C224.673 50.0633 224.445 49.0002 224.369 48.5066C223.865 45.301 223.257 42.1171 222.71 38.9169C222.59 38.2117 222.509 37.4849 222.514 36.7689C222.525 34.7675 223.507 33.3898 225.498 33.2108C227.862 32.9992 230.271 33.0318 232.647 33.1891C234.295 33.2975 235.44 34.3932 236.02 35.9553C236.335 36.7961 236.579 37.6693 236.796 38.5426C239.28 48.512 241.748 58.4869 244.227 68.4563C244.444 69.3296 244.688 70.2028 245.03 71.0327C245.415 71.9595 246.345 72.0244 246.559 70.9676C246.879 69.4706 247.161 67.9627 247.367 66.4494C248.68 56.941 249.971 47.4326 251.267 37.9243C251.788 34.1112 253.084 32.9829 256.984 32.945C258.611 32.9287 260.233 32.945 261.86 32.9504C263.998 32.9613 265.798 33.7152 267.295 35.2773C275.415 43.7389 283.546 52.1841 291.693 60.6185C293.7 62.6959 295.755 64.7191 297.838 66.7206C298.861 67.7094 299.698 66.9769 298.994 65.7768C295.679 59.9351 292.333 54.1151 288.975 48.2951C287.354 45.4854 285.683 42.6974 284.05 39.8932C283.687 39.2694 283.34 38.6294 283.069 37.9677C281.984 35.3587 283.025 33.5254 285.824 33.0806C286.046 33.0426 286.274 32.9938 286.497 32.9938C294.53 33.0263 302.573 32.945 310.601 33.1728C313.031 33.2433 315.461 34.1003 317.848 34.7512C319.28 35.1417 320.381 35.0604 321.59 34.0461C322.35 33.4114 323.532 33.0697 324.557 32.9992C326.716 32.8473 328.907 32.7768 331.05 33.0101C332.666 33.1891 334.364 33.6393 335.785 34.4095C340.233 36.8069 344.55 39.443 348.96 41.9109C351.257 43.1906 351.901 42.3011 351.743 39.9474C351.667 38.7867 351.292 37.6422 351.254 36.4815C351.195 34.6644 352.068 33.3626 353.842 33.2487C357.02 33.048 360.231 33.0697 363.415 33.2704C365.276 33.3898 366.252 34.9248 366.767 36.6008C367.792 39.9637 368.752 43.3429 369.723 46.7221C370.423 49.1466 371.123 51.5712 371.784 54.0066C372.305 55.9267 373.265 57.5539 374.692 58.9533C378.944 63.1244 383.197 67.2901 387.352 71.5534C388.187 72.4104 388.865 73.6037 389.152 74.7536C389.548 76.3374 388.718 77.5796 387.107 77.8887C383.262 78.6156 379.297 78.8596 375.603 77.5524C373.775 76.907 372.251 75.1821 370.803 73.7339C366.474 69.3947 362.363 64.8384 357.931 60.6023C355.973 58.7255 353.511 57.337 351.178 55.8942C346.34 52.9055 341.437 50.0253 336.555 47.1072C335.975 46.7601 335.4 46.3749 334.776 46.1417C334.353 45.9844 333.686 45.8651 333.409 46.082C333.149 46.2882 333.171 46.9662 333.225 47.4218C333.398 48.8429 333.729 50.2477 333.843 51.6743C333.941 52.835 334.462 53.6595 335.427 54.1802C340.856 57.1146 345.022 61.4538 348.965 66.0806C350.365 67.724 351.97 69.194 353.489 70.7344C354.151 71.4124 354.883 72.0308 355.485 72.7521C356.32 73.7556 356.89 74.8784 356.32 76.2344C355.74 77.5958 354.601 78.2142 353.207 78.2521C350.679 78.3118 348.146 78.3606 345.624 78.225C343.493 78.1057 341.562 77.2541 340.075 75.692C337.472 72.942 334.901 70.1594 332.4 67.3172C329.612 64.1442 326.591 61.2803 322.268 60.5155C320.077 60.1304 317.783 60.19 315.542 60.2334C314.089 60.2605 313.709 61.2748 314.561 62.6309C316.188 65.229 317.88 67.7891 319.507 70.3818C320.153 71.4124 320.809 72.4538 321.276 73.5658C322.106 75.5564 321.194 77.7477 319.084 77.9647C314.647 78.4149 310.075 79.3044 305.915 76.6683C305.003 76.0879 304.212 76.1856 303.485 76.9395C302.47 77.9918 301.19 78.3118 299.786 78.3118C297.708 78.3118 295.631 78.2576 293.553 78.3335C290.554 78.442 288.243 77.189 286.339 74.9814C284.69 73.0722 283.014 71.1792 281.349 69.2862C280.302 68.0929 278.973 67.5288 277.395 67.5233C273.739 67.5179 270.078 67.4908 266.422 67.5233C264.35 67.5396 263.672 68.2122 263.52 70.2625C263.428 71.5209 263.477 72.7901 263.33 74.0376C263.016 76.6954 261.687 78.0786 259.035 78.2196C256.333 78.366 253.616 78.2955 250.909 78.2304C249.412 78.1925 248.1 77.5741 247.107 76.4134C246.445 75.6432 245.8 75.4967 245.116 76.37C244.053 77.726 242.567 78.2142 240.934 78.2467C238.407 78.301 235.879 78.2955 233.352 78.2521C231.046 78.2087 229.213 77.1673 227.721 75.4316C222.672 69.5465 217.611 63.6723 212.545 57.798C212.133 57.3207 211.715 56.8325 211.221 56.4529C210.445 55.8578 209.339 55.9686 209.356 57.1959C209.377 59.2625 209.507 61.3345 209.611 63.4011C209.768 66.6392 210.012 69.8774 210.072 73.121C210.142 76.728 208.65 78.2033 205.006 78.2955C203.064 78.3444 201.122 78.3443 199.18 78.2901C196.045 78.1979 194.45 76.7388 194.109 73.62C193.94 72.0579 193.875 70.474 193.864 68.8956C193.79 58.3358 193.856 48.0506 194.033 37.4036ZM304.629 43.5382C303.425 43.7009 303.062 44.482 303.528 45.5939C304.418 47.7147 306.679 49.1683 309.001 49.0816C310.975 49.011 312.955 48.9731 314.924 48.7941C316.697 48.6274 317.193 47.3109 315.857 46.0495C313.167 43.4875 308.318 43.0372 304.629 43.5382ZM266.764 55.3518C268.299 55.1836 267.8 54.3592 267.708 54.2236C267.089 53.3123 266.411 52.2546 265.478 51.7936C264.708 51.4139 264.383 52.4662 264.334 53.2093C264.258 54.4188 265.099 55.3138 266.764 55.3518Z" fill="white"/>
<path d="M118.558 78.285C117.251 78.285 115.933 78.3609 114.631 78.2687C111.376 78.0409 110.053 76.0231 111.132 72.964C111.848 70.9245 112.651 68.9122 113.362 66.8727C113.762 65.7205 113.039 65.4162 112.277 66.2869C101.64 78.2958 88.1561 81.3224 72.9253 78.567C69.6926 77.9812 66.9155 76.2998 65.0171 73.5172C63.4549 71.2283 63.3139 68.6464 63.8183 65.9778C64.1615 64.1683 63.3488 63.6206 62.1206 65.1642C59.7828 68.0877 57.4613 71.0221 55.2429 74.0325C53.0787 76.9778 50.3775 78.6267 46.6078 78.3555C44.948 78.2361 43.2666 78.3338 41.596 78.3229C39.9579 78.3175 38.3632 78.0897 37.5442 76.4354C36.6926 74.7159 37.5442 73.2894 38.6073 71.9876C43.5378 65.9398 48.4845 59.9137 53.4041 53.8604C54.8252 52.1139 56.1813 50.3077 57.521 48.496C58.0676 47.752 57.5402 47.0408 56.7345 47.6065C54.9446 48.8215 53.1438 50.0256 51.4244 51.3328C40.8366 59.3984 30.2597 67.4802 19.7045 75.5838C17.2799 77.4442 14.6221 78.426 11.5467 78.3446C9.11127 78.2795 6.67044 78.3663 4.22962 78.3067C0.302598 78.2144 -1.12393 75.6489 0.948061 72.3076C2.65664 69.5522 4.52252 66.889 6.31788 64.1824C12.382 55.0537 18.4678 45.9467 24.4939 36.7963C27.2664 32.5824 31.839 32.687 36.3455 32.9995C39.7681 33.2382 40.9397 35.2613 39.307 38.2663C37.8859 40.8752 36.275 43.3866 34.7671 45.9521C34.2681 46.8037 33.7907 47.6824 33.3948 48.5882C32.9877 49.4963 33.6815 50.0393 34.5176 49.57C35.418 49.0547 36.2858 48.4798 37.1211 47.8668C42.274 44.0646 47.519 40.3654 52.5363 36.3895C57.4505 32.5005 62.7986 32.2564 68.5427 33.6612C69.3672 33.8619 70.3706 33.8673 71.1679 33.5961C74.3302 32.5113 77.5087 32.7988 80.6817 33.3358C82.7266 33.6829 83.5294 35.3264 82.7212 37.3387C82.2873 38.4181 81.6364 39.4107 81.1157 40.463C80.804 41.1019 81.1911 41.486 81.7991 41.038C83.1497 40.0616 84.4189 38.9551 85.8183 38.0601C94.3504 32.6035 103.62 31.1499 113.47 33.1893C114.859 33.4768 116.242 34.0735 117.462 34.8003C120.787 36.7746 122.203 40.783 121.01 44.4497C120.413 46.2776 119.149 47.4546 117.245 47.7475C115.466 48.0187 113.649 48.073 111.859 48.2899C110.668 48.4388 110.132 49.2213 111.235 50.0365C114.175 52.2007 115.466 55.0863 115.287 58.7041C115.205 60.2623 116.21 60.4678 116.849 59.0621C118.856 54.6795 120.809 50.2697 122.767 45.8599C124.031 43.0177 125.3 40.1755 126.504 37.3116C127.746 34.3609 129.883 32.8476 133.127 32.9507C134.798 33.0049 136.479 32.9073 138.133 33.0971C140.889 33.4117 142.093 35.1149 141.268 37.7564C140.14 41.3634 138.795 44.9107 137.482 48.4581C134.516 56.4423 131.511 64.4156 128.522 72.389C128.348 72.8555 128.169 73.3165 127.985 73.7776C126.591 77.2218 125.023 78.2904 121.297 78.3284C120.397 78.3392 119.491 78.3284 118.585 78.3284C118.585 78.3175 118.585 78.3012 118.585 78.2904L118.558 78.285ZM77.7311 57.9936C80.7794 58.102 81.9401 59.4364 81.6689 62.4793C81.4682 64.7357 82.2276 65.8584 84.4786 66.0646C86.3987 66.2381 88.4219 66.3954 90.2606 65.9723C92.3652 65.4896 94.4426 64.5567 96.303 63.4339C98.0279 62.3925 97.6862 60.8846 95.7932 60.1795C95.0338 59.8974 94.2473 59.675 93.4662 59.4581C90.5535 58.6553 87.592 57.9881 84.7281 57.0389C78.4633 54.9669 76.6571 51.2189 78.7725 45.0301C78.7887 44.9867 78.8159 44.9487 78.8213 44.9053C79.1698 44.28 78.724 43.6611 78.0782 44.428C76.7222 45.9901 75.3445 47.5414 74.0752 49.174C72.1931 51.5932 70.376 54.0557 68.5807 56.5399C67.8158 57.5977 68.5222 58.2179 69.6275 58.178C72.5306 58.0712 74.9373 57.8953 77.7311 57.9936ZM101.727 42.6001C98.7206 42.3294 95.1538 44.9274 97.7296 45.9738C98.5974 46.3264 99.5412 46.5 100.463 46.7169C101.993 47.0803 103.522 47.5034 105.074 47.7421C108.65 48.2943 104.744 42.785 101.733 42.5947L101.727 42.6001Z" fill="white"/>
<path d="M168.28 32.1792C172.505 32.2009 176.573 32.8518 180.392 34.7069C188.631 38.7098 192.916 47.4154 191.137 56.4031C189.07 66.8552 182.751 73.6191 172.917 77.2694C165.351 80.0791 157.665 80.4642 149.963 77.8064C140.21 74.4381 135.54 66.4484 137.308 56.3109C139.456 44.0037 149.605 34.4519 162.481 32.6674C164.396 32.4016 166.343 32.3365 168.274 32.1738L168.28 32.1792ZM175.429 48.8311C174.285 43.1811 167.393 42.34 162.731 43.7976C155.468 46.0648 152.892 53.7236 153.271 58.7788C153.526 62.1038 155.365 64.0944 158.527 65.0382C168.693 68.0842 177.394 58.4935 175.429 48.8311Z" fill="white"/>
<path d="M129.899 12.1409C129.899 9.48316 129.872 6.82537 129.905 4.16758C129.937 1.57488 130.751 0.739573 133.311 0.712453C136.875 0.679909 140.444 0.690757 144.013 0.717877C146.15 0.734149 148.086 1.32537 149.735 2.78444C150.869 3.78789 151.368 3.67941 152.165 2.35052C152.81 1.27656 153.732 0.734149 154.947 0.728725C160.274 0.712453 165.6 0.685333 170.927 0.739573C172.852 0.761269 173.682 1.66709 173.753 3.4733C173.834 5.61038 173.199 6.44568 171.231 6.75485C171.008 6.79282 170.786 6.81994 170.558 6.84706C167.054 7.23217 166.669 7.64982 166.658 11.1212C166.647 15.0428 166.691 18.959 166.62 22.8752C166.566 25.7933 165.497 26.7317 162.585 26.6557C160.41 26.6015 159.411 25.7065 159.374 23.5206C159.303 19.42 159.336 15.3249 159.33 11.2243C159.33 10.8175 159.341 10.4161 159.341 10.0093C159.325 7.72576 158.652 7.0586 156.374 6.91758C155.479 6.86334 154.584 6.70061 153.711 6.49992C152.631 6.25042 152.024 6.56501 152.013 7.72034C151.991 9.61333 151.351 11.2948 150.532 12.9925C150.147 13.7953 150.174 15.0808 150.549 15.9107C151.753 18.5902 151.899 21.4107 152.002 24.2366C152.062 25.8204 151.167 26.5906 149.561 26.7045C146.584 26.9161 145.423 25.9723 145.027 23.0108C144.908 22.1158 144.837 21.2154 144.663 20.3313C144.126 17.6138 140.612 15.9974 138.258 17.4782C137.688 17.8362 137.314 18.7637 137.184 19.4905C136.988 20.5862 137.157 21.7415 137.054 22.8589C136.734 26.4225 133.837 27.9412 130.767 26.135C129.932 25.6469 129.281 25.5818 128.402 26.0537C125.451 27.6429 122.761 26.7262 121.459 23.6888C120.792 22.1321 119.713 21.3456 118.037 21.3185C117.408 21.3076 116.773 21.3022 116.144 21.2913C114.028 21.2534 112.472 22.1321 111.636 24.101C110.801 26.0862 109.271 26.813 107.21 26.7262C105.117 26.634 104.205 25.4841 104.845 23.5044C105.513 21.4486 106.305 19.4363 107.069 17.4131C108.789 12.8623 110.524 8.31698 112.266 3.77162C113.204 1.31995 114.115 0.712453 116.74 0.707029C119.507 0.707029 120.385 1.25486 121.345 3.77162C123.483 9.36925 125.565 14.9886 127.74 20.5754C128.017 21.2859 128.645 22.5429 129.194 22.4684C129.704 22.3224 129.812 20.9062 129.834 20.1143C129.915 17.4565 129.867 14.7987 129.867 12.1409C129.877 12.1409 129.894 12.1409 129.905 12.1409H129.899ZM140.861 6.58671C140.14 6.65722 139.451 6.6518 138.8 6.79825C137.596 7.06945 137.167 7.959 137.162 9.11432C137.162 10.2696 137.569 11.3056 138.773 11.4304C140.134 11.5714 141.561 11.4846 142.911 11.2351C143.964 11.0399 144.55 10.172 144.522 9.02754C144.495 7.88306 143.844 7.17251 142.819 6.85249C142.185 6.65722 141.49 6.66807 140.861 6.58671ZM117.471 12.6611C116.645 12.1129 115.787 12.826 115.775 13.8712C115.775 14.8058 116.595 15.3144 117.245 14.8367C117.809 14.4245 118.136 13.1022 117.471 12.6611Z" fill="white"/>
<path d="M205.192 7.38916C205.154 5.69686 204.79 5.62092 203.239 6.22841C202.133 6.66234 200.901 6.83048 199.708 6.93896C197.587 7.13966 196.996 7.66579 196.969 9.78117C196.915 14.3753 196.925 18.9695 196.828 23.5583C196.779 25.896 195.754 26.7042 193.221 26.6717C190.899 26.6391 189.993 25.7984 189.972 23.4986C189.934 19.4468 189.961 15.3896 189.945 11.3379C189.945 10.6165 189.934 9.88965 189.831 9.18453C189.614 7.66037 188.947 7.07457 187.417 6.96609C186.565 6.901 185.692 6.93354 184.857 6.7654C183.154 6.4291 182.546 5.45277 182.655 3.45672C182.742 1.8295 183.517 0.918261 185.134 0.788083C186.571 0.674178 188.019 0.712146 189.462 0.706722C193.21 0.701298 196.958 0.630786 200.701 0.766387C201.791 0.804355 202.919 1.34676 203.917 1.86747C204.579 2.21461 204.953 2.22003 205.599 1.84035C206.456 1.33591 207.459 0.798931 208.408 0.777235C212.964 0.668754 217.526 0.695874 222.082 0.744691C224.317 0.766387 225.337 1.93798 225.179 4.07506C225.071 5.55583 224.387 6.48877 222.89 6.64607C220.742 6.86845 218.573 6.8576 216.414 6.94439C215.693 6.97151 214.884 6.79252 214.277 7.05829C213.68 7.31865 212.921 8.03462 212.916 8.56076C212.905 9.08147 213.648 9.85169 214.234 10.0903C214.939 10.3778 215.828 10.2368 216.642 10.2639C218.264 10.3127 219.896 10.2639 221.507 10.4158C223.297 10.5839 224.143 11.6362 224.138 13.399C224.133 15.0588 223.265 16.046 221.475 16.1707C219.408 16.3117 217.331 16.3226 215.253 16.3714C213.566 16.4094 212.677 17.0331 212.634 18.2644C212.59 19.5336 213.523 20.3744 215.199 20.4232C217.228 20.4828 219.262 20.4286 221.29 20.472C222.006 20.4883 222.744 20.5479 223.422 20.754C224.892 21.1934 225.743 22.4789 225.646 23.9217C225.543 25.435 224.626 26.4602 222.923 26.5849C220.271 26.7802 217.607 26.867 214.944 26.8887C212.78 26.9049 210.616 26.7747 208.452 26.6825C206.336 26.5958 205.43 25.8418 205.344 23.7481C205.117 18.2 205.329 12.979 205.192 7.38916Z" fill="white"/>
<path d="M275.068 13.6834C275.068 16.8836 275.068 20.0838 275.068 23.2786C275.068 24.4881 274.965 25.752 273.701 26.2835C272.247 26.8964 270.604 27.0483 269.291 26.1045C268.646 25.6435 268.25 24.5424 268.147 23.68C267.957 22.1233 268.092 20.534 268.044 18.9556C267.989 17.0463 267.29 16.3792 265.37 16.3575C264.377 16.3466 263.384 16.3358 262.392 16.3575C260.716 16.4009 259.983 17.0789 259.913 18.7386C259.848 20.3116 259.913 21.8955 259.853 23.4684C259.772 25.8442 258.828 26.674 256.306 26.6523C253.908 26.6361 252.905 25.7682 252.894 23.463C252.856 16.9324 252.856 10.3964 252.894 3.86045C252.905 1.57149 253.833 0.741611 256.176 0.698219C258.79 0.654826 259.723 1.4142 259.853 3.73569C259.913 4.81508 259.853 5.89989 259.94 6.97928C260.07 8.66074 260.862 9.49062 262.527 9.79437C262.75 9.83776 262.972 9.86488 263.2 9.87573C267.946 10.109 268.13 9.42011 268.109 5.50394C268.103 4.61982 268.255 3.69773 268.521 2.85157C269.101 1.01282 270.631 0.177509 272.556 0.508377C274.227 0.795852 275.051 1.81015 275.068 3.80078C275.106 7.08776 275.079 10.3802 275.079 13.6672L275.068 13.6834Z" fill="white"/>
<path d="M226.371 12.7358C226.979 5.40246 231.519 0.683532 238.592 0.0434929C243.202 -0.368736 247.829 2.186 249.624 6.15098C250.975 9.12337 249.89 10.6801 246.625 10.4848C245.171 10.398 244.038 9.74171 243.175 8.60266C241.966 7.00798 240.436 6.06962 238.386 6.48185C236.205 6.91578 234.795 8.32061 234.133 10.4143C233.417 12.6653 233.385 14.9488 234.209 17.1835C234.974 19.2718 236.504 20.4813 238.717 20.7742C240.962 21.0726 242.454 19.9715 243.381 18.0514C244.591 15.5509 246.516 15.4153 249.288 16.1963C250.427 16.5164 250.704 17.5307 250.454 18.6155C249.673 22.0435 247.715 24.6145 244.488 26.0085C235.335 29.9735 225.521 23.019 226.371 12.7358Z" fill="white"/>
<path d="M179.387 13.683C180.939 13.7915 181.768 14.6702 181.871 16.1726C181.985 17.8866 181.291 19.2047 179.81 19.3023C177.223 19.4759 174.609 19.465 172.021 19.3023C170.676 19.221 170.014 18.0548 170.009 16.536C170.004 15.0065 170.638 14.0464 172 13.721C172.689 13.5582 173.421 13.5203 174.137 13.5094C175.811 13.4841 177.715 13.5686 179.387 13.683Z" fill="white"/>
</svg>
