<svg width="161" height="65" viewBox="0 0 161 65" fill="none" xmlns="http://www.w3.org/2000/svg">
<path d="M50.0736 37.1323C49.3201 37.077 48.6537 37.1213 48.0411 36.9616C47.1183 36.7213 46.8317 36.1853 46.9109 35.213C47.0074 34.024 48 32.9695 49.1888 32.8303C49.765 32.7639 50.3459 32.726 50.9253 32.7197C51.5173 32.7133 51.7769 32.4446 51.9748 31.8785C52.6064 30.0698 53.249 28.258 54.0421 26.5172C54.3745 25.7868 55.0346 25.1639 55.6567 24.62C56.2266 24.1235 56.9817 24.0872 57.6465 24.5156C58.3367 24.9599 58.6168 25.7378 58.3747 26.5172C57.9568 27.869 57.4898 29.2066 57.0561 30.5536C56.893 31.0611 56.7648 31.5813 56.6239 32.0825C57.542 32.005 58.3145 31.9054 59.0902 31.8817C60.2441 31.8469 60.9881 32.9758 60.3644 33.9513C59.945 34.6058 59.2959 35.2145 58.6089 35.5687C57.808 35.9829 56.8234 36.024 55.9765 36.3687C55.4984 36.5632 54.9222 36.9632 54.7592 37.4059C53.8759 39.8185 53.0702 42.2628 52.3167 44.7213C51.9684 45.8597 51.6882 47.0423 51.5759 48.2233C51.4635 49.4059 52.3341 49.9135 53.3915 49.3633C54.0643 49.0123 54.669 48.53 55.3243 48.1443C55.6757 47.9372 56.0635 47.7142 56.4545 47.6715C56.7854 47.6352 57.2967 47.7427 57.4581 47.9751C57.7541 48.3988 57.9694 48.8968 57.5309 49.4866C55.8847 51.6969 53.9582 53.5562 51.4144 54.7072C50.1575 55.2748 48.9102 55.2384 47.7119 54.5649C46.8127 54.0605 46.5642 53.1657 46.4708 52.2218C46.4328 51.8407 46.4645 51.4518 46.4645 50.9048C45.5701 51.67 44.8103 52.2929 44.0806 52.9506C42.6306 54.255 40.9811 55.3143 39.1496 55.8629C37.2374 56.4368 35.216 56.4574 33.5935 54.8953C33.0553 54.3767 32.6928 54.3562 32.0754 54.8763C30.3247 56.3514 28.3776 57.5941 26.0032 57.5673C24.8397 57.5546 23.6525 57.1214 22.5286 56.7325C21.3445 56.323 20.1985 55.7807 19.0809 55.2099C18.4557 54.8906 18.1106 55.0708 17.7686 55.5767C17.1054 56.5586 16.439 57.5388 15.7488 58.5001C14.0091 60.927 11.7787 62.8021 9.03706 63.9562C7.78494 64.4827 6.42993 64.7404 4.97044 64.293C3.88137 63.9594 2.90627 63.5499 2.08629 62.791C0.36087 61.1989 -0.207411 59.1372 0.0648574 56.9096C0.409942 54.0921 1.5655 51.553 3.67875 49.6257C6.04527 47.4676 8.90884 46.3751 12.1507 46.6296C13.338 46.7229 14.5125 47.0755 15.6712 47.3901C16.1699 47.5245 16.3472 47.3585 16.4928 46.9553C17.5597 44.0178 18.6298 41.0818 19.7014 38.1458C20.0608 37.1608 20.4296 36.1774 20.7858 35.1908C21.001 34.5948 20.9441 34.1979 20.1652 34.1031C19.073 33.9687 17.9665 33.8295 16.9154 33.5244C15.4338 33.0959 14.2513 32.1473 13.3427 30.9109C12.2774 29.4627 12.5496 27.2809 13.9252 26.1979C15.228 25.1734 15.5478 25.4453 16.3155 26.6342C17.8066 28.9394 19.6967 29.9307 22.3766 29.5007C22.6331 29.4596 22.9497 29.1323 23.0478 28.8682C24.2968 25.4959 25.4492 22.0872 26.7488 18.7354C28.0515 15.3741 29.5458 12.0839 31.5055 9.04834C33.2531 6.34318 35.3395 3.88783 37.6917 1.67912C39.2652 0.200847 41.2122 -0.286113 43.2543 0.158159C44.0521 0.332073 44.8768 1.07358 45.377 1.77714C46.6339 3.54158 46.6845 5.58745 46.3679 7.67442C45.9864 10.1883 45.2282 12.5899 44.0996 14.8476C42.9392 17.1686 41.6745 19.4453 40.3258 21.6635C38.8663 24.0619 36.9082 26.0651 34.844 27.9576C33.0252 29.6256 30.9958 31.0042 28.7195 31.9355C27.1857 32.5631 26.4876 33.6999 25.9858 35.1465C24.8761 38.3434 23.7032 41.5181 22.5571 44.7024C22.1234 45.9071 21.6786 47.1087 21.2622 48.3198C20.9441 49.2478 21.1435 49.6747 22.0363 50.0384C22.5444 50.2455 23.0636 50.4241 23.5797 50.6139C24.3442 50.8937 25.1025 51.1957 25.8766 51.4439C27.8774 52.0842 29.6202 51.5166 31.1525 50.2012C31.39 49.9973 31.523 49.5656 31.5404 49.232C31.8142 43.994 33.8705 39.5972 37.8754 36.2074C39.2668 35.0296 40.8782 34.0209 42.7968 33.9291C45.5844 33.7948 46.6608 35.3141 46.6814 37.858C46.6972 39.8375 45.8155 41.5308 44.7264 43.1008C43.0421 45.5261 40.6155 47.1545 38.3075 48.9079C37.8595 49.2478 36.924 49.5071 37.2501 50.1411C37.5113 50.6471 38.3645 51.0186 39.0088 51.1229C40.2356 51.3206 41.3879 50.8415 42.4834 50.2866C45.1047 48.9569 46.6861 46.8004 47.6137 44.0605C48.3292 41.9466 49.1666 39.8723 49.9422 37.7774C50.0119 37.5893 50.0246 37.379 50.0736 37.1339L50.0736 37.1323ZM28.4979 28.122C29.0345 27.9117 29.3796 27.82 29.6804 27.6477C30.3199 27.2825 30.9309 26.8698 31.5594 26.4872C34.6113 24.6263 36.9715 22.0951 38.7887 19.0389C40.0155 16.9773 40.989 14.8065 41.6665 12.4982C42.1319 10.9124 42.3361 9.30605 42.1731 7.676C42.1304 7.24912 41.8201 6.70998 41.4655 6.4839C40.959 6.15978 40.3337 6.30366 39.881 6.77164C39.5343 7.13054 39.2256 7.52738 38.89 7.89576C35.8555 11.2223 33.8088 15.1591 31.9694 19.2097C31.1589 20.9963 30.4845 22.8445 29.769 24.6722C29.3527 25.7362 28.976 26.8161 28.4963 28.1204L28.4979 28.122ZM13.5437 52.6581C12.3217 51.8913 11.0474 51.8107 9.76522 51.8708C9.09088 51.9024 8.3833 51.9704 7.76119 52.206C5.84423 52.9332 4.57787 54.2329 4.17738 56.3435C4.01275 57.2147 4.22329 57.9594 4.58262 58.6424C5.02584 59.4835 6.16241 59.6463 7.36071 59.2163C10.5155 58.0858 12.165 55.5483 13.5437 52.6581ZM36.4792 46.5775C36.5552 46.6075 36.6312 46.636 36.7071 46.666C36.8227 46.6122 36.9572 46.5822 37.0522 46.5032C39.1781 44.7261 41.236 42.8873 42.3995 40.2849C42.6923 39.6304 42.963 38.93 42.4074 38.3023C42.0718 37.9244 41.1616 38.2612 40.4477 38.8794C38.6542 40.4304 37.6284 42.4415 36.9414 44.6549C36.7467 45.2826 36.6327 45.9371 36.4808 46.579L36.4792 46.5775Z" fill="white"/>
<path d="M127.304 37.379C129.389 36.3118 130.098 34.3703 131.04 32.6122C129.209 30.5252 129.729 26.8825 131.784 25.3157C132.792 24.5457 133.893 24.5331 134.727 25.3204C135.316 25.877 135.328 26.6074 135.237 27.3046C135.142 28.0288 134.917 28.7402 134.701 29.4422C134.57 29.8691 134.72 30.073 135.113 30.0778C135.637 30.0825 136.164 30.0335 136.688 29.9845C138.915 29.7774 140.042 30.892 139.439 33.0438C138.868 35.0834 137.904 37.0106 137.187 39.0122C136.764 40.1901 136.352 41.4012 136.18 42.6312C136.022 43.7569 136.9 44.1965 137.861 43.504C139.202 42.538 140.327 41.3127 140.986 39.7917C141.864 37.7664 142.615 35.6842 143.381 33.6114C144.446 30.726 145.491 27.8311 146.517 24.9315C147.411 22.405 148.223 19.8485 149.157 17.3362C149.795 15.6208 150.453 13.8895 151.338 12.2958C151.957 11.1812 153.562 10.9978 154.406 11.6571C155.153 12.2421 155.281 13.0294 155.02 13.8658C154.544 15.3963 154.014 16.9093 153.493 18.4255C152.904 20.1394 152.328 21.858 151.699 23.5592C150.799 25.9955 149.857 28.4161 149.037 30.9094C149.654 30.3371 150.23 29.7126 150.897 29.2051C151.793 28.522 152.709 27.8327 153.706 27.3205C154.857 26.7276 156.124 26.628 157.229 27.4738C158.381 28.356 158.604 29.6477 158.368 30.9774C157.882 33.7221 156.342 35.798 154.048 37.3284C153.374 37.779 152.644 38.1458 151.967 38.5348C152.312 39.6968 152.646 40.8542 152.999 42.0051C153.258 42.8542 153.95 43.2605 154.702 42.7957C155.623 42.2249 156.416 41.4391 157.235 40.7119C157.566 40.4178 157.787 40.0036 158.11 39.6968C158.588 39.2462 159.147 39.1767 159.69 39.5862C160.265 40.0209 160.364 40.6391 160.016 41.2083C158.584 43.5419 156.899 45.6858 154.506 47.0945C153.653 47.5957 152.589 47.8344 151.59 47.9688C150.423 48.1269 149.01 46.9965 148.696 45.6953C148.472 44.7609 148.465 43.7728 148.388 42.8067C148.309 41.8123 148.358 40.7877 147.584 39.9972C146.738 39.134 146.32 39.1609 145.869 40.2534C145.065 42.1996 144.37 44.1886 143.572 46.138C143.319 46.7577 142.933 47.338 142.524 47.874C142.004 48.557 141.236 48.7072 140.452 48.4605C139.715 48.2281 139.308 47.651 139.219 46.87C139.211 46.8004 139.165 46.734 139.127 46.6423C138.315 47.2083 137.554 47.817 136.717 48.2914C136.132 48.6218 135.46 48.8811 134.798 48.9759C131.835 49.4012 130.549 46.9238 130.937 44.8083C131.298 42.832 132.028 40.9158 132.688 39.0059C133.15 37.6636 133.771 36.3766 134.314 35.0628C134.502 34.6075 134.556 34.2296 133.956 33.9798C133.337 33.7221 133.183 34.0636 132.987 34.5158C131.977 36.8431 130.663 38.949 128.507 40.4083C128.181 40.6296 127.844 40.9253 127.48 40.9838C125.922 41.2336 125.408 42.4447 124.797 43.6431C123.584 46.0178 121.816 47.9072 119.543 49.3111C118.421 50.0052 117.203 50.421 115.874 50.3688C113.442 50.274 111.492 48.3119 111.214 45.6273C111.107 44.6139 111.172 43.583 111.161 42.5617C111.157 42.1775 111.161 41.7917 111.161 41.4376C111.032 41.3901 110.986 41.3664 110.935 41.3538C109.77 41.0755 109.145 41.515 108.63 42.6376C107.471 45.1641 105.923 47.4771 103.805 49.3143C102.905 50.0953 101.86 50.7783 100.771 51.2621C98.5008 52.2724 96.5997 51.1783 96.1359 48.7372C96.0868 48.4811 96.0472 48.2234 95.9697 47.7807C95.6008 48.2028 95.3539 48.557 95.0405 48.8337C93.9435 49.8028 92.9256 50.9127 91.6894 51.6621C89.5524 52.9586 87.094 51.7475 86.5796 49.3048C86.1664 47.3459 86.3817 45.3838 86.9753 43.5324C88.0834 40.0779 89.3672 36.6802 90.6082 33.2699C91.072 31.9956 91.892 31.0881 93.3815 31.0707C94.7714 31.0533 95.5771 32.0493 95.1275 33.3632C94.4215 35.4312 93.5921 37.4549 92.8734 39.5182C92.3194 41.1071 91.797 42.7103 91.3759 44.3372C91.1781 45.0992 90.9564 46.1522 91.8176 46.568C92.6486 46.968 93.171 46.051 93.6063 45.4739C95.1244 43.4644 96.2467 41.232 97.1062 38.8668C97.8439 36.8383 98.5942 34.813 99.3493 32.7909C99.7783 31.6414 100.587 30.9078 101.806 30.6802C103.253 30.4082 104.298 31.4533 103.918 32.8731C103.571 34.1664 103.045 35.4122 102.67 36.6992C101.993 39.017 101.35 41.3474 100.734 43.6826C100.611 44.1554 100.6 44.6882 100.679 45.1704C100.736 45.5166 100.954 45.9815 101.231 46.1079C101.505 46.2328 102.088 46.1222 102.282 45.8977C103.159 44.8921 104.043 43.8676 104.747 42.7403C106.311 40.2391 106.864 37.4486 106.919 34.5205C106.938 33.5371 107.099 32.5126 107.432 31.5924C107.666 30.9489 108.206 30.3134 108.779 29.9165C110.075 29.0169 111.669 29.7632 111.709 31.3331C111.744 32.7039 111.46 34.0841 111.282 35.4565C111.221 35.9229 111.036 36.3703 110.932 36.8336C110.777 37.5261 110.946 37.6731 111.655 37.5166C112.293 37.3759 112.683 37.0138 112.985 36.413C114.313 33.7679 115.936 31.3268 118.585 29.8296C119.622 29.243 120.79 28.7798 121.957 28.5521C124.17 28.1189 125.945 29.2414 126.763 31.3568C127.255 32.6296 127.453 33.9403 127.314 35.3079C127.249 35.9482 127.303 36.5996 127.303 37.3838L127.304 37.379ZM117.832 36.0778L117.615 36.0367C117.251 36.9537 116.839 37.8549 116.532 38.7909C116.004 40.3972 115.597 42.0304 116 43.7427C116.233 44.7309 117.107 45.4882 117.922 45.4202C119.5 45.2874 121.742 43.0613 121.93 41.4249C119.415 40.5379 118.305 38.5537 117.832 36.0794L117.832 36.0778ZM148.358 35.994C148.984 35.8755 149.442 35.7853 149.899 35.7015C151.6 35.3932 152.716 34.3403 153.437 32.8446C153.588 32.5331 153.497 32.1063 153.518 31.7316C153.124 31.7821 152.66 31.7173 152.345 31.9039C150.71 32.8746 149.553 34.3292 148.356 35.994L148.358 35.994ZM123.32 37.5103C123.801 36.4336 123.92 33.9924 123.48 33.0897C123.323 32.7703 122.948 32.3213 122.703 32.3387C122.377 32.3624 121.946 32.7244 121.794 33.0486C121.286 34.1395 121.498 36.5917 123.318 37.5103L123.32 37.5103Z" fill="white"/>
<path d="M70.2974 39.9219C68.9471 41.3464 67.7267 42.7203 66.3986 43.982C65.9886 44.3709 65.262 44.6729 64.719 44.6207C63.6411 44.5179 63.4669 43.2515 64.317 42.2618C65.1575 41.2831 66.0139 40.3155 66.8133 39.3037C68.3013 37.4207 69.2226 35.2657 69.9222 32.9748C70.2198 32.004 70.8973 31.1376 71.4719 30.2696C71.635 30.023 72.0228 29.8854 72.3362 29.7811C73.1024 29.5234 73.8844 29.4997 74.4574 30.1653C75.0273 30.8277 74.9877 31.6309 74.698 32.4088C74.0838 34.0625 73.6058 35.7147 74.3593 37.4634C74.6885 38.227 75.0431 38.9938 75.241 39.7954C75.5908 41.2104 75.8536 42.6492 76.1037 44.0863C76.2287 44.8025 76.2493 45.5361 76.3269 46.3709C76.7511 46.1496 77.0899 45.9678 77.4318 45.7954C77.9542 45.533 78.4639 45.5251 78.8786 45.9788C79.3139 46.4563 79.4168 47.0318 79.0511 47.5773C78.7599 48.0089 78.4164 48.4421 78.0001 48.7472C75.7348 50.4057 73.5789 52.2429 70.9812 53.3907C68.7002 54.3979 66.435 54.4295 64.2901 52.9939C62.5077 51.8002 62.2101 48.5575 64.1998 47.0334C64.8536 46.5322 65.5754 46.6081 66.2023 47.2105C66.5632 47.5567 66.8798 47.9504 67.2486 48.2871C68.4437 49.3812 70.4794 49.182 71.2282 47.8966C71.3548 47.6784 71.4308 47.4144 71.4672 47.1614C71.7616 45.1409 71.4435 43.1978 70.7121 41.3037C70.5412 40.861 70.4367 40.393 70.2974 39.9219Z" fill="white"/>
<path d="M67.6208 19.3814C67.3263 22.3743 66.7517 24.8708 64.9962 26.9562C64.8791 27.0953 64.7477 27.2487 64.591 27.3277C64.0148 27.6171 63.4053 27.87 62.8165 27.391C62.2593 26.9388 62.4097 26.3665 62.6439 25.8036C62.9732 25.0115 63.3974 24.24 63.589 23.4147C63.6887 22.9862 63.4829 22.3902 63.2233 21.9965C62.3748 20.7048 62.0155 18.2352 63.5051 16.73C64.4374 15.7877 66.3971 15.9838 66.9543 17.1791C67.3184 17.9617 67.4656 18.8455 67.6208 19.3814Z" fill="white"/>
</svg>
