<?xml version="1.0" encoding="UTF-8"?>
<svg xmlns="http://www.w3.org/2000/svg" xmlns:xlink="http://www.w3.org/1999/xlink" version="1.1" viewBox="0 0 386 186">
  <defs>
    <style>
      .cls-1 {
        mask: url(#mask);
      }

      .cls-2, .cls-3 {
        fill: #fff;
      }

      .cls-4 {
        opacity: .4;
      }

      .cls-3 {
        stroke: #fff;
        stroke-miterlimit: 10;
      }
    </style>
    <mask id="mask" x="-.7" y="7.8" width="354.2" height="103.8" maskUnits="userSpaceOnUse">
      <g id="path-5-outside-1_7668_23482">
        <rect class="cls-2" x="-.7" y="7.8" width="354.2" height="103.8"/>
        <path d="M283.6,89.2c2.8-2.8,6.3-4.8,9.8-6.6,4.3-2.2,8.7-4.3,13-6.6,5.5-3,6.8-4.9,8.4-11.5-1.5-.5-2.1.8-2.9,1.4-5.1,3.8-10.4,7.2-16.4,9.3-10.5,3.6-15.2.7-16.6-10.6-3.1,1.4-4.9,4.1-7.1,6.1-4.3,4-8.9,7.7-14.7,9.4-7.9,2.3-14.8-1.3-17.4-9.1-.2-.7-.4-1.3-.6-2.1-2.8,1-4.6,3-6.7,4.4-2.8,1.9-5.5,3.9-8.6,5.3-9.1,4.2-14,2.7-19.3-6.2-3.5,2.3-6.6,5.4-10.5,7-7.8,3.3-14.8,1.1-18.1-6.2-1.5-3.4-2.9-3.2-5.4-1.3-4.1,2.9-8.4,5.4-13.2,7-11,3.7-15.5,1.4-18.8-10.2-1.8,1.4-3.5,2.7-5.1,4-6.9,5.9-15.2,8.2-24.1,8.3-9.6.2-14.4-3.7-17.5-13.7-4.4,3-8.3,6.5-12.9,9-10.2,5.6-18.4,5.4-26.3-.8-6.3-4.9-6-14.6-12.7-19-3.4-2.2-3.1-5.8.5-7.7,2.8-1.5,5.9-2.6,8.9-3.8,7-2.7,13-6.8,17.4-12.9,3.9-5.5,1.9-9.6-4.8-10-7.8-.6-13.7,3.2-16.8,10.3-4.8,11-9.9,21.8-15.6,32.3-2.8,5-6.2,9.6-11.1,12.9-31.6,21.2-14.1-30.5,17.1-54.4,3.2-2.2,5.6-4.5,6.5-8.3.5-2.1,1.5-4.4,4.1-4.5,2.6-.1,4,1.7,4.4,4.1.3,1.6,1.1,1.8,2.5,1.4,2.1-.5,4.3-1.1,6.5-1.3,5.2-.4,10.6-.8,14,4.2,3.5,5.2,3.3,10.9.8,16.3-4.1,9-11.7,14.4-20.7,17.9-5,1.9-5,1.9-2.7,6.8,4.8,10.3,13.4,13.5,24,9,9.4-4,17.1-10.2,24-17.5,5.9-6.2,12.5-11.1,21.4-11.8,3.7-.3,7.2.2,9.3,3.6,2.2,3.6,1.6,7.4-.5,10.8-4.9,7.7-12.4,11.8-21,14.3-1.3.4-6.7,1.7-6.7,2.1,0,1.5,1.8,1.7,3.1,1.8,6.5.5,13.1.2,19-2.8,7.9-4,15.1-9,21.1-15.6,7.9-8.7,17.9-13,29.7-13.1,2.7,0,5.3.5,7.5,2.2,1.2,1,2,2.2,1.5,3.8-.6,1.9-2.1,1.6-3.6,1.5-11.5-1.2-20.8,2.8-27.6,12.1-2.1,2.9-4.4,6.5-2.1,9.6,2.6,3.4,6.3.5,9.2-.8,9.5-4.4,18.4-9.8,24.5-18.7,1.1-1.6,2.5-3.3,4.7-1.9,2.1,1.3,1.5,3.2.8,5.1-1.6,4.1-3.5,8-4.9,12.2-1.5,4.5.4,6.5,5.1,5.5,3.5-.8,6.4-2.9,9.2-5,6-4.5,11.2-9.9,16.5-15.1,4.5-4.5,9.6-8.2,16.1-9.4,6.9-1.2,12.7,3.8,12.3,10.4-1.5,1.6-3,2.1-5,.7-3-2.1-6.1-1.6-9.1-.1-5.6,2.8-10.1,6.9-13.7,12-1,1.5-3.1,3.2-1.9,4.9,1.2,1.8,3.9,1.1,5.8.5,8.4-2.5,15.8-6.9,21.8-13.3,1.2-1.3,1.9-2.9,2.2-4.7,4.9-9.1,9.2-18.6,15.4-27,3.2-4.4,6.6-8.6,11.3-11.6,3.5-2.2,7.3-3.5,11.1-.8,3.2,2.2,4,7,2.3,11.6-1.6,4.3-4.5,7.8-7.6,11.2-6.5,6.8-14,12.5-21,18.7-4,3.5-6.2,7.6-7.1,12.7-.6,3.3.7,5,4.1,5.2,4.1.3,7.6-1.2,10.6-3.5,9.2-7,18.8-13.6,24.8-23.9.6-1,1.3-1.9,2.2-2.7,1.6-1.5,3.1-3.8,5.5-2,2.1,1.6,1.3,3.9.2,5.9-1.6,3-10.1,17.9-6.3,21.1,6.8,5.6,27.5-13.5,31-17.7.7-.9,1.4-1.9,2.3-2.7,1-.9,2.1-1.7,3.5-1.2,1.7.6,1.9,2,2,3.6.1,3.9-1.4,7.4-2.4,11.1-.5,1.9-1.1,3.9-2,6.9,5.3-2.4,9.1-5.6,12.9-8.6,3-2.3,5.7-5.1,8.6-7.5,1.9-1.5,4.1-3.9,6.5-1.6,2.5,2.5-.1,4.6-1.8,6.2-7.2,7.1-15.1,13.5-23.7,18.8-4.8,3-8.1,6.7-10.4,11.9-4.5,10.1-11.5,17.9-22.1,22.1-11.1,4.3-20.1-7.8-9-18.8ZM34.5,35c-.9,0-1.3,0-1.4.2-1,.7-2,1.3-2.8,2.1-9,7.9-16.2,17.2-20.8,28.3-1,2.3-3.3,5.7-.4,7.4,2.5,1.5,5.2-1.3,7-3.4,8.9-9.9,13.2-22.3,18.5-34.5h0ZM256.3,44.6c7-5.2,12.9-11.5,18-18.5.8-1.2,2.7-2.8,1.1-4.1-1.5-1.2-2.9.7-4.1,1.7-6.6,5.8-11,13.2-15,20.9h0ZM123.5,47.8c-8.7,1.1-14.8,6.3-21.3,13.2,9.9-1.4,16.9-5.3,21.3-13.2ZM305.4,85.2c-5.3,2.9-10.9,5.5-15,10.1-.9,1-2.4,2.2-1.3,3.7,1.3,1.8,3,.4,4.3-.4,5.3-3.3,9-8,12-13.5h0Z"/>
      </g>
    </mask>
  </defs>
  <!-- Generator: Adobe Illustrator 28.7.5, SVG Export Plug-In . SVG Version: 1.2.0 Build 176)  -->
  <g>
    <g id="Layer_1">
      <g class="cls-4">
        <path class="cls-2" d="M160.5,1.4c6.1.4,11.9.7,18.1,1.1-.6,9.9-1.2,19.9-1.8,29.6-1.4,22.9-.5,36.2,2.4,36.1,2.8,0,5.3-13.7,6.7-36.3.6-9.2,1.1-18.1,1.7-28.3,3,.2,5.9.4,9,.5-.7,10.9-1.4,22.1-2,33.1-1.1,18.9,0,31.7,2.5,32.1,2.7.4,5.3-12.4,6.6-31.8.7-10.7,1.3-21.4,2-33.1,6,.4,11.9.7,18,1.1-2.3,36.8-3.7,73.9-8.7,108.8-10.2,71.2-24.9,71.4-29.9,37.1-.4-3.3-.9-6.5-1.4-10.3-3.6,15.8-7.4,26.3-11.1,29.3-11.1,8.6-16.9-20.2-16.7-76.6.1-29.9,2.8-61.2,4.6-92.3Z"/>
        <path class="cls-2" d="M320.2,179.3c3.4-56.2,6.7-111.1,10.2-167.3,5.9.4,11.8.7,17.9,1.1-1.6,25.9-3.2,52.2-5,82.3,1-5.4,1.6-8.1,2.1-11.1,3.8-21.5,7.6-43.2,11.5-64.4.6-3.5,1.6-6.6,2.2-6.6,8.7,0,17.4.8,26.5,1.4-.8,4.7-1.3,7.7-1.8,10.6-3.8,21.5-7.6,43.5-11.5,64.4-1.3,6.9-1.4,11.4-1,17.9,1.3,21,2.4,42.8,3.6,64.3.2,3.3.3,6.5.5,11.8-1.4,0-2.4-.1-3.4-.2-7.4-.5-14.9-1.2-22.4-1.1-1.2,0-1.9-2.4-2.3-9.1-1.2-24.3-2.6-48.1-4.1-75.1-1.8,29.6-3.4,55.7-5,82.3-6.1-.4-12.1-.7-18-1.1Z"/>
        <path class="cls-2" d="M309.9,128.2c2.3,17.9,4.3,33.7,6.5,50.8-.7.5-1,.9-1.4.9-6-.4-12-.5-18-1.3-.8,0-1.5-2.6-2-5.9-2-14.3-3.8-29.4-5.9-45.8-1.1,17.9-2.1,33.8-3,50.2-6.1-.4-12-.7-18-1.1,3.4-55.7,6.8-111.4,10.2-167.8.4-.2.7-.5,1-.4,13.2.8,26.4,1.4,39.6,2.4,6.4.6,8.3,40.2,3.8,79.1-2.7,22.8-6.1,35.8-9.9,37.8-.8.7-1.4.7-2.8,1.1Z"/>
        <path class="cls-2" d="M240.1,175.4c-3.9-.2-7.9-.2-11.8-.7-7.3-.9-10.7-37.8-7.8-85.1,2.9-47.5,10.7-84.2,18-84,8,.2,16,.7,24,1.5,7.3.7,10.6,38.8,7.8,85.6-2.9,47.2-10.8,83.4-18.1,83.5-4,0-8-.5-12-.7Z"/>
      </g>
      <path class="cls-3" d="M283.6,89.2c2.8-2.8,6.3-4.8,9.8-6.6,4.3-2.2,8.7-4.3,13-6.6,5.5-3,6.8-4.9,8.4-11.5-1.5-.5-2.1.8-2.9,1.4-5.1,3.8-10.4,7.2-16.4,9.3-10.5,3.6-15.2.7-16.6-10.6-3.1,1.4-4.9,4.1-7.1,6.1-4.3,4-8.9,7.7-14.7,9.4-7.9,2.3-14.8-1.3-17.4-9.1-.2-.7-.4-1.3-.6-2.1-2.8,1-4.6,3-6.7,4.4-2.8,1.9-5.5,3.9-8.6,5.3-9.1,4.2-14,2.7-19.3-6.2-3.5,2.3-6.6,5.4-10.5,7-7.8,3.3-14.8,1.1-18.1-6.2-1.5-3.4-2.9-3.2-5.4-1.3-4.1,2.9-8.4,5.4-13.2,7-11,3.7-15.5,1.4-18.8-10.2-1.8,1.4-3.5,2.7-5.1,4-6.9,5.9-15.2,8.2-24.1,8.3-9.6.2-14.4-3.7-17.5-13.7-4.4,3-8.3,6.5-12.9,9-10.2,5.6-18.4,5.4-26.3-.8-6.3-4.9-6-14.6-12.7-19-3.4-2.2-3.1-5.8.5-7.7,2.8-1.5,5.9-2.6,8.9-3.8,7-2.7,13-6.8,17.4-12.9,3.9-5.5,1.9-9.6-4.8-10-7.8-.6-13.7,3.2-16.8,10.3-4.8,11-9.9,21.8-15.6,32.3-2.8,5-6.2,9.6-11.1,12.9-31.6,21.2-14.1-30.5,17.1-54.4,3.2-2.2,5.6-4.5,6.5-8.3.5-2.1,1.5-4.4,4.1-4.5,2.6-.1,4,1.7,4.4,4.1.3,1.6,1.1,1.8,2.5,1.4,2.1-.5,4.3-1.1,6.5-1.3,5.2-.4,10.6-.8,14,4.2,3.5,5.2,3.3,10.9.8,16.3-4.1,9-11.7,14.4-20.7,17.9-5,1.9-5,1.9-2.7,6.8,4.8,10.3,13.4,13.5,24,9,9.4-4,17.1-10.2,24-17.5,5.9-6.2,12.5-11.1,21.4-11.8,3.7-.3,7.2.2,9.3,3.6,2.2,3.6,1.6,7.4-.5,10.8-4.9,7.7-12.4,11.8-21,14.3-1.3.4-6.7,1.7-6.7,2.1,0,1.5,1.8,1.7,3.1,1.8,6.5.5,13.1.2,19-2.8,7.9-4,15.1-9,21.1-15.6,7.9-8.7,17.9-13,29.7-13.1,2.7,0,5.3.5,7.5,2.2,1.2,1,2,2.2,1.5,3.8-.6,1.9-2.1,1.6-3.6,1.5-11.5-1.2-20.8,2.8-27.6,12.1-2.1,2.9-4.4,6.5-2.1,9.6,2.6,3.4,6.3.5,9.2-.8,9.5-4.4,18.4-9.8,24.5-18.7,1.1-1.6,2.5-3.3,4.7-1.9,2.1,1.3,1.5,3.2.8,5.1-1.6,4.1-3.5,8-4.9,12.2-1.5,4.5.4,6.5,5.1,5.5,3.5-.8,6.4-2.9,9.2-5,6-4.5,11.2-9.9,16.5-15.1,4.5-4.5,9.6-8.2,16.1-9.4,6.9-1.2,12.7,3.8,12.3,10.4-1.5,1.6-3,2.1-5,.7-3-2.1-6.1-1.6-9.1-.1-5.6,2.8-10.1,6.9-13.7,12-1,1.5-3.1,3.2-1.9,4.9,1.2,1.8,3.9,1.1,5.8.5,8.4-2.5,15.8-6.9,21.8-13.3,1.2-1.3,1.9-2.9,2.2-4.7,4.9-9.1,9.2-18.6,15.4-27,3.2-4.4,6.6-8.6,11.3-11.6,3.5-2.2,7.3-3.5,11.1-.8,3.2,2.2,4,7,2.3,11.6-1.6,4.3-4.5,7.8-7.6,11.2-6.5,6.8-14,12.5-21,18.7-4,3.5-6.2,7.6-7.1,12.7-.6,3.3.7,5,4.1,5.2,4.1.3,7.6-1.2,10.6-3.5,9.2-7,18.8-13.6,24.8-23.9.6-1,1.3-1.9,2.2-2.7,1.6-1.5,3.1-3.8,5.5-2,2.1,1.6,1.3,3.9.2,5.9-1.6,3-10.1,17.9-6.3,21.1,6.8,5.6,27.5-13.5,31-17.7.7-.9,1.4-1.9,2.3-2.7,1-.9,2.1-1.7,3.5-1.2,1.7.6,1.9,2,2,3.6.1,3.9-1.4,7.4-2.4,11.1-.5,1.9-1.1,3.9-2,6.9,5.3-2.4,9.1-5.6,12.9-8.6,3-2.3,5.7-5.1,8.6-7.5,1.9-1.5,4.1-3.9,6.5-1.6,2.5,2.5-.1,4.6-1.8,6.2-7.2,7.1-15.1,13.5-23.7,18.8-4.8,3-8.1,6.7-10.4,11.9-4.5,10.1-11.5,17.9-22.1,22.1-11.1,4.3-20.1-7.8-9-18.8ZM34.5,35c-.9,0-1.3,0-1.4.2-1,.7-2,1.3-2.8,2.1-9,7.9-16.2,17.2-20.8,28.3-1,2.3-3.3,5.7-.4,7.4,2.5,1.5,5.2-1.3,7-3.4,8.9-9.9,13.2-22.3,18.5-34.5h0ZM256.3,44.6c7-5.2,12.9-11.5,18-18.5.8-1.2,2.7-2.8,1.1-4.1-1.5-1.2-2.9.7-4.1,1.7-6.6,5.8-11,13.2-15,20.9h0ZM123.5,47.8c-8.7,1.1-14.8,6.3-21.3,13.2,9.9-1.4,16.9-5.3,21.3-13.2ZM305.4,85.2c-5.3,2.9-10.9,5.5-15,10.1-.9,1-2.4,2.2-1.3,3.7,1.3,1.8,3,.4,4.3-.4,5.3-3.3,9-8,12-13.5h0Z"/>
      <g class="cls-1">
        <path class="cls-2" d="M288.1,110.4c-3.8,0-7.3-1.7-9.3-4.9-4-6.1-.4-13.2,3.8-17.4,3.1-3,6.7-5.1,10.2-6.9,1.7-.9,3.5-1.8,5.2-2.6,2.5-1.3,5.2-2.6,7.7-3.9,4.1-2.2,5.6-3.6,6.8-7.4-6,4.5-11.2,7.4-16.5,9.2-5.8,2-9.9,2.1-12.9.2-2.7-1.7-4.4-4.8-5.3-9.8-1.1.8-2,1.8-3,2.8-.6.7-1.3,1.4-2,2-4,3.7-8.9,7.9-15.3,9.7-8.6,2.5-16.4-1.5-19.3-10,0-.2-.1-.4-.2-.5-1.1.6-2,1.3-3,2.1-.6.5-1.3,1-1.9,1.5l-.9.6c-2.5,1.7-5,3.5-7.9,4.8-9.4,4.3-14.9,3-20.4-5.4-.8.5-1.5,1.1-2.2,1.7-2.2,1.7-4.5,3.5-7.3,4.6-8.6,3.6-16.5.9-20.1-7-.7-1.6-1.2-1.8-1.2-1.8-.1,0-.6,0-2,1-4.6,3.3-9.1,5.7-13.6,7.2-6.2,2.1-10.2,2.3-13.4.6-2.8-1.5-4.9-4.5-6.6-9.7,0,0,0,0-.1,0-1.1.9-2.2,1.7-3.2,2.6-6.7,5.6-14.9,8.5-25,8.7-9.6.2-15-3.6-18.4-12.8-1.1.8-2.1,1.5-3.1,2.3-2.6,2-5.3,4-8.3,5.6-10.7,5.9-19.6,5.6-27.9-.9-3.3-2.6-4.9-6.3-6.5-9.9-1.5-3.6-3-7-6.1-9-1.3-.9-2.2-1.9-2.7-3.1-1.9,3.8-3.8,7.3-5.6,10.8-3.4,6.1-7,10.4-11.5,13.4-11,7.3-15.6,5.6-17.6,2.8-6.4-9,9.8-42,32.9-59.6,3.1-2.2,5.2-4.1,6-7.5.3-1.4,1.3-5.5,5.5-5.7,3.1-.1,5.3,1.9,5.9,5.3,0,.2,0,.3,0,.3.1,0,.3,0,.6-.1l.8-.2c1.9-.5,3.9-1,5.9-1.1,5.1-.4,11.4-1,15.4,4.8,3.6,5.2,3.9,11.4.9,17.8-3.9,8.5-11,14.6-21.6,18.7h-.2c-1.4.6-2.9,1.2-3.1,1.5,0,.3.7,1.8,1.4,3.3,4.5,9.6,12.1,12.5,22,8.3,8.3-3.5,15.9-9.1,23.5-17.2,5-5.3,12-11.5,22.4-12.2,3.3-.2,8,0,10.7,4.3,2.4,3.8,2.2,8.1-.5,12.4-4.5,7.2-11.5,11.9-21.8,14.9-.3,0-.8.2-1.4.4-.5.1-1.4.4-2.2.6,7.6.6,13.2-.2,18-2.7,8.4-4.3,15.2-9.3,20.6-15.3,8.1-8.9,18.4-13.4,30.8-13.6,3.4,0,6.2.8,8.4,2.6,2.4,1.9,2.5,3.9,2.1,5.2,1.1-.7,2.6-.9,4.3.1,3.4,2,2,5.5,1.4,6.9-.6,1.4-1.1,2.7-1.7,4.1-1.1,2.6-2.3,5.3-3.2,8-.5,1.6-.6,2.8-.1,3.3.5.5,1.8.6,3.4.2,3.3-.7,6-2.8,8.6-4.8,5.3-4,10.2-8.8,14.8-13.4l1.5-1.5c3.9-3.9,9.4-8.5,16.9-9.8,3.9-.7,7.6.4,10.4,2.8,1.3,1.2,2.3,2.7,2.9,4.3.4-.8.8-1.5,1.2-2.3,3.6-7,7.3-14.3,12.2-20.9,3.2-4.3,6.7-8.8,11.7-11.9,3.1-2,7.8-4.2,12.8-.7,3.7,2.6,4.8,8,2.8,13.4-1.9,4.9-5.2,8.8-7.9,11.7-4.6,4.8-9.8,9.2-14.8,13.4-2.1,1.8-4.3,3.6-6.4,5.4-3.6,3.2-5.8,7-6.6,11.8-.2,1.2-.1,2.1.3,2.6.4.5,1.2.8,2.5.9,3.3.2,6.5-.8,9.6-3.2.8-.6,1.6-1.2,2.4-1.8,8.2-6.2,16.6-12.5,22-21.7.7-1.1,1.5-2.2,2.5-3.1.2-.2.4-.4.7-.6,1.3-1.3,3.7-3.8,6.8-1.5,3.5,2.6,1.3,6.6.6,7.9l-.3.5c-8.6,15.7-6.9,18.3-6.4,18.7.7.6,1.6.8,2.9.6,7.8-.7,22.5-13.9,26-18.2.2-.2.4-.4.5-.7.6-.7,1.2-1.5,1.9-2.1.8-.7,2.6-2.4,5.1-1.5,2.8,1,2.9,3.8,2.9,4.9.1,3.2-.8,6.2-1.7,9.1-.2.8-.5,1.6-.7,2.5-.3,1.1-.6,2.2-1,3.6,3.1-1.8,5.7-3.8,8.2-5.8l1.3-1c1.6-1.3,3.2-2.7,4.7-4,1.3-1.1,2.6-2.3,3.9-3.4.2-.1.4-.3.6-.5,1.7-1.4,4.8-4.1,7.9-1,1,1,1.5,2,1.5,3.2,0,2-1.6,3.6-2.9,4.8l-.4.4c-7.6,7.5-15.7,13.9-24,19-4.6,2.9-7.7,6.3-9.9,11.2-5,11.2-12.7,18.9-23,22.8-1.7.7-3.5,1-5.1,1ZM314.1,62.9c.3,0,.7,0,1.1.2l1.3.4-.3,1.3c-1.7,7.1-3.3,9.3-9.1,12.5-2.6,1.4-5.2,2.7-7.8,4-1.7.9-3.5,1.7-5.2,2.6-3.3,1.7-6.7,3.6-9.4,6.4h0c-5.5,5.4-5.3,10.6-3.4,13.6,2.1,3.3,6.5,4.4,10.8,2.7,9.5-3.7,16.7-10.8,21.3-21.3,2.4-5.4,5.9-9.4,11-12.5,8.1-5,16-11.2,23.5-18.6l.4-.4c.8-.8,2-1.9,2-2.7,0-.3-.2-.6-.6-1-.9-.9-1.6-.7-3.9,1.2-.2.2-.4.3-.6.5-1.3,1.1-2.6,2.2-3.8,3.3-1.5,1.4-3.1,2.9-4.8,4.2l-1.3,1c-3.4,2.7-7,5.5-11.9,7.7l-3,1.4,1.7-5.8c.5-1.6.9-2.9,1.2-4.2.2-.8.5-1.7.7-2.5.8-2.7,1.6-5.3,1.5-8.1,0-1.6-.3-2-.9-2.2-.5-.2-1,0-2,.9-.6.5-1.1,1.2-1.6,1.8-.2.2-.4.5-.6.7-2.5,3.1-18.4,18.3-28,19.3-2.1.2-3.8-.2-5.1-1.3-3.1-2.6-1.4-9.5,5.7-22.4l.3-.5c1.5-2.8.9-3.5.2-4-.8-.6-1.2-.5-2.9,1.2-.2.3-.5.5-.7.7-.7.7-1.4,1.5-1.9,2.4-5.6,9.7-14.3,16.2-22.7,22.5-.8.6-1.6,1.2-2.4,1.8-3.8,2.9-7.6,4.1-11.6,3.8-2.2-.1-3.7-.8-4.6-2-.9-1.2-1.2-2.8-.8-4.9,1-5.5,3.5-9.9,7.6-13.6,2.1-1.8,4.3-3.7,6.4-5.4,4.9-4.1,10-8.4,14.5-13.1,2.7-2.8,5.6-6.2,7.3-10.6,1.5-4,.8-8.1-1.7-9.9-2.7-1.9-5.5-1.7-9.4.8-4.6,2.9-7.9,7.1-10.9,11.2-4.7,6.4-8.4,13.5-11.9,20.5-1,2-2.1,4-3.1,6.1v.3s0,0,0,0c-.3,1.9-1.2,3.6-2.5,5-6.1,6.6-13.6,11.2-22.4,13.8-1.8.5-5.5,1.6-7.4-1.1-1.6-2.3.2-4.5,1.3-5.9.2-.3.4-.5.6-.8,3.9-5.4,8.6-9.6,14.3-12.5,4-2,7.6-2,10.7.3.9.7,1.6.8,2.6-.1,0-2.4-.9-4.6-2.7-6.2-2-1.8-4.9-2.6-7.8-2.1-6.7,1.2-11.7,5.4-15.3,8.9l-1.5,1.5c-4.7,4.7-9.6,9.6-15.1,13.7-2.8,2.1-5.9,4.4-9.8,5.3-2.9.6-5.1.3-6.3-1.1-1.2-1.4-1.4-3.5-.5-6.2.9-2.8,2.1-5.6,3.2-8.2.6-1.3,1.2-2.7,1.7-4,.9-2.2.7-2.7-.2-3.2-.7-.4-1.3-.6-2.7,1.5-6.6,9.7-16.4,15.2-25.1,19.2-.4.2-.9.5-1.4.7-2.6,1.4-6.6,3.5-9.6-.4-3.3-4.3.3-9.1,2.1-11.4,7.2-9.6,16.9-13.9,29-12.7h.3c1.6.2,1.6,0,1.8-.4.2-.6.2-1.2-1-2.2-1.7-1.3-3.8-2-6.5-1.9-11.5.1-21.1,4.4-28.6,12.6-5.7,6.3-12.7,11.5-21.5,16-5.4,2.7-11.5,3.7-19.8,3-1.1,0-4.4-.3-4.5-3.3,0-1.5.9-1.7,6.4-3.2.6-.2,1.1-.3,1.4-.4,9.6-2.8,16-7.1,20.1-13.6,2.1-3.3,2.3-6.4.5-9.2-1.5-2.3-3.8-3.2-8-2.9-7.3.5-13.6,4-20.4,11.3-7.8,8.3-15.8,14.2-24.5,17.9-11.3,4.8-20.7,1.3-25.9-9.7-1.3-2.9-2-4.3-1.4-5.8.6-1.4,2-2,4.8-3.1h.2c9.8-3.8,16.3-9.5,19.9-17.2,1.7-3.8,3-9.4-.7-14.8-3-4.3-7.9-3.9-12.6-3.5-1.8.1-3.6.6-5.4,1l-.8.2c-.9.2-2,.4-3-.3-.7-.5-1.2-1.2-1.4-2.4-.5-2.9-2.2-2.8-2.9-2.8-1,0-2.1.5-2.7,3.4-1.1,4.5-4,7.1-7.1,9.2-10.2,7.8-19.8,19.4-26.5,31.9-6.7,12.5-7.7,20.9-5.8,23.6,1.7,2.3,6.6,1,13.5-3.6,4.1-2.7,7.4-6.7,10.6-12.3,5.2-9.4,10.3-19.9,15.6-32.2,3.4-7.8,9.9-11.8,18.3-11.2,4.9.4,6.9,2.4,7.7,4,.8,1.6,1.1,4.4-1.7,8.4-4.3,6.1-10.2,10.5-18.1,13.5l-1.4.5c-2.5.9-5,1.9-7.3,3.1-1.3.7-2.1,1.7-2.1,2.6,0,.9.6,1.8,1.7,2.5,3.8,2.5,5.5,6.5,7.2,10.3,1.5,3.4,2.8,6.6,5.6,8.7,7.4,5.7,15,5.9,24.7.7,2.8-1.5,5.3-3.4,7.9-5.4,1.6-1.2,3.2-2.4,4.9-3.5l1.7-1.1.6,1.9c2.9,9.5,7.1,12.8,16.1,12.7,9.4-.2,17-2.8,23.1-8,1.1-.9,2.2-1.8,3.4-2.7.6-.5,1.2-.9,1.8-1.4l1.8-1.4.6,2.1c1.6,5.6,3.4,8.6,5.8,9.9,2.4,1.2,5.8,1,11-.8,4.2-1.4,8.4-3.6,12.8-6.8,1.3-1,2.9-1.9,4.5-1.5,1.6.4,2.5,2.1,3.2,3.4,2.9,6.4,9,8.5,16.2,5.4,2.4-1,4.5-2.6,6.6-4.2,1.2-.9,2.4-1.8,3.7-2.7l1.3-.9.8,1.3c5,8.2,8.9,9.5,17.4,5.6,2.6-1.2,5-2.8,7.5-4.6l.9-.6c.6-.4,1.2-.9,1.8-1.4,1.5-1.2,3.1-2.5,5.3-3.3l1.5-.5.4,1.5c0,.3.1.5.2.8.1.5.2.9.4,1.3,2.4,7,8.5,10.1,15.6,8.1,5.2-1.5,9.4-4.7,14.1-9,.6-.6,1.2-1.2,1.8-1.9,1.6-1.7,3.2-3.5,5.7-4.6l1.8-.8.3,2c.7,5.2,2.1,8.5,4.3,9.8,2.2,1.4,5.5,1.2,10.4-.5,5.1-1.8,10.2-4.6,16-9,.2-.1.3-.3.4-.4.5-.5,1.4-1.4,2.7-1.4ZM175.7,49.5c-9.3,0-16.9,3.9-22.7,11.6-2.4,3.2-3.6,5.7-2.1,7.8,1.3,1.7,2.8,1.1,5.8-.5.5-.3,1-.6,1.5-.8,8.3-3.9,17.6-9,23.8-18-.9.2-1.8.1-2.5,0h-.3c-1.2-.2-2.4-.2-3.6-.2ZM233.8,52.8c-1.2,0-2.6.4-4.1,1.1-5.2,2.6-9.6,6.5-13.2,11.5-.2.3-.5.6-.7.9-1,1.2-1.4,1.9-1.2,2.3.6.8,2.4.5,4.1,0,8.3-2.4,15.4-6.8,21.1-12.9.2-.2.4-.4.5-.6h0c-1.2,0-2.2-.5-3.1-1.1-1.1-.8-2.2-1.2-3.5-1.2ZM60.1,23.7c-6.4,0-11.2,3.2-13.9,9.4-2.2,5.1-4.4,9.9-6.5,14.4,2.4-1.3,4.9-2.2,7.4-3.2l1.4-.5c7.3-2.8,12.7-6.8,16.7-12.4,1.6-2.2,2.1-4.1,1.5-5.4-.6-1.3-2.4-2.1-5.2-2.3-.5,0-1,0-1.4,0ZM290.6,101.3c-.9,0-1.8-.4-2.7-1.5-1.8-2.3.1-4.3,1-5.3.1-.1.2-.3.3-.4,3.8-4.2,8.7-6.8,13.4-9.4.5-.3,1-.6,1.6-.8l.8-1.5,2.7,3-1.3.7c-3.4,6.1-7.4,10.5-12.3,13.6l-.3.2c-.7.4-1.9,1.2-3.3,1.2ZM301.2,89.1c-3.6,2-6.9,4.1-9.6,7.1-.1.1-.3.3-.4.4-.3.3-.9,1-.9,1.2,0,0,0,0,0,.2.3.4.4.5,1.9-.5l.4-.2c3.2-2,6-4.7,8.5-8.2ZM10.5,74.8c-.7,0-1.5-.2-2.3-.6-3.6-2.1-1.7-6-.7-8.1.2-.4.4-.8.5-1.1,4.4-10.7,11.4-20.1,21.2-28.8.8-.7,1.7-1.3,2.6-1.9l.4-.2c.5-.3,1-.3,1.4-.4.2,0,.4,0,.7,0v1.2c.1,0,1.6.3,1.6.3v1.4h-.5c-.8,1.8-1.5,3.7-2.3,5.5-4.2,10-8.6,20.3-16.1,28.7-1.3,1.5-3.8,4.3-6.6,4.3ZM31.5,38.1c-.1,0-.2.2-.3.3-9.5,8.4-16.2,17.4-20.4,27.7-.2.4-.4.8-.6,1.3-1.3,2.8-1.4,3.7-.4,4.3,1.4.8,3.4-1.1,5.1-3.1,7.2-8.1,11.3-17.7,15.6-27.9.4-.9.7-1.7,1.1-2.6ZM98.1,63l3-3.1c5.9-6.2,12.5-12.4,22.2-13.6l3-.4-1.5,2.6c-4.5,8-11.7,12.4-22.4,13.9l-4.3.6ZM120.2,49.9c-5,1.4-9.1,4.3-13.6,8.6,6-1.5,10.3-4.3,13.6-8.6ZM257.2,46.1h-5.4l3.4-2.5c3.9-7.4,8.5-15,15.2-21,.2-.1.3-.3.5-.5,1-1,3.2-3.1,5.5-1.3.9.7,1.2,1.5,1.2,2.1.2,1.5-.8,2.7-1.6,3.5-.2.2-.3.4-.4.5-5.5,7.5-11.4,13.6-18,18.6l-.3.5ZM274.3,23.1c-.3,0-1.1.8-1.4,1.1-.2.2-.4.4-.6.6-4.3,3.8-7.7,8.3-10.8,13.5,4.1-3.8,8-8.1,11.6-13.1.2-.2.3-.4.5-.7.3-.3.8-1,.9-1.3,0,0,0,0,0,0,0,0,0,0,0,0Z"/>
      </g>
      <g>
        <path class="cls-2" d="M81.9,88.1c1.3-.2,2.7.1,4,1.1l.3.2h0c1.4,1.1,2,2.4,2,3.8,0,1.3-.7,2.6-1.5,3.8h0c-.2.4-.6.7-.8,1-.3.3-.6.6-.8.9-.2.3-.3.5-.3.7,0,.2,0,.3.2.6h0c.2.3.6.5,1.4.4.4,0,.8,0,1.2-.1.4,0,.9-.1,1.4,0,.7,0,1.5,0,2.4,0,.8,0,1.8,0,2.6,0,.9.2,1.7.5,2.4,1.2.7.7,1.1,1.8,1.3,3.1h0c.2,1.9-.5,3.4-2,4.5-1.5,1-3.6,1.6-6.3,1.8h0c-.8,0-1.6.1-2.5.2-.8,0-1.7.2-2.5.3-1.7.1-3.5.2-5.3-.3h0c-.7-.2-1.3-.1-1.8,0-.5.2-1,.7-1.5,1.3h0c-5.5,8.2-10.4,16.5-12.5,26.1-.4,1.8-.5,3.3-.4,4.4.1,1.1.5,1.9,1,2.4.5.5,1.3.8,2.4.8,1.1,0,2.6-.2,4.4-.8,7-2.1,12.9-6.4,18.2-11.4,4.5-4.2,8.7-8.6,13.1-13,2.2-2.2,4.6-3.9,7.6-4.9.7-.2,1.6-.5,2.4-.4.9,0,1.8.5,2.4,1.5v.2c.6.8.5,1.7.3,2.4-.3.7-.8,1.4-1.2,1.9h0c-1.2,1.4-2.4,2.8-3.7,4.1-1.2,1.4-2.4,2.7-3.6,4.1h0c-2.2,2.8-3.7,6-4.4,9.5h0c-.3,1.6,0,2.8.6,3.6.6.8,1.8,1.4,3.4,1.7h0c.8.1,1.8,0,3-.3,1.2-.3,2.5-.8,3.7-1.5,1.2-.6,2.4-1.4,3.3-2.2,1-.8,1.6-1.6,2-2.2v-.2c.2-.2.2-.4.2-.5,0-.2,0-.3-.1-.5-.1-.2-.3-.4-.5-.6-.2-.2-.4-.5-.6-.8h0c-2.3-3-3.5-5.8-3.6-8.7,0-2.9,1.2-5.7,3.5-8.5l.3-.4c3.3-3.8,8.4-5.4,12.3-3.6,4.2,1.9,6.1,7,4.7,12.2h0c-.5,1.9-1.3,3.9-2.1,6.1,3.4-.5,6.1-1.7,8.6-3.2h0c2.9-1.8,5.8-3.5,8.7-5.3l2.9-1.8c.7-.4,1.6-1,2.5-1.3.5-.1,1-.1,1.6,0,.6.2,1.1.5,1.6,1h0c1,1.1,1.3,2.3,1,3.4-.2,1.1-.9,2-1.6,2.7h0c-5.4,5.5-11.1,10.7-19.2,12.6h0c-1.6.4-3.1.6-4.5.7-1.4.1-2.7.2-3.9.4-2.3.4-4.4,1.2-6.7,3.4l-.5.5c-3.9,4.1-9.1,6.5-14.5,8h0c-5.4,1.5-9.4,1.7-12.4,0-2.8-1.7-4.5-4.9-5.7-9.7-3.3,2.3-6.6,4.7-10,6.8-4.7,2.9-9.7,5.5-15.8,4.4h0c-4.2-.7-7.3-2.4-9.1-5-1.8-2.6-2.3-6.1-1.5-10.2h0c1.8-9.1,5.9-17.3,9.4-25.6.7-1.6,1.1-2.7,1.4-3.5.3-.9.2-1.2.1-1.3,0-.1-.3-.3-1.2-.5-.9-.2-2.1-.3-3.9-.4-.7,0-1.4,0-2.1,0h0c-1,0-1.9-.2-2.6-.7-.7-.5-1.2-1.3-1.3-2.4h0c-.2-1.1,0-2.1.6-2.8.6-.7,1.4-1.2,2.4-1.5h0c2.4-.7,4.8-.9,7.2-.9h0c2.2,0,4.2-.3,5.8-1,1.6-.7,3.1-2,4.1-4.1,1.2-2.3,3.1-4.2,4.9-5.9,1.1-1.1,2.4-1.9,3.8-2.1Z"/>
        <path class="cls-2" d="M66.7,157c-1,0-1.9,0-2.9-.3-4.5-.8-7.7-2.6-9.6-5.3-1.9-2.8-2.5-6.4-1.6-10.8,1.5-7.3,4.4-14.1,7.3-20.7.7-1.7,1.5-3.4,2.2-5v-.2c.7-1.4,1.1-2.5,1.3-3.2,0-.3.1-.5.1-.6-.1,0-.3-.1-.7-.2-.8-.2-2-.2-3.7-.4-.7,0-1.4,0-2.1,0-1.2,0-2.3-.2-3.1-.8-.9-.6-1.4-1.6-1.6-2.8-.2-1.3,0-2.5.8-3.4.6-.8,1.5-1.3,2.7-1.7h0c2.7-.9,5.4-1,7.4-1,2.3,0,4.1-.3,5.5-.9,1.6-.7,2.9-2,3.8-3.7,1.2-2.3,3.1-4.2,4.8-5.9l.2-.2c1.3-1.3,2.8-2.1,4.3-2.3h0c1.6-.2,3.1.2,4.6,1.2l.3.2c1.6,1.2,2.3,2.7,2.3,4.4,0,1.6-.9,3.2-1.6,4.2-.3.4-.6.8-.9,1.1-.3.3-.5.6-.7.8-.2.3-.2.4-.2.4,0,.1.3.2.8.1.3,0,.6,0,.9,0h.3c.5,0,1-.1,1.5-.1.6,0,1.2,0,1.8,0h.5c.8,0,1.8,0,2.8,0,1.2.2,2.1.7,2.8,1.5.8.9,1.3,2,1.5,3.5.3,2.1-.6,3.9-2.3,5.2-1.6,1.1-3.8,1.8-6.7,1.9-.8,0-1.6.1-2.4.2h-.3c-.7.1-1.5.2-2.2.3-1.5.1-3.5.2-5.6-.3-.5-.1-1-.1-1.4,0-.4.2-.8.5-1.2,1.1-6,9-10.4,16.8-12.4,25.8-.4,1.7-.5,3.1-.4,4.2,0,.9.3,1.5.7,1.9.4.4,1,.6,1.9.6,1.1,0,2.5-.2,4.2-.7,6-1.8,11.7-5.4,17.9-11.2,3.1-3,6.2-6.1,9.3-9.1,1.3-1.3,2.6-2.6,3.8-3.8,2.5-2.5,5.1-4.2,7.9-5.1.7-.2,1.7-.5,2.8-.4,1.3.1,2.3.8,3,1.9v.2c.5.7.6,1.4.6,2.1.2-.2.3-.4.5-.7l.3-.4c3.5-4.1,9.1-5.7,13.2-3.8,4.5,2.1,6.6,7.4,5.2,13-.4,1.6-1,3.1-1.6,4.8h0c2.5-.4,4.7-1.3,7-2.7,2.2-1.3,4.3-2.6,6.5-4l5.4-3.3c.7-.4,1.5-.9,2.5-1.2.7-.2,1.3-.2,2,0,.7.2,1.3.6,1.9,1.2,1.1,1.2,1.6,2.6,1.2,4.1-.2,1.1-.8,2.1-1.8,3.1-5.3,5.4-11.2,10.9-19.5,12.8-1.7.4-3.2.6-4.6.7h-.9c-1,.2-2,.3-3,.4-1.9.3-4,.9-6.3,3.2l-.4.4c-3.6,3.7-8.4,6.4-14.8,8.2-5.9,1.7-10,1.7-13-.1-2.6-1.6-4.5-4.5-5.8-9.1-.5.3-1,.7-1.5,1-2.5,1.8-5.1,3.6-7.7,5.2-3.8,2.4-8.2,4.8-13.4,4.8ZM58.2,108.7c.3,0,.6,0,.9,0,1.8.1,3,.2,3.9.4,1,.2,1.5.4,1.7.8.2.4.2,1,0,1.9-.2.8-.7,1.9-1.3,3.4v.2c-.8,1.7-1.5,3.4-2.2,5.1-2.8,6.5-5.7,13.2-7.2,20.4-.8,4-.3,7.2,1.3,9.7,1.7,2.4,4.6,4,8.7,4.7,6,1,11.1-1.7,15.3-4.3,2.6-1.6,5.1-3.4,7.6-5.1.8-.6,1.6-1.1,2.4-1.7l.9-.6.3,1.1c1.2,4.9,2.9,7.8,5.4,9.2,2.7,1.6,6.3,1.6,11.8,0,6.1-1.7,10.7-4.3,14.1-7.8l.5-.5c2.6-2.5,5.1-3.2,7.1-3.6,1-.2,2-.3,3.1-.4h.9c1.4-.2,2.8-.4,4.4-.8,8-1.9,13.7-7.2,18.8-12.4.5-.5,1.2-1.4,1.4-2.4.2-1,0-1.9-.9-2.7-.4-.4-.8-.7-1.2-.8-.4-.1-.8-.1-1.2,0-.7.2-1.4.6-2,1l-5.4,3.3c-2.2,1.3-4.3,2.7-6.5,4-2.9,1.8-5.7,2.8-8.9,3.3l-1.3.2.9-2.6c.6-1.7,1.2-3.2,1.6-4.6,1.2-4.9-.5-9.6-4.3-11.3-3.5-1.6-8.3-.2-11.4,3.4l-.3.4c-2.2,2.8-3.3,5.4-3.3,8,0,2.6,1.1,5.3,3.4,8.2.1.2.3.4.5.5l.2.2c.2.2.4.5.5.7.2.3.2.6.2.9,0,.2,0,.5-.2.8v.3c-.5.8-1.3,1.6-2.3,2.5-1,.8-2.2,1.6-3.5,2.2-1.3.7-2.6,1.2-3.9,1.5-1.3.3-2.5.4-3.3.3-1.8-.3-3-1-3.8-2-.8-1.1-1.1-2.5-.7-4.2.7-3.7,2.3-7,4.5-9.9,1.2-1.5,2.4-2.8,3.6-4.1l.6-.6c1-1.1,2.1-2.3,3.1-3.5.4-.4.8-1,1-1.7.2-.6.2-1.2-.1-1.8h0c-.4-.8-1-1.2-1.8-1.3-.8,0-1.6.2-2.1.3-2.6.8-5,2.4-7.3,4.7-1.3,1.3-2.6,2.6-3.8,3.8-3,3-6.1,6.2-9.3,9.1-6.3,6-12.2,9.7-18.5,11.6-1.8.6-3.4.8-4.7.8-1.2,0-2.2-.4-2.9-1-.7-.6-1.1-1.6-1.2-2.8-.1-1.2,0-2.8.4-4.7,2.1-9.3,6.5-17.2,12.6-26.3.5-.8,1.1-1.3,1.8-1.6.7-.3,1.5-.3,2.3-.1,1.8.5,3.7.4,5.1.3.7,0,1.5-.1,2.2-.2h.3c.8-.1,1.7-.2,2.5-.3,2.6-.1,4.6-.7,5.9-1.6,1.3-.9,1.9-2.2,1.7-3.8-.2-1.2-.5-2.1-1.1-2.7-.5-.5-1.1-.9-2-1-.8-.1-1.7-.1-2.4,0h-.5c-.7,0-1.4,0-2,0-.4,0-.8,0-1.3,0h-.3c-.3,0-.7.1-1,.1-.7,0-1.6,0-2.1-.7-.3-.4-.4-.7-.3-1.1,0-.3.2-.7.5-1,.2-.3.5-.6.8-1,.3-.3.6-.7.8-1,.9-1.4,1.3-2.5,1.4-3.4,0-1.2-.5-2.2-1.7-3.1l-.2-.2c-1.1-.8-2.3-1.1-3.5-.9-1.2.2-2.3.8-3.4,1.9l-.2.2c-1.6,1.6-3.5,3.5-4.6,5.6-1.1,2.1-2.6,3.5-4.5,4.4-1.6.7-3.6,1.1-6.2,1.1-2.8,0-4.9.3-6.9.9h0c-1,.3-1.6.7-2,1.3-.5.6-.6,1.3-.5,2.3.1.8.5,1.5,1,1.9.5.4,1.2.6,2.1.5.4,0,.9,0,1.3,0ZM113.1,123.2c-.8.9-1.6,1.8-2.4,2.6l-.6.6c-1.2,1.3-2.4,2.6-3.5,4.1-2.1,2.6-3.5,5.7-4.2,9.2-.3,1.3-.1,2.3.4,3,.5.7,1.5,1.2,2.9,1.5.6.1,1.6,0,2.6-.2,1.1-.3,2.3-.8,3.6-1.4,1.2-.6,2.3-1.3,3.2-2.1.9-.7,1.5-1.4,1.8-2v-.2c.1,0,.1-.1.1-.2,0,0,0,0,0-.2,0-.1-.2-.3-.4-.5l-.2-.2c-.2-.2-.4-.4-.5-.6-2.5-3.2-3.7-6.2-3.7-9.1,0-1.5.3-2.9.8-4.3ZM63.6,110.8h0Z"/>
      </g>
    </g>
  </g>
</svg>