<?xml version="1.0" encoding="UTF-8"?>
<svg xmlns="http://www.w3.org/2000/svg" version="1.1" viewBox="0 0 202 260">
  <defs>
    <style>
      .cls-1 {
        fill: #fff;
      }
    </style>
  </defs>
  <!-- Generator: Adobe Illustrator 28.7.5, SVG Export Plug-In . SVG Version: 1.2.0 Build 176)  -->
  <g>
    <g id="Layer_1">
      <path class="cls-1" d="M172.2,116.8c1.5-1.1,2.8-2.1,4.2-2.9,1.8-1,3.7-1.8,5.7-2.1,2.6-.4,4.8.8,5.9,3.2,1.3,2.9,1,5.9-.1,8.8-1.8,4.6-5.1,7.8-9.4,10.1-.3.2-.7.3-1,.5-.8.5-.9,1-.1,1.6,1.1.9,2.5,1.3,3.9,1.2,2.5,0,4.4-1.3,6.2-2.8,1.6-1.3,2.8-3,4.3-4.4.3-.3.6-.5,1-.7,1.2-.6,2.3-.2,2.6,1.2.3,1.3.3,2.6,0,3.9-.6,3.7-2,7-4.1,10-1.7,2.5-3.7,4.6-6.4,6-3,1.6-6,2.2-9.2.7-2-.9-3.3-2.5-4.4-4.3-1.5-2.4-2.4-5.1-3.6-7.7-.2-.5-.5-1.1-.7-1.6-.2-.4-.4-.8-.8-.8-.5,0-.6.5-.7.9-.7,1.7-1.1,3.4-1.6,5.2-.4,1.5-.8,3-1.3,4.5-.3,1.1-.9,2-1.6,2.9-1.9,1.9-4.5,1.5-5.6-1-.5-1.2-.6-2.5-.5-3.7,0-.4,0-.8-.1-1.4-.4.3-.7.6-1.1.9-4.1,2.9-8.6,5.2-13.5,6.4-4.4,1.1-8.6.6-12.5-1.8-1.2-.8-2.3-1.8-3.2-3-.5-.6-.8-.5-1.2,0-1.6,1.8-3.4,3.4-5.7,4.4-3,1.4-6.1,1.6-9.1.1-2.3-1.1-3.6-3.1-3.9-5.6-.2-2.4-.5-4.8-.1-7.3.1-.8.3-1.5.5-2.3,0-.4.1-.8.2-1.2,0-.4,0-.8-.5-1-.4-.2-.8,0-1,.3-.4.4-.8.8-1.1,1.3-2.5,3.2-4.9,6.6-7.3,9.9-1.4,1.9-2.8,3.6-4.7,5-.6.4-1.2.8-1.8,1.1-3.3,1.5-6-.4-5.8-4,0-.2.2-.5,0-.8-.4.1-.6.5-.9.8-2.4,2.6-5.2,4.4-8.7,4.8-3.7.4-6.9-.7-8.9-4.1-1.3-2.2-1.5-4.7-1.1-7.1.5-3.8,1.8-7.5,3.2-11.1,1.7-4.4,3.6-8.8,6.1-12.9.8-1.4,1.8-2.7,3.2-3.6,2.1-1.3,4-.5,4.5,1.9.4,2.1,0,4.1-.6,6.1-.9,3-2.4,5.7-3.6,8.5-.6,1.4-1.2,2.7-1.4,4.2-.2,1.5.3,2.2,1.9,2.4,1.1.2,2.2,0,3.2-.5,2.9-1.2,5.2-3.3,7.1-5.6,1.1-1.3,1.4-3.1,2.1-4.7,1-2.4,1.5-4.8,2.6-7.1.7-1.6,1.7-3,3.3-3.8,1.9-1,3.6-.2,4.1,1.9.4,1.6.2,3.2-.1,4.8-.2,1.1-.5,2.1-.7,3.2,0,.3-.2.7.2,1,.4.3.7,0,1-.3.8-.8,1.4-1.7,2-2.6,1.9-2.6,3.9-5.2,6.4-7.3,1.4-1.2,2.9-2.3,4.7-2.8,3.8-1.1,6.7.8,7,4.8.2,3.1-.7,5.9-2,8.6-.9,1.7-1.9,3.4-2.5,5.3-.2.6-.3,1.1-.4,1.7-.1,1.5.6,2.3,2,2.3,1.6,0,3-.4,4.4-1.1,1.3-.6,2.4-1.5,3.7-2.2.4-.2.7-.4,1.1-.6,1.4-.6,2.4-.2,3.2,1,.3.6.6,1.1.9,1.7,1.2,2.2,3.1,3.5,5.5,4.1,1.5.3,3,.5,4.6.1.5-.1.9-.3,1.2-.6.5-.5.6-1,.2-1.6-.4-.6-1.1-1-1.7-1.3-1.6-.6-3.3-1.1-4.8-1.8-1.9-.9-3.6-2-4.5-4-1.2-2.4-.9-4.8,0-7.1,2.6-6.8,10-11.6,17.2-11.1,3,.2,5.5,1.5,6.8,4.4,1.3,2.8,1.1,5.5-.8,7.9-1.8,2.4-4.5,2.8-6.9,1-1.2-.9-2.3-1.8-3.9-1.9-1,0-1.9.2-2.7.8-.8.7-.8,1.6,0,2.3.5.4,1.1.6,1.7.7,1.5.3,2.9.6,4.3,1.1,3.2,1.1,5.3,3.2,5.6,6.8,0,.6.3.6.7.4,2.4-1.4,4.5-3.1,6.3-5.1.3-.4.5-.8.7-1.3,1.7-6.5,4-12.9,6.6-19.2,1.3-3.2,2.7-6.3,4.6-9.1,1.2-1.7,2.4-3.2,4.2-4.2,2.3-1.2,4.1-.3,4.3,2.3.2,2.3-.4,4.5-1.1,6.6-1.3,4-3.4,7.6-5.1,11.5-.2.4-.4.7-.5,1.4h0ZM170.8,131.8c2.3.3,6.1-1.9,6.9-4.1.4-1.1-.2-1.9-1.4-1.9-.8,0-1.5.3-2.2.7-1.6.9-3.1,2.1-4,3.7-.6,1-.3,1.5.8,1.6Z"/>
      <path class="cls-1" d="M38.5,107.8c-.2,1.4-.6,2.9-1,4.4-.1.4-.2.9-.2,1.4,0,.5,0,.9.5,1.2.5.2.9,0,1.2-.4.9-.8,1.6-1.9,2.2-2.9,2.8-4.5,6.2-8.5,10.5-11.8,2-1.5,4.2-2.4,6.8-2,1.8.3,3,1.4,3.6,3.1.7,2,.6,4,.4,6-.3,4.9-2.2,9.4-4.5,13.7-1.8,3.5-3.4,7.1-3.9,11-.2,1.4-.4,2.8,0,4.3.3,1.7,1.2,2.4,2.9,2.2.7,0,1.4-.3,2.1-.4,2.1-.3,3.1.4,3,2.5,0,3.5-.5,6.9-2.7,9.8-2.1,2.7-4.8,4-8.3,3.4-3.8-.7-6.2-3-7.2-6.8-.6-2.5-.4-5-.2-7.6.4-5,2-9.6,3.9-14.2.4-.9.8-1.9.9-2.9,0-.6.2-1.2-.4-1.5-.6-.4-1.2-.2-1.7.1-1.6.9-2.9,2.2-4,3.7-2.3,3-4.1,6.4-6.1,9.6-1.2,1.9-2.2,4-3.3,6-1.1,2-2.4,3.8-4.1,5.3-.6.5-1.2,1-2,1.2-1.7.5-2.9-.2-3.4-1.9-.5-1.5-.4-3.1-.3-4.7.3-3.5,1.2-6.8,2-10.1.8-2.9.8-5.9.6-8.9-.2-2.3-1.9-2.5-3.3-2.3-1.9.4-3,1.6-3.7,3.3-1,2.3-1.4,4.7-1.7,7.2-.5,4.1-.6,8.2-1.9,12.1-.8,2.4-1.7,4.8-3.1,7-1,1.5-2.1,2.8-3.8,3.7-2.8,1.4-5.7.2-6.6-2.9-.5-1.7-.5-3.5-.4-5.2.3-3.7,1.3-7.3,2.3-10.8,1.2-4.5,2.6-8.9,4.6-13,3.7-7.8,9-14.5,16.1-19.6,1.9-1.4,3.9-2.3,6.2-3,1.3-.4,2.7-.5,4-.3,2.3.4,3.5,1.9,4,4.1.5,2.3.3,4.6-.2,6.9h0Z"/>
      <path class="cls-1" d="M78.6,101c.6-2.6,1.7-5,4-6.6,2.9-2,6.2-.6,6.5,3,.4,3.9-1.1,7.1-4.3,9.3-2.8,1.9-5.6.7-6.3-2.6-.2-1-.2-2,0-3.1Z"/>
      <path class="cls-1" d="M156,30.9c.1,0,.2,0,.3.1,1.1.7,2.3.9,3.6.9,2.7,0,5.4,0,8.1-.1.6,0,1.1-.2,1.6-.4.9-.4,1-1.5.3-2.2-.4-.4-1-.6-1.5-.8-1.9-.7-3.9-1.2-5.8-2-3.1-1.2-5.1-3.5-6.1-6.7-.8-2.5-.9-5-.8-7.6,0-2.1.4-4.1,1.3-6,1.7-3.6,4.5-5.7,8.4-5.9,4.5-.2,9.1-.2,13.6-.3.4,0,.5.1.5.5.1,6.3.3,12.6.4,18.9,0,.1,0,.2,0,.4-.2,0-.3-.1-.4-.2-1.1-.5-2.2-.8-3.5-.8-2.3,0-4.6,0-7,.2-.4,0-.7,0-1.1.2-.7.2-1.2.6-1.3,1.4,0,.7.2,1.3,1,1.7.6.3,1.2.5,1.9.7,1.7.6,3.4,1.2,5.1,1.9,2.8,1.2,4.5,3.5,5.3,6.3,1.2,4.3,1.2,8.7-.3,12.9-1.2,3.3-3.6,5.4-6.9,6.4-1.1.3-2.3.5-3.4.5-4.1.1-8.2.2-12.3.3-.4,0-.6,0-.6-.5-.1-6.5-.3-13.1-.4-19.6,0,0,0-.1,0-.3h0Z"/>
      <path class="cls-1" d="M38,2.8l.4,19c-.3,0-.5,0-.8,0-4.1,0-8.2.2-12.3.3-.5,0-1.1,0-1.6.2-1.1.3-1.7,1-1.9,2.2,0,.4,0,.8,0,1.3,0,1.9,0,3.8.1,5.7,0,0,0,.1,0,.2,0,2.3,1.1,3.3,3.4,3.3,4.3,0,8.5-.2,12.8-.3.2,0,.4,0,.6,0,0,.2,0,.3,0,.5.1,6,.3,12,.4,18.1,0,.7,0,.7-.7.7-4.1,0-8.3.2-12.4.3-2.5,0-4.9-.4-7-2-2.1-1.6-3.3-3.8-3.9-6.3-.6-2.2-.7-4.4-.7-6.7-.2-7.1-.3-14.2-.5-21.4,0-2.6.1-5.2.9-7.7.9-2.8,2.5-5.1,5.4-6.3,1-.4,2.2-.7,3.3-.8,4.8-.2,9.6-.2,14.3-.3,0,0,.2,0,.3,0h0Z"/>
      <path class="cls-1" d="M117.8,26.3c.3.2.5.3.6.4,2.8,1.5,4.4,3.9,4.6,7.1.2,3.8.2,7.6.3,11.4,0,2.1,0,4.2.1,6.3,0,.5-.1.6-.6.6-2.2,0-4.3,0-6.5.1-.4,0-.6-.1-.6-.6-.1-6.3-.3-12.6-.4-18.8,0-.5,0-1,0-1.6,0-1-.7-1.7-1.7-1.9-.6-.1-1.2-.2-1.8-.2-2.2,0-4.3,0-6.5.1-.5,0-.6.2-.6.7.2,7.3.3,14.6.5,21.9,0,.5-.1.6-.6.6-2.2,0-4.3,0-6.5.1-.5,0-.6-.1-.6-.6-.1-7.4-.3-14.8-.5-22.2-.2-9.2-.4-18.4-.6-27.7,0-.2,0-.4,0-.6.9,0,1.8,0,2.7,0,4.1,0,8.2-.1,12.2-.3,4.6-.2,8,2.3,9.8,6.3.8,1.9,1.3,3.8,1.4,5.9.1,2.4.3,4.8-.2,7.3-.4,2.2-1.4,4-3.4,5.2-.4.2-.8.4-1.3.7h0ZM109.1,24.2s0,0,0-.1c1.3,0,2.6,0,3.8,0,.3,0,.7,0,1-.2.8-.3,1.3-1.1,1.3-1.9,0-.8-.5-1.5-1.4-1.7-.4-.1-.8-.2-1.1-.2-2.6,0-5.2,0-7.8.1-.3,0-.5.1-.5.5,0,1.1,0,2.2,0,3.3,0,.4.1.5.5.4,1.3,0,2.7,0,4,0h0Z"/>
      <path class="cls-1" d="M152.4,20c.1,5.8.3,11.5.4,17.3,0,2.6-.2,5.1-1.2,7.5-1.4,3.6-4,5.8-7.8,6.5-2.6.5-5.2.5-7.7,0-4-.8-6.5-3.3-7.7-7.2-.8-2.5-1.1-5.1-1.2-7.7-.2-10.3-.4-20.6-.7-30.8,0-1.4,0-2.8-.1-4.1,0-.4.1-.6.6-.6,2.1,0,4.1,0,6.2-.1.5,0,.6.1.6.6.1,6.7.3,13.4.4,20,0,3,.1,6,.2,8.9,0,.4,0,.8.1,1.2.3,1.3,1.2,2.1,2.5,2.1,2,0,4,0,6-.1,1.3,0,2.1-.9,2.3-2.3,0-.7,0-1.3,0-2-.2-9.4-.4-18.7-.6-28.1,0-.4.1-.5.5-.5,2.1,0,4.2,0,6.4-.1.4,0,.5.1.5.5.1,6.4.3,12.8.4,19.1h0,0Z"/>
      <path class="cls-1" d="M68.7,27.6c-.2-8.2-.3-16.5-.5-24.7,0-.7,0-.7.7-.8,4.5,0,8.9-.2,13.4-.3,2,0,3.8.3,5.5,1.4,1.6,1,2.7,2.4,3.6,4,.9,1.5,1.4,3.2,1.7,4.9.5,3.4.6,6.9.2,10.4-.2,1.2-.5,2.3-1,3.4-.9,2.1-2.7,3.3-4.9,3.5-2.9.3-5.8.3-8.7.4-.5,0-.9,0-1.4,0-.5,0-.6.1-.6.6,0,2.7.1,5.5.2,8.2,0,4.6.2,9.2.3,13.8,0,.4-.1.6-.6.6-2.1,0-4.2,0-6.4.1-.9,0-.9,0-.9-.9-.2-8.2-.3-16.5-.5-24.7,0,0,0,0,0,0h0ZM80.8,24.7s0,0,0,0c1,0,2.1,0,3.1,0,.4,0,.8,0,1.3,0,.9-.2,1.5-1,1.5-1.9,0-.9-.6-1.6-1.5-1.8-.3,0-.6,0-1,0-2.5,0-4.9,0-7.4.1-.4,0-.5.1-.5.5,0,1,0,1.9,0,2.9,0,.4,0,.5.5.5,1.3,0,2.6,0,3.9,0h0Z"/>
      <path class="cls-1" d="M40,2.8c.2,0,.4,0,.5,0,2.5,0,5.1-.1,7.6-.2.3,0,.5,0,.6.4,1.3,3.4,2.5,6.8,3.8,10.2.3.7.5,1.4.7,2,0,.2.2.4.3.7.1-.3.2-.5.3-.8,1.3-4.1,2.6-8.3,3.9-12.4,0-.1.3-.3.4-.3,2.6,0,5.2-.1,7.8-.2,0,0,0,0,.2,0,0,.3-.2.6-.3.9-1.6,4.8-3.3,9.7-4.9,14.5-1.1,3.2-2.1,6.3-3.1,9.5-.1.3-.2.7-.1,1,.2,8,.3,16,.5,24q0,.8-.8.8c-2.1,0-4.2,0-6.3.1-.5,0-.7-.1-.7-.6-.1-6.7-.3-13.5-.4-20.2,0-.9,0-1.9,0-2.8,0-1.2-.2-2.2-.7-3.3-3-7.5-6-15-9-22.5-.1-.3-.2-.6-.3-.9h0Z"/>
      <path class="cls-1" d="M154.2,204.8c2-.3,3.8,1.3,4,3.7h0c.1,2.2.2,4.4.2,6.6.1,5,.3,10,.4,15,0,1.1,0,2.3,0,3.4,0,1.1,0,2.3,0,3.4,0,.2,0,.4,0,.6,0,0,0,.1,0,.2,0,0,0,0,.1,0,0,0,0,0,0,0,0,0,0,0,0-.1,0,0,0-.2,0-.3,0-.1,0-.2,0-.3h0c.7-4.4,1.4-8.9,2.2-13.3v-.4c.3-1,.7-1.8,1.2-2.4.6-.7,1.3-1.1,2.3-1.2h.2c2.1-.3,3.9,1.4,4.3,3.9v.3s0,0,0,0c.5,4.6.9,9.2,1.3,13.7v.3c0,0,0,.2,0,.2h0c0,0,0,.1,0,.1,0,0,0,0,0,0,0,0,0,0,0,0,0,0,0,0,0-.1,0-.3.1-.6.2-1,.6-6.2,1.1-12.3,1.7-18.5.3-3.1.5-6.2.8-9.3.2-2,1.3-3.3,2.9-3.6h0c1.6-.3,3.1.5,3.9,2.1v.3c.1,0,.1,0,.1,0,.4,1,.5,1.7.4,3.7v.5s0,0,0,0c-.2,2.7-.5,5.9-.8,9-.3,3.1-.6,6.2-.9,9.4-.6,6.4-1.4,12.9-2.4,19.2h0c-.3,1.6-.5,3.1-.9,4.7h0c-.4,1.8-1.2,3.3-2.6,4.3h0c-1.1.8-2.6.8-3.7.3-1.2-.6-2.1-1.8-2.4-3.6l-.4-3.2c-.3-2.1-.5-4.3-.8-6.4l-.4-3.2c0-.8-.2-1.6-.2-2.4,0-.8-.2-1.6-.2-2.4,0-.2,0-.3,0-.5,0-.1,0-.2,0-.2,0,0,0,0,0,0h0s0,0,0,0c0,0,0,.1,0,.2h0c0,.4-.1.7-.2,1.1l-.2,1.1c-.8,5.1-1.8,10.2-2.8,15.3-.2,1.1-.5,2-1.1,2.6-.5.7-1.3,1.2-2.2,1.4h0c-2.4.6-4.6-1.2-5.3-4.2-.4-1.8-.6-3.8-.8-5.6h0c-.6-5-.8-10-1-15h0c-.2-6.4-.5-12.8-.7-19.2v-1.3c0-1.3-.1-2.7,0-4h0c0-2.5,1.4-4.3,3.5-4.7Z"/>
      <path class="cls-1" d="M21,200.5c1,0,2.1.2,3.1,1h0c1.1.9,1.8,2.1,2.1,3.7l.7,4.5c.5,3,1,6,1.4,9l.7,4.5v.5c.1.2.1.3.2.5v.2c0,0,0,0,0,.1,0,0,0,0,.1,0,0,0,0,0,0,0,0,0,0-.2.1-.3,0-.2.1-.4.2-.6h0c1.3-5.9,2.7-11.8,4-17.7.3-1.6,1-2.8,1.9-3.6.9-.8,2-1.2,3.3-1.2,2.2.1,3.8,2.1,3.7,4.8,0,3.8-.2,7.6-.4,11.4h0c-.1,2.5-.2,5.1-.2,7.6v4c-.1,0-.2,0-.2,0-.2,7.4-.5,14.8-.7,22.2v.3c-.2,2.8-2.5,4.4-4.5,3.7-1.4-.5-2.3-1.8-2.3-3.4v-.3c0-2.6.2-5.3.2-7.9l.2-6.5c0-1.6,0-3.2.1-4.9v-1.6c0-1.3,0-2.6.1-3.9h0c0,0,0-.2,0-.2,0,0,0-.1,0-.2,0,0,0,0,0,0,0,0,0,0,0,0h0s0,0,0,0c0,0,0,0,0,0,0,.1,0,.2-.1.4h0c-.5,2-1,4-1.4,6l-.5,2c-.3,1.3-.6,2.7-1.1,4-.4.9-.9,1.5-1.7,1.9h0c-.8.3-1.5.3-2.2,0-.6-.3-1.1-.8-1.4-1.5v-.3c-.6-1.3-.9-2.7-1.1-4l-.4-2c-.1-.7-.2-1.3-.3-2l-.7-3.9c0-.1,0-.3,0-.4,0-.1,0-.3,0-.4,0-.1,0-.2,0-.2,0,0,0,0-.1,0h0c0,0,0,0-.1,0,0,0,0,.1,0,.3,0,.1,0,.3,0,.4,0,.1,0,.3,0,.4l-.7,24c0,1.8-.9,3.1-2.3,3.7h0c-1.1.5-2.3.2-3.1-.5-.9-.7-1.5-1.9-1.5-3.3,0-.8,0-1.6,0-2.4.4-14.1.8-28.2,1.3-42.3,0-1.4.2-2.8,1.1-3.9.7-.9,1.7-1.4,2.8-1.5Z"/>
      <path class="cls-1" d="M57.3,200.7c2.3-.3,4.2.5,5.9,2.1l.3.3.4.4c2,2.2,3.2,5.1,4,8.1,1,3.7,1.5,7.6,1.6,11.5v1.5c0,1.5,0,2.9,0,4.4h0s0,0,0,0c-.2,5.8-.9,11.6-2.7,17-1,3-2.4,5.8-4.5,8-2.7,2.9-6.3,3.6-9.5,1.6h0c-1.7-1.1-3-2.7-4.1-4.7h0c-1.8-3.4-2.7-7.2-3.2-11.1v-.8c-.6-3.9-.7-7.9-.5-11.8.3-5.3.9-10.5,2.4-15.5l.2-.6c.9-2.8,2.1-5.5,4-7.7,1.5-1.7,3.3-2.9,5.4-3.2h0ZM58.9,217.7c-1.3-.4-2.8,0-4.1,1.1h0c-1.1,1-1.8,2.4-2.2,4-.8,2.7-1,5.5-.8,8.4v.6h0c.1,1.9.5,3.7,1.3,5.3h0c.6,1.2,1.2,2,2.1,2.5.8.5,1.7.7,2.8.5,1.8-.3,3.1-1.7,4-3.7.9-2,1.2-4.2,1.3-6.7h0s0,0,0,0c.1-.8,0-1.7,0-2.7,0-2.1-.4-4.2-1.1-6.1-.7-1.8-1.9-2.9-3.3-3.3Z"/>
      <path class="cls-1" d="M81.8,201.8c1.8-.5,3.4-.5,4.9,0,1.5.6,2.9,1.6,4.1,3.1,2.6,3.2,4,7.2,4.5,11.6.3,2.5-.8,4.6-2.7,5h-.2c-.7.1-1.3,0-1.8-.3-.5-.3-1-.8-1.4-1.5h0c-.2-.4-.4-.7-.5-1.1-.2-.4-.3-.7-.5-1.1h0c-.6-1.3-1.4-2.4-2.5-3.1-.9-.5-1.8-.6-2.7-.4-1.2.3-2,1.2-2.3,2.6v.3c-.3,1.5.1,2.8,1.1,3.8,1.2,1.1,2.6,1.7,4.1,2.3h0c1.5.7,3.1,1.5,4.4,2.7h0c2.5,2.2,4,5.1,4.5,8.7,1,7.5-.5,14.2-5,19.7-1.5,1.8-3.4,3-5.3,3.3-1.9.4-3.9,0-5.8-1.1h0c-1.6-1-2.9-2.4-3.9-4.2l-.2-.4c-2-3.5-2.9-7.4-3-11.7h0s0,0,0,0c0-1.4.3-2.7,1.3-3.7h0c.8-.7,1.8-.9,2.8-.6.9.3,1.7,1,2.3,2.1h0c.2.4.3.8.5,1.2.1.4.3.8.4,1.2.6,1.5,1.5,2.7,2.7,3.4h0c1,.6,2.1.8,3.2.3,1.3-.6,2.2-1.7,2.3-3.4h0c.2-1.6-.4-2.8-1.4-3.7h0c-1-.9-2.3-1.4-3.5-2h0c-1.4-.7-2.8-1.3-4.1-2.3-3.3-2.4-5.1-6.1-5.6-10.6-.6-5.8.5-11.2,3.5-15.9,1.4-2.2,3.2-3.8,5.5-4.5Z"/>
      <path class="cls-1" d="M132.8,204.1c1.7-.9,3.5-1.2,5.1-.8,1.6.4,3.2,1.4,4.5,3,1.9,2.4,3.1,5.4,4,8.5h0c.9,3.4,1.2,6.8,1.4,10.3.1,2.2.1,4.3,0,6.2h0c-.1,4.9-.6,9.5-1.7,14l-.2.9c-.8,3.2-1.9,6.2-3.8,8.8h0c-.9,1.3-2,2.4-3.2,3.2-1.7,1.1-3.5,1.4-5.3,1.1-1.6-.3-3.2-1.3-4.5-2.8l-.3-.3c-2-2.5-3.2-5.6-4-8.9-1-4.3-1.4-8.8-1.4-13.3,0-4.5.2-8.9,1-13.3v-.8c.8-3.9,1.9-7.6,3.8-11l.2-.4c1.1-1.9,2.5-3.5,4.3-4.5ZM136.3,219.9c-2.2-.2-4.2,1.2-5.2,3.9v.3c-.7,1.9-1.1,3.9-1.2,5.9-.1,2.6,0,5.1.6,7.5.5,1.7,1.2,3.3,2.5,4.2h0c1.2.9,2.5,1,3.7.6,1.2-.4,2.3-1.5,3.1-3,1.2-2.4,1.5-5.1,1.6-7.1h0s0,0,0,0c.1-3.7-.1-6.1-.8-8-.8-2.3-2.1-3.9-4.1-4.2h-.2Z"/>
      <path class="cls-1" d="M111.5,202.3c2.4.2,4.6,1.6,6.2,4.3l.3.6c1.6,2.9,2.3,6.1,2.7,9.5.2,2.2.4,4.4.3,6.6h0c0,.9-.2,1.7-.6,2.2-.4.6-.9.9-1.6,1.1h0c-.7.2-1.4,0-2-.3-.6-.4-1-1-1.3-1.9h0c-.2-.5-.3-1-.4-1.4-.1-.5-.3-.9-.5-1.3h0c-1-1.8-2.6-2.6-4.2-2.5-1.6.1-3.1,1.1-4.1,3.1-.8,1.7-1.2,3.6-1.5,5.6-.3,2.8-.3,5.6.2,8.4.2,1.1.6,2.2,1.1,3.1h0c1.1,1.9,2.7,2.7,4.3,2.6,1.6-.2,3.2-1.3,4-3.4l.4-1c.1-.3.3-.7.4-1h0c.4-.9,1.1-1.5,1.9-1.7.8-.2,1.6,0,2.3.6.5.5.8,1.1.9,1.9v.3c.2,1.5,0,2.9-.2,4.3l-.2,1.4c-.5,3.3-1.2,6.5-2.6,9.4l-.3.6c-1.1,2.1-2.6,4-4.6,4.9h0c-1.6.7-3.1.9-4.6.6-1.4-.4-2.8-1.2-4-2.6-2-2.3-3.2-5.3-4-8.4-.9-3.4-1.2-6.8-1.4-10.4-.1-2.3-.1-4.6,0-7h0s0-.2,0-.2c.3-5.8.9-11.6,2.7-17.2.9-2.6,2-5,3.6-7.1,1.9-2.4,4.3-3.5,6.7-3.4Z"/>
    </g>
  </g>
</svg>