<svg width="180" height="27" viewBox="0 0 180 27" fill="none" xmlns="http://www.w3.org/2000/svg">
<path d="M176.127 22.3587C173.534 24.8854 170.381 26.1488 166.668 26.1488C163.066 26.1488 159.958 24.9076 157.342 22.4252C154.727 19.987 153.419 16.9726 153.419 13.3819C153.419 11.4647 153.746 9.66936 154.4 7.99592C154.71 7.14258 155.259 6.20058 156.046 5.16992C158.672 1.72331 162.224 0 166.701 0C170.403 0 173.545 1.25785 176.127 3.77354C178.709 6.28924 180 9.38676 180 13.0661C180 16.7787 178.709 19.8762 176.127 22.3587ZM171.672 7.86293C170.364 6.38898 168.718 5.652 166.735 5.652C164.707 5.652 163.061 6.36682 161.797 7.79644C160.501 9.25931 159.853 10.9937 159.853 12.9996C159.853 15.0609 160.501 16.823 161.797 18.2859C163.105 19.7598 164.773 20.4968 166.801 20.4968C168.774 20.4968 170.397 19.7598 171.672 18.2859C172.935 16.823 173.567 15.0942 173.567 13.0993C173.567 11.0713 172.935 9.32581 171.672 7.86293Z" fill="#EBD790"/>
<path d="M152.97 25.6666H146.537V0.465332H152.97V25.6666Z" fill="#EBD790"/>
<path d="M145.372 25.6666H131.475V0.465332H137.908V20.0146H145.372V25.6666Z" fill="#EBD790"/>
<path d="M126.456 22.3587C123.863 24.8854 120.71 26.1488 116.997 26.1488C113.395 26.1488 110.287 24.9076 107.671 22.4252C105.056 19.987 103.748 16.9726 103.748 13.3819C103.748 11.4647 104.075 9.66936 104.729 7.99592C105.039 7.14258 105.588 6.20058 106.375 5.16992C109.001 1.72331 112.553 0 117.03 0C120.732 0 123.874 1.25785 126.456 3.77354C129.038 6.28924 130.329 9.38676 130.329 13.0661C130.329 16.7787 129.038 19.8762 126.456 22.3587ZM122.001 7.86293C120.693 6.38898 119.047 5.652 117.064 5.652C115.035 5.652 113.39 6.36682 112.126 7.79644C110.83 9.25931 110.181 10.9937 110.181 12.9996C110.181 15.0609 110.83 16.823 112.126 18.2859C113.434 19.7598 115.102 20.4968 117.13 20.4968C119.103 20.4968 120.726 19.7598 122.001 18.2859C123.264 16.823 123.896 15.0942 123.896 13.0993C123.896 11.0713 123.264 9.32581 122.001 7.86293Z" fill="#EBD790"/>
<path d="M102.7 6.11734H95.1197V10.4062H102.434V16.0582H95.1197V25.6666H88.9524V0.465332H102.7V6.11734Z" fill="#EBD790"/>
<path d="M88.5871 25.6666H74.6067V0.465332H88.5871V6.11734H80.7574V10.0405H88.3544V15.6925H80.7574V20.0146H88.5871V25.6666Z" fill="#EBD790"/>
<path d="M73.6089 25.6666H67.6743L67.8904 6.7989L67.8239 6.73241L62.4379 25.6666H58.1822L52.7962 6.73241L52.7297 6.7989L52.9458 25.6666H47.0112V0.465332H55.2898L60.2934 17.0556H60.3599L65.2971 0.465332H73.6089V25.6666Z" fill="#EBD790"/>
<path d="M39.3645 25.667V22.0596H32.1166L29.9057 25.667H22.209L39.431 0.582031H45.7978V25.667H39.3645ZM39.3645 9.97433H39.298L35.1753 16.923H39.3645V9.97433Z" fill="#EBD790"/>
<path d="M23.0236 22.2922C20.4636 24.8854 17.2497 26.1821 13.3819 26.1821C9.65828 26.1821 6.50534 24.9076 3.92316 22.3587C1.30772 19.8097 0 16.679 0 12.9664C0 9.27594 1.3188 6.17842 3.9564 3.6738C6.594 1.2246 9.7691 0 13.4817 0C16.3077 0 18.9176 0.825636 21.3114 2.47691C23.7495 4.16143 25.3398 6.30586 26.0823 8.91022H18.8677C17.6376 6.73807 15.7868 5.652 13.3155 5.652C11.2985 5.652 9.65274 6.35573 8.37826 7.76319C7.08163 9.19282 6.43331 10.9272 6.43331 12.9664C6.43331 15.0831 7.07055 16.8784 8.34502 18.3524C9.59732 19.8042 11.2652 20.5301 13.3487 20.5301C14.7894 20.5301 16.0639 20.1865 17.1721 19.4994C18.2582 18.8234 18.9952 17.8149 19.383 16.4739H11.8526V11.3373H26.7971C26.8193 11.5367 26.8304 11.98 26.8304 12.6671C26.8304 16.546 25.5615 19.7543 23.0236 22.2922Z" fill="#EBD790"/>
</svg>
