<svg width="1564" height="228" viewBox="0 0 1564 228" fill="none" xmlns="http://www.w3.org/2000/svg">
<path d="M1530.07 194.238C1507.54 216.189 1480.11 227.164 1447.9 227.164C1416.56 227.164 1389.56 216.478 1366.88 194.815C1344.07 173.731 1332.8 147.447 1332.8 116.254C1332.8 99.6461 1335.55 84.0493 1341.32 69.4634C1343.92 62.0983 1348.69 53.8667 1355.62 44.913C1378.44 15.0191 1409.2 0 1448.19 0C1480.25 0 1507.54 10.9755 1530.07 32.7821C1552.46 54.7331 1563.72 81.5943 1563.72 113.51C1563.72 145.859 1552.46 172.72 1530.07 194.238ZM1491.37 68.3081C1479.96 55.5996 1465.66 49.101 1448.48 49.101C1430.86 49.101 1416.56 55.3108 1405.59 67.7305C1394.32 80.439 1388.69 95.6025 1388.69 112.932C1388.69 130.84 1394.32 146.148 1405.59 158.856C1416.85 171.709 1431.44 178.063 1449.06 178.063C1466.1 178.063 1480.25 171.709 1491.37 158.856C1502.35 146.148 1507.83 131.128 1507.83 113.799C1507.83 96.1802 1502.35 81.0166 1491.37 68.3081Z" fill="#EBD790"/>
<path d="M1328.9 222.977H1273.02V4.04443H1328.9V222.977Z" fill="#EBD790"/>
<path d="M1262.91 222.977H1142.18V4.04443H1198.06V173.876H1262.91V222.977Z" fill="#EBD790"/>
<path d="M1098.56 194.238C1076.03 216.189 1048.59 227.164 1016.39 227.164C985.052 227.164 958.047 216.478 935.374 194.815C912.556 173.731 901.292 147.447 901.292 116.254C901.292 99.6461 904.036 84.0493 909.812 69.4634C912.412 62.0983 917.177 53.8667 924.109 44.913C946.927 15.0191 977.687 0 1016.68 0C1048.74 0 1076.03 10.9755 1098.56 32.7821C1120.95 54.7331 1132.21 81.5943 1132.21 113.51C1132.21 145.859 1120.95 172.72 1098.56 194.238ZM1059.86 68.3081C1048.45 55.5996 1034.15 49.101 1016.97 49.101C999.349 49.101 985.052 55.3108 974.077 67.7305C962.812 80.439 957.18 95.6025 957.18 112.932C957.18 130.84 962.812 146.148 974.077 158.856C985.341 171.709 999.927 178.063 1017.55 178.063C1034.59 178.063 1048.74 171.709 1059.86 158.856C1070.83 146.148 1076.32 131.128 1076.32 113.799C1076.32 96.1802 1070.83 81.0166 1059.86 68.3081Z" fill="#EBD790"/>
<path d="M894.194 53.1454H828.341V90.4044H891.883V139.505H828.341V222.977H774.763V4.04443H894.194V53.1454Z" fill="#EBD790"/>
<path d="M768.586 222.977H647.133V4.04443H768.586V53.1454H700.566V87.2273H766.564V136.328H700.566V173.876H768.586V222.977Z" fill="#EBD790"/>
<path d="M639.468 222.977H587.912L589.789 59.0664L589.212 58.4888L542.421 222.977H505.451L458.661 58.4888L458.083 59.0664L459.961 222.977H408.405V4.04443H480.323L523.792 148.17H524.369L567.261 4.04443H639.468V222.977Z" fill="#EBD790"/>
<path d="M341.974 222.975V191.637H279.009L259.802 222.975H192.938L342.552 5.05371H397.862V222.975H341.974ZM341.974 86.648H341.396L305.581 147.013H341.974V86.648Z" fill="#EBD790"/>
<path d="M200.014 193.66C177.774 216.189 149.758 227.453 116.254 227.453C83.9049 227.453 56.4661 216.478 34.0819 194.238C11.2643 172.142 0 144.992 0 112.643C0 80.5834 11.4088 53.7222 34.3707 31.9156C57.1882 10.6867 84.7714 0 117.12 0C141.671 0 164.344 7.22073 185.14 21.5178C206.224 36.2481 220.088 54.8776 226.587 77.4062H163.911C153.224 58.6323 137.049 49.101 115.676 49.101C98.0575 49.101 83.7605 55.3108 72.785 67.4416C61.5206 79.8613 55.8885 95.0248 55.8885 112.643C55.8885 131.128 61.3762 146.725 72.4961 159.434C83.3272 172.142 97.7687 178.352 115.965 178.352C128.385 178.352 139.505 175.464 149.18 169.398C158.567 163.622 164.922 154.812 168.387 143.115H102.968V98.4908H232.796C232.941 100.224 233.085 104.123 233.085 110.044C233.085 143.837 221.965 171.709 200.014 193.66Z" fill="#EBD790"/>
</svg>
