<svg width="1616" height="259" viewBox="0 0 1616 259" fill="none" xmlns="http://www.w3.org/2000/svg">
<path d="M207.483 36.6842C208.304 30.6476 209.063 25.1368 209.811 19.6365C210.148 17.2071 210.379 14.7673 210.874 12.38C211.011 11.7069 211.959 10.7078 212.539 10.7078C232.1 10.6342 259.245 10.6762 278.807 10.7078C278.965 10.7078 279.112 10.8445 279.439 11.0023V115.423H276.932C258.329 115.423 232.153 115.381 213.561 115.476C211.317 115.486 210.674 114.782 210.221 112.647C207.862 101.415 201.363 92.7385 192.451 85.871C176.64 73.6716 158.522 67.9295 138.613 67.7297C128.585 67.6245 118.568 68.1924 108.982 71.421C105.548 72.5779 102.082 74.208 99.2593 76.4165C91.4959 82.4847 91.8435 92.118 99.7544 97.9758C105.348 102.119 111.773 104.654 118.483 105.99C133.778 109.029 149.126 111.868 164.526 114.266C185.235 117.495 205.997 120.377 226.001 126.95C235.618 130.105 244.867 134.048 253.209 139.875C271.327 152.516 277.827 169.974 274.193 191.344C271.001 210.074 260.162 223.819 244.804 234.347C229.003 245.168 211.222 250.858 192.483 253.771C161.008 258.672 130.587 255.002 101.44 241.95C91.3063 237.407 81.8471 231.77 73.6097 224.24C73.1883 223.851 72.6722 223.546 71.8611 222.957C71.2817 228.068 70.7445 232.822 70.2178 237.565C69.786 241.477 69.3014 245.389 68.9538 249.301C68.8063 250.911 68.2375 251.531 66.5205 251.531C47.6546 251.478 21.2149 251.468 2.35955 251.531C0.463483 251.531 0 250.879 0 249.102C0.0421348 212.535 0.0421348 175.958 0 139.391C0 137.445 0.56882 136.856 2.53862 136.856C21.2254 136.94 47.4861 136.93 66.1729 136.93C67.5423 136.93 68.701 136.846 68.9749 138.76C70.6813 150.57 77.2438 159.467 86.5661 166.345C103.747 179.028 123.35 184.413 144.533 184.497C152.792 184.529 161.061 184.087 168.982 181.51C172.606 180.333 176.082 178.566 179.4 176.652C181.064 175.695 182.455 174.001 183.55 172.361C187.405 166.587 186.205 160.971 180.327 157.269C174.301 153.483 167.507 151.506 160.618 150.234C143.806 147.142 126.942 144.376 110.088 141.473C92.7073 138.476 75.432 135.037 58.7466 129.179C45.0001 124.352 31.8857 118.326 21.2466 108.061C-2.32784 85.3137 -1.13753 48.3683 23.7326 26.9246C35.9833 16.3658 50.4566 10.2976 65.9411 6.50109C97.8583 -1.31286 129.428 0.127933 160.544 10.6973C175.734 15.861 190.249 22.3498 202.774 32.6247C204.228 33.8131 205.629 35.0751 207.472 36.6737L207.483 36.6842Z" fill="#89A5FF"/>
<path d="M1152.85 249.959V246.173C1152.85 218.737 1152.85 191.301 1152.85 163.865C1152.85 161.198 1154.23 159.865 1157 159.865C1172.68 159.865 1188.38 159.865 1204.07 159.865H1208.14C1208.21 158.536 1208.34 157.445 1208.34 156.342C1208.38 148.204 1208.01 140.053 1208.49 131.94C1209.33 117.545 1202.8 106.837 1192.29 98.0467C1178.99 86.9244 1163.25 81.7457 1146.22 80.2284C1121.49 78.0341 1098.26 83.8523 1075.95 94.0216C1075.03 94.4354 1074.13 96.0153 1074.12 97.0686C1074 117.094 1074.08 137.119 1073.99 157.157C1073.99 159.815 1075.34 159.903 1077.32 159.903C1093.22 159.865 1109.12 159.878 1125.02 159.878C1126.25 159.878 1127.48 159.878 1128.94 159.878V249.972C1073.78 256.555 1018.73 256.555 963.543 249.972V159.89C964.862 159.89 966.08 159.89 967.286 159.89C983.287 159.89 999.3 159.865 1015.3 159.915C1017.4 159.915 1018.57 159.639 1018.57 157.094C1018.57 136.956 1018.67 116.83 1018.73 96.6924C1018.73 96.1909 1018.63 95.6768 1018.53 94.6736C1017.27 94.6736 1016.07 94.6736 1014.86 94.6736C1002.1 94.6736 989.341 94.6109 976.568 94.7363C974.031 94.7614 973.39 93.9714 973.403 91.5388C973.478 64.103 973.478 36.6671 973.403 9.23129C973.403 6.72344 974.294 6.00871 976.605 5.87078C996.751 4.64193 1016.88 3.18738 1037.04 2.13408C1048.01 1.55728 1059 1.63252 1069.98 1.41935C1071.13 1.39427 1072.27 1.41935 1073.98 1.41935V47.9775C1077.93 43.175 1081.07 38.8991 1084.68 35.0496C1103.47 14.9617 1127 4.55415 1154.17 2.20932C1176.94 0.240658 1198.63 4.25321 1218.39 16.1404C1242.89 30.8865 1256.52 53.0057 1260.93 80.8805C1262.03 87.8523 1262.31 94.9871 1262.45 102.072C1262.78 120.116 1262.91 138.16 1262.92 156.204C1262.92 159.326 1263.95 159.978 1266.87 159.953C1283.08 159.815 1299.3 159.915 1315.51 159.853C1317.67 159.853 1318.67 160.216 1318.66 162.737C1318.57 191.113 1318.61 219.489 1318.6 247.853C1318.6 248.467 1318.52 249.082 1318.46 249.972C1263.32 256.58 1208.29 256.555 1152.84 249.972L1152.85 249.959Z" fill="#89A5FF"/>
<path d="M444.942 162.82H390.309V167.096V246.595V246.633C390.309 252.777 390.309 252.853 396.312 253.541C422.838 256.588 449.476 257.867 476.178 257.78C501.937 257.692 527.609 256.112 553.217 253.291C555.604 253.027 556.106 252.099 556.106 249.955C556.056 221.993 556.043 194.043 556.131 166.08C556.131 163.459 555.34 162.745 552.753 162.757C537.782 162.87 520.751 162.757 505.793 162.87C503.931 162.879 504.626 160.163 504.65 158.3C504.663 156.796 505.504 154.827 506.647 153.849C531.615 132.407 556.659 119.561 581.778 98.294C583.121 97.153 585.282 96.4257 587.065 96.4257C607.562 96.2878 628.072 96.3379 648.581 96.3379H652.374C652.462 95.1467 652.588 94.3442 652.588 93.5291C652.6 65.4663 652.563 37.4035 652.663 9.34073C652.676 6.75765 651.646 6.16831 649.448 6.0053C634.012 4.83915 618.602 3.33444 603.154 2.46924C570.612 0.651048 538.108 1.64165 505.655 4.46297C499.45 5.00216 493.259 5.75451 487.117 6.40655V96.5135H520.271C502.344 111.388 490.952 119.021 473.488 134.114C457.991 121.681 439.081 107.051 425.954 96.2251H463.091C463.154 94.8959 463.241 93.8802 463.241 92.852C463.241 65.203 463.204 37.5665 463.317 9.91754C463.329 7.04605 462.4 6.14323 459.687 5.9426C444.365 4.82661 429.055 3.33444 413.707 2.46924C383.677 0.77644 353.673 1.50372 323.706 3.84855C315.065 4.52567 306.449 5.47865 297.746 6.30624V96.3254H301.802C322.199 96.3254 342.608 96.2752 363.004 96.4131C364.775 96.4257 366.91 97.2031 368.267 98.3567C393.248 119.611 418.128 132.482 443.084 153.786C444.428 154.934 444.516 155.316 444.862 157.231C445.177 158.971 444.942 162.82 444.942 162.82Z" fill="#89A5FF"/>
<path d="M1611.89 120.831H1363.98C1365.27 126.862 1368.26 131.552 1371.87 135.853C1380.29 145.896 1391.32 152.154 1403.36 156.781C1425.03 165.094 1447.64 167.125 1470.61 166.26C1493.38 165.408 1515.8 162.21 1537.51 155.063C1555.05 149.295 1571.47 141.483 1585.09 128.668C1585.45 128.329 1585.9 128.091 1586.52 127.664C1586.97 128.542 1587.37 129.232 1587.69 129.959C1596.94 151.514 1606.15 173.094 1615.48 194.624C1616.36 196.668 1616.17 197.859 1614.54 199.426C1583.32 229.408 1546.45 248.192 1503.55 254.699C1479.7 258.323 1455.69 259.79 1431.64 256.906C1402.8 253.445 1377.27 242.925 1357.55 220.818C1343.95 205.571 1335.83 187.527 1331.41 167.777C1326.81 147.263 1325.11 126.511 1327.96 105.62C1333.91 61.9714 1357.79 31.8271 1398.14 14.4853C1420.19 5.00568 1443.5 1.59501 1467.34 1.54485C1490.29 1.4947 1513.13 2.7737 1535.43 8.93046C1553.55 13.9462 1570.03 21.9086 1583.4 35.4635C1596.58 48.8052 1604.15 65.0686 1608.25 83.1C1610.87 94.6361 1612.05 106.348 1612.09 118.172C1612.09 118.887 1611.99 119.602 1611.89 120.818V120.831ZM1569.61 90.2725C1560.4 84.053 1551.2 79.8398 1541.57 76.6172C1506.62 64.9056 1470.76 61.4824 1434.2 65.6705C1418.05 67.5263 1402.26 71.1376 1387.45 78.1219C1380.96 81.1815 1374.78 84.7803 1369.2 90.285H1569.61V90.2725Z" fill="#89A5FF"/>
<path d="M809.109 0.027865C831.641 0.165797 854.047 1.52003 875.926 7.51378C894.262 12.542 911.004 20.4794 924.581 34.1095C938.936 48.5045 946.912 66.235 950.592 85.8965C956.181 115.878 955.879 145.746 946.007 174.887C934.164 209.847 909.886 232.769 875.323 245.157C850.016 254.236 823.766 256.468 797.128 255.277C777.271 254.399 757.842 251.139 739.266 243.778C700.181 228.292 676.67 199.652 668.155 158.862C662.252 130.561 662.804 102.223 670.817 74.3228C679.86 42.8368 700.571 22.0969 731.253 11.0122C753.973 2.81157 777.661 0.60467 801.586 0.027865C804.098 -0.0348312 806.61 0.027865 809.122 0.027865H809.109ZM809.072 171.803C811.27 171.803 813.468 171.84 815.665 171.803C836.904 171.376 858.104 170.587 878.915 165.759C888.121 163.627 897.038 160.743 905.076 155.59C924.418 143.176 925.787 116.994 907.676 102.837C904.172 100.103 900.203 97.8339 896.172 95.9405C884.215 90.3229 871.341 87.9404 858.33 86.3856C827.371 82.699 796.337 82.6865 765.34 85.7335C750.545 87.1881 735.913 89.7085 722.198 95.9028C715.24 99.0502 708.986 103.138 704.376 109.332C693.261 124.292 697.205 144.793 713.18 155.314C722.148 161.22 732.246 164.254 742.62 166.449C764.536 171.088 786.804 171.627 809.084 171.815L809.072 171.803Z" fill="#89A5FF"/>
</svg>
