<svg width="181" height="42" viewBox="0 0 181 42" fill="none" xmlns="http://www.w3.org/2000/svg">
<path d="M22.3864 40.6809V40.48C22.4818 40.48 22.5758 40.4829 22.6698 40.4829C22.8436 40.4829 22.9874 40.4786 23.1242 40.4715L23.3464 40.4587C23.889 40.4273 24.4502 40.3946 25.0042 40.3091C25.7178 40.198 26.1935 39.9474 26.4584 39.5414C26.7205 39.1398 26.759 38.6128 26.5781 37.9334C26.2904 36.8595 25.9571 35.7827 25.6338 34.7416C25.5583 34.498 25.4828 34.2559 25.4087 34.0123C24.9558 32.541 24.4986 31.0712 24.0371 29.5927L23.3535 27.3936H17.8699C15.1082 27.3936 12.3451 27.3936 9.5834 27.3879C9.11481 27.3879 8.84704 27.5845 8.71031 28.0232C8.17762 29.7352 7.63069 31.4742 7.10085 33.1563C6.6636 34.545 6.22634 35.9351 5.79193 37.3252C5.68511 37.6642 5.60962 38.0431 5.55977 38.4789C5.43301 39.5927 6.08391 40.0043 6.65363 40.1539C7.3145 40.3276 7.98534 40.4017 8.61203 40.4558C8.80573 40.4729 9.01368 40.48 9.26293 40.48C9.42815 40.48 9.59479 40.4772 9.76286 40.4729C9.78422 40.4729 9.80701 40.4729 9.82838 40.4729V40.6752H0.25V40.4929C0.282759 40.49 0.315518 40.4872 0.348276 40.4843C0.499251 40.4701 0.651651 40.4587 0.802626 40.4459C1.17009 40.4159 1.54896 40.386 1.92639 40.3276C3.07153 40.151 3.94604 39.4802 4.38757 38.439C4.7821 37.509 5.15384 36.4821 5.55977 35.2073C7.5723 28.8863 9.60904 22.457 11.5788 16.2386L12.8379 12.2648C13.8164 9.17691 15.1025 5.11482 16.3773 1.06128C16.5496 1.07267 16.7034 1.07837 16.8473 1.07837C17.0125 1.07837 17.1621 1.07125 17.3088 1.05558C17.3273 1.05416 17.3458 1.05273 17.3629 1.05273C17.3657 1.05273 17.3686 1.05273 17.3714 1.05273C17.38 1.06983 17.3914 1.09689 17.407 1.14389C18.236 3.79023 19.0906 6.47502 19.9167 9.07293L20.1887 9.92894C22.234 16.3582 24.2793 22.7875 26.3274 29.2153C27.0937 31.6224 27.9867 34.4182 28.8683 37.15C29.1204 37.932 29.4509 38.8207 30.183 39.4845C30.8552 40.0941 31.6585 40.4031 32.5715 40.4031C32.8948 40.4031 33.2352 40.3633 33.5856 40.2863C33.7081 40.2593 33.8306 40.2308 33.9502 40.198C35.1894 39.8605 35.8246 39.1156 35.9514 37.8522C36.0012 37.3466 36.0268 36.8922 36.0268 36.4635C36.0311 28.093 36.0354 17.0689 36.0268 6.03349C36.0268 5.47944 35.977 4.88693 35.8816 4.27306C35.7249 3.27606 35.111 2.59097 34.1966 2.39442C33.4702 2.23775 32.7268 2.15941 32.0075 2.0825C31.7995 2.05971 31.5916 2.03835 31.3851 2.01413C31.2754 2.00131 31.1586 1.99562 31.019 1.99562C30.972 1.99562 30.9236 1.99562 30.8752 1.99704V1.81616H43.4246V1.99134C43.3477 1.99419 43.2722 1.99704 43.1953 1.99989C42.7011 2.01841 42.1912 2.03835 41.687 2.08392C41.1942 2.12808 40.69 2.21496 40.1886 2.3403C39.1005 2.61519 38.4553 3.37006 38.3228 4.52089C38.2658 5.01939 38.2359 5.5122 38.2359 5.98506C38.2331 14.3628 38.2331 25.4082 38.2445 36.5575C38.2445 37.1572 38.3 37.7639 38.4097 38.3607C38.5621 39.1939 39.1005 39.7907 39.9679 40.0869C41.0261 40.4473 42.1114 40.4644 43.1611 40.4815H43.2266C43.2936 40.4829 43.3591 40.4843 43.4261 40.4843V40.6794H22.3878L22.3864 40.6809ZM15.5455 6.22435C13.6341 12.3089 11.727 18.3949 9.81983 24.4809C9.71016 24.8299 9.60476 25.1817 9.49509 25.542L9.16893 26.616H23.0857L22.8877 25.9295C22.8607 25.8355 22.8365 25.75 22.8108 25.666C22.8108 25.666 21.5731 21.7164 21.2854 20.7977L20.4792 18.2226C19.2273 14.2232 17.9768 10.2238 16.722 6.22435C16.6735 6.07052 16.1209 4.33716 16.1209 4.33716C16.1209 4.33716 15.5868 6.09758 15.5469 6.22435H15.5455Z" fill="#ffffff" stroke="#ffffff" stroke-width="0.5"/>
<path d="M174.465 41.497C174.371 41.497 174.276 41.4955 174.179 41.4927C172.694 41.4457 171.314 40.9329 169.96 39.9274L169.919 39.8946C169.895 39.8747 169.869 39.8562 169.844 39.8377C169.498 39.587 169.207 39.4702 168.929 39.4702C168.461 39.4702 168.109 39.7963 167.882 40.4416C167.868 40.4829 167.852 40.5227 167.837 40.5626C167.824 40.5968 167.81 40.6324 167.797 40.668C167.744 40.8104 167.69 40.9571 167.656 41.0241C167.632 41.0269 167.589 41.0298 167.519 41.0298C167.457 41.0298 167.387 41.0284 167.306 41.0255C167.143 40.7207 166.665 40.7107 166.603 40.7093C164.826 40.7051 163.048 40.705 161.271 40.705H158.775V40.4971C158.781 40.4971 158.787 40.4971 158.794 40.4971C159.099 40.4772 159.414 40.4558 159.727 40.4045C161.069 40.188 161.692 39.5172 161.813 38.1627C161.866 37.5759 161.889 37.1272 161.89 36.7071C161.896 32.2462 161.895 27.7867 161.895 23.3258V20.923C161.895 19.7095 161.709 18.8108 161.294 18.0061C160.72 16.8951 159.774 16.2955 158.481 16.2257C158.375 16.22 158.27 16.2172 158.167 16.2172C156.665 16.2172 155.247 16.8168 153.832 18.0517C153.222 18.5843 152.66 19.1754 152.117 19.7494L151.819 20.0628C151.637 20.2536 151.519 20.567 151.517 20.8618C151.509 26.1602 151.509 31.5198 151.517 36.7882C151.517 37.3551 151.556 37.8522 151.634 38.3094C151.88 39.7607 152.594 40.3846 154.095 40.4658C154.27 40.4757 154.447 40.4829 154.626 40.4914V40.6837H146.394V40.4943C146.535 40.4857 146.677 40.4772 146.818 40.4715C148.617 40.4003 149.439 39.6069 149.565 37.8194C149.593 37.4092 149.607 36.9819 149.607 36.5119C149.612 30.6011 149.616 24.8099 149.61 18.9518C149.61 18.4134 149.57 17.8921 149.492 17.4008C149.344 16.4707 148.731 16.3311 148.38 16.3311C148.273 16.3311 148.156 16.3439 148.033 16.3681C147.6 16.455 147.189 16.5789 146.753 16.7085C146.683 16.7285 146.613 16.7498 146.544 16.7712L146.461 16.569L148.254 15.8369L149.321 15.4025C149.908 15.1632 150.495 14.9253 151.081 14.6846C151.11 14.6732 151.14 14.6675 151.173 14.6675C151.326 14.6675 151.512 14.8 151.512 14.9638C151.513 15.8055 151.513 16.6473 151.513 17.4891C151.513 18.3373 151.517 19.0281 151.513 19.8495C152.189 19.2443 152.824 18.6381 153.427 17.9619C153.971 17.3509 154.535 16.7185 155.138 16.1659C156.296 15.1048 157.646 14.5664 159.151 14.5664C159.334 14.5664 159.52 14.575 159.708 14.5906C161.41 14.7345 162.557 15.5933 163.214 17.2156C163.741 18.5202 163.813 19.8748 163.815 21.027C163.816 23.0737 163.817 25.119 163.819 27.1657C163.819 30.5228 163.822 33.8798 163.829 37.2369C163.829 37.7297 163.904 38.2097 163.977 38.6142C164.146 39.5514 164.742 40.1652 165.653 40.3419C165.927 40.3946 166.196 40.4273 166.481 40.4615C166.609 40.4772 166.74 40.4928 166.877 40.5113L167.372 40.5783L167.156 31.4044C167.202 31.4016 167.241 31.4001 167.276 31.4001H167.287C167.31 31.497 167.334 31.6622 167.35 31.7705C167.64 33.8129 168.103 35.4067 168.81 36.7854C169.698 38.5216 170.764 39.6041 172.162 40.1952C172.912 40.5113 173.634 40.6723 174.307 40.6723C175.141 40.6723 175.925 40.4302 176.64 39.953C177.579 39.3263 178.147 38.3379 178.375 36.9349C178.54 35.9223 178.649 34.5906 178.026 33.2731C177.513 32.1878 176.697 31.3588 176.045 30.7578C175.129 29.9146 174.189 29.0671 173.28 28.2468C172.278 27.3423 171.241 26.408 170.234 25.4751C169.176 24.4952 168.461 23.5907 167.988 22.6279C167.149 20.9245 167.278 18.6669 168.31 17.0105C169.288 15.4395 170.955 14.5735 173.004 14.5735C173.047 14.5735 173.09 14.5735 173.132 14.5735C174.557 14.5977 175.806 15.082 176.948 16.0534C176.968 16.0705 176.988 16.0876 177.006 16.1046C177.055 16.1474 177.103 16.1901 177.156 16.23C177.431 16.4379 177.701 16.5448 177.961 16.5448C178.191 16.5448 178.75 16.4507 178.942 15.5834C178.955 15.5278 178.963 15.4708 178.972 15.4124C178.976 15.384 178.98 15.354 178.985 15.3256C179.009 15.1988 179.05 14.9795 179.087 14.8812C179.092 14.8812 179.096 14.8812 179.1 14.8812C179.159 14.8812 179.235 14.8883 179.327 14.9011V22.3901H179.204C179.183 22.2832 179.163 22.1778 179.141 22.0724C179.047 21.5868 178.949 21.084 178.818 20.5926C178.382 18.9575 177.683 17.7112 176.679 16.7826C175.693 15.8711 174.567 15.4096 173.332 15.4096C172.934 15.4096 172.524 15.4594 172.111 15.5563C169.814 16.0975 168.951 18.2354 169.114 20.114C169.265 21.8559 170.351 23.0538 171.281 23.9041C172.121 24.6718 172.991 25.4295 173.834 26.163C174.408 26.6615 175.001 27.1771 175.576 27.6899C176.947 28.9105 178.153 30.0328 179.04 31.4229C180.507 33.7232 180.641 36.143 179.435 38.6142C178.502 40.5256 176.83 41.4955 174.465 41.4955V41.497Z" fill="#ffffff" stroke="#ffffff" stroke-width="0.5"/>
<path d="M96.111 41.5113C94.2993 41.5113 92.9533 40.4958 92.3224 38.6513C91.9919 37.6871 91.8324 36.6474 91.8324 35.4737V33.8928C91.8353 29.355 91.8381 24.6619 91.8296 20.0458C91.8281 19.2881 91.7811 18.5432 91.6914 17.8353C91.5988 17.1046 91.1345 16.6674 90.4494 16.6674C90.3398 16.6674 90.223 16.6788 90.1019 16.7001C89.6874 16.7756 89.2929 16.8767 88.8742 16.9836C88.7972 17.0035 88.7218 17.022 88.6434 17.042L88.5323 16.8411L88.6249 16.8141C88.6847 16.797 88.7403 16.7813 88.793 16.7656C88.9012 16.7357 89.0038 16.7058 89.1063 16.6702C89.8925 16.3953 90.6787 16.1204 91.4664 15.8455C92.1301 15.6134 92.7952 15.3812 93.459 15.1491C93.6 15.1491 93.7652 15.2958 93.7709 15.3684C93.7752 15.4211 93.7737 15.4724 93.7709 15.5251C93.7709 15.5564 93.7709 15.5877 93.7709 15.6205V20.0515C93.7709 25.0436 93.7709 30.0358 93.7752 35.0279C93.7752 36.0933 93.9062 36.9493 94.1868 37.7213C94.6995 39.1356 95.7706 39.9147 97.2049 39.9147C97.4213 39.9147 97.6464 39.8962 97.8743 39.8606C99.2345 39.6455 100.495 39.0231 101.73 37.9577C102.267 37.4948 102.752 36.9721 103.222 36.4665C103.341 36.3383 103.46 36.2101 103.58 36.0833C103.748 35.9053 103.856 35.6176 103.856 35.3498C103.866 29.4533 103.866 24.1506 103.859 19.1399C103.859 18.6884 103.811 18.2213 103.718 17.7541C103.581 17.0619 103.133 16.6659 102.489 16.6659C102.385 16.6659 102.274 16.6759 102.16 16.6973C101.737 16.7742 101.332 16.8767 100.902 16.9864C100.84 17.0021 100.777 17.0192 100.713 17.0348L100.646 16.844L105.471 15.159C105.484 15.1548 105.497 15.1533 105.513 15.1533C105.642 15.1533 105.802 15.2886 105.806 15.404C105.809 15.4795 105.808 15.5536 105.806 15.6291V15.7416V19.7367C105.806 25.441 105.806 31.339 105.815 37.1416C105.815 37.6529 105.862 38.1657 105.953 38.6642C106.07 39.3022 106.466 39.6683 107.041 39.6683C107.154 39.6683 107.273 39.654 107.397 39.6241C107.857 39.5159 108.296 39.3792 108.76 39.2353C108.836 39.2111 108.913 39.1883 108.989 39.1641L109.069 39.3621C108.954 39.4133 108.841 39.4618 108.727 39.5102L106.946 40.2608C106.09 40.6211 105.234 40.9815 104.379 41.3433C104.353 41.3532 104.326 41.3589 104.295 41.3589C104.14 41.3589 103.947 41.2165 103.945 41.0499C103.928 40.3477 103.912 39.6441 103.896 38.9419L103.865 37.5689C103.865 37.519 103.861 37.4706 103.853 37.3866L103.841 37.2171L103.765 36.1788L103.089 36.9707C103.037 37.0305 102.993 37.0789 102.955 37.1231C102.874 37.2142 102.802 37.294 102.738 37.388C101.808 38.7525 100.75 39.778 99.5037 40.5243C98.4924 41.131 97.4598 41.4515 96.3474 41.5056C96.2663 41.5099 96.1851 41.5113 96.1053 41.5113H96.111ZM81.3667 40.9943C81.1488 40.9943 80.9337 40.9772 80.7286 40.9416C79.6234 40.7522 79.1135 39.9731 79.2103 38.6243C79.2901 37.5247 79.639 36.495 80.0094 35.404C80.1019 35.1319 80.1945 34.8599 80.2814 34.5864C81.9037 29.5416 83.5302 24.4981 85.1568 19.4547L87.5439 12.0498C88.3757 9.46613 89.0736 7.29551 89.7743 5.0964C89.8555 4.84287 89.9167 4.55944 89.9623 4.23043C90.0905 3.29467 89.6347 2.55261 88.8015 2.33754C88.2161 2.18657 87.6151 2.1125 87.0326 2.04129C86.8232 2.01565 86.6124 1.99001 86.4044 1.9601C86.4215 1.90598 86.4386 1.85328 86.4571 1.80343C86.8289 1.78919 87.2134 1.78207 87.5852 1.77352C88.182 1.76213 88.8001 1.74931 89.4111 1.70943C90.0065 1.67097 90.7841 1.59976 91.5276 1.39893C92.0888 1.24653 92.6414 0.965945 93.0858 0.607023C93.1214 0.578537 93.1627 0.547203 93.204 0.524414L87.8487 17.0462H87.8529L87.6336 17.7171C87.4912 18.1543 87.3516 18.5788 87.2149 19.0018L86.0669 22.5412C84.644 26.928 83.1727 31.4658 81.7356 35.9309C81.5462 36.5178 81.4308 37.1245 81.3197 37.7099L81.2869 37.8794C81.2371 38.14 81.2385 38.4391 81.2912 38.7681C81.4137 39.5287 81.8994 39.966 82.6215 39.966C82.7226 39.966 82.8323 39.9574 82.9434 39.9403C83.8735 39.7993 84.5372 39.2695 85.0115 38.8223C86.3218 37.5917 87.2077 36.0748 87.9356 34.7488C88.2532 34.1719 88.5651 33.5495 88.9197 32.7918C88.934 32.7619 88.9454 32.7419 88.9525 32.7306C88.9596 32.7306 88.9682 32.7306 88.9767 32.7306C89.0166 32.7348 89.0579 32.7363 89.1021 32.7391C88.9525 33.0809 88.8115 33.4057 88.6577 33.7219C87.5766 35.9566 86.4885 37.6116 85.2322 38.9305C84.4218 39.7822 83.4106 40.6852 82.0575 40.9345C81.8339 40.9758 81.6003 40.9972 81.3639 40.9972L81.3667 40.9943Z" fill="#ffffff" stroke="#ffffff" stroke-width="0.5"/>
<path d="M137.431 41.5086C135.71 41.5086 134.058 40.8933 132.779 39.778C131.06 38.2768 129.902 36.3013 129.136 33.561C128.684 31.9444 128.455 30.1427 128.435 28.0561C128.489 24.8984 128.975 22.3774 129.963 20.1342C130.938 17.9208 132.18 16.4381 133.869 15.4696C134.891 14.8828 136.074 14.5737 137.288 14.5737C139.112 14.5737 140.898 15.2773 142.187 16.5051C143.943 18.1758 145.092 20.3108 145.7 23.0312C146.72 27.5889 146.407 31.9202 144.769 35.9068C143.903 38.0148 142.675 39.5245 141.017 40.5229C139.945 41.1696 138.704 41.51 137.431 41.51V41.5086ZM136.724 15.4668C135.272 15.4668 133.886 16.1476 132.923 17.3326C132.043 18.4165 131.437 19.7282 131.019 21.4616C130.55 23.3972 130.403 25.5394 130.569 28.0105C130.73 30.4162 131.118 32.5099 131.761 34.4099C132.487 36.562 133.355 38.0361 134.572 39.1898C135.532 40.0985 136.767 40.5999 138.049 40.5999C139.009 40.5999 139.923 40.315 140.695 39.7738C141.618 39.1271 142.343 38.2013 142.912 36.9451C144.021 34.4882 144.202 31.8946 144.233 29.6812V29.6656V29.6499C144.223 29.4775 144.212 29.2881 144.202 29.0859C144.175 28.5931 144.144 28.0347 144.101 27.4707C143.913 25.0622 143.459 22.9329 142.709 20.9603C142.007 19.1115 141.165 17.7855 140.057 16.7857C139.114 15.9354 137.932 15.4653 136.729 15.4653L136.724 15.4668Z" fill="#ffffff" stroke="#ffffff" stroke-width="0.5"/>
<path d="M67.5373 41.3737C65.0747 41.3737 63.2658 39.8383 62.5736 37.1607C62.209 35.7478 62.1278 34.2152 62.3187 32.3366C62.6178 29.4011 63.488 26.5098 64.9081 23.7452C66.4577 20.7257 68.2765 18.4355 70.4642 16.742C71.8971 15.6339 73.3057 14.9901 74.7699 14.7736C75.0519 14.7323 75.3353 14.7109 75.6116 14.7109C77.5458 14.7109 79.1724 15.725 80.0739 17.4954C80.7462 18.8143 81.0539 20.2927 81.0439 22.1486C80.9983 25.6424 80.1181 29.0037 78.3548 32.4249C77.0957 34.8675 75.6145 36.8445 73.8298 38.4696C72.3201 39.844 70.9015 40.6829 69.3647 41.1102C68.7366 41.2854 68.1213 41.3737 67.5373 41.3737ZM74.871 15.5726C74.5833 15.5726 74.2885 15.604 73.9936 15.6666C72.6163 15.9572 71.5823 16.8175 70.8345 17.5353C69.453 18.8642 68.3021 20.5007 67.214 22.6841C65.5347 26.0526 64.5634 29.5321 64.3269 33.0259C64.2358 34.3662 64.2073 35.9472 64.6873 37.511C64.9365 38.3215 65.4037 39.4694 66.5958 40.0776C67.1584 40.3653 67.7467 40.5106 68.3449 40.5106C69.0471 40.5106 69.782 40.3084 70.5283 39.911C71.7375 39.2658 72.82 38.2916 73.8369 36.9299C76.969 32.7368 78.755 27.7788 79.0014 22.5916V22.5673C78.9858 20.6118 78.8633 19.2203 78.285 17.8985C77.6484 16.4415 76.3708 15.5712 74.8696 15.5712L74.871 15.5726Z" fill="#ffffff" stroke="#ffffff" stroke-width="0.5"/>
<path d="M115.737 41.5065C115.63 41.5065 115.521 41.5037 115.41 41.498C113.483 41.3968 112.391 40.5465 111.757 38.6522C111.283 37.2351 111.162 35.7367 111.102 34.3295L111.099 34.2611C111.086 33.9734 111.075 33.6757 111.073 33.388C111.073 28.8403 111.073 24.2911 111.073 19.7433V16.268H107.528V15.6712C107.625 15.6485 107.722 15.6271 107.817 15.6057C108.273 15.5032 108.745 15.3964 109.19 15.2112C110.441 14.6885 111.297 13.6787 111.885 12.0308C112.341 10.7532 112.483 9.43711 112.555 8.42871H112.978V15.4035H119.02V16.2438H113.1L113.07 16.6398C113.066 16.6896 113.062 16.7352 113.059 16.7779C113.05 16.8705 113.042 16.9588 113.042 17.0528C113.043 18.413 113.045 19.7732 113.046 21.1334C113.049 25.2368 113.052 29.4812 113.075 33.6558C113.08 34.8266 113.153 36.3577 113.658 37.8204C113.902 38.524 114.359 39.5011 115.523 39.8714C115.823 39.9669 116.131 40.0153 116.437 40.0153C117.363 40.0153 118.228 39.5738 118.81 38.8046C119.514 37.8774 119.807 36.7893 120.019 35.7524C120.344 34.17 120.391 32.5548 120.437 30.9924V30.9781H120.744C120.746 31.226 120.747 31.4624 120.74 31.7017C120.676 33.7413 120.583 35.5743 120.116 37.3433C119.948 37.98 119.726 38.5924 119.457 39.1636C118.712 40.7402 117.496 41.5065 115.735 41.5065H115.737Z" fill="#ffffff" stroke="#ffffff" stroke-width="0.5"/>
<path d="M54.101 41.3647C51.8435 41.3177 50.2013 40.6696 48.9351 39.3265C48.2743 38.6257 47.8925 37.8068 47.8014 36.8924C47.7245 36.1275 48.0506 35.5891 48.6716 35.4524C48.7614 35.4325 48.844 35.4225 48.9166 35.4225C49.0861 35.4225 49.2627 35.4638 49.4051 35.7672C49.5704 36.1161 49.6985 36.4836 49.8339 36.871C49.8695 36.975 49.9065 37.079 49.9435 37.1815C50.2754 38.1101 50.7497 39.1584 51.7438 39.8934C52.5585 40.4958 53.5028 40.8135 54.4771 40.8135C56.7502 40.8135 58.6346 39.1399 58.9579 36.834C59.22 34.9681 58.8169 33.1579 57.7273 31.3034L57.7116 31.2778C56.6092 29.402 55.4712 27.4621 54.3845 25.5379C53.527 24.0182 53.1254 22.6979 53.124 21.3804C53.1183 18.17 55.2277 15.5507 58.3739 14.8628C58.9978 14.7261 59.5931 14.6577 60.1457 14.6577C61.3023 14.6577 62.3178 14.9483 63.2521 15.5451C64.2036 16.1532 64.7718 16.8981 64.9883 17.8225C65.0838 18.2298 65.024 18.6187 64.8217 18.9164C64.6451 19.1742 64.3816 19.3365 64.0597 19.3821C64.0127 19.3892 63.9657 19.3921 63.9215 19.3921C63.6979 19.3921 63.537 19.3009 63.4173 19.1058C63.2977 18.9121 63.2023 18.6927 63.1026 18.4606C63.0641 18.3723 63.0257 18.284 62.9858 18.1957C62.9245 18.0632 62.8676 17.9279 62.8106 17.7926C62.6967 17.5234 62.5799 17.2457 62.4317 16.9765C61.8663 15.9453 60.9519 15.3627 59.7142 15.2417C59.529 15.2232 59.3453 15.2146 59.1658 15.2146C56.6391 15.2146 54.8958 16.975 54.8289 19.5943C54.789 21.1397 55.2148 22.7036 56.1321 24.3728C56.84 25.6618 57.5806 26.9593 58.297 28.2141C58.7471 29.0032 59.1986 29.7937 59.6444 30.5856C60.4619 32.0398 60.8237 33.4142 60.7482 34.7858C60.5616 38.1657 58.4736 40.6383 55.296 41.2407C54.9798 41.3006 54.6465 41.3233 54.3774 41.3419C54.2748 41.349 54.1808 41.3547 54.0996 41.3632L54.101 41.3647Z" fill="#ffffff" stroke="#ffffff" stroke-width="0.5"/>
<path d="M119.985 40.6765V40.4971C120.005 40.4971 120.023 40.4942 120.043 40.4928C120.369 40.4686 120.708 40.4444 121.041 40.3974C122.275 40.2236 122.892 39.6382 123.101 38.4389C123.196 37.8977 123.241 37.3024 123.241 36.5646C123.248 30.2863 123.241 23.8969 123.235 18.402C123.235 18.063 123.192 17.7368 123.154 17.4904C122.988 16.4051 122.235 16.2883 121.919 16.2883C121.784 16.2883 121.637 16.3068 121.483 16.3425C121.123 16.4265 120.778 16.5333 120.412 16.6444C120.371 16.6572 120.328 16.67 120.285 16.6829L120.2 16.4692L120.534 16.3353C121.063 16.1231 121.581 15.9166 122.101 15.7115C122.906 15.3953 123.712 15.0834 124.52 14.7715L124.831 14.6504C124.948 14.6532 125.141 14.7957 125.162 14.8769C125.165 14.9196 125.165 14.9808 125.162 15.0449C125.162 15.0805 125.162 15.1176 125.162 15.1532V19.3392C125.165 25.1318 125.166 31.1209 125.175 37.0118C125.175 37.4676 125.222 37.9661 125.314 38.4945C125.511 39.6197 126.132 40.2222 127.271 40.3874C127.542 40.4273 127.813 40.4429 128.073 40.46C128.193 40.4671 128.311 40.4743 128.431 40.4842V40.6765H119.987H119.985Z" fill="#ffffff" stroke="#ffffff" stroke-width="0.5"/>
</svg>
