<svg width="202" height="260" viewBox="0 0 202 260" fill="none" xmlns="http://www.w3.org/2000/svg">
<path d="M172.242 116.84C173.698 115.737 175.034 114.747 176.49 113.93C178.283 112.921 180.172 112.13 182.237 111.858C184.875 111.486 187.053 112.663 188.151 115.094C189.494 118.039 189.168 121.006 188.049 123.901C186.261 128.475 182.994 131.727 178.679 133.969C178.345 134.145 177.998 134.302 177.664 134.478C176.821 134.967 176.767 135.462 177.544 136.104C178.687 137.047 180.045 137.355 181.479 137.324C183.942 137.274 185.876 136.037 187.694 134.511C189.272 133.195 190.45 131.488 192.001 130.133C192.301 129.867 192.616 129.603 192.969 129.414C194.19 128.79 195.232 129.261 195.585 130.585C195.925 131.889 195.84 133.219 195.641 134.528C195.091 138.195 193.63 141.499 191.573 144.563C189.884 147.07 187.845 149.179 185.158 150.584C182.192 152.142 179.121 152.773 175.924 151.281C173.966 150.378 172.652 148.783 171.523 147.003C170.003 144.581 169.14 141.873 167.967 139.294C167.728 138.747 167.489 138.201 167.231 137.667C167.061 137.301 166.869 136.864 166.418 136.851C165.914 136.845 165.841 137.353 165.693 137.714C165.041 139.396 164.563 141.144 164.084 142.891C163.665 144.396 163.247 145.902 162.795 147.402C162.471 148.471 161.93 149.434 161.146 150.252C159.289 152.192 156.616 151.717 155.54 149.257C155.028 148.073 154.968 146.802 155.009 145.531C155.029 145.132 155.034 144.729 154.865 144.161C154.495 144.448 154.151 144.774 153.768 145.042C149.633 147.972 145.193 150.259 140.255 151.466C135.898 152.525 131.685 152.113 127.801 149.658C126.563 148.866 125.499 147.854 124.649 146.677C124.191 146.041 123.871 146.136 123.412 146.642C121.798 148.44 119.991 150.002 117.757 151.034C114.735 152.43 111.666 152.675 108.627 151.143C106.343 149.998 104.989 148.06 104.766 145.532C104.555 143.125 104.246 140.7 104.625 138.279C104.745 137.51 104.946 136.756 105.082 135.99C105.152 135.599 105.224 135.192 105.245 134.792C105.265 134.392 105.207 133.962 104.752 133.78C104.346 133.607 103.993 133.796 103.726 134.068C103.335 134.47 102.958 134.89 102.594 135.33C100.057 138.543 97.681 141.887 95.2593 145.205C93.9035 147.065 92.4481 148.824 90.6019 150.227C90.0396 150.649 89.4505 151.031 88.8107 151.321C85.5244 152.788 82.8182 150.895 83.0226 147.284C83.0335 147.034 83.1833 146.758 82.9823 146.47C82.5699 146.615 82.3567 146.964 82.0898 147.236C79.717 149.807 76.8867 151.64 73.3533 152.038C69.6157 152.45 66.4551 151.317 64.4149 147.946C63.0915 145.744 62.9572 143.283 63.2965 140.805C63.8109 136.963 65.1284 133.331 66.5246 129.729C68.2563 125.28 70.1451 120.892 72.6376 116.796C73.4714 115.415 74.4431 114.108 75.8592 113.234C77.9353 111.955 79.8911 112.773 80.3553 115.175C80.7604 117.247 80.32 119.254 79.7167 121.231C78.8006 124.211 77.3536 126.963 76.0801 129.779C75.4698 131.133 74.9055 132.512 74.7102 133.991C74.509 135.501 75.0403 136.201 76.5616 136.437C77.6917 136.605 78.7581 136.374 79.7969 135.92C82.6563 134.679 84.947 132.666 86.9122 130.308C88.023 128.976 88.3251 127.181 88.9788 125.582C89.9344 123.231 90.4943 120.742 91.5745 118.446C92.3068 116.878 93.2441 115.481 94.8365 114.655C96.7273 113.663 98.4195 114.451 98.8898 116.535C99.259 118.147 99.0405 119.755 98.7568 121.352C98.5629 122.444 98.2578 123.499 98.015 124.582C97.9379 124.921 97.8492 125.326 98.198 125.539C98.6061 125.796 98.9276 125.501 99.1781 125.226C99.9432 124.42 100.56 123.504 101.206 122.611C103.117 119.992 105.1 117.436 107.577 115.321C108.983 114.125 110.467 113.061 112.273 112.541C116.051 111.431 118.966 113.377 119.259 117.312C119.49 120.362 118.571 123.174 117.236 125.862C116.374 127.591 115.385 129.281 114.756 131.119C114.57 131.692 114.436 132.256 114.381 132.851C114.24 134.306 114.955 135.105 116.408 135.161C117.961 135.219 119.389 134.75 120.764 134.103C122.066 133.494 123.21 132.638 124.447 131.916C124.823 131.697 125.181 131.475 125.583 131.295C126.934 130.694 127.997 131.051 128.742 132.343C129.063 132.904 129.345 133.492 129.649 134.051C130.872 136.251 132.751 137.594 135.192 138.145C136.695 138.479 138.228 138.651 139.756 138.283C140.211 138.179 140.643 138.021 140.973 137.676C141.43 137.186 141.526 136.648 141.143 136.059C140.717 135.428 140.092 135.065 139.401 134.791C137.8 134.154 136.134 133.69 134.567 132.958C132.674 132.067 130.988 130.96 130.024 129.007C128.849 126.63 129.09 124.236 129.999 121.859C132.596 115.092 140.008 110.274 147.219 110.748C150.21 110.943 152.696 112.275 154.005 115.13C155.262 117.892 155.065 120.613 153.232 123.078C151.44 125.5 148.699 125.887 146.296 124.082C145.108 123.198 143.965 122.255 142.371 122.14C141.341 122.075 140.44 122.319 139.669 122.972C138.856 123.668 138.879 124.579 139.756 125.223C140.261 125.598 140.85 125.787 141.469 125.897C142.93 126.19 144.374 126.48 145.784 126.966C149.032 128.081 151.099 130.162 151.371 133.741C151.419 134.321 151.628 134.375 152.08 134.102C154.459 132.726 156.562 131.015 158.417 128.991C158.751 128.63 158.949 128.178 159.081 127.714C160.816 121.164 163.058 114.788 165.634 108.522C166.936 105.358 168.302 102.205 170.251 99.3744C171.406 97.697 172.674 96.1405 174.5 95.1369C176.788 93.896 178.604 94.8404 178.848 97.4389C179.063 99.7295 178.477 101.895 177.747 104.017C176.404 107.981 174.389 111.658 172.67 115.47C172.5 115.86 172.235 116.217 172.193 116.831L172.242 116.84ZM170.828 131.801C173.137 132.144 176.903 129.871 177.699 127.66C178.1 126.537 177.537 125.731 176.326 125.735C175.518 125.742 174.81 126.037 174.118 126.435C172.489 127.373 171.043 128.511 170.078 130.155C169.499 131.145 169.782 131.632 170.828 131.801Z" fill="#F8F6F3"/>
<path d="M38.5151 107.811C38.3093 109.254 37.8992 110.711 37.4728 112.165C37.3429 112.612 37.2485 113.049 37.2652 113.523C37.2656 113.994 37.2986 114.47 37.7969 114.693C38.3115 114.919 38.6877 114.599 39.0255 114.306C39.9429 113.494 40.5826 112.448 41.2194 111.418C44.0269 106.874 47.4436 102.875 51.7116 99.6664C53.7084 98.172 55.9088 97.235 58.4892 97.6597C60.3363 97.9542 61.4731 99.0302 62.0723 100.767C62.7642 102.739 62.642 104.751 62.5199 106.764C62.198 111.699 60.287 116.116 58.0589 120.427C56.2477 123.904 54.6858 127.493 54.2029 131.441C54.0354 132.857 53.8488 134.286 54.1166 135.712C54.4282 137.365 55.3104 138.076 57.0123 137.958C57.7285 137.9 58.4382 137.69 59.1602 137.6C61.2995 137.291 62.2172 137.992 62.208 140.125C62.1926 143.619 61.7506 147.053 59.4809 149.894C57.3793 152.547 54.6626 153.93 51.1841 153.261C47.3664 152.516 44.9385 150.286 43.9831 146.486C43.3513 143.987 43.5334 141.447 43.7453 138.93C44.1766 133.947 45.7446 129.283 47.649 124.713C48.0508 123.776 48.4392 122.82 48.5727 121.784C48.6385 121.225 48.7456 120.622 48.1756 120.235C47.6085 119.831 47.0157 120.045 46.4929 120.339C44.8697 121.244 43.5768 122.561 42.4755 124.03C40.1874 127.069 38.364 130.426 36.4083 133.676C35.2394 135.62 34.2543 137.664 33.1477 139.636C32.0602 141.594 30.7456 143.411 29.0776 144.947C28.4951 145.483 27.8455 145.922 27.084 146.14C25.4058 146.598 24.2071 145.965 23.7162 144.281C23.2645 142.755 23.2892 141.196 23.4176 139.622C23.6966 136.158 24.5728 132.834 25.4519 129.494C26.2232 126.572 26.285 123.574 26.0257 120.586C25.8375 118.334 24.1533 118.069 22.6785 118.328C20.7999 118.683 19.6979 119.967 18.9674 121.619C17.9389 123.907 17.5373 126.357 17.2661 128.83C16.8119 132.901 16.6864 137.014 15.3656 140.948C14.548 143.375 13.6977 145.796 12.2869 147.966C11.3131 149.474 10.1371 150.794 8.47663 151.626C5.63431 153.054 2.79307 151.826 1.88956 148.775C1.38528 147.071 1.36041 145.319 1.50429 143.562C1.79419 139.849 2.82787 136.301 3.78008 132.738C4.97585 128.278 6.37768 123.887 8.37846 119.721C12.1244 111.881 17.3896 105.235 24.4401 100.083C26.3131 98.7182 28.3831 97.758 30.5995 97.1095C31.9124 96.7208 33.2605 96.6073 34.5967 96.8447C36.878 97.2499 38.1438 98.7354 38.6456 100.926C39.176 103.239 38.9692 105.539 38.4872 107.873L38.5151 107.811Z" fill="#F8F6F3"/>
<path d="M78.6179 101.014C79.2364 98.3842 80.3118 96.0202 82.6606 94.4372C85.6013 92.455 88.8786 93.8776 89.1948 97.3965C89.5509 101.259 88.1428 104.454 84.9381 106.692C82.1777 108.606 79.3527 107.381 78.6451 104.078C78.4219 103.064 78.4355 102.041 78.6179 101.014Z" fill="#F8F6F3"/>
<path d="M156.031 30.9074C156.175 30.9548 156.272 30.9696 156.353 31.0184C157.457 31.6811 158.687 31.9161 159.937 31.9192C162.631 31.9296 165.324 31.8895 168.012 31.8158C168.568 31.8041 169.153 31.6402 169.653 31.3981C170.545 30.9752 170.698 29.8565 169.944 29.2201C169.524 28.8628 168.98 28.6133 168.45 28.4267C166.533 27.7516 164.564 27.204 162.675 26.4526C159.598 25.2296 157.585 22.9782 156.587 19.8003C155.807 17.3166 155.706 14.768 155.808 12.2067C155.891 10.1425 156.231 8.11072 157.125 6.22717C158.818 2.67257 161.576 0.534967 165.575 0.366257C170.113 0.173542 174.662 0.136318 179.206 0.0192449C179.572 0.0115086 179.659 0.156984 179.666 0.493563C179.799 6.80443 179.95 13.1149 180.091 19.4256C180.094 19.5266 180.079 19.6237 180.07 19.8007C179.904 19.7368 179.773 19.6933 179.65 19.6328C178.557 19.1045 177.414 18.8088 176.19 18.8388C173.868 18.8963 171.545 18.937 169.223 18.9945C168.857 19.0022 168.483 19.0564 168.127 19.1481C167.416 19.3273 166.928 19.7501 166.818 20.5143C166.718 21.1899 167.065 21.856 167.771 22.1989C168.375 22.4892 169.015 22.7029 169.643 22.9422C171.34 23.584 173.078 24.1366 174.731 24.8761C177.501 26.1097 179.236 28.3292 180.037 31.2039C181.244 35.5264 181.188 39.863 179.704 44.1203C178.541 47.4449 176.14 49.537 172.793 50.5001C171.693 50.818 170.513 50.965 169.365 51.0019C165.26 51.1392 161.153 51.1923 157.047 51.2917C156.647 51.3002 156.435 51.2499 156.425 50.7661C156.296 44.2363 156.145 37.7069 155.998 31.1774C155.997 31.1101 156.008 31.0425 156.018 30.8992L156.031 30.9074Z" fill="#F8F6F3"/>
<path d="M37.985 2.77451L38.3872 21.8081C38.1014 21.8268 37.8411 21.8575 37.576 21.8631C33.4698 21.9499 29.3633 22.0283 25.2572 22.1235C24.7229 22.1348 24.1721 22.1633 23.657 22.2878C22.5305 22.5599 21.9107 23.3054 21.7835 24.4572C21.7376 24.8749 21.7297 25.296 21.7386 25.7167C21.7704 27.6185 21.819 29.52 21.8592 31.4217C21.8602 31.4722 21.8613 31.5227 21.8624 31.5732C21.9455 33.9159 22.9255 34.8759 25.2607 34.835C29.5355 34.7572 33.8098 34.6543 38.0844 34.5639C38.2653 34.5601 38.4462 34.5563 38.644 34.5521C38.665 34.7495 38.6846 34.8796 38.6873 35.01C38.8147 41.0348 38.942 47.0595 39.0693 53.0843C39.0846 53.8079 39.0805 53.8122 38.3316 53.8281C34.1917 53.9156 30.0522 54.0241 25.9118 54.0906C23.3872 54.1313 20.9784 53.6771 18.8918 52.1386C16.754 50.5633 15.6047 48.3651 14.9706 45.8446C14.415 43.655 14.2752 41.4229 14.2237 39.1848C14.0649 32.0663 13.9144 24.9476 13.7682 17.8289C13.7128 15.2078 13.902 12.6109 14.7075 10.0937C15.6156 7.2586 17.2215 4.97278 20.0594 3.82263C21.1028 3.40071 22.2623 3.0984 23.3811 3.05792C28.159 2.88538 32.9394 2.83064 37.7189 2.73384C37.7989 2.73215 37.8794 2.75991 37.985 2.77872L37.985 2.77451Z" fill="#F8F6F3"/>
<path d="M117.779 26.3422C118.047 26.4922 118.23 26.5978 118.418 26.6991C121.257 28.2048 122.839 30.5874 123.016 33.7616C123.222 37.5412 123.248 41.3331 123.34 45.1194C123.393 47.206 123.416 49.2932 123.481 51.3796C123.495 51.8549 123.364 52.0176 122.867 52.0239C120.696 52.0445 118.525 52.0946 116.355 52.1616C115.913 52.1751 115.78 52.0516 115.77 51.6057C115.642 45.3284 115.497 39.0514 115.356 32.7744C115.345 32.2527 115.333 31.731 115.285 31.2101C115.188 30.2062 114.601 29.5157 113.615 29.3092C113.028 29.1869 112.416 29.1115 111.814 29.1158C109.659 29.1318 107.506 29.2068 105.351 29.2187C104.817 29.2216 104.72 29.413 104.73 29.8969C104.901 37.1835 105.046 44.4706 105.217 51.7614C105.227 52.2452 105.109 52.4035 104.62 52.4054C102.466 52.4298 100.312 52.4796 98.1583 52.5504C97.6788 52.5647 97.5289 52.4416 97.5184 51.9451C97.3706 44.557 97.2061 37.1693 97.0414 29.7773C96.8381 20.5552 96.6348 11.3331 96.4355 2.10675C96.4317 1.92583 96.4447 1.74457 96.4523 1.50449C97.3905 1.48466 98.2782 1.4659 99.166 1.44713C103.238 1.35264 107.316 1.32538 111.383 1.14683C116.021 0.943565 119.404 3.4733 121.179 7.4092C122.023 9.27285 122.498 11.2285 122.591 13.2637C122.705 15.6815 122.908 18.1101 122.429 20.5153C121.999 22.6752 121.027 24.5099 119.065 25.6836C118.691 25.9062 118.291 26.083 117.783 26.3379L117.779 26.3422ZM109.123 24.248C109.122 24.2017 109.121 24.1512 109.12 24.1049C110.399 24.0779 111.678 24.0635 112.956 24.0154C113.306 24.0038 113.662 23.9416 113.992 23.8294C114.799 23.5598 115.308 22.7745 115.282 21.9122C115.255 21.0709 114.762 20.4163 113.915 20.1775C113.547 20.0758 113.154 20.021 112.771 20.0249C110.179 20.0586 107.587 20.1176 104.995 20.1513C104.654 20.1585 104.513 20.2541 104.525 20.6159C104.565 21.7094 104.588 22.8033 104.595 23.8975C104.598 24.2552 104.73 24.3492 105.079 24.3334C106.425 24.2839 107.772 24.2681 109.118 24.2396L109.123 24.248Z" fill="#F8F6F3"/>
<path d="M152.414 20.0476C152.536 25.8031 152.674 31.5582 152.771 37.3143C152.812 39.8852 152.529 42.4208 151.617 44.8562C150.258 48.4879 147.661 50.6768 143.863 51.4011C141.297 51.8888 138.702 51.9479 136.135 51.4171C132.115 50.5887 129.6 48.0743 128.386 44.2107C127.596 41.7019 127.268 39.116 127.208 36.4992C126.978 26.217 126.761 15.9345 126.54 5.65205C126.51 4.27207 126.49 2.89192 126.435 1.51248C126.418 1.0751 126.536 0.92527 126.987 0.919963C129.04 0.893397 131.093 0.850003 133.146 0.781365C133.613 0.767287 133.742 0.907666 133.752 1.36626C133.88 8.04763 134.026 14.7286 134.167 21.4097C134.23 24.3885 134.293 27.3672 134.364 30.3458C134.372 30.7328 134.402 31.1237 134.481 31.4966C134.757 32.7914 135.636 33.5767 136.958 33.5783C138.945 33.5868 140.931 33.5448 142.916 33.465C144.194 33.4127 145.026 32.5449 145.174 31.1696C145.248 30.503 145.225 29.8258 145.211 29.1526C145.013 19.7789 144.815 10.4051 144.6 1.03174C144.591 0.611018 144.732 0.52385 145.115 0.515758C147.236 0.483563 149.356 0.438746 151.476 0.372892C151.905 0.359615 152.009 0.49632 152.018 0.90863C152.14 7.28708 152.279 13.6652 152.414 20.0434C152.414 20.0434 152.414 20.0434 152.41 20.0434L152.414 20.0476Z" fill="#F8F6F3"/>
<path d="M68.7137 27.5754C68.5394 19.3292 68.3651 11.083 68.1907 2.83261C68.1749 2.08372 68.175 2.08793 68.8986 2.06843C73.3582 1.96996 77.8177 1.86729 82.2772 1.76883C84.2378 1.72739 86.1019 2.10048 87.7903 3.12129C89.3892 4.08927 90.4931 5.53492 91.423 7.11473C92.3137 8.62803 92.841 10.2795 93.0922 12.0083C93.5944 15.4534 93.735 18.9188 93.2608 22.3718C93.1003 23.5412 92.7463 24.7146 92.2767 25.7978C91.3534 27.9177 89.5941 29.1166 87.3381 29.32C84.4435 29.5832 81.5274 29.6196 78.6217 29.7526C78.1508 29.7752 77.6757 29.802 77.2078 29.7698C76.7231 29.738 76.5752 29.9095 76.5897 30.3974C76.6726 33.1232 76.726 35.8496 76.7878 38.5758C76.8853 43.1869 76.9785 47.7982 77.0886 52.409C77.0979 52.8508 76.9788 52.988 76.5285 52.9933C74.4075 53.0129 72.2873 53.0703 70.1669 53.1151C69.2834 53.1338 69.2791 53.1339 69.2607 52.263C69.0868 44.0336 68.9129 35.8043 68.7389 27.5707C68.7304 27.5709 68.722 27.571 68.7178 27.5711L68.7137 27.5754ZM80.8431 24.7262C80.8431 24.7262 80.8429 24.7178 80.8428 24.7136C81.8694 24.6919 82.8961 24.6744 83.9225 24.6485C84.3433 24.6396 84.7682 24.6306 85.1793 24.563C86.0936 24.409 86.7245 23.5917 86.713 22.6491C86.6976 21.7192 86.1147 21.0244 85.1853 20.8673C84.8728 20.815 84.5483 20.7966 84.2326 20.799C81.7753 20.8383 79.3227 20.8986 76.8652 20.9295C76.4781 20.9377 76.3759 21.0787 76.392 21.4404C76.4291 22.3993 76.4493 23.3585 76.4443 24.3141C76.444 24.6972 76.5438 24.8424 76.9602 24.8251C78.2554 24.7683 79.5517 24.7619 80.8433 24.7346L80.8431 24.7262Z" fill="#F8F6F3"/>
<path d="M40.0476 2.76491C40.2829 2.7431 40.4297 2.71895 40.5769 2.71584C43.1181 2.66213 45.6593 2.60842 48.2003 2.5463C48.52 2.53954 48.6608 2.62916 48.777 2.9466C50.0273 6.34219 51.2985 9.72893 52.5612 13.1158C52.8155 13.7923 53.053 14.4776 53.303 15.1542C53.3788 15.3546 53.4671 15.5506 53.6089 15.8843C53.7322 15.545 53.8162 15.337 53.8832 15.1209C55.172 10.9771 56.4565 6.82926 57.7537 2.68532C57.8012 2.54121 58.0118 2.35155 58.1506 2.34441C60.7586 2.26824 63.3672 2.21732 65.9757 2.16218C66.022 2.16121 66.069 2.19389 66.1749 2.22953C66.0849 2.54712 66.0075 2.86865 65.9004 3.17818C64.2683 8.00686 62.6192 12.8317 60.9999 17.6685C59.9386 20.8268 58.9155 23.9968 57.8839 27.167C57.7811 27.4807 57.7294 27.8227 57.7364 28.1551C57.8973 36.1659 58.0666 44.1765 58.2317 52.1871C58.2483 52.9697 58.2483 52.9697 57.4488 52.9824C55.362 53.0265 53.2748 53.0496 51.1886 53.1231C50.6755 53.1424 50.5292 52.9939 50.5185 52.4849C50.3888 45.753 50.2424 39.0215 50.1001 32.2899C50.0805 31.3643 50.0104 30.4356 50.0498 29.513C50.0966 28.3418 49.8171 27.266 49.3819 26.1892C46.361 18.6809 43.3609 11.1636 40.3568 3.65071C40.2457 3.37525 40.1598 3.09506 40.0434 2.765L40.0476 2.76491Z" fill="#F8F6F3"/>
<path d="M154.194 204.803C156.204 204.46 158.009 206.136 158.157 208.52L158.157 208.521C158.291 210.726 158.307 212.944 158.37 215.136C158.514 220.126 158.645 225.13 158.776 230.119C158.807 231.254 158.832 232.393 158.856 233.532C158.88 234.67 158.904 235.809 158.935 236.943C158.941 237.165 158.934 237.381 158.974 237.559C158.993 237.644 159.019 237.698 159.047 237.729C159.068 237.754 159.098 237.772 159.156 237.776C159.21 237.777 159.23 237.763 159.244 237.749C159.266 237.726 159.29 237.681 159.31 237.6C159.33 237.521 159.341 237.426 159.351 237.32C159.361 237.22 159.369 237.103 159.385 237.002L159.385 237C160.111 232.574 160.802 228.128 161.552 223.7L161.637 223.253C161.855 222.242 162.206 221.447 162.708 220.855C163.284 220.174 164.046 219.776 164.987 219.61L165.203 219.578C167.346 219.326 169.136 221.016 169.496 223.531L169.527 223.785L169.527 223.786C169.978 228.365 170.418 232.944 170.858 237.522L170.888 237.777C170.899 237.858 170.912 237.937 170.931 238.016L170.959 238.095C170.969 238.116 170.979 238.131 170.988 238.143C170.999 238.156 171.009 238.162 171.02 238.165C171.044 238.164 171.065 238.157 171.084 238.14C171.107 238.118 171.132 238.079 171.145 238.024C171.213 237.7 171.268 237.378 171.3 237.057C171.855 230.89 172.421 224.71 172.963 218.543C173.235 215.434 173.473 212.316 173.792 209.218C174 207.206 175.115 205.898 176.737 205.578L176.737 205.577C178.308 205.264 179.857 206.118 180.632 207.636L180.776 207.948L180.777 207.95C181.166 208.909 181.275 209.653 181.191 211.627L181.167 212.161L181.133 212.116C180.89 214.834 180.605 217.996 180.309 221.146C180.012 224.276 179.705 227.396 179.408 230.539C178.798 236.981 178.057 243.408 177.023 249.768L177.023 249.769C176.763 251.32 176.502 252.894 176.147 254.422L176.146 254.422C175.72 256.21 174.972 257.731 173.539 258.696L173.538 258.697C172.4 259.454 170.982 259.532 169.791 258.958C168.596 258.381 167.643 257.154 167.411 255.334L167.003 252.131C166.737 249.995 166.483 247.855 166.24 245.713L165.886 242.495C165.804 241.712 165.724 240.925 165.644 240.139C165.565 239.353 165.486 238.566 165.403 237.784C165.385 237.608 165.367 237.447 165.329 237.287C165.304 237.183 165.276 237.109 165.243 237.064C165.218 237.03 165.197 237.019 165.159 237.02L165.146 237.021C165.111 237.02 165.082 237.032 165.05 237.071C165.014 237.115 164.982 237.188 164.964 237.283L164.964 237.285C164.894 237.644 164.825 238.003 164.758 238.361L164.569 239.434C163.726 244.569 162.731 249.672 161.784 254.77C161.589 255.84 161.236 256.732 160.701 257.418C160.163 258.108 159.447 258.578 158.543 258.815L158.544 258.816C156.175 259.454 153.965 257.627 153.237 254.648C152.792 252.813 152.646 250.897 152.433 249.037L152.433 249.036C151.874 244.056 151.624 239.043 151.434 234.023L151.434 234.022C151.203 227.629 150.972 221.236 150.753 214.843L150.709 213.505C150.669 212.165 150.648 210.819 150.68 209.483L150.681 209.482C150.734 206.958 152.097 205.152 154.194 204.803Z" fill="#F8F6F3" stroke="#F8F6F3" stroke-width="0.389562"/>
<path d="M21.0417 200.504C22.0834 200.404 23.1766 200.729 24.1639 201.477L24.1649 201.477C25.2939 202.338 26.004 203.532 26.271 205.144L27.0102 209.648C27.4959 212.653 27.9674 215.664 28.4293 218.676L29.1153 223.194L29.1952 223.682C29.2236 223.842 29.2535 224.004 29.2838 224.17L29.3239 224.331C29.3384 224.376 29.3546 224.414 29.3732 224.445C29.4018 224.491 29.4307 224.511 29.4775 224.517C29.5123 224.517 29.5369 224.508 29.5712 224.456C29.6141 224.39 29.645 224.299 29.6861 224.178C29.7499 223.969 29.8023 223.76 29.843 223.551L29.8441 223.546C31.1707 217.648 32.4978 211.75 33.8125 205.852C34.1609 204.29 34.8065 203.056 35.701 202.23C36.5989 201.4 37.7358 200.994 39.0377 201.071C41.2591 201.2 42.8277 203.197 42.7593 205.843C42.6673 209.64 42.5626 213.438 42.3878 217.235L42.3878 217.236C42.2633 219.773 42.2333 222.308 42.1557 224.854L42.0337 228.86L41.9985 228.858C41.7722 236.267 41.5121 243.672 41.3333 251.081L41.3209 251.358C41.1177 254.183 38.8088 255.757 36.8209 255.075C35.425 254.598 34.5616 253.324 34.4958 251.637L34.4935 251.295C34.5499 248.666 34.6542 246.022 34.7341 243.397L34.933 236.901C34.9813 235.278 35.0239 233.655 35.0501 232.031L35.0702 230.407C35.0862 229.11 35.1493 227.81 35.1769 226.522L35.1769 226.52C35.1788 226.458 35.1863 226.355 35.1886 226.297C35.1915 226.225 35.1908 226.162 35.1836 226.11C35.1762 226.057 35.1637 226.028 35.1533 226.014C35.1466 226.005 35.1359 225.994 35.1043 225.987L35.0994 225.986C35.0557 225.975 35.0412 225.983 35.0369 225.986C35.0267 225.992 35.0069 226.01 34.983 226.057C34.9307 226.159 34.9053 226.3 34.867 226.462L34.867 226.463C34.381 228.471 33.9126 230.495 33.4302 232.512L32.9419 234.526C32.6189 235.854 32.3145 237.205 31.7966 238.477C31.4387 239.351 30.8941 240.017 30.1172 240.368L30.1162 240.367C29.3607 240.714 28.5967 240.712 27.9301 240.384C27.3496 240.098 26.8597 239.574 26.5131 238.856L26.3733 238.538C25.8709 237.258 25.6607 235.87 25.4198 234.528L25.0638 232.552C24.9478 231.893 24.8335 231.234 24.7205 230.574L24.0406 226.625C24.0183 226.501 24.0078 226.354 23.9973 226.221C23.9862 226.082 23.9742 225.953 23.9501 225.844C23.9255 225.731 23.894 225.665 23.8619 225.631C23.8409 225.609 23.8087 225.586 23.7271 225.596L23.728 225.597C23.6624 225.607 23.6281 225.634 23.6015 225.677C23.5689 225.729 23.5449 225.813 23.5332 225.932C23.5217 226.05 23.5235 226.184 23.528 226.326C23.5324 226.463 23.5398 226.613 23.5358 226.743L22.8032 250.792C22.7482 252.597 21.9443 253.911 20.5271 254.469L20.528 254.47C19.394 254.92 18.2567 254.692 17.3887 253.994C16.5239 253.298 15.933 252.143 15.8532 250.742C15.8059 249.935 15.8432 249.117 15.8677 248.313C16.2737 234.209 16.7036 220.105 17.1336 205.987C17.1769 204.568 17.3467 203.171 18.2747 202.045C19.0237 201.127 19.9991 200.604 21.0417 200.504Z" fill="#F8F6F3" stroke="#F8F6F3" stroke-width="0.389562"/>
<path d="M57.3375 200.719C59.6024 200.41 61.5674 201.238 63.2845 202.841L63.6251 203.172L64.0359 203.609C66.0338 205.834 67.2323 208.684 68.0738 211.757C69.1008 215.491 69.5402 219.364 69.6813 223.293L69.7307 224.782C69.7675 226.248 69.7666 227.716 69.7146 229.191L69.7268 229.207L69.7237 229.277C69.4875 235.086 68.8506 240.839 67.0328 246.313C66.0256 249.346 64.653 252.137 62.5738 254.328C59.8456 257.206 56.2381 257.883 53.1179 255.972L53.118 255.971C51.3704 254.912 50.0875 253.236 49.0504 251.297L49.0504 251.297C47.2419 247.908 46.3593 244.144 45.8339 240.237L45.7337 239.454C45.2604 235.526 45.1564 231.567 45.3483 227.604C45.6032 222.345 46.1994 217.129 47.7533 212.126L47.9368 211.554C48.8697 208.71 50.0702 206.054 51.9553 203.888C53.4597 202.16 55.2359 201.011 57.3366 200.719L57.3375 200.719ZM58.9089 217.673C57.5639 217.282 56.0646 217.599 54.7792 218.76L54.7792 218.761C53.653 219.772 53.0177 221.198 52.5705 222.789C51.8175 225.518 51.6179 228.317 51.7814 231.148L51.8189 231.715L51.8189 231.715C51.9489 233.614 52.2802 235.417 53.0772 237.042L53.0771 237.043C53.6403 238.204 54.326 239.063 55.1344 239.586C55.9384 240.105 56.8788 240.301 57.9752 240.112C59.8176 239.797 61.065 238.378 61.9437 236.364C62.8204 234.355 63.18 232.181 63.2787 229.713L63.2801 229.7L63.2814 229.689C63.4073 228.937 63.3446 227.98 63.3145 226.997C63.2497 224.885 62.9374 222.82 62.1794 220.931C61.4781 219.178 60.2571 218.065 58.9089 217.673Z" fill="#F8F6F3" stroke="#F8F6F3" stroke-width="0.389562"/>
<path d="M81.7713 201.776C83.5328 201.232 85.1813 201.262 86.704 201.814C88.2241 202.365 89.6056 203.432 90.8471 204.941C93.4756 208.148 94.8918 212.116 95.3868 216.566C95.6619 219.045 94.5841 221.131 92.7091 221.559L92.5243 221.595C91.8506 221.705 91.2285 221.611 90.6816 221.308C90.1366 221.007 89.6805 220.506 89.3208 219.828L89.3208 219.827C89.133 219.475 88.9669 219.112 88.8065 218.751C88.645 218.388 88.4898 218.03 88.3193 217.682L88.3192 217.683C87.6763 216.384 86.9424 215.252 85.8116 214.625C84.9449 214.143 84.0443 214.008 83.1338 214.266C81.9583 214.611 81.1498 215.477 80.8447 216.893L80.7899 217.185C80.5382 218.721 80.975 220.014 81.9712 220.967C83.159 222.102 84.6038 222.652 86.0424 223.31L86.0433 223.31C87.5844 224.022 89.1095 224.786 90.4795 225.988L90.4785 225.988C92.9478 228.148 94.4524 231.07 94.94 234.695C95.9596 242.21 94.4724 248.927 89.9265 254.402C88.3924 256.249 86.5509 257.371 84.6259 257.746C82.7001 258.122 80.705 257.748 78.8731 256.629L78.8721 256.628C77.2614 255.639 75.978 254.196 74.9555 252.452L74.7542 252.099C72.7977 248.585 71.8224 244.651 71.7614 240.401L71.7607 240.358L71.7754 240.324C71.7773 238.907 72.0588 237.577 73.0955 236.665L73.0955 236.664C73.9228 235.943 74.9237 235.757 75.8471 236.043C76.7666 236.329 77.5916 237.076 78.0983 238.188L78.0983 238.189C78.2731 238.577 78.4227 238.977 78.5673 239.374C78.7126 239.772 78.8527 240.165 79.0103 240.548C79.6273 242.044 80.5011 243.232 81.7317 243.965L81.7327 243.965C82.7771 244.591 83.8654 244.716 84.963 244.244C86.2838 243.666 87.1417 242.559 87.3093 240.796L87.3093 240.795C87.4714 239.203 86.9208 238.019 85.8958 237.131L85.8949 237.13C84.8482 236.208 83.6325 235.709 82.4038 235.085L82.4028 235.084C81.0404 234.383 79.6207 233.739 78.3096 232.792C74.9798 230.384 73.225 226.734 72.7441 222.157C72.1244 216.319 73.2516 210.976 76.2695 206.273C77.69 204.063 79.5087 202.477 81.7713 201.776Z" fill="#F8F6F3" stroke="#F8F6F3" stroke-width="0.389562"/>
<path d="M132.793 204.056C134.501 203.133 136.248 202.883 137.899 203.276C139.548 203.669 141.085 204.7 142.382 206.311C144.332 208.726 145.493 211.667 146.335 214.825L146.335 214.826C147.219 218.181 147.554 221.631 147.755 225.123C147.879 227.286 147.884 229.46 147.802 231.371L147.79 231.372C147.673 236.256 147.2 240.868 146.115 245.341L145.89 246.236C145.058 249.4 143.942 252.425 142.131 255.013L142.131 255.014C141.221 256.312 140.175 257.459 138.892 258.248C137.177 259.327 135.346 259.669 133.604 259.309C131.972 258.971 130.432 258.021 129.148 256.513L128.895 256.203C126.89 253.656 125.709 250.585 124.907 247.267C123.863 242.938 123.548 238.504 123.543 234.002C123.537 229.545 123.79 225.105 124.529 220.721L124.663 219.945C125.358 216.069 126.399 212.31 128.289 208.967L128.509 208.585C129.623 206.687 130.968 205.042 132.793 204.056ZM136.342 219.915C134.121 219.674 132.178 221.148 131.167 223.833L131.072 224.097C130.418 225.991 130.11 227.986 129.989 230.037C129.84 232.61 129.893 235.131 130.554 237.578C131.028 239.324 131.757 240.841 133.058 241.798L133.057 241.798C134.226 242.65 135.528 242.807 136.727 242.378C137.932 241.948 139.05 240.918 139.82 239.367C141.01 236.954 141.31 234.299 141.411 232.266L141.402 232.254L141.404 232.185C141.517 228.497 141.273 226.047 140.644 224.167C139.856 221.821 138.588 220.246 136.542 219.94L136.342 219.915Z" fill="#F8F6F3" stroke="#F8F6F3" stroke-width="0.389562"/>
<path d="M111.455 202.304C113.824 202.469 116.101 203.914 117.692 206.563L118.019 207.133C119.597 210.004 120.302 213.248 120.677 216.629C120.92 218.797 121.031 220.993 120.94 223.198L120.94 223.199C120.9 224.121 120.705 224.875 120.342 225.438C119.975 226.008 119.443 226.368 118.763 226.511L118.764 226.512C118.021 226.674 117.337 226.554 116.766 226.168C116.198 225.784 115.761 225.149 115.48 224.31L115.479 224.31C115.323 223.838 115.192 223.323 115.05 222.862C114.905 222.39 114.742 221.943 114.506 221.543L114.505 221.542C113.465 219.738 111.876 218.932 110.326 219.039C108.773 219.146 107.216 220.173 106.258 222.121C105.416 223.843 105.041 225.756 104.804 227.721C104.471 230.541 104.504 233.339 105.053 236.106C105.275 237.223 105.638 238.269 106.165 239.204L106.166 239.204C107.238 241.123 108.904 241.942 110.493 241.782C112.084 241.621 113.648 240.471 114.497 238.35L114.877 237.343C115.004 237.003 115.135 236.664 115.282 236.342L115.283 236.341C115.703 235.427 116.409 234.822 117.195 234.605C117.984 234.387 118.837 234.565 119.525 235.185C120.058 235.666 120.356 236.303 120.47 237.042L120.507 237.364C120.624 238.817 120.487 240.245 120.302 241.655L120.11 243.059C119.643 246.332 118.896 249.522 117.479 252.415L117.187 252.99C116.05 255.137 114.622 256.989 112.573 257.923L112.573 257.922C110.975 258.662 109.447 258.855 108.002 258.502C106.559 258.15 105.22 257.259 103.989 255.872C101.947 253.565 100.82 250.591 100.002 247.465C99.1181 244.096 98.7619 240.617 98.5846 237.11C98.47 234.807 98.4799 232.495 98.4937 230.148L98.4606 230.147L98.4715 229.948C98.767 224.131 99.3225 218.304 101.155 212.742C102.019 210.124 103.166 207.724 104.783 205.655C106.661 203.256 109.085 202.138 111.455 202.304Z" fill="#F8F6F3" stroke="#F8F6F3" stroke-width="0.389562"/>
</svg>
