<svg width="1622" height="235" viewBox="0 0 1622 235" fill="none" xmlns="http://www.w3.org/2000/svg">
<path d="M1454.93 164.208C1454.93 177.457 1457.97 187.557 1464.05 194.508C1470.35 201.459 1479.37 204.934 1491.1 204.934C1506.52 204.934 1521.94 198.526 1537.36 185.711C1553 172.896 1565.82 156.497 1575.81 136.514C1585.8 116.314 1590.79 96.1136 1590.79 75.9135C1590.79 61.1435 1587.54 49.523 1581.02 41.0519C1574.5 32.3637 1565.6 28.0196 1554.3 28.0196C1539.97 28.0196 1524.98 35.1874 1509.34 49.523C1493.7 63.6414 1480.67 81.4522 1470.24 102.956C1460.04 124.242 1454.93 144.659 1454.93 164.208ZM1424.31 173.005C1424.31 145.854 1431.26 118.812 1445.16 91.8781C1459.06 64.9446 1476.76 42.8982 1498.26 25.7389C1519.98 8.57963 1541.81 0 1563.75 0C1582.21 0 1596.33 5.75596 1606.11 17.2679C1616.1 28.5626 1621.09 44.6358 1621.09 65.4876C1621.09 92.8556 1614.25 119.68 1600.57 145.962C1586.88 172.244 1569.18 193.639 1547.46 210.147C1525.74 226.437 1503.59 234.582 1481 234.582C1462.53 234.582 1448.42 229.37 1438.64 218.944C1429.08 208.301 1424.31 192.988 1424.31 173.005Z" fill="#FECDAE"/>
<path d="M1339.19 231.65C1330.07 231.65 1325.51 227.958 1325.51 220.573C1325.73 218.4 1326.7 216.554 1328.44 215.034C1330.18 213.296 1333.44 211.015 1338.22 208.192L1345.71 204.282C1348.53 202.762 1350.49 201.024 1351.57 199.069C1352.88 197.114 1353.53 194.291 1353.53 190.598V44.6357C1353.53 40.9432 1352.88 38.1195 1351.57 36.1646C1350.49 33.9926 1348.53 32.2549 1345.71 30.9517L1338.22 27.042C1333.44 24.6527 1330.07 22.5893 1328.12 20.8516C1326.38 18.8968 1325.51 16.8333 1325.51 14.6613C1325.51 7.27625 1330.07 3.58374 1339.19 3.58374H1395.88C1400.66 3.58374 1404.14 4.56117 1406.31 6.51602C1408.48 8.25367 1409.57 10.9688 1409.57 14.6613C1409.57 16.8333 1408.59 18.8968 1406.64 20.8516C1404.9 22.5893 1401.64 24.6527 1396.86 27.042L1389.37 30.9517C1386.54 32.2549 1384.48 33.9926 1383.18 36.1646C1382.09 38.1195 1381.55 40.9432 1381.55 44.6357V190.598C1381.55 194.291 1382.09 197.114 1383.18 199.069C1384.48 201.024 1386.54 202.762 1389.37 204.282L1396.86 208.192C1401.64 211.015 1404.9 213.296 1406.64 215.034C1408.37 216.554 1409.35 218.4 1409.57 220.573C1409.57 224.265 1408.48 227.089 1406.31 229.044C1404.14 230.781 1400.66 231.65 1395.88 231.65H1339.19Z" fill="#FECDAE"/>
<path d="M1297.03 162.579C1299.64 162.796 1301.48 164.099 1302.57 166.488C1303.66 168.66 1304.2 171.158 1304.2 173.982V223.505C1304.2 226.763 1303.22 228.935 1301.27 230.021C1299.53 231.107 1296.7 231.65 1292.79 231.65H1154.65C1145.53 231.65 1140.97 227.958 1140.97 220.573C1140.97 218.4 1141.84 216.446 1143.57 214.708C1145.53 212.753 1148.9 210.581 1153.67 208.192L1161.17 204.282C1163.99 202.979 1165.95 201.35 1167.03 199.395C1168.34 197.223 1168.99 194.291 1168.99 190.598V44.6357C1168.99 40.9432 1168.34 38.1195 1167.03 36.1646C1165.95 33.9926 1163.99 32.2549 1161.17 30.9517L1153.67 27.042C1148.9 24.6527 1145.53 22.5893 1143.57 20.8516C1141.84 18.8968 1140.97 16.8333 1140.97 14.6613C1140.97 7.27625 1145.53 3.58374 1154.65 3.58374H1211.34C1216.12 3.58374 1219.6 4.56117 1221.77 6.51602C1223.94 8.25367 1225.03 10.9688 1225.03 14.6613C1225.03 16.8333 1224.05 18.8968 1222.09 20.8516C1220.36 22.5893 1217.1 24.6527 1212.32 27.042L1204.83 30.9517C1202 32.2549 1199.94 33.9926 1198.64 36.1646C1197.55 38.1195 1197.01 40.9432 1197.01 44.6357V181.475C1197.01 182.344 1197.01 183.322 1197.01 184.408C1197.01 189.403 1197.12 193.313 1197.33 196.137C1197.77 198.961 1198.96 201.35 1200.92 203.305C1203.31 205.911 1206.78 207.54 1211.34 208.192C1215.9 208.843 1221.88 209.169 1229.26 209.169C1230.35 209.169 1231.43 209.169 1232.52 209.169C1242.51 209.169 1250.11 208.626 1255.33 207.54C1260.76 206.454 1265.32 204.282 1269.01 201.024C1272.7 197.549 1276.61 192.227 1280.74 185.059C1281.83 182.67 1282.91 180.281 1284 177.892C1286.17 172.679 1288.12 168.769 1289.86 166.162C1291.82 163.556 1294.21 162.361 1297.03 162.579Z" fill="#FECDAE"/>
<path d="M966.539 164.208C966.539 177.457 969.58 187.557 975.662 194.508C981.961 201.459 990.975 204.934 1002.7 204.934C1018.13 204.934 1033.55 198.526 1048.97 185.711C1064.61 172.896 1077.42 156.497 1087.41 136.514C1097.41 116.314 1102.4 96.1136 1102.4 75.9135C1102.4 61.1435 1099.14 49.523 1092.63 41.0519C1086.11 32.3637 1077.21 28.0196 1065.91 28.0196C1051.58 28.0196 1036.59 35.1874 1020.95 49.523C1005.31 63.6414 992.278 81.4522 981.852 102.956C971.643 124.242 966.539 144.659 966.539 164.208ZM935.913 173.005C935.913 145.854 942.864 118.812 956.765 91.8781C970.666 64.9446 988.368 42.8982 1009.87 25.7389C1031.59 8.57963 1053.42 0 1075.36 0C1093.82 0 1107.94 5.75596 1117.71 17.2679C1127.71 28.5626 1132.7 44.6358 1132.7 65.4876C1132.7 92.8556 1125.86 119.68 1112.18 145.962C1098.49 172.244 1080.79 193.639 1059.07 210.147C1037.35 226.437 1015.19 234.582 992.604 234.582C974.141 234.582 960.023 229.37 950.249 218.944C940.692 208.301 935.913 192.988 935.913 173.005Z" fill="#FECDAE"/>
<path d="M786.21 231.65C777.088 231.65 772.526 227.958 772.526 220.573C772.744 218.4 773.721 216.554 775.459 215.034C777.196 213.296 780.454 211.015 785.233 208.192L792.727 204.282C795.55 202.762 797.505 201.024 798.591 199.069C799.894 197.114 800.546 194.291 800.546 190.598V44.6357C800.546 40.9432 799.894 38.1195 798.591 36.1646C797.505 33.9926 795.55 32.2549 792.727 30.9517L785.233 27.042C780.454 24.6527 777.088 22.5893 775.133 20.8516C773.395 18.8968 772.526 16.8333 772.526 14.6613C772.526 7.27625 777.088 3.58374 786.21 3.58374H929.566C933.476 3.58374 936.3 4.12675 938.037 5.21278C939.992 6.29881 940.97 8.47088 940.97 11.729V54.0841C940.97 57.125 940.427 59.8401 939.341 62.2294C938.255 64.4014 936.408 65.4874 933.802 65.4874C931.847 65.4874 930.001 64.2928 928.263 61.9036C926.743 59.5143 924.462 55.6046 921.421 50.1744C917.077 42.5722 913.493 37.3593 910.669 34.5356C907.846 31.4947 904.153 29.5399 899.592 28.671C895.031 27.585 887.754 27.042 877.763 27.042C872.984 27.042 862.341 27.2592 845.833 27.6936C840.403 27.9108 836.385 28.671 833.778 29.9743C831.389 31.0603 829.869 32.4721 829.217 34.2098C828.783 35.9474 828.565 38.5539 828.565 42.0292C828.783 53.1067 828.891 70.0488 828.891 92.8554V95.4619C828.674 98.2856 829 100.349 829.869 101.652C830.738 102.956 833.127 103.824 837.037 104.259C838.34 104.476 839.643 104.585 840.946 104.585C842.467 104.367 843.987 104.259 845.508 104.259C847.462 104.259 849.309 104.259 851.046 104.259H883.953C886.994 104.259 889.275 103.824 890.795 102.955C892.533 101.869 894.053 100.24 895.356 98.0684L898.614 91.878C900.569 87.9683 902.307 85.2532 903.827 83.7328C905.348 82.2123 907.085 81.4521 909.04 81.4521C911.43 81.4521 913.059 82.6467 913.927 85.036C914.796 87.4253 915.231 90.0317 915.231 92.8554V139.12C915.231 141.944 914.796 144.55 913.927 146.94C913.059 149.329 911.43 150.524 909.04 150.524C907.085 150.524 905.348 149.763 903.827 148.243C902.307 146.723 900.569 144.007 898.614 140.098L895.356 133.907C894.053 131.735 892.533 130.215 890.795 129.346C889.275 128.26 886.994 127.717 883.953 127.717H844.53C838.448 127.717 834.647 127.934 833.127 128.369C830.955 129.02 829.652 130.432 829.217 132.604C828.783 134.559 828.565 137.274 828.565 140.749V190.598C828.565 194.291 829.109 197.114 830.195 199.069C831.498 201.024 833.561 202.762 836.385 204.282L843.879 208.192C848.657 211.015 851.915 213.296 853.653 215.034C855.39 216.554 856.368 218.4 856.585 220.573C856.585 224.265 855.499 227.089 853.327 229.044C851.155 230.781 847.68 231.65 842.901 231.65H786.21Z" fill="#FECDAE"/>
<path d="M611.504 164.208C611.504 177.457 614.545 187.557 620.627 194.508C626.926 201.459 635.94 204.934 647.669 204.934C663.09 204.934 678.512 198.526 693.934 185.711C709.572 172.896 722.388 156.497 732.379 136.514C742.371 116.314 747.366 96.1136 747.366 75.9135C747.366 61.1435 744.108 49.523 737.592 41.0519C731.076 32.3637 722.17 28.0196 710.876 28.0196C696.54 28.0196 681.553 35.1874 665.914 49.523C650.275 63.6414 637.243 81.4522 626.817 102.956C616.608 124.242 611.504 144.659 611.504 164.208ZM580.878 173.005C580.878 145.854 587.829 118.812 601.73 91.8781C615.631 64.9446 633.333 42.8982 654.837 25.7389C676.557 8.57963 698.386 0 720.324 0C738.787 0 752.905 5.75596 762.679 17.2679C772.671 28.5626 777.667 44.6358 777.667 65.4876C777.667 92.8556 770.825 119.68 757.141 145.962C743.457 172.244 725.754 193.639 704.034 210.147C682.313 226.437 660.158 234.582 637.569 234.582C619.106 234.582 604.988 229.37 595.214 218.944C585.656 208.301 580.878 192.988 580.878 173.005Z" fill="#FECDAE"/>
<path d="M389.293 162.579C389.293 136.297 396.135 110.558 409.819 85.362C423.72 60.1661 441.748 39.6401 463.903 23.7841C486.058 7.92802 508.865 0 532.323 0C536.45 0 539.491 0.108603 541.446 0.325806C556.216 2.06346 567.836 7.2764 576.307 15.9646C584.778 24.4357 589.014 35.6218 589.014 49.523C589.014 56.4736 587.711 62.4467 585.104 67.4425C582.498 72.221 578.371 74.6103 572.723 74.6103C567.945 74.6103 563.818 72.9812 560.343 69.7231C557.085 66.465 554.804 61.9037 553.501 56.0391C551.763 48.4369 548.939 42.138 545.03 37.1422C541.12 32.1465 536.233 28.8884 530.368 27.368C527.762 26.7163 525.155 26.3905 522.549 26.3905C507.996 26.3905 492.574 33.4497 476.284 47.5681C460.211 61.4693 446.744 78.8458 435.884 99.6975C425.023 120.332 419.593 140.098 419.593 158.995C419.593 173.33 423.286 185.168 430.671 194.508C438.273 203.631 448.482 208.192 461.297 208.192C470.419 208.192 479.759 205.911 489.316 201.35C498.873 196.571 506.801 190.815 513.1 184.082C519.399 177.131 522.549 170.724 522.549 164.859C522.549 161.167 521.028 158.235 517.988 156.063C514.947 153.673 509.299 150.85 501.045 147.591L495.181 145.311C491.488 143.79 488.665 142.053 486.71 140.098C484.972 137.926 484.103 135.862 484.103 133.907C484.103 128.912 488.23 126.414 496.484 126.414H559.365C568.271 126.414 572.723 128.695 572.723 133.256C572.941 135.211 572.506 137.6 571.42 140.424C570.334 143.03 568.705 146.505 566.533 150.85L564.578 154.759C561.32 161.71 558.171 167.574 555.13 172.353C544.269 189.947 530.585 204.825 514.078 216.989C497.787 228.935 478.456 234.908 456.084 234.908C451.957 234.908 449.025 234.8 447.287 234.582C428.607 232.845 414.272 225.786 404.28 213.405C394.289 200.807 389.293 183.865 389.293 162.579Z" fill="#FECDAE"/>
<path d="M218.195 164.208C218.195 177.457 221.236 187.557 227.318 194.508C233.617 201.459 242.631 204.934 254.36 204.934C269.781 204.934 285.203 198.526 300.625 185.711C316.263 172.896 329.079 156.497 339.07 136.514C349.062 116.314 354.057 96.1136 354.057 75.9135C354.057 61.1435 350.799 49.523 344.283 41.0519C337.767 32.3637 328.861 28.0196 317.567 28.0196C303.231 28.0196 288.244 35.1874 272.605 49.523C256.966 63.6414 243.934 81.4522 233.508 102.956C223.299 124.242 218.195 144.659 218.195 164.208ZM187.569 173.005C187.569 145.854 194.519 118.812 208.421 91.8781C222.322 64.9446 240.024 42.8982 261.527 25.7389C283.248 8.57963 305.077 0 327.015 0C345.478 0 359.596 5.75596 369.37 17.2679C379.362 28.5626 384.357 44.6358 384.357 65.4876C384.357 92.8556 377.516 119.68 363.832 145.962C350.148 172.244 332.445 193.639 310.725 210.147C289.004 226.437 266.849 234.582 244.26 234.582C225.797 234.582 211.679 229.37 201.904 218.944C192.347 208.301 187.569 192.988 187.569 173.005Z" fill="#FECDAE"/>
<path d="M156.063 162.579C158.669 162.796 160.515 164.099 161.601 166.488C162.687 168.66 163.23 171.158 163.23 173.982V223.505C163.23 226.763 162.253 228.935 160.298 230.021C158.56 231.107 155.737 231.65 151.827 231.65H13.684C4.56133 231.65 0 227.958 0 220.573C0 218.4 0.868824 216.446 2.60647 214.708C4.56132 212.753 7.92802 210.581 12.7065 208.192L20.2002 204.282C23.0238 202.979 24.9787 201.35 26.0647 199.395C27.368 197.223 28.0196 194.291 28.0196 190.598V44.6357C28.0196 40.9432 27.368 38.1195 26.0647 36.1646C24.9787 33.9926 23.0238 32.2549 20.2002 30.9517L12.7065 27.042C7.92802 24.6527 4.56132 22.5893 2.60647 20.8516C0.868824 18.8968 0 16.8333 0 14.6613C0 7.27625 4.56133 3.58374 13.684 3.58374H70.3747C75.1533 3.58374 78.6286 4.56117 80.8006 6.51602C82.9727 8.25367 84.0587 10.9688 84.0587 14.6613C84.0587 16.8333 83.0813 18.8968 81.1264 20.8516C79.3888 22.5893 76.1307 24.6527 71.3522 27.042L63.8586 30.9517C61.0349 32.2549 58.9714 33.9926 57.6682 36.1646C56.5822 38.1195 56.0391 40.9432 56.0391 44.6357V181.475C56.0391 182.344 56.0391 183.322 56.0391 184.408C56.0391 189.403 56.1477 193.313 56.3649 196.137C56.7994 198.961 57.994 201.35 59.9489 203.305C62.3381 205.911 65.8134 207.54 70.3747 208.192C74.9361 208.843 80.9092 209.169 88.2942 209.169C89.3803 209.169 90.4663 209.169 91.5523 209.169C101.544 209.169 109.146 208.626 114.359 207.54C119.789 206.454 124.35 204.282 128.043 201.024C131.735 197.549 135.645 192.227 139.772 185.059C140.858 182.67 141.944 180.281 143.03 177.892C145.202 172.679 147.157 168.769 148.895 166.162C150.85 163.556 153.239 162.361 156.063 162.579Z" fill="#FECDAE"/>
</svg>
