<svg width="173" height="25" viewBox="0 0 173 25" fill="none" xmlns="http://www.w3.org/2000/svg">
<path d="M16.5853 17.2777C16.8623 17.3008 17.0585 17.4393 17.174 17.6932C17.2894 17.924 17.3471 18.1895 17.3471 18.4896V23.7525C17.3471 24.0988 17.2432 24.3296 17.0355 24.445C16.8508 24.5605 16.5507 24.6182 16.1352 24.6182H1.45425C0.484757 24.6182 8.62498e-06 24.2257 8.62498e-06 23.4409C8.62498e-06 23.2101 0.0923417 23.0023 0.277008 22.8177C0.484757 22.6099 0.842548 22.3791 1.35038 22.1252L2.14675 21.7097C2.44684 21.5712 2.65458 21.398 2.77 21.1903C2.9085 20.9595 2.97775 20.6478 2.97775 20.2554V4.74347C2.97775 4.35105 2.9085 4.05097 2.77 3.84322C2.65458 3.61239 2.44684 3.42772 2.14675 3.28922L1.35038 2.87372C0.842548 2.61981 0.484757 2.40052 0.277008 2.21585C0.0923417 2.0081 8.62498e-06 1.78881 8.62498e-06 1.55798C8.62498e-06 0.773145 0.484757 0.380729 1.45425 0.380729H7.47899C7.98682 0.380729 8.35615 0.484604 8.58699 0.692353C8.81782 0.87702 8.93323 1.16556 8.93323 1.55798C8.93323 1.78881 8.82936 2.0081 8.62161 2.21585C8.43694 2.40052 8.0907 2.61981 7.58286 2.87372L6.78649 3.28922C6.48641 3.42772 6.26712 3.61239 6.12862 3.84322C6.0132 4.05097 5.95549 4.35105 5.95549 4.74347V19.2859C5.95549 19.3783 5.95549 19.4821 5.95549 19.5976C5.95549 20.1285 5.96703 20.544 5.99012 20.844C6.03628 21.1441 6.16324 21.398 6.37099 21.6058C6.62491 21.8828 6.99424 22.0559 7.47899 22.1252C7.96374 22.1944 8.59853 22.229 9.38336 22.229C9.49877 22.229 9.61419 22.229 9.72961 22.229C10.7914 22.229 11.5994 22.1713 12.1534 22.0559C12.7304 21.9405 13.2152 21.7097 13.6076 21.3634C14 20.9941 14.4155 20.4286 14.8541 19.6668C14.9695 19.4129 15.0849 19.159 15.2003 18.9051C15.4312 18.3511 15.6389 17.9356 15.8236 17.6586C16.0313 17.3816 16.2853 17.2546 16.5853 17.2777ZM23.1884 17.4508C23.1884 18.8589 23.5116 19.9323 24.1579 20.6709C24.8273 21.4096 25.7853 21.7789 27.0318 21.7789C28.6707 21.7789 30.3096 21.098 31.9485 19.7361C33.6105 18.3741 34.9724 16.6314 36.0343 14.5077C37.0961 12.3609 37.627 10.2142 37.627 8.06746C37.627 6.4978 37.2808 5.26284 36.5883 4.36259C35.8958 3.43926 34.9493 2.9776 33.749 2.9776C32.2255 2.9776 30.6328 3.73935 28.9708 5.26284C27.3088 6.76325 25.9238 8.65608 24.8158 10.9413C23.7309 13.2035 23.1884 15.3733 23.1884 17.4508ZM19.9337 18.3857C19.9337 15.5003 20.6723 12.6264 22.1497 9.76408C23.627 6.90175 25.5083 4.5588 27.7935 2.73522C30.1019 0.911645 32.4217 -0.000144006 34.7531 -0.000144006C36.7152 -0.000144006 38.2156 0.611562 39.2544 1.83498C40.3162 3.03531 40.8471 4.74347 40.8471 6.95946C40.8471 9.86795 40.12 12.7187 38.6657 15.5118C37.2115 18.3049 35.3302 20.5786 33.0219 22.3329C30.7136 24.0642 28.3591 24.9298 25.9584 24.9298C23.9963 24.9298 22.4959 24.3758 21.4572 23.2678C20.4415 22.1367 19.9337 20.5093 19.9337 18.3857ZM41.3714 17.2777C41.3714 14.4846 42.0985 11.7492 43.5527 9.07158C45.0301 6.39392 46.946 4.21255 49.3005 2.52747C51.655 0.842395 54.0787 -0.000144006 56.5717 -0.000144006C57.0103 -0.000144006 57.3334 0.0113975 57.5412 0.0344805C59.1109 0.219147 60.3458 0.773145 61.2461 1.69648C62.1463 2.59672 62.5964 3.78551 62.5964 5.26284C62.5964 6.00151 62.4579 6.6363 62.1809 7.16721C61.9039 7.67504 61.4653 7.92896 60.8652 7.92896C60.3574 7.92896 59.9188 7.75583 59.5494 7.40959C59.2032 7.06334 58.9608 6.57859 58.8223 5.95534C58.6376 5.14743 58.3376 4.47801 57.9221 3.9471C57.5066 3.41618 56.9872 3.06993 56.3639 2.90835C56.0869 2.8391 55.8099 2.80447 55.5329 2.80447C53.9864 2.80447 52.3475 3.55468 50.6162 5.05509C48.908 6.53242 47.4769 8.37908 46.3227 10.5951C45.1686 12.788 44.5915 14.8886 44.5915 16.8968C44.5915 18.4203 44.9839 19.6783 45.7687 20.6709C46.5766 21.6404 47.6616 22.1252 49.0235 22.1252C49.993 22.1252 50.9855 21.8828 52.0012 21.398C53.0169 20.8902 53.8594 20.2785 54.5288 19.5629C55.1982 18.8243 55.5329 18.1433 55.5329 17.5201C55.5329 17.1276 55.3714 16.816 55.0482 16.5852C54.725 16.3313 54.1249 16.0312 53.2477 15.6849L52.6245 15.4426C52.232 15.281 51.932 15.0963 51.7242 14.8886C51.5395 14.6577 51.4472 14.4384 51.4472 14.2307C51.4472 13.6998 51.8858 13.4343 52.763 13.4343H59.4456C60.392 13.4343 60.8652 13.6767 60.8652 14.1614C60.8883 14.3692 60.8421 14.6231 60.7267 14.9232C60.6113 15.2002 60.4381 15.5695 60.2073 16.0312L59.9996 16.4467C59.6533 17.1854 59.3186 17.8086 58.9954 18.3164C57.8413 20.1862 56.387 21.7674 54.6327 23.06C52.9015 24.3296 50.847 24.9644 48.4695 24.9644C48.0309 24.9644 47.7193 24.9529 47.5346 24.9298C45.5494 24.7451 44.0259 23.9949 42.9641 22.6792C41.9023 21.3403 41.3714 19.5398 41.3714 17.2777ZM63.5616 17.4508C63.5616 18.8589 63.8848 19.9323 64.5311 20.6709C65.2005 21.4096 66.1585 21.7789 67.405 21.7789C69.0439 21.7789 70.6828 21.098 72.3217 19.7361C73.9837 18.3741 75.3456 16.6314 76.4074 14.5077C77.4693 12.3609 78.0002 10.2142 78.0002 8.06746C78.0002 6.4978 77.6539 5.26284 76.9614 4.36259C76.2689 3.43926 75.3225 2.9776 74.1222 2.9776C72.5987 2.9776 71.006 3.73935 69.344 5.26284C67.682 6.76325 66.297 8.65608 65.189 10.9413C64.1041 13.2035 63.5616 15.3733 63.5616 17.4508ZM60.3069 18.3857C60.3069 15.5003 61.0455 12.6264 62.5228 9.76408C64.0002 6.90175 65.8815 4.5588 68.1667 2.73522C70.475 0.911645 72.7949 -0.000144006 75.1263 -0.000144006C77.0884 -0.000144006 78.5888 0.611562 79.6276 1.83498C80.6894 3.03531 81.2203 4.74347 81.2203 6.95946C81.2203 9.86795 80.4932 12.7187 79.0389 15.5118C77.5847 18.3049 75.7034 20.5786 73.3951 22.3329C71.0867 24.0642 68.7322 24.9298 66.3316 24.9298C64.3695 24.9298 62.8691 24.3758 61.8304 23.2678C60.8147 22.1367 60.3069 20.5093 60.3069 18.3857ZM83.5531 24.6182C82.5836 24.6182 82.0989 24.2257 82.0989 23.4409C82.122 23.2101 82.2259 23.0139 82.4105 22.8523C82.5952 22.6676 82.9414 22.4253 83.4493 22.1252L84.2456 21.7097C84.5457 21.5481 84.7535 21.3634 84.8689 21.1557C85.0074 20.9479 85.0766 20.6478 85.0766 20.2554V4.74347C85.0766 4.35105 85.0074 4.05097 84.8689 3.84322C84.7535 3.61239 84.5457 3.42772 84.2456 3.28922L83.4493 2.87372C82.9414 2.61981 82.5836 2.40052 82.3759 2.21585C82.1912 2.0081 82.0989 1.78881 82.0989 1.55798C82.0989 0.773145 82.5836 0.380729 83.5531 0.380729H98.7881C99.2036 0.380729 99.5037 0.438437 99.6884 0.553854C99.8961 0.66927 100 0.900103 100 1.24635V5.74759C100 6.07076 99.9423 6.3593 99.8269 6.61321C99.7114 6.84404 99.5152 6.95946 99.2382 6.95946C99.0305 6.95946 98.8343 6.8325 98.6496 6.57859C98.488 6.32467 98.2456 5.90917 97.9225 5.33209C97.4608 4.52418 97.0799 3.97018 96.7799 3.6701C96.4798 3.34693 96.0874 3.13918 95.6026 3.04685C95.1179 2.93143 94.3446 2.87372 93.2827 2.87372C92.7749 2.87372 91.6438 2.89681 89.8895 2.94297C89.3124 2.96606 88.8854 3.04685 88.6084 3.18535C88.3545 3.30076 88.1929 3.45081 88.1236 3.63547C88.0775 3.82014 88.0544 4.09714 88.0544 4.46647C88.0775 5.64372 88.089 7.44421 88.089 9.86795V10.145C88.0659 10.445 88.1006 10.6643 88.1929 10.8028C88.2852 10.9413 88.5391 11.0337 88.9546 11.0798C89.0931 11.1029 89.2316 11.1145 89.3701 11.1145C89.5317 11.0914 89.6933 11.0798 89.8549 11.0798C90.0626 11.0798 90.2588 11.0798 90.4435 11.0798H93.9406C94.2638 11.0798 94.5062 11.0337 94.6677 10.9413C94.8524 10.8259 95.014 10.6528 95.1525 10.422L95.4987 9.76408C95.7065 9.34858 95.8912 9.06004 96.0527 8.89846C96.2143 8.73687 96.399 8.65608 96.6067 8.65608C96.8607 8.65608 97.0338 8.78304 97.1261 9.03696C97.2184 9.29087 97.2646 9.56787 97.2646 9.86795V14.7847C97.2646 15.0848 97.2184 15.3618 97.1261 15.6157C97.0338 15.8696 96.8607 15.9966 96.6067 15.9966C96.399 15.9966 96.2143 15.9158 96.0527 15.7542C95.8912 15.5926 95.7065 15.3041 95.4987 14.8886L95.1525 14.2307C95.014 13.9999 94.8524 13.8383 94.6677 13.7459C94.5062 13.6305 94.2638 13.5728 93.9406 13.5728H89.751C89.1047 13.5728 88.7007 13.5959 88.5391 13.6421C88.3083 13.7113 88.1698 13.8614 88.1236 14.0922C88.0775 14.2999 88.0544 14.5885 88.0544 14.9578V20.2554C88.0544 20.6478 88.1121 20.9479 88.2275 21.1557C88.366 21.3634 88.5853 21.5481 88.8854 21.7097L89.6818 22.1252C90.1896 22.4253 90.5358 22.6676 90.7205 22.8523C90.9052 23.0139 91.009 23.2101 91.0321 23.4409C91.0321 23.8333 90.9167 24.1334 90.6859 24.3412C90.455 24.5258 90.0857 24.6182 89.5779 24.6182H83.5531ZM102.717 17.4508C102.717 18.8589 103.041 19.9323 103.687 20.6709C104.356 21.4096 105.314 21.7789 106.561 21.7789C108.2 21.7789 109.839 21.098 111.478 19.7361C113.14 18.3741 114.502 16.6314 115.563 14.5077C116.625 12.3609 117.156 10.2142 117.156 8.06746C117.156 6.4978 116.81 5.26284 116.117 4.36259C115.425 3.43926 114.478 2.9776 113.278 2.9776C111.755 2.9776 110.162 3.73935 108.5 5.26284C106.838 6.76325 105.453 8.65608 104.345 10.9413C103.26 13.2035 102.717 15.3733 102.717 17.4508ZM99.4628 18.3857C99.4628 15.5003 100.201 12.6264 101.679 9.76408C103.156 6.90175 105.037 4.5588 107.323 2.73522C109.631 0.911645 111.951 -0.000144006 114.282 -0.000144006C116.244 -0.000144006 117.745 0.611562 118.783 1.83498C119.845 3.03531 120.376 4.74347 120.376 6.95946C120.376 9.86795 119.649 12.7187 118.195 15.5118C116.741 18.3049 114.859 20.5786 112.551 22.3329C110.243 24.0642 107.888 24.9298 105.487 24.9298C103.525 24.9298 102.025 24.3758 100.986 23.2678C99.9706 22.1367 99.4628 20.5093 99.4628 18.3857ZM137.84 17.2777C138.117 17.3008 138.313 17.4393 138.429 17.6932C138.544 17.924 138.602 18.1895 138.602 18.4896V23.7525C138.602 24.0988 138.498 24.3296 138.29 24.445C138.106 24.5605 137.806 24.6182 137.39 24.6182H122.709C121.74 24.6182 121.255 24.2257 121.255 23.4409C121.255 23.2101 121.347 23.0023 121.532 22.8177C121.74 22.6099 122.097 22.3791 122.605 22.1252L123.402 21.7097C123.702 21.5712 123.909 21.398 124.025 21.1903C124.163 20.9595 124.233 20.6478 124.233 20.2554V4.74347C124.233 4.35105 124.163 4.05097 124.025 3.84322C123.909 3.61239 123.702 3.42772 123.402 3.28922L122.605 2.87372C122.097 2.61981 121.74 2.40052 121.532 2.21585C121.347 2.0081 121.255 1.78881 121.255 1.55798C121.255 0.773145 121.74 0.380729 122.709 0.380729H128.734C129.242 0.380729 129.611 0.484604 129.842 0.692353C130.073 0.87702 130.188 1.16556 130.188 1.55798C130.188 1.78881 130.084 2.0081 129.876 2.21585C129.692 2.40052 129.345 2.61981 128.838 2.87372L128.041 3.28922C127.741 3.42772 127.522 3.61239 127.383 3.84322C127.268 4.05097 127.21 4.35105 127.21 4.74347V19.2859C127.21 19.3783 127.21 19.4821 127.21 19.5976C127.21 20.1285 127.222 20.544 127.245 20.844C127.291 21.1441 127.418 21.398 127.626 21.6058C127.88 21.8828 128.249 22.0559 128.734 22.1252C129.219 22.1944 129.853 22.229 130.638 22.229C130.754 22.229 130.869 22.229 130.984 22.229C132.046 22.229 132.854 22.1713 133.408 22.0559C133.985 21.9405 134.47 21.7097 134.862 21.3634C135.255 20.9941 135.67 20.4286 136.109 19.6668C136.224 19.4129 136.34 19.159 136.455 18.9051C136.686 18.3511 136.894 17.9356 137.078 17.6586C137.286 17.3816 137.54 17.2546 137.84 17.2777ZM142.321 24.6182C141.351 24.6182 140.867 24.2257 140.867 23.4409C140.89 23.2101 140.994 23.0139 141.178 22.8523C141.363 22.6676 141.709 22.4253 142.217 22.1252L143.013 21.7097C143.313 21.5481 143.521 21.3634 143.637 21.1557C143.775 20.9479 143.844 20.6478 143.844 20.2554V4.74347C143.844 4.35105 143.775 4.05097 143.637 3.84322C143.521 3.61239 143.313 3.42772 143.013 3.28922L142.217 2.87372C141.709 2.61981 141.351 2.40052 141.144 2.21585C140.959 2.0081 140.867 1.78881 140.867 1.55798C140.867 0.773145 141.351 0.380729 142.321 0.380729H148.346C148.853 0.380729 149.223 0.484604 149.454 0.692353C149.684 0.87702 149.8 1.16556 149.8 1.55798C149.8 1.78881 149.696 2.0081 149.488 2.21585C149.304 2.40052 148.957 2.61981 148.449 2.87372L147.653 3.28922C147.353 3.42772 147.134 3.61239 146.995 3.84322C146.88 4.05097 146.822 4.35105 146.822 4.74347V20.2554C146.822 20.6478 146.88 20.9479 146.995 21.1557C147.134 21.3634 147.353 21.5481 147.653 21.7097L148.449 22.1252C148.957 22.4253 149.304 22.6676 149.488 22.8523C149.673 23.0139 149.777 23.2101 149.8 23.4409C149.8 23.8333 149.684 24.1334 149.454 24.3412C149.223 24.5258 148.853 24.6182 148.346 24.6182H142.321ZM154.621 17.4508C154.621 18.8589 154.944 19.9323 155.591 20.6709C156.26 21.4096 157.218 21.7789 158.464 21.7789C160.103 21.7789 161.742 21.098 163.381 19.7361C165.043 18.3741 166.405 16.6314 167.467 14.5077C168.529 12.3609 169.06 10.2142 169.06 8.06746C169.06 6.4978 168.713 5.26284 168.021 4.36259C167.328 3.43926 166.382 2.9776 165.182 2.9776C163.658 2.9776 162.065 3.73935 160.403 5.26284C158.741 6.76325 157.356 8.65608 156.248 10.9413C155.164 13.2035 154.621 15.3733 154.621 17.4508ZM151.366 18.3857C151.366 15.5003 152.105 12.6264 153.582 9.76408C155.06 6.90175 156.941 4.5588 159.226 2.73522C161.534 0.911645 163.854 -0.000144006 166.186 -0.000144006C168.148 -0.000144006 169.648 0.611562 170.687 1.83498C171.749 3.03531 172.28 4.74347 172.28 6.95946C172.28 9.86795 171.553 12.7187 170.098 15.5118C168.644 18.3049 166.763 20.5786 164.455 22.3329C162.146 24.0642 159.792 24.9298 157.391 24.9298C155.429 24.9298 153.929 24.3758 152.89 23.2678C151.874 22.1367 151.366 20.5093 151.366 18.3857Z" fill="black"/>
</svg>
