<?xml version="1.0" encoding="UTF-8"?>
<svg xmlns="http://www.w3.org/2000/svg" version="1.1" viewBox="0 0 177 25">
  <defs>
    <style>
      .cls-1 {
        fill: #212124;
      }
    </style>
  </defs>
  <!-- Generator: Adobe Illustrator 28.7.5, SVG Export Plug-In . SVG Version: 1.2.0 Build 176)  -->
  <g>
    <g id="Layer_1">
      <g>
        <path class="cls-1" d="M176.60059,12.08789c.1602-6.36858-4.54563-12.38202-11.3623-11.88184l-.04004.02051c-10.03081-.00941-13.35022,13.60527-7.44308,20.3467,7.10641,7.47948,19.40871,1.76361,18.84542-8.48538ZM173.22754,12.8833c-.01481,9.76838-13.13316,11.33968-14.875,1.62451-2.70595-13.81159,15.55446-15.99286,14.875-1.62451Z"/>
        <path class="cls-1" d="M151.37988.98975c-1.43669-1.01765-4.05112-.46392-3.44307,1.77294.08451.51093-.16255,19.70359.08565,20.15919l-.00977.00488c.54765,1.20751,3.90951,1.13104,3.66594-.6375-.17232-1.06838.3656-21.06357-.29875-21.29951Z"/>
        <path class="cls-1" d="M145.92871,21.3877c.09825-2.13991-10.40694-.52852-11.55859-1.07422h-.00098c-.25652-.18716-.20236-.26943-.23441-.6826.00003-.00002.00003-17.80568.00003-17.80568.08317-1.44016-1.45495-1.35331-2.48052-1.30751-.69637.04484-1.19165.44439-1.23039,1.17178.10857.55296-.20722,20.74679.10935,21.23437l-.00684.00684c.25629,1.43098,13.16616.35143,14.22256.66843,1.23196.04001,1.33145-1.30626,1.17979-2.2114Z"/>
        <path class="cls-1" d="M127.30469,11.58008c.02907-6.19904-4.7599-11.85635-11.32715-11.37354l-.04004.02002c-10.02816-.01091-13.35154,13.60586-7.44308,20.3467,7.29291,7.66744,19.83644,1.4453,18.81026-8.99319ZM123.96777,12.8833c-.01927,9.76975-13.13256,11.33857-14.87598,1.62451-2.70578-13.80843,15.55083-15.99639,14.87598-1.62451Z"/>
        <path class="cls-1" d="M104.06348,2.2002c-.02516-.53334-.00754-.96683-.33789-1.3374l.01855-.01807c-.15551-.65745-13.68633-.25989-14.23625-.27226-1.92055.39136-.49731,20.69742-.77302,22.28691l-.01123.00488c.49372,1.07222,2.27262.82707,3.20215.51562l.0918.08984.08008-.24219.14746-.09961-.05566-.05664c1.40108-11.66422-3.95883-9.55541,9.13672-9.70215l.00098.00098c.56975-.07941,1.01371-.09577,1.25293-.81885l-.00098-.00098c.37325-1.66593-.34787-2.72933-2.14279-2.42703-1.29735-.12966-6.85649.26194-7.97147-.14573-.14199-.52528-.13741-1.21482-.10446-1.73828.22782-.4193-.53604-4.6827.50461-4.48147.00024.00002,9.17114.00002,9.17114.00002,1.15576.14405,2.21895-.27981,2.02734-1.55762Z"/>
        <path class="cls-1" d="M85.56104,11.5791c.02867-6.1997-4.7596-11.85412-11.32666-11.37256l-.04004.02002c-7.38656-.0996-11.63041,7.99541-10.10986,14.58301,2.50794,14.0854,22.68057,10.82639,21.47656-3.23047ZM82.22412,12.8833c-.01393,9.75858-13.13125,11.35087-14.875,1.62158-2.70794-13.80724,15.55391-15.98985,14.875-1.62158Z"/>
        <path class="cls-1" d="M61.02832,11.99365c-.57283-1.47745-7.72915-.37801-8.95154-.70019-1.39189-.10443-1.57207,2.17182-.60228,2.76617.87272.32037,5.49167-.11878,6.36437.22157.49213.58215.01079,1.58195-.06928,2.25003-3.45082,8.39095-14.75307,4.3397-14.19152-4.19247-.35316-6.42806,5.31102-11.63097,11.46273-8.30774.97754.64269,1.74886,1.5165,2.17693,2.63942.17462.62262.54617,1.41689,1.32434,1.25382.71869.09417,2.11081.29271,2.15227-.77959-3.69335-12.97833-23.95235-6.95934-20.0199,8.54279,1.34081,6.90736,9.96161,10.51197,15.82665,6.6785,2.90324-2.92351,1.04647,1.1132,3.52383,1.03173.69358.02557,1.03867-.40658,1.04492-1.0139-.00003-.00001-.00198-9.86378-.00198-9.86378.0249-.1958.01123-.37305-.03955-.52637Z"/>
        <path class="cls-1" d="M38.04248,11.5791c.02852-6.19966-4.7588-11.85355-11.32666-11.37256l-.04004.02002c-10.02967-.00976-13.35062,13.60294-7.44405,20.3467,7.29435,7.66694,19.83847,1.44471,18.81075-8.99416ZM34.70557,12.8833c-.01729,9.76774-13.13283,11.34055-14.87549,1.62451-2.70759-13.80917,15.5527-15.99488,14.87549-1.62451Z"/>
        <path class="cls-1" d="M15.50293,21.38867c.10713-2.14201-10.40826-.52904-11.55713-1.0752-.25856-.18759-.20285-.2671-.23538-.6826.00003-.00002.00003-17.80568.00003-17.80568.08314-1.4403-1.45716-1.3532-2.4815-1.30751C.53373.56145.03525.96591-.00046,1.68946c.10906.55305-.20815,20.74694.10984,21.23437l-.00732.00684c.29155.62852.97364.69104,1.64358.66792-.00002.00005,12.57908.00005,12.57908.00005.30029,0,.54248-.07227.71973-.21387h.00049c.64419-.40637.51246-1.35584.45801-1.99609Z"/>
      </g>
    </g>
  </g>
</svg>