<svg width="1662" height="560" viewBox="0 0 1662 560" fill="none" xmlns="http://www.w3.org/2000/svg">
<mask id="mask0_5841_2887" style="mask-type:alpha" maskUnits="userSpaceOnUse" x="49" y="-40" width="3520" height="469">
<path opacity="0.9" d="M66.9458 -28.0967C69.8655 -28.0967 73.2024 -28.0967 76.9564 -28.0967C80.7103 -28.5138 84.2558 -28.5138 87.5926 -28.0967C91.3466 -28.0967 94.6835 -27.6796 97.6032 -26.8454C100.523 -26.0112 102.608 -24.7599 103.86 -23.0914C106.362 -19.7546 107.614 -15.3749 107.614 -9.95252C107.614 -4.53011 107.614 1.10084 107.614 6.94035V72.6348V273.472V331.033C107.614 335.621 107.614 340.627 107.614 346.049C107.614 351.471 108.239 355.851 109.491 359.188C110.742 362.108 113.036 364.61 116.373 366.696C118.459 367.53 121.17 368.156 124.507 368.573C127.844 368.573 131.18 368.573 134.517 368.573H166.426H279.045H314.082C317.002 368.573 319.922 368.573 322.841 368.573C326.178 368.156 329.098 368.364 331.601 369.198C337.023 370.867 340.568 373.161 342.237 376.081C342.654 377.332 343.071 379.418 343.488 382.337C343.905 385.257 344.114 388.385 344.114 391.722C344.531 394.642 344.531 397.77 344.114 401.107C343.697 404.027 343.28 406.321 342.863 407.989C342.028 410.909 340.151 413.203 337.232 414.872C335.146 416.54 332.018 417.374 327.847 417.374C324.093 417.374 320.339 417.374 316.585 417.374H275.291H116.999H76.3307C70.4912 417.374 65.4859 417.166 61.3148 416.749C57.1438 415.914 54.0155 413.829 51.9299 410.492C50.2615 407.989 49.4273 404.861 49.4273 401.107C49.4273 396.936 49.4273 392.974 49.4273 389.22V344.172V173.366V37.5977V-1.19326C49.4273 -4.94723 49.4273 -8.7012 49.4273 -12.4552C49.8444 -16.2091 50.6786 -19.1289 51.9299 -21.2144C53.5983 -23.7171 56.7267 -25.8026 61.3148 -27.471C62.149 -27.8882 62.9833 -27.8882 63.8175 -27.471C65.0688 -27.471 66.1116 -27.6796 66.9458 -28.0967ZM798.134 185.88C798.551 187.965 798.76 191.093 798.76 195.264C798.76 199.018 798.551 201.938 798.134 204.024V211.532C797.3 215.703 796.883 220.082 796.883 224.671C796.883 228.842 796.466 232.804 795.631 236.558C794.797 239.895 794.171 243.023 793.754 245.943C793.337 248.863 792.92 251.991 792.503 255.328C790.418 262.419 788.541 269.301 786.872 275.975C785.204 282.649 783.118 289.114 780.615 295.37C768.102 325.819 751.627 351.263 731.188 371.701C711.167 392.139 684.889 407.781 652.355 418.626C647.767 419.877 643.178 420.92 638.59 421.754C634.002 422.588 629.414 423.631 624.826 424.882C622.74 425.299 620.863 425.508 619.195 425.508C617.526 425.508 615.858 425.716 614.189 426.134L593.543 428.011C592.291 428.428 589.372 428.428 584.783 428.011C580.612 428.011 577.901 427.802 576.65 427.385C574.564 426.968 572.479 426.759 570.393 426.759C568.725 427.176 567.056 427.176 565.388 426.759H558.506C555.586 425.925 552.666 425.299 549.746 424.882C547.244 424.882 544.532 424.674 541.613 424.257C537.442 423.005 533.271 421.963 529.1 421.128C525.346 420.711 521.383 419.877 517.212 418.626C513.041 416.957 508.87 415.289 504.699 413.62C500.528 411.952 496.357 410.284 492.185 408.615C466.742 397.353 445.678 381.92 428.994 362.316C412.726 342.295 399.17 319.145 388.326 292.868C385.823 287.028 383.946 280.98 382.695 274.723C381.443 268.467 379.775 262.002 377.689 255.328C376.855 253.66 376.438 252.2 376.438 250.948C376.855 249.697 376.647 248.029 375.812 245.943C374.978 243.023 374.561 239.895 374.561 236.558C374.561 233.221 374.144 229.884 373.31 226.548C372.476 224.879 372.058 223.211 372.058 221.542C372.476 219.874 372.476 218.414 372.058 217.163V204.024C371.224 201.938 370.807 199.018 370.807 195.264C370.807 191.511 371.224 188.591 372.058 186.505V178.372L373.935 155.848C374.77 153.345 375.187 150.843 375.187 148.34C375.187 145.837 375.604 143.335 376.438 140.832C378.107 134.158 379.566 127.693 380.818 121.436C382.069 114.763 383.946 108.506 386.449 102.667C389.786 94.7415 392.914 87.025 395.834 79.5171C398.753 72.0091 402.507 64.9183 407.096 58.2446C418.775 39.4747 432.539 23.2075 448.389 9.44297C464.239 -4.32159 483.009 -15.5835 504.699 -24.3427C509.287 -26.4283 514.084 -28.0967 519.089 -29.348C524.511 -30.5994 529.934 -32.0593 535.356 -33.7277C537.859 -34.5619 540.361 -34.979 542.864 -34.979C545.784 -34.979 548.495 -35.3961 550.998 -36.2303C554.335 -36.6474 557.463 -36.856 560.383 -36.856C563.719 -37.2731 567.056 -37.6902 570.393 -38.1073C571.227 -38.5244 572.27 -38.5244 573.521 -38.1073C574.773 -37.6902 575.816 -37.6902 576.65 -38.1073C604.596 -38.9415 628.997 -36.0217 649.852 -29.348C670.708 -23.0914 689.06 -14.3322 704.91 -3.07025C711.167 1.10082 717.215 5.48046 723.055 10.0687C728.894 14.6568 734.108 19.8707 738.696 25.7102C739.947 27.7957 741.407 29.4642 743.076 30.7155C744.744 31.9668 746.204 33.6352 747.455 35.7208C749.958 39.0576 752.461 42.603 754.963 46.357C757.466 49.6939 759.76 53.0307 761.846 56.3676C762.68 58.4531 763.514 60.3301 764.348 61.9986C765.182 63.2499 766.225 64.9183 767.477 67.0038C769.145 69.5065 770.605 72.0091 771.856 74.5118C775.193 82.0197 778.53 89.9448 781.867 98.2869C782.701 100.79 783.327 103.292 783.744 105.795C784.578 107.88 785.412 110.174 786.246 112.677C787.498 116.848 788.541 121.228 789.375 125.816C790.626 129.987 791.877 134.367 793.129 138.955C793.963 141.04 794.38 143.126 794.38 145.212C794.38 147.297 794.589 149.383 795.006 151.468C795.84 154.388 796.257 157.308 796.257 160.227C796.257 163.147 796.674 166.275 797.508 169.612V173.366C797.925 175.452 797.925 177.537 797.508 179.623C797.091 181.708 797.3 183.794 798.134 185.88ZM739.322 205.901C740.156 203.815 740.573 200.27 740.573 195.264C740.573 189.842 740.156 186.088 739.322 184.003V178.997C739.322 176.912 739.113 175.035 738.696 173.366C738.696 171.698 738.696 169.821 738.696 167.735C737.862 165.65 737.445 163.773 737.445 162.104C737.862 160.019 737.653 157.933 736.819 155.848C735.985 152.094 735.151 148.34 734.317 144.586C733.899 140.832 733.274 137.287 732.44 133.95C730.354 128.11 728.477 122.688 726.809 117.682C725.557 112.26 723.889 107.046 721.803 102.041C714.712 84.9395 704.91 69.5065 692.397 55.7419C680.301 41.9774 665.911 31.3411 649.227 23.8332C640.05 19.6621 629.205 16.3253 616.692 13.8226C610.853 12.1542 604.179 11.32 596.671 11.32C589.58 10.9029 582.489 10.6943 575.398 10.6943C572.479 11.1114 569.559 11.5285 566.639 11.9456C564.137 11.9456 561.217 12.1542 557.88 12.5713C551.623 14.2397 545.575 15.9081 539.736 17.5766C534.313 18.8279 528.891 20.4963 523.469 22.5819C500.945 32.1754 483.218 45.9399 470.287 63.8755C457.357 81.8112 446.929 102.875 439.004 127.067C437.336 131.656 436.084 136.452 435.25 141.458C434.833 146.046 433.999 150.842 432.748 155.848C432.331 157.933 432.122 160.019 432.122 162.104C432.122 163.773 431.913 165.65 431.496 167.735C430.662 169.404 430.245 171.281 430.245 173.366C430.662 175.035 430.662 176.703 430.245 178.372V184.003C429.828 186.088 429.619 189.842 429.619 195.264C429.619 200.687 429.828 204.441 430.245 206.526C430.245 208.195 430.245 209.863 430.245 211.532C430.662 212.783 430.871 214.243 430.871 215.911C431.705 219.248 432.122 223.002 432.122 227.173C432.539 230.927 433.165 234.473 433.999 237.809C434.416 239.478 434.416 241.146 433.999 242.815C433.999 244.066 434.416 245.526 435.25 247.194C436.502 251.783 437.544 256.371 438.379 260.959C439.213 265.547 440.673 270.135 442.758 274.723C444.844 279.312 446.512 283.9 447.764 288.488C449.432 292.659 451.517 296.83 454.02 301.001C456.106 304.338 457.983 307.675 459.651 311.012C461.737 313.932 463.822 317.06 465.908 320.397C478.838 338.75 495.731 353.14 516.586 363.567C522.426 366.904 528.265 369.407 534.105 371.075C540.361 372.744 547.035 374.621 554.126 376.706C557.046 377.541 559.757 377.958 562.26 377.958C564.762 377.541 567.473 377.749 570.393 378.583C572.896 379.418 575.607 379.835 578.527 379.835C581.864 379.418 585.2 379.209 588.537 379.209H594.794C596.88 378.792 598.965 378.583 601.051 378.583C603.136 378.166 605.222 377.958 607.307 377.958C613.147 376.706 618.569 375.664 623.574 374.829C628.997 373.995 634.002 372.535 638.59 370.45C659.863 361.69 677.173 350.22 690.52 336.038C704.285 321.857 715.547 304.13 724.306 282.857C726.391 277.435 728.06 271.804 729.311 265.964C730.98 260.125 732.648 254.285 734.317 248.446C735.151 245.943 735.568 243.44 735.568 240.938C735.985 238.018 736.611 235.098 737.445 232.179L739.322 211.532V205.901ZM1054.51 -38.1073C1083.29 -38.9415 1108.52 -36.2303 1130.21 -29.9737C1151.9 -24.1342 1171.09 -15.3749 1187.77 -3.69591C1195.28 1.30937 1202.16 6.94033 1208.42 13.197C1209.26 14.0312 1210.09 14.8654 1210.92 15.6996C1211.76 16.5338 1212.59 17.368 1213.43 18.2022C1215.51 21.5391 1217.81 24.6674 1220.31 27.5872C1222.81 30.0898 1225.11 33.0096 1227.19 36.3464C1231.78 43.4373 1235.74 50.9452 1239.08 58.8703C1242.42 66.7953 1245.75 74.9289 1249.09 83.271C1250.34 87.4421 1250.97 91.8218 1250.97 96.41C1250.97 100.998 1249.3 104.335 1245.96 106.421C1245.13 107.255 1243.88 107.672 1242.21 107.672C1240.96 107.672 1239.7 107.88 1238.45 108.298H1234.07C1231.99 109.132 1228.44 109.549 1223.44 109.549C1218.85 109.549 1215.51 109.132 1213.43 108.298C1212.18 107.88 1210.92 107.88 1209.67 108.298C1208.42 108.715 1206.96 108.506 1205.29 107.672C1202.79 107.255 1200.5 106.212 1198.41 104.544C1195.91 102.458 1194.03 99.5382 1192.78 95.7843C1191.95 92.0303 1190.69 88.4849 1189.03 85.148C1186.94 79.7256 1184.44 74.7203 1181.52 70.1321C1179.02 65.1269 1176.1 60.3301 1172.76 55.7419C1171.92 54.9077 1170.88 54.0735 1169.63 53.2393C1168.38 51.988 1167.34 50.7366 1166.5 49.4853C1162.75 45.3142 1158.99 41.7688 1155.24 38.8491C1153.15 37.5978 1151.28 36.3464 1149.61 35.0951C1147.94 33.4267 1146.06 31.9668 1143.98 30.7155C1138.14 27.3786 1131.88 24.4589 1125.21 21.9562C1118.53 19.4536 1111.65 17.1595 1104.56 15.0739C1100.81 14.2397 1097.05 13.6141 1093.3 13.197C1089.55 12.7799 1085.79 12.1542 1082.04 11.32C1080.37 10.9029 1078.7 10.9029 1077.03 11.32C1075.78 11.32 1074.53 11.1114 1073.28 10.6943H1065.77C1062.85 10.6943 1059.93 10.6943 1057.01 10.6943C1054.09 10.6943 1051.38 10.9029 1048.88 11.32C1048.04 11.32 1047 11.5285 1045.75 11.9456C1044.5 11.9456 1043.46 11.9456 1042.62 11.9456C1040.12 12.3627 1037.41 12.7799 1034.49 13.197C1031.98 13.6141 1029.48 14.0312 1026.98 14.4483C1012.38 18.2022 999.659 23.4161 988.814 30.0898C971.296 40.9346 957.114 53.8649 946.269 68.8808C935.841 83.4796 927.082 101.415 919.991 122.688C918.323 127.276 917.072 132.073 916.237 137.078C915.403 142.083 914.36 147.089 913.109 152.094C912.275 154.179 911.858 156.265 911.858 158.35C912.275 160.019 912.066 161.896 911.232 163.981C910.398 166.901 909.981 170.029 909.981 173.366C910.398 176.286 910.189 179.414 909.355 182.751V189.634C908.938 192.136 908.729 195.682 908.729 200.27C908.729 204.858 908.938 208.195 909.355 210.28V216.537C909.772 217.371 909.981 218.623 909.981 220.291C909.981 221.542 910.189 222.585 910.606 223.419C911.441 226.339 911.649 229.05 911.232 231.553C910.815 234.055 911.024 236.767 911.858 239.686C912.692 243.023 913.318 246.36 913.735 249.697C914.569 252.617 915.403 255.745 916.237 259.082C918.323 265.339 920.408 271.595 922.494 277.852C924.997 283.691 927.499 289.531 930.002 295.37C932.087 300.376 934.59 305.172 937.51 309.761C940.847 314.349 944.184 318.728 947.52 322.899C962.953 343.755 983.183 359.188 1008.21 369.198C1011.13 370.45 1014.05 371.492 1016.97 372.327C1019.89 373.161 1023.02 373.995 1026.35 374.829C1036.36 377.749 1048.04 379.209 1061.39 379.209C1064.31 379.209 1067.02 379.209 1069.52 379.209C1072.44 379.209 1075.16 379 1077.66 378.583C1079.74 377.749 1081.83 377.541 1083.91 377.958C1086.42 378.375 1088.71 378.166 1090.8 377.332C1096.64 375.664 1102.06 374.412 1107.06 373.578C1112.49 372.327 1117.49 370.658 1122.08 368.573C1160.87 353.14 1186.94 325.402 1200.29 285.36C1201.12 282.023 1201.75 278.686 1202.16 275.349C1203 272.012 1203.83 268.675 1204.67 265.339C1205.92 260.333 1206.34 254.911 1205.92 249.071C1205.5 242.815 1203.62 238.435 1200.29 235.932C1196.95 233.847 1192.36 232.804 1186.52 232.804C1180.68 232.804 1175.05 232.804 1169.63 232.804H1100.18C1095.59 232.804 1090.59 232.804 1085.17 232.804C1079.74 232.804 1075.36 232.179 1072.03 230.927C1068.69 229.259 1066.6 226.965 1065.77 224.045C1064.94 222.376 1064.31 220.082 1063.89 217.163C1063.48 213.826 1063.27 210.489 1063.27 207.152C1063.27 203.815 1063.48 200.687 1063.89 197.767C1064.73 194.43 1065.56 192.136 1066.4 190.885C1068.06 187.965 1070.98 185.88 1075.16 184.628C1077.24 183.794 1079.74 183.377 1082.66 183.377C1085.58 183.377 1088.5 183.377 1091.42 183.377H1119.58H1214.68C1219.27 183.377 1223.85 183.377 1228.44 183.377C1233.03 182.96 1237.2 183.168 1240.96 184.003C1245.13 184.42 1248.67 185.462 1251.59 187.131C1254.51 188.382 1256.6 190.885 1257.85 194.639C1258.68 197.141 1258.89 200.061 1258.47 203.398C1258.47 206.735 1258.47 210.072 1258.47 213.409V247.82V363.567V392.348C1258.47 395.268 1258.47 398.187 1258.47 401.107C1258.47 404.027 1258.06 406.53 1257.22 408.615C1255.97 411.952 1253.47 414.455 1249.72 416.123C1248.46 416.957 1245.75 417.374 1241.58 417.374C1235.74 417.374 1231.36 416.749 1228.44 415.497C1225.52 414.246 1223.23 412.369 1221.56 409.866C1219.89 407.364 1218.43 404.444 1217.18 401.107C1216.35 397.77 1215.3 394.016 1214.05 389.845C1213.22 386.925 1211.76 383.172 1209.67 378.583C1208 373.995 1204.88 372.327 1200.29 373.578C1197.37 374.412 1195.07 375.664 1193.41 377.332C1191.74 379 1189.86 380.669 1187.77 382.337C1184.44 384.84 1181.31 387.551 1178.39 390.471C1175.47 392.974 1172.34 395.268 1169 397.353C1160.25 403.193 1150.86 407.989 1140.85 411.743C1131.26 415.497 1120.83 419.043 1109.57 422.38C1106.65 423.214 1103.73 423.84 1100.81 424.257C1097.89 424.674 1094.76 425.299 1091.42 426.134C1088.09 426.134 1085.58 426.342 1083.91 426.759C1082.66 426.759 1081.2 426.759 1079.54 426.759C1078.28 426.759 1077.03 426.968 1075.78 427.385H1069.52C1067.86 427.802 1065.56 428.011 1062.64 428.011C1059.72 428.011 1057.22 427.802 1055.13 427.385H1044.5C1039.91 426.551 1035.53 425.925 1031.36 425.508C1027.61 425.508 1023.64 424.882 1019.47 423.631C1011.96 421.545 1004.66 419.668 997.573 418C990.483 416.332 983.6 414.037 976.927 411.118C953.151 400.273 932.296 385.883 914.36 367.947C896.425 349.594 882.035 328.322 871.19 304.13C869.104 299.124 867.019 293.91 864.933 288.488C863.265 283.066 861.388 277.435 859.302 271.595C858.885 269.927 858.677 268.467 858.677 267.216C858.677 265.547 858.259 263.879 857.425 262.21C856.174 257.622 855.131 252.825 854.297 247.82C853.88 242.815 853.046 237.809 851.794 232.804C851.377 231.136 851.169 229.467 851.169 227.799C851.586 226.13 851.586 224.671 851.169 223.419V217.788C850.334 215.703 849.917 211.74 849.917 205.901C849.917 200.061 850.334 195.89 851.169 193.387V187.757C851.169 185.254 851.169 182.751 851.169 180.249C851.169 177.746 851.377 175.243 851.794 172.741C852.211 170.655 852.42 168.57 852.42 166.484C852.42 163.981 852.628 161.687 853.046 159.602C854.297 154.596 855.131 149.591 855.548 144.586C856.382 139.581 857.425 134.575 858.677 129.57C862.848 115.805 867.019 102.667 871.19 90.1533C875.778 77.223 881.617 65.3354 888.708 54.4906C901.221 34.8866 916.029 18.2023 933.13 4.4377C950.649 -9.74398 971.296 -20.7973 995.071 -28.7224C999.659 -30.3908 1004.04 -31.4336 1008.21 -31.8507C1012.8 -32.6849 1017.39 -33.7277 1021.97 -34.979C1024.06 -35.8132 1025.94 -36.2303 1027.61 -36.2303C1029.69 -36.2303 1031.78 -36.4389 1033.86 -36.856C1037.2 -37.2731 1040.54 -37.4816 1043.87 -37.4816C1047.63 -37.8987 1051.17 -38.1073 1054.51 -38.1073ZM1748.24 185.88C1748.65 187.965 1748.86 191.093 1748.86 195.264C1748.86 199.018 1748.65 201.938 1748.24 204.024V211.532C1747.4 215.703 1746.98 220.082 1746.98 224.671C1746.98 228.842 1746.57 232.804 1745.73 236.558C1744.9 239.895 1744.27 243.023 1743.86 245.943C1743.44 248.863 1743.02 251.991 1742.6 255.328C1740.52 262.419 1738.64 269.301 1736.97 275.975C1735.3 282.649 1733.22 289.114 1730.72 295.37C1718.2 325.819 1701.73 351.263 1681.29 371.701C1661.27 392.139 1634.99 407.781 1602.46 418.626C1597.87 419.877 1593.28 420.92 1588.69 421.754C1584.1 422.588 1579.52 423.631 1574.93 424.882C1572.84 425.299 1570.96 425.508 1569.3 425.508C1567.63 425.508 1565.96 425.716 1564.29 426.134L1543.64 428.011C1542.39 428.428 1539.47 428.428 1534.88 428.011C1530.71 428.011 1528 427.802 1526.75 427.385C1524.67 426.968 1522.58 426.759 1520.49 426.759C1518.83 427.176 1517.16 427.176 1515.49 426.759H1508.61C1505.69 425.925 1502.77 425.299 1499.85 424.882C1497.34 424.882 1494.63 424.674 1491.71 424.257C1487.54 423.005 1483.37 421.963 1479.2 421.128C1475.45 420.711 1471.48 419.877 1467.31 418.626C1463.14 416.957 1458.97 415.289 1454.8 413.62C1450.63 411.952 1446.46 410.284 1442.29 408.615C1416.84 397.353 1395.78 381.92 1379.09 362.316C1362.83 342.295 1349.27 319.145 1338.43 292.868C1335.92 287.028 1334.05 280.98 1332.8 274.723C1331.54 268.467 1329.88 262.002 1327.79 255.328C1326.96 253.66 1326.54 252.2 1326.54 250.948C1326.96 249.697 1326.75 248.029 1325.91 245.943C1325.08 243.023 1324.66 239.895 1324.66 236.558C1324.66 233.221 1324.25 229.884 1323.41 226.548C1322.58 224.879 1322.16 223.211 1322.16 221.542C1322.58 219.874 1322.58 218.414 1322.16 217.163V204.024C1321.33 201.938 1320.91 199.018 1320.91 195.264C1320.91 191.511 1321.33 188.591 1322.16 186.505V178.372L1324.04 155.848C1324.87 153.345 1325.29 150.843 1325.29 148.34C1325.29 145.837 1325.71 143.335 1326.54 140.832C1328.21 134.158 1329.67 127.693 1330.92 121.436C1332.17 114.763 1334.05 108.506 1336.55 102.667C1339.89 94.7415 1343.02 87.025 1345.93 79.5171C1348.85 72.0091 1352.61 64.9183 1357.2 58.2446C1368.88 39.4747 1382.64 23.2075 1398.49 9.44297C1414.34 -4.32159 1433.11 -15.5835 1454.8 -24.3427C1459.39 -26.4283 1464.18 -28.0967 1469.19 -29.348C1474.61 -30.5994 1480.03 -32.0593 1485.46 -33.7277C1487.96 -34.5619 1490.46 -34.979 1492.97 -34.979C1495.89 -34.979 1498.6 -35.3961 1501.1 -36.2303C1504.44 -36.6474 1507.56 -36.856 1510.48 -36.856C1513.82 -37.2731 1517.16 -37.6902 1520.49 -38.1073C1521.33 -38.5244 1522.37 -38.5244 1523.62 -38.1073C1524.87 -37.6902 1525.92 -37.6902 1526.75 -38.1073C1554.7 -38.9415 1579.1 -36.0217 1599.95 -29.348C1620.81 -23.0914 1639.16 -14.3322 1655.01 -3.07025C1661.27 1.10082 1667.32 5.48046 1673.16 10.0687C1679 14.6568 1684.21 19.8707 1688.8 25.7102C1690.05 27.7957 1691.51 29.4642 1693.18 30.7155C1694.85 31.9668 1696.31 33.6352 1697.56 35.7208C1700.06 39.0576 1702.56 42.603 1705.06 46.357C1707.57 49.6939 1709.86 53.0307 1711.95 56.3676C1712.78 58.4531 1713.62 60.3301 1714.45 61.9986C1715.28 63.2499 1716.33 64.9183 1717.58 67.0038C1719.25 69.5065 1720.71 72.0091 1721.96 74.5118C1725.29 82.0197 1728.63 89.9448 1731.97 98.2869C1732.8 100.79 1733.43 103.292 1733.85 105.795C1734.68 107.88 1735.51 110.174 1736.35 112.677C1737.6 116.848 1738.64 121.228 1739.48 125.816C1740.73 129.987 1741.98 134.367 1743.23 138.955C1744.06 141.04 1744.48 143.126 1744.48 145.212C1744.48 147.297 1744.69 149.383 1745.11 151.468C1745.94 154.388 1746.36 157.308 1746.36 160.227C1746.36 163.147 1746.78 166.275 1747.61 169.612V173.366C1748.03 175.452 1748.03 177.537 1747.61 179.623C1747.19 181.708 1747.4 183.794 1748.24 185.88ZM1689.42 205.901C1690.26 203.815 1690.67 200.27 1690.67 195.264C1690.67 189.842 1690.26 186.088 1689.42 184.003V178.997C1689.42 176.912 1689.21 175.035 1688.8 173.366C1688.8 171.698 1688.8 169.821 1688.8 167.735C1687.96 165.65 1687.55 163.773 1687.55 162.104C1687.96 160.019 1687.75 157.933 1686.92 155.848C1686.09 152.094 1685.25 148.34 1684.42 144.586C1684 140.832 1683.38 137.287 1682.54 133.95C1680.46 128.11 1678.58 122.688 1676.91 117.682C1675.66 112.26 1673.99 107.046 1671.9 102.041C1664.81 84.9395 1655.01 69.5065 1642.5 55.7419C1630.4 41.9774 1616.01 31.3411 1599.33 23.8332C1590.15 19.6621 1579.31 16.3253 1566.79 13.8226C1560.95 12.1542 1554.28 11.32 1546.77 11.32C1539.68 10.9029 1532.59 10.6943 1525.5 10.6943C1522.58 11.1114 1519.66 11.5285 1516.74 11.9456C1514.24 11.9456 1511.32 12.1542 1507.98 12.5713C1501.72 14.2397 1495.68 15.9081 1489.84 17.5766C1484.41 18.8279 1478.99 20.4963 1473.57 22.5819C1451.05 32.1754 1433.32 45.9399 1420.39 63.8755C1407.46 81.8112 1397.03 102.875 1389.11 127.067C1387.44 131.656 1386.19 136.452 1385.35 141.458C1384.93 146.046 1384.1 150.842 1382.85 155.848C1382.43 157.933 1382.22 160.019 1382.22 162.104C1382.22 163.773 1382.01 165.65 1381.6 167.735C1380.76 169.404 1380.35 171.281 1380.35 173.366C1380.76 175.035 1380.76 176.703 1380.35 178.372V184.003C1379.93 186.088 1379.72 189.842 1379.72 195.264C1379.72 200.687 1379.93 204.441 1380.35 206.526C1380.35 208.195 1380.35 209.863 1380.35 211.532C1380.76 212.783 1380.97 214.243 1380.97 215.911C1381.81 219.248 1382.22 223.002 1382.22 227.173C1382.64 230.927 1383.27 234.473 1384.1 237.809C1384.52 239.478 1384.52 241.146 1384.1 242.815C1384.1 244.066 1384.52 245.526 1385.35 247.194C1386.6 251.783 1387.65 256.371 1388.48 260.959C1389.31 265.547 1390.77 270.135 1392.86 274.723C1394.95 279.312 1396.61 283.9 1397.86 288.488C1399.53 292.659 1401.62 296.83 1404.12 301.001C1406.21 304.338 1408.08 307.675 1409.75 311.012C1411.84 313.932 1413.92 317.06 1416.01 320.397C1428.94 338.75 1445.83 353.14 1466.69 363.567C1472.53 366.904 1478.37 369.407 1484.21 371.075C1490.46 372.744 1497.14 374.621 1504.23 376.706C1507.15 377.541 1509.86 377.958 1512.36 377.958C1514.86 377.541 1517.57 377.749 1520.49 378.583C1523 379.418 1525.71 379.835 1528.63 379.835C1531.96 379.418 1535.3 379.209 1538.64 379.209H1544.9C1546.98 378.792 1549.07 378.583 1551.15 378.583C1553.24 378.166 1555.32 377.958 1557.41 377.958C1563.25 376.706 1568.67 375.664 1573.68 374.829C1579.1 373.995 1584.1 372.535 1588.69 370.45C1609.96 361.69 1627.27 350.22 1640.62 336.038C1654.39 321.857 1665.65 304.13 1674.41 282.857C1676.49 277.435 1678.16 271.804 1679.41 265.964C1681.08 260.125 1682.75 254.285 1684.42 248.446C1685.25 245.943 1685.67 243.44 1685.67 240.938C1686.09 238.018 1686.71 235.098 1687.55 232.179L1689.42 211.532V205.901ZM1839.44 -28.0967H2032.76H2083.44C2088.03 -28.0967 2092.41 -28.0967 2096.58 -28.0967C2101.17 -28.0967 2104.72 -27.2625 2107.22 -25.5941C2110.56 -23.5085 2112.43 -20.3802 2112.85 -16.2091C2113.68 -12.4552 2114.1 -7.867 2114.1 -2.4446C2114.1 -0.359063 2114.1 1.72647 2114.1 3.81201C2114.52 5.48044 2114.31 7.14888 2113.48 8.81731C2111.81 15.491 2108.05 19.245 2102.21 20.0792C2096.79 20.4963 2089.91 20.7049 2081.57 20.7049H2016.5H1924.53C1917.85 20.7049 1910.76 20.7049 1903.25 20.7049C1895.74 20.2878 1890.11 21.5391 1886.36 24.4589C1882.61 26.9615 1880.52 31.3411 1880.1 37.5977C1880.1 43.8544 1880.1 50.111 1880.1 56.3676V118.308C1880.1 121.645 1879.89 125.816 1879.48 130.821C1879.48 135.827 1879.89 139.998 1880.73 143.335V148.34C1881.56 150.843 1882.19 153.345 1882.61 155.848C1883.44 157.933 1884.9 159.602 1886.99 160.853C1890.74 163.356 1896.58 164.607 1904.5 164.607C1912.43 164.19 1919.31 163.981 1925.15 163.981H2037.77C2041.52 163.981 2045.49 163.981 2049.66 163.981C2054.25 163.564 2058.63 163.564 2062.8 163.981C2067.38 163.981 2071.35 164.399 2074.68 165.233C2078.44 166.067 2080.94 167.527 2082.19 169.612C2084.28 172.115 2085.32 175.243 2085.32 178.997C2085.32 182.751 2085.32 186.922 2085.32 191.511C2085.32 194.013 2085.32 196.307 2085.32 198.393C2085.32 200.478 2084.9 202.355 2084.07 204.024C2082.4 208.195 2080.11 210.489 2077.19 210.906C2075.52 211.74 2073.85 212.157 2072.18 212.157C2070.93 212.157 2069.26 212.366 2067.18 212.783C2065.51 213.2 2063.63 213.409 2061.55 213.409C2059.88 212.992 2058.21 212.783 2056.54 212.783H2034.64H1928.9C1922.23 212.783 1914.31 212.783 1905.13 212.783C1896.37 212.366 1890.11 213.617 1886.36 216.537C1884.27 218.205 1882.61 220.917 1881.35 224.671C1880.52 228.007 1879.89 231.97 1879.48 236.558C1879.48 241.146 1879.48 245.943 1879.48 250.948C1879.89 255.537 1880.1 259.708 1880.1 263.462V371.075C1880.1 378.166 1880.31 385.883 1880.73 394.225C1881.15 402.567 1879.69 408.824 1876.35 412.995C1875.1 414.663 1873.22 415.706 1870.72 416.123C1868.22 416.123 1865.71 416.54 1863.21 417.374H1851.32C1845.48 417.374 1840.06 417.166 1835.06 416.749C1830.05 416.332 1826.5 414.246 1824.42 410.492C1822.75 407.989 1821.92 404.653 1821.92 400.481C1821.92 395.893 1821.92 391.305 1821.92 386.717V336.664V75.1374V7.56601C1821.92 2.9778 1821.71 -2.02749 1821.29 -7.44987C1821.29 -13.2894 1822.33 -17.8776 1824.42 -21.2144C1826.09 -23.7171 1829.22 -25.8026 1833.8 -27.471C1834.64 -27.8882 1835.47 -27.8882 1836.31 -27.471C1837.56 -27.471 1838.6 -27.6796 1839.44 -28.0967ZM2582.86 185.88C2583.28 187.965 2583.48 191.093 2583.48 195.264C2583.48 199.018 2583.28 201.938 2582.86 204.024V211.532C2582.02 215.703 2581.61 220.082 2581.61 224.671C2581.61 228.842 2581.19 232.804 2580.36 236.558C2579.52 239.895 2578.9 243.023 2578.48 245.943C2578.06 248.863 2577.64 251.991 2577.23 255.328C2575.14 262.419 2573.26 269.301 2571.6 275.975C2569.93 282.649 2567.84 289.114 2565.34 295.37C2552.83 325.819 2536.35 351.263 2515.91 371.701C2495.89 392.139 2469.61 407.781 2437.08 418.626C2432.49 419.877 2427.9 420.92 2423.31 421.754C2418.73 422.588 2414.14 423.631 2409.55 424.882C2407.46 425.299 2405.59 425.508 2403.92 425.508C2402.25 425.508 2400.58 425.716 2398.91 426.134L2378.27 428.011C2377.02 428.428 2374.1 428.428 2369.51 428.011C2365.34 428.011 2362.63 427.802 2361.37 427.385C2359.29 426.968 2357.2 426.759 2355.12 426.759C2353.45 427.176 2351.78 427.176 2350.11 426.759H2343.23C2340.31 425.925 2337.39 425.299 2334.47 424.882C2331.97 424.882 2329.26 424.674 2326.34 424.257C2322.17 423.005 2317.99 421.963 2313.82 421.128C2310.07 420.711 2306.11 419.877 2301.94 418.626C2297.76 416.957 2293.59 415.289 2289.42 413.62C2285.25 411.952 2281.08 410.284 2276.91 408.615C2251.47 397.353 2230.4 381.92 2213.72 362.316C2197.45 342.295 2183.89 319.145 2173.05 292.868C2170.55 287.028 2168.67 280.98 2167.42 274.723C2166.17 268.467 2164.5 262.002 2162.41 255.328C2161.58 253.66 2161.16 252.2 2161.16 250.948C2161.58 249.697 2161.37 248.029 2160.54 245.943C2159.7 243.023 2159.29 239.895 2159.29 236.558C2159.29 233.221 2158.87 229.884 2158.03 226.548C2157.2 224.879 2156.78 223.211 2156.78 221.542C2157.2 219.874 2157.2 218.414 2156.78 217.163V204.024C2155.95 201.938 2155.53 199.018 2155.53 195.264C2155.53 191.511 2155.95 188.591 2156.78 186.505V178.372L2158.66 155.848C2159.49 153.345 2159.91 150.843 2159.91 148.34C2159.91 145.837 2160.33 143.335 2161.16 140.832C2162.83 134.158 2164.29 127.693 2165.54 121.436C2166.79 114.763 2168.67 108.506 2171.17 102.667C2174.51 94.7415 2177.64 87.025 2180.56 79.5171C2183.48 72.0091 2187.23 64.9183 2191.82 58.2446C2203.5 39.4747 2217.26 23.2075 2233.11 9.44297C2248.96 -4.32159 2267.73 -15.5835 2289.42 -24.3427C2294.01 -26.4283 2298.81 -28.0967 2303.81 -29.348C2309.24 -30.5994 2314.66 -32.0593 2320.08 -33.7277C2322.58 -34.5619 2325.09 -34.979 2327.59 -34.979C2330.51 -34.979 2333.22 -35.3961 2335.72 -36.2303C2339.06 -36.6474 2342.19 -36.856 2345.11 -36.856C2348.44 -37.2731 2351.78 -37.6902 2355.12 -38.1073C2355.95 -38.5244 2356.99 -38.5244 2358.25 -38.1073C2359.5 -37.6902 2360.54 -37.6902 2361.37 -38.1073C2389.32 -38.9415 2413.72 -36.0217 2434.58 -29.348C2455.43 -23.0914 2473.78 -14.3322 2489.63 -3.07025C2495.89 1.10082 2501.94 5.48046 2507.78 10.0687C2513.62 14.6568 2518.83 19.8707 2523.42 25.7102C2524.67 27.7957 2526.13 29.4642 2527.8 30.7155C2529.47 31.9668 2530.93 33.6352 2532.18 35.7208C2534.68 39.0576 2537.18 42.603 2539.69 46.357C2542.19 49.6939 2544.48 53.0307 2546.57 56.3676C2547.4 58.4531 2548.24 60.3301 2549.07 61.9986C2549.91 63.2499 2550.95 64.9183 2552.2 67.0038C2553.87 69.5065 2555.33 72.0091 2556.58 74.5118C2559.92 82.0197 2563.25 89.9448 2566.59 98.2869C2567.42 100.79 2568.05 103.292 2568.47 105.795C2569.3 107.88 2570.14 110.174 2570.97 112.677C2572.22 116.848 2573.26 121.228 2574.1 125.816C2575.35 129.987 2576.6 134.367 2577.85 138.955C2578.69 141.04 2579.1 143.126 2579.1 145.212C2579.1 147.297 2579.31 149.383 2579.73 151.468C2580.56 154.388 2580.98 157.308 2580.98 160.227C2580.98 163.147 2581.4 166.275 2582.23 169.612V173.366C2582.65 175.452 2582.65 177.537 2582.23 179.623C2581.82 181.708 2582.02 183.794 2582.86 185.88ZM2524.05 205.901C2524.88 203.815 2525.3 200.27 2525.3 195.264C2525.3 189.842 2524.88 186.088 2524.05 184.003V178.997C2524.05 176.912 2523.84 175.035 2523.42 173.366C2523.42 171.698 2523.42 169.821 2523.42 167.735C2522.59 165.65 2522.17 163.773 2522.17 162.104C2522.59 160.019 2522.38 157.933 2521.54 155.848C2520.71 152.094 2519.87 148.34 2519.04 144.586C2518.62 140.832 2518 137.287 2517.16 133.95C2515.08 128.11 2513.2 122.688 2511.53 117.682C2510.28 112.26 2508.61 107.046 2506.53 102.041C2499.44 84.9395 2489.63 69.5065 2477.12 55.7419C2465.02 41.9774 2450.63 31.3411 2433.95 23.8332C2424.77 19.6621 2413.93 16.3253 2401.42 13.8226C2395.58 12.1542 2388.9 11.32 2381.39 11.32C2374.3 10.9029 2367.21 10.6943 2360.12 10.6943C2357.2 11.1114 2354.28 11.5285 2351.36 11.9456C2348.86 11.9456 2345.94 12.1542 2342.6 12.5713C2336.35 14.2397 2330.3 15.9081 2324.46 17.5766C2319.04 18.8279 2313.61 20.4963 2308.19 22.5819C2285.67 32.1754 2267.94 45.9399 2255.01 63.8755C2242.08 81.8112 2231.65 102.875 2223.73 127.067C2222.06 131.656 2220.81 136.452 2219.97 141.458C2219.56 146.046 2218.72 150.842 2217.47 155.848C2217.05 157.933 2216.85 160.019 2216.85 162.104C2216.85 163.773 2216.64 165.65 2216.22 167.735C2215.39 169.404 2214.97 171.281 2214.97 173.366C2215.39 175.035 2215.39 176.703 2214.97 178.372V184.003C2214.55 186.088 2214.34 189.842 2214.34 195.264C2214.34 200.687 2214.55 204.441 2214.97 206.526C2214.97 208.195 2214.97 209.863 2214.97 211.532C2215.39 212.783 2215.59 214.243 2215.59 215.911C2216.43 219.248 2216.85 223.002 2216.85 227.173C2217.26 230.927 2217.89 234.473 2218.72 237.809C2219.14 239.478 2219.14 241.146 2218.72 242.815C2218.72 244.066 2219.14 245.526 2219.97 247.194C2221.23 251.783 2222.27 256.371 2223.1 260.959C2223.94 265.547 2225.4 270.135 2227.48 274.723C2229.57 279.312 2231.24 283.9 2232.49 288.488C2234.16 292.659 2236.24 296.83 2238.74 301.001C2240.83 304.338 2242.71 307.675 2244.38 311.012C2246.46 313.932 2248.55 317.06 2250.63 320.397C2263.56 338.75 2280.45 353.14 2301.31 363.567C2307.15 366.904 2312.99 369.407 2318.83 371.075C2325.09 372.744 2331.76 374.621 2338.85 376.706C2341.77 377.541 2344.48 377.958 2346.98 377.958C2349.49 377.541 2352.2 377.749 2355.12 378.583C2357.62 379.418 2360.33 379.835 2363.25 379.835C2366.59 379.418 2369.92 379.209 2373.26 379.209H2379.52C2381.6 378.792 2383.69 378.583 2385.77 378.583C2387.86 378.166 2389.95 377.958 2392.03 377.958C2397.87 376.706 2403.29 375.664 2408.3 374.829C2413.72 373.995 2418.73 372.535 2423.31 370.45C2444.59 361.69 2461.9 350.22 2475.24 336.038C2489.01 321.857 2500.27 304.13 2509.03 282.857C2511.12 277.435 2512.78 271.804 2514.04 265.964C2515.7 260.125 2517.37 254.285 2519.04 248.446C2519.87 245.943 2520.29 243.44 2520.29 240.938C2520.71 238.018 2521.33 235.098 2522.17 232.179L2524.05 211.532V205.901ZM2674.68 -28.0967C2677.6 -28.0967 2680.94 -28.0967 2684.69 -28.0967C2688.45 -28.5138 2691.99 -28.5138 2695.33 -28.0967C2699.08 -28.0967 2702.42 -27.6796 2705.34 -26.8454C2708.26 -26.0112 2710.35 -24.7599 2711.6 -23.0914C2714.1 -19.7546 2715.35 -15.3749 2715.35 -9.95252C2715.35 -4.53011 2715.35 1.10084 2715.35 6.94035V72.6348V273.472V331.033C2715.35 335.621 2715.35 340.627 2715.35 346.049C2715.35 351.471 2715.98 355.851 2717.23 359.188C2718.48 362.108 2720.77 364.61 2724.11 366.696C2726.2 367.53 2728.91 368.156 2732.24 368.573C2735.58 368.573 2738.92 368.573 2742.26 368.573H2774.16H2886.78H2921.82C2924.74 368.573 2927.66 368.573 2930.58 368.573C2933.92 368.156 2936.84 368.364 2939.34 369.198C2944.76 370.867 2948.31 373.161 2949.97 376.081C2950.39 377.332 2950.81 379.418 2951.23 382.337C2951.64 385.257 2951.85 388.385 2951.85 391.722C2952.27 394.642 2952.27 397.77 2951.85 401.107C2951.43 404.027 2951.02 406.321 2950.6 407.989C2949.77 410.909 2947.89 413.203 2944.97 414.872C2942.88 416.54 2939.76 417.374 2935.58 417.374C2931.83 417.374 2928.08 417.374 2924.32 417.374H2883.03H2724.74H2684.07C2678.23 417.374 2673.22 417.166 2669.05 416.749C2664.88 415.914 2661.75 413.829 2659.67 410.492C2658 407.989 2657.17 404.861 2657.17 401.107C2657.17 396.936 2657.17 392.974 2657.17 389.22V344.172V173.366V37.5977V-1.19326C2657.17 -4.94723 2657.17 -8.7012 2657.17 -12.4552C2657.58 -16.2091 2658.42 -19.1289 2659.67 -21.2144C2661.34 -23.7171 2664.46 -25.8026 2669.05 -27.471C2669.89 -27.8882 2670.72 -27.8882 2671.56 -27.471C2672.81 -27.471 2673.85 -27.6796 2674.68 -28.0967ZM3024.84 -26.8454C3027.76 -26.8454 3031.1 -26.8454 3034.85 -26.8454C3038.61 -27.2625 3042.15 -27.2625 3045.49 -26.8454C3049.24 -26.8454 3052.58 -26.4283 3055.5 -25.5941C3058.42 -24.7598 3060.51 -23.5085 3061.76 -21.8401C3064.26 -18.9203 3065.51 -14.7493 3065.51 -9.32686C3065.93 -4.32156 3066.14 0.892281 3066.14 6.31466V67.0038V308.509V381.712C3066.14 387.134 3066.14 392.974 3066.14 399.23C3066.14 405.07 3065.09 409.658 3063.01 412.995C3061.34 415.08 3059.26 416.332 3056.75 416.749C3054.67 417.166 3051.96 417.791 3048.62 418.626H3036.73C3030.89 418.626 3025.47 418.417 3020.46 418C3015.46 417.583 3011.91 415.497 3009.83 411.743C3008.16 409.241 3007.33 405.904 3007.33 401.733C3007.33 397.145 3007.33 392.556 3007.33 387.968V337.915V76.3888V8.81731C3007.33 4.22914 3007.12 -0.776153 3006.7 -6.19856C3006.7 -12.0381 3007.74 -16.6263 3009.83 -19.9631C3011.5 -22.8829 3014.83 -24.9684 3019.84 -26.2197C3020.67 -26.6368 3021.51 -26.6368 3022.34 -26.2197C3023.18 -26.2197 3024.01 -26.4283 3024.84 -26.8454ZM3567.79 185.88C3568.2 187.965 3568.41 191.093 3568.41 195.264C3568.41 199.018 3568.2 201.938 3567.79 204.024V211.532C3566.95 215.703 3566.53 220.082 3566.53 224.671C3566.53 228.842 3566.12 232.804 3565.28 236.558C3564.45 239.895 3563.82 243.023 3563.41 245.943C3562.99 248.863 3562.57 251.991 3562.16 255.328C3560.07 262.419 3558.19 269.301 3556.52 275.975C3554.86 282.649 3552.77 289.114 3550.27 295.37C3537.75 325.819 3521.28 351.263 3500.84 371.701C3480.82 392.139 3454.54 407.781 3422.01 418.626C3417.42 419.877 3412.83 420.92 3408.24 421.754C3403.65 422.588 3399.07 423.631 3394.48 424.882C3392.39 425.299 3390.52 425.508 3388.85 425.508C3387.18 425.508 3385.51 425.716 3383.84 426.134L3363.19 428.011C3361.94 428.428 3359.02 428.428 3354.44 428.011C3350.26 428.011 3347.55 427.802 3346.3 427.385C3344.22 426.968 3342.13 426.759 3340.05 426.759C3338.38 427.176 3336.71 427.176 3335.04 426.759H3328.16C3325.24 425.925 3322.32 425.299 3319.4 424.882C3316.9 424.882 3314.18 424.674 3311.26 424.257C3307.09 423.005 3302.92 421.963 3298.75 421.128C3295 420.711 3291.04 419.877 3286.86 418.626C3282.69 416.957 3278.52 415.289 3274.35 413.62C3270.18 411.952 3266.01 410.284 3261.84 408.615C3236.39 397.353 3215.33 381.92 3198.65 362.316C3182.38 342.295 3168.82 319.145 3157.98 292.868C3155.48 287.028 3153.6 280.98 3152.35 274.723C3151.1 268.467 3149.43 262.002 3147.34 255.328C3146.51 253.66 3146.09 252.2 3146.09 250.948C3146.51 249.697 3146.3 248.029 3145.46 245.943C3144.63 243.023 3144.21 239.895 3144.21 236.558C3144.21 233.221 3143.8 229.884 3142.96 226.548C3142.13 224.879 3141.71 223.211 3141.71 221.542C3142.13 219.874 3142.13 218.414 3141.71 217.163V204.024C3140.88 201.938 3140.46 199.018 3140.46 195.264C3140.46 191.511 3140.88 188.591 3141.71 186.505V178.372L3143.59 155.848C3144.42 153.345 3144.84 150.843 3144.84 148.34C3144.84 145.837 3145.26 143.335 3146.09 140.832C3147.76 134.158 3149.22 127.693 3150.47 121.436C3151.72 114.763 3153.6 108.506 3156.1 102.667C3159.44 94.7415 3162.57 87.025 3165.49 79.5171C3168.41 72.0091 3172.16 64.9183 3176.75 58.2446C3188.43 39.4747 3202.19 23.2075 3218.04 9.44297C3233.89 -4.32159 3252.66 -15.5835 3274.35 -24.3427C3278.94 -26.4283 3283.74 -28.0967 3288.74 -29.348C3294.16 -30.5994 3299.59 -32.0593 3305.01 -33.7277C3307.51 -34.5619 3310.01 -34.979 3312.52 -34.979C3315.44 -34.979 3318.15 -35.3961 3320.65 -36.2303C3323.99 -36.6474 3327.11 -36.856 3330.03 -36.856C3333.37 -37.2731 3336.71 -37.6902 3340.05 -38.1073C3340.88 -38.5244 3341.92 -38.5244 3343.17 -38.1073C3344.42 -37.6902 3345.47 -37.6902 3346.3 -38.1073C3374.25 -38.9415 3398.65 -36.0217 3419.5 -29.348C3440.36 -23.0914 3458.71 -14.3322 3474.56 -3.07025C3480.82 1.10082 3486.87 5.48046 3492.71 10.0687C3498.55 14.6568 3503.76 19.8707 3508.35 25.7102C3509.6 27.7957 3511.06 29.4642 3512.73 30.7155C3514.4 31.9668 3515.86 33.6352 3517.11 35.7208C3519.61 39.0576 3522.11 42.603 3524.62 46.357C3527.12 49.6939 3529.41 53.0307 3531.5 56.3676C3532.33 58.4531 3533.17 60.3301 3534 61.9986C3534.83 63.2499 3535.88 64.9183 3537.13 67.0038C3538.8 69.5065 3540.26 72.0091 3541.51 74.5118C3544.85 82.0197 3548.18 89.9448 3551.52 98.2869C3552.35 100.79 3552.98 103.292 3553.4 105.795C3554.23 107.88 3555.06 110.174 3555.9 112.677C3557.15 116.848 3558.19 121.228 3559.03 125.816C3560.28 129.987 3561.53 134.367 3562.78 138.955C3563.62 141.04 3564.03 143.126 3564.03 145.212C3564.03 147.297 3564.24 149.383 3564.66 151.468C3565.49 154.388 3565.91 157.308 3565.91 160.227C3565.91 163.147 3566.33 166.275 3567.16 169.612V173.366C3567.58 175.452 3567.58 177.537 3567.16 179.623C3566.74 181.708 3566.95 183.794 3567.79 185.88ZM3508.97 205.901C3509.81 203.815 3510.23 200.27 3510.23 195.264C3510.23 189.842 3509.81 186.088 3508.97 184.003V178.997C3508.97 176.912 3508.77 175.035 3508.35 173.366C3508.35 171.698 3508.35 169.821 3508.35 167.735C3507.51 165.65 3507.1 163.773 3507.1 162.104C3507.51 160.019 3507.31 157.933 3506.47 155.848C3505.64 152.094 3504.8 148.34 3503.97 144.586C3503.55 140.832 3502.93 137.287 3502.09 133.95C3500.01 128.11 3498.13 122.688 3496.46 117.682C3495.21 112.26 3493.54 107.046 3491.46 102.041C3484.36 84.9395 3474.56 69.5065 3462.05 55.7419C3449.95 41.9774 3435.56 31.3411 3418.88 23.8332C3409.7 19.6621 3398.86 16.3253 3386.34 13.8226C3380.5 12.1542 3373.83 11.32 3366.32 11.32C3359.23 10.9029 3352.14 10.6943 3345.05 10.6943C3342.13 11.1114 3339.21 11.5285 3336.29 11.9456C3333.79 11.9456 3330.87 12.1542 3327.53 12.5713C3321.28 14.2397 3315.23 15.9081 3309.39 17.5766C3303.97 18.8279 3298.54 20.4963 3293.12 22.5819C3270.6 32.1754 3252.87 45.9399 3239.94 63.8755C3227.01 81.8112 3216.58 102.875 3208.66 127.067C3206.99 131.656 3205.74 136.452 3204.9 141.458C3204.49 146.046 3203.65 150.842 3202.4 155.848C3201.98 157.933 3201.77 160.019 3201.77 162.104C3201.77 163.773 3201.57 165.65 3201.15 167.735C3200.31 169.404 3199.9 171.281 3199.9 173.366C3200.31 175.035 3200.31 176.703 3199.9 178.372V184.003C3199.48 186.088 3199.27 189.842 3199.27 195.264C3199.27 200.687 3199.48 204.441 3199.9 206.526C3199.9 208.195 3199.9 209.863 3199.9 211.532C3200.31 212.783 3200.52 214.243 3200.52 215.911C3201.36 219.248 3201.77 223.002 3201.77 227.173C3202.19 230.927 3202.82 234.473 3203.65 237.809C3204.07 239.478 3204.07 241.146 3203.65 242.815C3203.65 244.066 3204.07 245.526 3204.9 247.194C3206.15 251.783 3207.2 256.371 3208.03 260.959C3208.86 265.547 3210.32 270.135 3212.41 274.723C3214.5 279.312 3216.16 283.9 3217.42 288.488C3219.08 292.659 3221.17 296.83 3223.67 301.001C3225.76 304.338 3227.63 307.675 3229.3 311.012C3231.39 313.932 3233.47 317.06 3235.56 320.397C3248.49 338.75 3265.38 353.14 3286.24 363.567C3292.08 366.904 3297.92 369.407 3303.76 371.075C3310.01 372.744 3316.69 374.621 3323.78 376.706C3326.7 377.541 3329.41 377.958 3331.91 377.958C3334.41 377.541 3337.13 377.749 3340.05 378.583C3342.55 379.418 3345.26 379.835 3348.18 379.835C3351.52 379.418 3354.85 379.209 3358.19 379.209H3364.45C3366.53 378.792 3368.62 378.583 3370.7 378.583C3372.79 378.166 3374.87 377.958 3376.96 377.958C3382.8 376.706 3388.22 375.664 3393.23 374.829C3398.65 373.995 3403.65 372.535 3408.24 370.45C3429.51 361.69 3446.82 350.22 3460.17 336.038C3473.94 321.857 3485.2 304.13 3493.96 282.857C3496.04 277.435 3497.71 271.804 3498.96 265.964C3500.63 260.125 3502.3 254.285 3503.97 248.446C3504.8 245.943 3505.22 243.44 3505.22 240.938C3505.64 238.018 3506.26 235.098 3507.1 232.179L3508.97 211.532V205.901Z" fill="#FFC9A7"/>
</mask>
<g mask="url(#mask0_5841_2887)">
<rect x="-16" width="1678" height="498" fill="#FFC9A7"/>
</g>
</svg>
