<svg width="109" height="60" viewBox="0 0 109 60" fill="none" xmlns="http://www.w3.org/2000/svg">
<path d="M108.258 12.0395C108.258 11.6938 108.148 11.4547 107.87 11.259C107.553 11.0352 107.252 10.7879 106.941 10.5536C105.738 9.64419 104.534 8.73598 103.333 7.82543C102.241 6.99809 101.148 6.16957 100.057 5.34105C99.391 4.83479 98.717 4.33792 98.0113 3.88792C97.6749 3.67346 97.2998 3.52463 96.9048 3.44495C95.381 3.13674 93.8583 2.82619 92.3321 2.52736C91.8996 2.44299 91.48 2.45822 91.1471 2.82385C91.017 2.96682 90.8599 3.08283 90.7227 3.21994C90.6055 3.33596 90.4953 3.33479 90.3582 3.24924C89.9046 2.96565 89.4474 2.68908 88.9879 2.41486C88.5472 2.15119 88.1334 1.82775 87.6001 1.75978C85.8442 1.53244 84.0882 1.30275 82.3312 1.08126C81.9959 1.03908 81.7111 1.12111 81.5048 1.43986C81.3618 1.66017 81.2867 1.8922 81.2375 2.13947C81.1906 2.37385 81.0898 2.40666 80.8988 2.26955C80.4568 1.95197 80.0079 1.64259 79.5613 1.33205C79.1616 1.05431 78.7572 0.777746 78.2532 0.734386C76.7481 0.603136 75.2407 0.494151 73.738 0.341807C73.2867 0.296103 73.0018 0.475401 72.7416 0.796496C72.3876 1.23478 72.0172 1.66134 71.6609 2.09845C71.5425 2.2426 71.4499 2.24377 71.2963 2.1301C70.6422 1.64259 69.9788 1.16564 69.3118 0.694542C68.7996 0.33126 68.2451 0.0886804 67.5958 0.154306C67.5383 0.160165 67.4785 0.15079 67.4211 0.148446C66.2231 0.102743 65.0252 0.0711022 63.8284 0.0019613C63.4685 -0.0191325 63.2505 0.130868 63.0946 0.40626C62.9258 0.703917 62.7137 0.971106 62.539 1.2629C62.4476 1.41642 62.3714 1.42111 62.2413 1.33205C61.9365 1.12345 61.6235 0.927747 61.3211 0.715636C60.7901 0.342978 60.231 0.0933679 59.5558 0.156649C58.8971 0.218759 58.2348 0.272666 57.5737 0.275009C55.5833 0.283213 53.6035 0.483604 51.6179 0.578526C49.9534 0.657042 48.2912 0.777746 46.6267 0.869153C45.2366 0.946497 43.8499 1.07072 42.462 1.16681C41.0144 1.26642 39.5656 1.35197 38.1179 1.45978C37.6819 1.49259 37.3513 1.63791 37.1204 2.00705C37.0735 2.08088 37.0196 2.15119 36.9774 2.22736C36.8895 2.38674 36.7887 2.44885 36.607 2.34338C36.2003 2.10666 35.7724 1.90978 35.2871 1.93674C34.9765 1.95431 34.6706 2.02814 34.36 2.04689C33.3003 2.11017 32.2524 2.28127 31.1951 2.37853C30.0616 2.48283 28.9363 2.66682 27.8075 2.82033C26.7666 2.96213 25.7234 3.0969 24.6848 3.25862C23.5619 3.43323 22.4436 3.64182 21.3207 3.81995C20.7862 3.90432 20.329 4.09065 20.0407 4.5805C19.9422 4.7469 19.832 4.90862 19.7148 5.06331C19.287 5.62933 18.8533 6.193 18.4207 6.75668C18.3234 6.88324 18.218 6.95941 18.0503 6.85394C17.3259 6.39574 16.5593 6.02074 15.7751 5.67738C14.7319 5.22034 13.6605 4.89808 12.5118 4.86409C11.4451 4.83245 10.3949 4.91331 9.35046 5.14886C8.25448 5.39613 7.15967 5.63988 6.09065 5.99144C5.34632 6.23519 4.59261 6.45082 3.84593 6.69105C2.81325 7.0227 1.79111 7.38715 0.79125 7.80551C0.276666 8.01293 -0.00348381 8.39965 3.27067e-05 8.9938C0.0351979 15.0137 0.0574692 21.0337 0.0891179 27.0548C0.125455 33.983 0.166481 40.91 0.203991 47.8381C0.203991 48.0069 0.20868 48.158 0.342307 48.2928C0.640039 48.594 0.954182 48.8811 1.26598 49.1635C2.18028 49.9932 3.13091 50.7819 4.05927 51.5963C5.22324 52.6159 6.36845 53.6577 7.54063 54.6667C9.2731 56.1585 10.9997 57.6549 12.649 59.237C13.2761 59.8393 13.7848 59.8569 14.229 59.5745C14.2431 59.5628 14.256 59.551 14.2701 59.5393C14.351 59.5206 14.4096 59.4702 14.4623 59.4104C14.4834 59.3964 14.5045 59.3823 14.5256 59.3694C14.5631 59.3448 14.6006 59.3202 14.6381 59.2956C14.6733 59.3003 14.6967 59.2909 14.7026 59.2522C14.7225 59.2393 14.7436 59.2253 14.7636 59.2124C14.8421 59.1925 14.9077 59.1526 14.9499 59.0811L14.9722 59.0835L14.9886 59.0682C15.0601 59.0413 15.1375 59.0237 15.202 58.9862C15.6825 58.7108 16.1526 58.4202 16.639 58.1565C17.7831 57.5378 18.9365 56.9378 20.0817 56.3202C21.2691 55.6803 22.4472 55.0241 23.6346 54.3854C25.4421 53.4127 27.2249 52.4002 28.8578 51.1487C30.187 50.1291 31.2502 48.8541 32.2559 47.5287C32.7025 46.9404 33.1104 46.324 33.4574 45.6713C33.5816 45.4369 33.686 45.3877 33.952 45.5377C34.5639 45.8834 35.1887 46.2127 35.8416 46.4799C35.8592 46.4881 35.8779 46.4916 35.8967 46.4916C36.2472 46.8537 36.682 46.951 37.1181 46.7658C37.4217 46.6369 37.7089 46.4729 38.0042 46.3264C39.0791 45.792 40.1657 45.2787 41.2453 44.7514C42.5007 44.1373 43.7455 43.5022 45.0092 42.9033C46.7979 42.0561 48.5913 41.2158 50.4 40.4131C50.863 40.208 51.0154 39.9244 51.013 39.4545C51.0083 38.5006 51.0013 37.5467 51.0705 36.5951C51.0974 36.2213 51.0974 36.2142 51.4502 36.3888C52.041 36.6818 52.6248 36.9877 53.2167 37.2783C53.879 37.6041 54.5436 37.9263 55.1801 38.3002C55.3747 38.415 55.5552 38.4467 55.7556 38.34C55.874 38.3482 55.9748 38.3037 56.0686 38.2369L56.0874 38.2463L56.1014 38.2287C56.1249 38.2228 56.1483 38.217 56.1706 38.2111C56.1917 38.1994 56.2128 38.1877 56.2339 38.176C56.2702 38.1689 56.3077 38.1619 56.3441 38.1549C56.4531 38.1408 56.5433 38.0892 56.6219 38.0154C56.6805 38.0201 56.7321 38.0107 56.7637 37.9545L56.7907 37.958L56.8082 37.9381C56.8293 37.9322 56.8493 37.9275 56.8704 37.9217C56.9255 37.9053 56.9852 37.897 57.0356 37.8713C58.1176 37.3228 59.2393 36.867 60.3588 36.4029C60.9495 36.158 61.0011 36.0326 60.9742 35.3775C60.9437 34.6685 60.9343 33.9595 60.9835 33.2494C61.0011 32.9904 61.0832 32.981 61.2871 33.0771C61.6271 33.2365 61.9506 33.431 62.3104 33.547C62.3292 33.5541 62.3479 33.5623 62.3679 33.5693C62.6679 33.7884 63.0149 33.9197 63.3478 34.0755C63.8038 34.2888 64.2246 34.5748 64.7122 34.7213L64.7263 34.7423L64.7521 34.7388C65.0287 34.9756 65.3194 34.9334 65.6171 34.7869L65.6418 34.7904L65.6593 34.774C66.1036 34.631 66.542 34.4716 66.9593 34.2584C67.0026 34.2642 67.0413 34.2584 67.0648 34.215C67.5711 34.0802 68.0553 33.8857 68.5323 33.6712H68.5335C69.1676 33.4896 69.7889 33.2716 70.3867 32.9927C70.6247 32.8814 70.7747 32.6892 70.7735 32.3927C70.7712 31.7599 70.7876 31.1271 70.8052 30.4943C70.8087 30.3548 70.7794 30.1931 70.9376 30.1017L70.9611 30.1111L70.9857 30.1064C71.6597 30.5494 72.4181 30.8306 73.1296 31.2009C73.3066 31.2935 73.4977 31.2126 73.609 31.0345C73.7122 30.8716 73.8095 30.7029 73.8892 30.5271C73.9818 30.3232 74.0978 30.2763 74.3006 30.3865C74.8128 30.663 75.3368 30.9162 75.8443 31.1998C76.2077 31.4025 76.5664 31.5349 76.9708 31.3322C77.0271 31.3275 77.0833 31.3216 77.1396 31.3169C77.2932 31.2689 77.4655 31.2947 77.6085 31.1998C77.6472 31.1951 77.687 31.1916 77.7257 31.1869C77.9027 31.1388 78.0926 31.1341 78.2555 31.0369C78.3165 31.0498 78.3762 31.0544 78.4337 31.0205C78.4724 31.0076 78.5099 30.9935 78.5486 30.9806C78.5872 30.9771 78.6259 30.9724 78.6646 30.9689C78.9623 30.915 79.2601 30.8576 79.5437 30.7474C79.6269 30.7521 79.7114 30.7638 79.784 30.7087C79.8016 30.7017 79.818 30.6947 79.8356 30.6876C79.8743 30.683 79.913 30.6794 79.9516 30.6747C80.2904 30.6232 80.6339 30.5904 80.955 30.4556L80.982 30.4615L81.0066 30.4474C81.0922 30.4673 81.1684 30.4521 81.2352 30.3935L81.241 30.3923C81.6079 30.3853 81.9502 30.2681 82.2936 30.1591C82.3323 30.1556 82.3722 30.1533 82.4109 30.1497C82.5902 30.1322 82.7695 30.1158 82.9383 30.0443C82.997 30.0361 83.0556 30.029 83.1142 30.0208C83.1974 30.0326 83.2783 30.0384 83.3427 29.9681C83.4096 29.9552 83.4764 29.9423 83.5432 29.9294L83.5631 29.9423L83.5784 29.9224L83.5842 29.9212C83.6557 29.9412 83.7167 29.9212 83.7682 29.8697C83.8046 29.8662 83.8397 29.8626 83.8761 29.8591C83.9452 29.8744 84.0074 29.865 84.0589 29.8122C84.0953 29.8076 84.1316 29.8029 84.168 29.7994C84.2699 29.8087 84.3719 29.8146 84.4575 29.7408C84.4973 29.7349 84.5384 29.729 84.5782 29.722C84.7611 29.6997 84.9416 29.6658 85.1069 29.5779C85.1655 29.5732 85.2241 29.5685 85.2827 29.5626C85.3343 29.5767 85.3776 29.5626 85.4105 29.5193L85.4362 29.524L85.4573 29.5099C86.1853 29.5064 86.3775 29.3517 86.5264 28.6451C86.6061 28.2654 86.6998 27.8892 86.7995 27.5142C86.8722 27.2423 86.9929 27.2564 87.2004 27.3572C88.1006 27.7908 89.0043 28.2161 89.9093 28.6415C90.1507 28.7552 90.4016 28.8244 90.6712 28.7529C90.7521 28.7728 90.8318 28.7716 90.9091 28.7365C90.9736 28.7564 91.024 28.7189 91.0779 28.6931C91.1775 28.6896 91.276 28.6849 91.3756 28.6814C91.4425 28.6943 91.5081 28.7013 91.5585 28.6404C91.6148 28.6333 91.6699 28.6275 91.7261 28.6204C91.8457 28.624 91.9688 28.6579 92.0766 28.5759C92.1751 28.5654 92.2724 28.5548 92.3708 28.5431C92.726 28.5337 93.0765 28.4786 93.4223 28.4013C93.5407 28.3966 93.6579 28.3919 93.7763 28.3872C93.7892 28.3509 93.8044 28.324 93.822 28.3064C93.8056 28.324 93.7903 28.3497 93.7763 28.3872C93.8607 28.4072 93.9368 28.3849 94.0107 28.3427C94.0505 28.3404 94.0892 28.3369 94.1291 28.3345C94.3248 28.3263 94.5253 28.3767 94.7117 28.2794C94.7902 28.2701 94.8687 28.2619 94.9473 28.2525C95.4396 28.2267 95.9307 28.1904 96.4183 28.1107C96.6117 28.1036 96.8052 28.0978 96.9974 28.0908C97.1181 28.106 97.2365 28.1036 97.349 28.0486C97.4463 28.0451 97.5448 28.0404 97.6421 28.0368C97.839 28.0439 98.0359 28.0615 98.2247 27.9818C98.2844 27.9759 98.343 27.9712 98.4028 27.9654C98.5798 27.9876 98.7557 27.9783 98.9256 27.9185C99.0088 27.9408 99.0885 27.9314 99.1647 27.8915C99.3617 27.9208 99.5562 27.8997 99.7508 27.8716C99.97 27.8833 100.192 27.9243 100.396 27.8013C100.623 27.7204 100.614 27.5435 100.592 27.3501C100.561 27.0654 100.651 26.995 100.922 27.0736C101.079 27.1193 101.236 27.1673 101.393 27.2142C101.438 27.2247 101.482 27.2365 101.525 27.247C101.724 27.3618 101.931 27.4533 102.154 27.5083C102.196 27.5224 102.238 27.5365 102.28 27.5505C102.453 27.6783 102.646 27.7568 102.857 27.7943C102.912 27.8271 102.971 27.8341 103.033 27.8165C103.126 27.8505 103.219 27.881 103.32 27.8552C103.48 27.8904 103.639 27.8892 103.798 27.8587C104.227 27.8845 104.656 27.881 105.083 27.8165C105.513 27.8447 105.942 27.8283 106.372 27.8048C106.431 27.8048 106.49 27.8036 106.548 27.8025C106.725 27.8025 106.901 27.8025 107.078 27.8025C107.134 27.8025 107.192 27.8025 107.248 27.8025C107.366 27.8025 107.485 27.8013 107.602 27.8001C107.667 27.813 107.731 27.8306 107.781 27.7685C107.819 27.7603 107.856 27.7521 107.894 27.7427C107.971 27.7404 108.037 27.7158 108.078 27.6454C108.298 27.5001 108.253 27.2704 108.253 27.063C108.255 22.0579 108.253 17.0516 108.261 12.0465L108.258 12.0395Z" fill="#212124"/>
<path d="M33.0917 20.2002C33.2663 20.9174 33.3953 21.6369 33.4023 22.3823C33.4094 23.1252 33.3191 23.8506 33.1351 24.5655C32.7354 26.117 31.9934 27.4835 30.915 28.6717C30.3805 29.2612 29.8342 29.8319 29.1942 30.3077C29.1473 30.3417 29.111 30.3897 29.07 30.4319C29.0371 30.4671 28.9973 30.5046 29.0207 30.5585C29.0465 30.6182 29.1004 30.5983 29.1473 30.5948C29.6725 30.5596 30.1999 30.5772 30.7145 30.6628C31.637 30.8163 32.4411 31.2276 33.0694 31.9319C34.231 33.235 34.7269 34.8089 34.8863 36.5093C35.0504 38.2671 34.796 39.9733 34.231 41.6409C33.7528 43.0554 33.0999 44.3831 32.3075 45.6464C31.6089 46.7609 30.8024 47.7933 29.9362 48.7777C29.0981 49.7293 28.1182 50.5261 27.0562 51.2199C25.7199 52.0941 24.2934 52.8078 22.895 53.5718C21.7779 54.1812 20.662 54.7918 19.5343 55.3801C17.9343 56.2133 16.3531 57.0863 14.739 57.8926C14.6018 57.9617 14.4729 58.0484 14.3404 58.1258C14.283 58.1527 14.2256 58.1797 14.1681 58.2078C14.0415 58.2101 13.9607 58.3707 13.8165 58.3098C13.8165 58.2711 13.8165 58.2324 13.8165 58.1937C13.8235 56.9363 13.8399 55.6801 13.8364 54.4226C13.8294 51.4754 13.8118 48.5281 13.8001 45.5808C13.793 43.7363 13.7883 41.8929 13.7825 40.0484C13.7778 38.4511 13.7708 36.8538 13.7672 35.2577C13.7614 32.9784 13.7555 30.6979 13.7508 28.4186C13.7485 26.894 13.7508 25.3682 13.7485 23.8436C13.7473 22.7069 13.7438 21.5713 13.7415 20.4346C13.7555 20.3537 13.8223 20.3104 13.8751 20.2588C13.9231 20.26 13.9712 20.2623 13.9946 20.2084C14.0357 20.1897 14.0767 20.1721 14.1177 20.1533L14.1353 20.1615L14.1388 20.1416C14.2771 20.11 14.4026 20.0502 14.5198 19.9705C14.8925 19.8276 15.2606 19.6764 15.6134 19.4889L15.6275 19.483C15.6498 19.469 15.672 19.4549 15.6943 19.4397H15.692C15.8045 19.4373 15.8971 19.3869 15.9815 19.3178C16.0213 19.3002 16.0612 19.2815 16.101 19.2639C16.1561 19.2416 16.2101 19.2205 16.2651 19.1983C16.3261 19.1736 16.3871 19.1479 16.4492 19.1233C16.5922 19.0682 16.7516 19.0471 16.8712 18.9381C16.9849 18.8854 17.0974 18.8338 17.2111 18.7811C17.3482 18.7928 17.4432 18.7061 17.5463 18.6393C17.6237 18.6451 17.6835 18.6065 17.7386 18.5596C18.1934 18.4389 18.6154 18.2361 19.0444 18.0486V18.051C19.2518 17.9772 19.4581 17.9033 19.6656 17.8295C19.7711 17.7815 19.8754 17.7322 19.9809 17.6842L20.0009 17.6924L20.0173 17.6772C20.1087 17.6924 20.1861 17.6596 20.2564 17.6033C20.3279 17.6186 20.3818 17.5893 20.4228 17.5342C20.5471 17.5717 20.6245 17.4639 20.7264 17.4346C20.7768 17.4475 20.8108 17.4205 20.8413 17.3865C20.88 17.3807 20.9187 17.3736 20.9574 17.3678C21.2516 17.2611 21.547 17.1545 21.8412 17.0479C21.8787 17.0397 21.9162 17.0314 21.9525 17.0232C22.0076 17.035 22.044 17.0115 22.0674 16.9623C22.1143 16.9494 22.16 16.9365 22.2069 16.9225L22.221 16.933L22.2292 16.9154C22.2796 16.8979 22.3311 16.8814 22.3815 16.8639L22.3968 16.8732L22.4073 16.8557L22.4179 16.8522C22.4753 16.8346 22.5339 16.817 22.5914 16.7994C22.6125 16.7971 22.6324 16.7936 22.6535 16.7912C22.7953 16.7736 22.9348 16.7479 23.0614 16.6764C23.113 16.6822 23.1599 16.6729 23.1974 16.6318L23.2161 16.6412L23.2255 16.6213L23.2384 16.6166C23.2689 16.6037 23.2982 16.5897 23.3287 16.5768C23.467 16.6037 23.5783 16.5053 23.7084 16.4936C23.7717 16.4982 23.835 16.5053 23.8866 16.4549C23.9253 16.4443 23.9628 16.4326 24.0015 16.4221C24.1058 16.4162 24.2125 16.4162 24.2945 16.3342C24.4903 16.2932 24.686 16.2522 24.8806 16.2111C25.0881 16.2029 25.2932 16.1842 25.4843 16.0951C25.5042 16.0928 25.5253 16.0904 25.5452 16.0881C25.5722 16.0881 25.5992 16.0881 25.6249 16.0869C25.6378 16.0764 25.6507 16.067 25.6625 16.0564C25.7375 16.1045 25.8066 16.074 25.8746 16.0424C26.1102 16.0189 26.3447 15.9955 26.5803 15.9721C26.742 15.9955 26.8991 15.9568 27.0562 15.9287C27.1664 15.9287 27.2765 15.9287 27.3867 15.9287C27.5602 16.0084 27.7442 15.9568 27.9224 15.9686C28.1193 15.992 28.3104 16.0588 28.512 16.0424C28.8238 16.1162 29.1356 16.1912 29.4474 16.265C29.4955 16.2721 29.5435 16.2791 29.5916 16.2861C29.6221 16.3014 29.6525 16.3178 29.6818 16.333H29.6854C30.3312 16.599 30.9126 16.9705 31.4413 17.4252C31.4436 17.4451 31.4553 17.4557 31.4764 17.4533C31.5011 17.4756 31.5245 17.4979 31.5491 17.519L31.5444 17.5154C31.746 17.8225 32.018 18.0709 32.2278 18.3744C32.6076 18.9229 32.794 19.5569 33.0788 20.1463C33.0706 20.1639 33.0718 20.1815 33.0858 20.1967L33.0917 20.2002ZM21.2211 42.3347C21.2211 42.3347 21.2117 42.3347 21.207 42.3347C21.207 43.523 21.207 44.7113 21.207 45.8995C21.207 46.2218 21.2563 46.264 21.5036 46.1527C22.8926 45.5292 24.2746 44.8976 25.5218 44.007C26.5885 43.2452 27.416 42.3101 27.7864 41.028C28.1029 39.9347 28.165 38.8437 27.6235 37.7972C27.273 37.1186 26.7139 36.7694 25.9239 36.8151C25.0518 36.8644 24.2699 37.2229 23.4752 37.5194C22.7953 37.7737 22.1459 38.1089 21.4719 38.3796C21.2762 38.4581 21.2199 38.5589 21.2211 38.744C21.2234 39.9417 21.2223 41.1382 21.2223 42.3359L21.2211 42.3347ZM21.1859 31.3612C21.3031 31.3378 21.3805 31.3319 21.452 31.3061C22.5785 30.9135 23.6862 30.4799 24.6989 29.8354C25.4937 29.3292 26.1442 28.6881 26.5439 27.8233C26.9073 27.0358 27.0151 26.2155 26.8897 25.3495C26.7948 24.692 26.2556 24.0662 25.6109 23.9221C24.9814 23.7815 24.3918 23.9561 23.7999 24.1073C23.038 24.3018 22.3089 24.6018 21.5645 24.8561C21.1672 24.992 21.1402 25.0049 21.1449 25.4245C21.159 26.6174 21.1754 27.8116 21.1848 29.0046C21.1906 29.7827 21.1848 30.5596 21.1848 31.3589L21.1859 31.3612Z" fill="white"/>
<path d="M50.3278 34.1339C50.2563 34.8101 50.2786 35.4897 50.2575 36.1683C50.227 37.1597 50.2083 38.1511 50.1919 39.1425C50.1895 39.3019 50.1333 39.3933 49.9891 39.4566C49.1908 39.8105 48.3914 40.1609 47.599 40.53C46.2604 41.1534 44.923 41.7757 43.6089 42.4507C42.5727 42.9827 41.5272 43.4972 40.4839 44.0187C39.4501 44.5355 38.4139 45.0476 37.3812 45.5656C37.1925 45.6605 37.101 45.7343 37.1022 45.4062C37.1104 43.5019 37.0835 41.5988 37.0776 39.6944C37.0694 36.9862 37.0694 34.2768 37.0647 31.5686C37.0624 30.0897 37.0729 28.6108 37.0541 27.1319C37.0119 23.8459 37.0096 20.56 37.0155 17.2752C37.0155 16.9658 36.9721 16.6541 37.0284 16.3447C37.1702 16.3576 37.2933 16.2861 37.4257 16.2557C37.4714 16.2627 37.516 16.2627 37.5512 16.224C37.6051 16.2158 37.6602 16.2076 37.7141 16.1994C37.9403 16.1959 38.1513 16.1233 38.36 16.0471C38.4772 16.0225 38.5944 15.9979 38.7116 15.9733C38.755 15.9592 38.7972 15.9463 38.8405 15.9322C38.939 15.9358 39.0363 15.9322 39.1195 15.869C39.1394 15.9076 39.1605 15.9065 39.1816 15.869C39.4067 15.8608 39.6247 15.8197 39.8334 15.7318C39.8896 15.7143 39.9459 15.6979 40.0022 15.6803C40.0889 15.7025 40.1698 15.692 40.2413 15.6358C40.26 15.6463 40.2765 15.644 40.2917 15.6287C40.5109 15.6123 40.7266 15.5807 40.9329 15.4986C40.9774 15.4881 41.0231 15.4764 41.0677 15.4658C41.0841 15.4635 41.1005 15.4611 41.1169 15.4588C41.1544 15.4553 41.1931 15.4518 41.2306 15.4494C41.3466 15.4002 41.4861 15.4295 41.5916 15.344C41.6092 15.351 41.6256 15.3475 41.6397 15.3346C41.846 15.3568 42.0406 15.3111 42.2246 15.2197C42.3442 15.2022 42.4708 15.2221 42.5798 15.1506C42.6396 15.1365 42.6982 15.1213 42.7579 15.1072C42.7955 15.1037 42.8341 15.1002 42.8716 15.0967C42.9385 15.0955 43.0111 15.1248 43.0627 15.0545C43.1752 15.044 43.2878 15.0334 43.4003 15.0229C43.4179 15.0111 43.4355 14.9994 43.453 14.9877H43.4554C43.5527 14.969 43.6617 15.0018 43.7473 14.9268C43.7906 14.9162 43.8328 14.9045 43.8762 14.894C43.9032 14.8916 43.9313 14.8881 43.9583 14.8857C43.9864 14.8799 44.0145 14.8729 44.0438 14.867C44.0626 14.8658 44.0813 14.8647 44.1001 14.8635C44.1728 14.8857 44.2325 14.8447 44.2958 14.8213L44.3158 14.8318L44.3333 14.8154H44.3357C44.4224 14.8131 44.515 14.8471 44.5854 14.765C44.658 14.7592 44.7307 14.7533 44.8034 14.7475C45.0789 14.7205 45.3485 14.6666 45.6098 14.5775L45.6216 14.5729C45.6509 14.56 45.6802 14.5459 45.7095 14.533C45.7599 14.5236 45.8103 14.5131 45.8619 14.5037C45.9275 14.5143 45.9967 14.5447 46.0459 14.4709C46.1197 14.4615 46.1936 14.4522 46.2663 14.4428C46.4503 14.3736 46.6636 14.4287 46.8348 14.3045C46.8805 14.2963 46.9274 14.2893 46.9731 14.2811C47.0411 14.2904 47.1079 14.301 47.1583 14.2365C47.2321 14.2272 47.306 14.2178 47.381 14.2084C47.4209 14.1979 47.4607 14.1885 47.5006 14.1779C47.5592 14.1709 47.6178 14.1627 47.6764 14.1557C47.7221 14.1662 47.7584 14.1522 47.7854 14.1135C47.8675 14.1158 47.9495 14.1275 48.0257 14.0818C48.157 14.11 48.2672 14.0467 48.382 13.9998C48.4395 13.9951 48.4981 13.9916 48.5555 13.9869C48.5848 13.974 48.6153 13.9623 48.6446 13.9494C48.7513 13.94 48.8591 13.9318 48.9658 13.9225C49.0138 13.9342 49.0572 13.9307 49.0865 13.8838L49.2577 13.8662C49.3385 13.8662 49.4206 13.8768 49.4886 13.8182C49.5273 13.8076 49.5671 13.7971 49.6058 13.7865C49.6867 13.8088 49.7675 13.8217 49.8402 13.7607C49.9809 13.8006 49.9527 13.9201 49.9563 14.0186C49.9645 14.226 49.9645 14.4346 49.9692 14.642C49.9692 14.6818 49.9692 14.7205 49.9692 14.7604C49.9692 15.2479 49.9703 15.7354 49.9715 16.2229C49.9504 17.3174 49.9996 18.4096 50.0336 19.503C50.0289 19.5451 50.0254 19.5862 50.0207 19.6283C49.553 19.7549 49.0865 19.8815 48.6188 20.0092C47.7491 20.2459 46.8805 20.485 46.0107 20.7205C45.0179 20.9889 44.0239 21.2561 43.0299 21.5209C42.8904 21.5584 42.8189 21.6217 42.8166 21.7811C42.7978 22.9823 42.7744 24.1834 42.7427 25.3834C42.7368 25.6014 42.8025 25.6155 42.9924 25.5569C43.5468 25.3835 44.1118 25.2417 44.6662 25.0682C45.3215 24.8631 45.9978 24.7284 46.6367 24.467C46.6894 24.4483 46.7433 24.4295 46.7961 24.412C46.9918 24.3581 47.1876 24.303 47.3833 24.2491C47.4455 24.2327 47.5076 24.2163 47.5685 24.1999L47.5885 24.2092L47.5967 24.187C47.6154 24.1905 47.6272 24.1823 47.6295 24.1635C47.98 24.0874 48.3363 24.0346 48.6716 23.8963C48.8111 23.8846 48.9435 23.8471 49.0689 23.7838C49.0783 23.8202 49.0877 23.8565 49.0971 23.8928L49.0924 24.3053C49.0924 24.3241 49.0924 24.344 49.0924 24.3627C49.0924 24.4213 49.0935 24.4811 49.0947 24.5397V24.5959C49.0947 24.8889 49.0947 25.1831 49.0947 25.476C49.0947 26.6456 49.0947 27.8163 49.0947 28.9858C49.0889 29.0046 49.083 29.0233 49.0771 29.0432C49.0291 29.0491 48.9775 29.0456 48.933 29.062C47.9319 29.4241 46.9344 29.7909 45.9322 30.1507C44.937 30.5081 43.9735 30.9522 42.9631 31.2698C42.8224 31.3143 42.7861 31.4151 42.7861 31.537C42.7861 31.8475 42.8025 32.1581 42.799 32.4686C42.7896 33.2409 42.7708 34.0143 42.7603 34.7866C42.7544 35.1839 42.7556 35.5812 42.7579 35.9784C42.7579 36.1472 42.8095 36.2269 43.0064 36.1437C43.4964 35.9362 43.9934 35.7452 44.4904 35.5519C45.8525 35.0222 47.2157 34.4948 48.579 33.9651C49.0443 33.7835 49.5085 33.5972 49.9727 33.412C50.0782 33.412 50.1708 33.3745 50.2587 33.3194L50.2763 33.3347L50.2997 33.3323C50.2997 33.3511 50.3079 33.3663 50.3232 33.378C50.3267 33.5725 50.3302 33.7683 50.3325 33.9628C50.3032 34.0202 50.2915 34.0776 50.3255 34.1362L50.3278 34.1339Z" fill="white"/>
<path d="M70.006 29.3974C69.9849 30.24 69.9579 31.0826 69.9473 31.9252C69.945 32.0951 69.8817 32.1619 69.7293 32.2111C68.6298 32.565 67.5409 32.9518 66.4613 33.3643C66.1812 33.4709 65.8963 33.5682 65.6209 33.6842C65.4614 33.7522 65.4415 33.6572 65.4169 33.5482L65.4087 33.3736C65.4204 33.308 65.4415 33.2412 65.4427 33.1756C65.4509 32.3096 65.4579 31.4435 65.4614 30.5787C65.472 28.0697 65.4814 25.5619 65.4896 23.0529C65.4954 21.2962 65.4954 19.5408 65.5025 17.7841C65.5095 15.915 65.5236 14.0458 65.5341 12.1767L65.54 12.1696C65.5599 12.1532 65.5787 12.1368 65.5986 12.1204C65.6185 12.1157 65.6396 12.111 65.6595 12.1064C65.7791 12.111 65.9022 12.1345 66.0077 12.0524C66.0862 12.0407 66.1659 12.0278 66.2445 12.0161C66.3066 12.0442 66.3652 12.0466 66.4191 11.9985C66.4801 11.9939 66.5398 11.9892 66.6008 11.9857C66.6383 12.0021 66.6699 11.995 66.6957 11.9634C66.8446 11.9669 66.9935 11.9763 67.1341 11.9107C67.1951 11.9317 67.2549 11.9435 67.3064 11.8907C67.4213 11.8849 67.5362 11.8778 67.6499 11.872C67.7319 11.8767 67.8116 11.872 67.8831 11.8239C68.0027 11.8439 68.1199 11.8357 68.236 11.8028C68.3169 11.8122 68.4012 11.8356 68.4681 11.763C68.5689 11.7735 68.6685 11.7806 68.7611 11.7255C68.8619 11.7489 68.958 11.7337 69.0541 11.7009C69.271 11.6798 69.4867 11.6575 69.7035 11.6364C69.7446 11.6235 69.7856 11.6118 69.8254 11.5989C69.9438 11.6493 70.0564 11.6036 70.1701 11.5778L70.1982 11.5814L70.2251 11.5743C70.265 11.5743 70.3037 11.5743 70.3435 11.5755C70.4221 11.5626 70.5006 11.5497 70.5791 11.5368C70.687 11.5474 70.7503 11.6048 70.7702 11.7114C70.7737 11.8028 70.7737 11.8954 70.8722 11.9458C70.9413 12.0982 70.9308 12.2798 71.0468 12.4146C71.0785 12.5728 71.0867 12.7392 71.2074 12.8646C71.2121 12.8903 71.2168 12.915 71.2227 12.9407C71.2133 13.0005 71.2168 13.0556 71.2684 13.0978C71.2766 13.1435 71.2848 13.1892 71.293 13.2349C71.2836 13.2841 71.3012 13.3216 71.3422 13.3485C71.3481 13.3685 71.354 13.3884 71.3586 13.4083C71.3903 13.5068 71.4231 13.6064 71.4548 13.7048V13.7036C71.4723 13.7341 71.4899 13.7646 71.5063 13.795L71.5005 13.8091L71.511 13.8196C71.6048 14.1595 71.674 14.5087 71.8592 14.8181C71.8662 14.8556 71.8732 14.8931 71.8803 14.9306C71.8978 15.0349 71.9271 15.1357 71.9951 15.2212C71.974 15.2974 72.0221 15.3478 72.0643 15.3993C72.083 15.6138 72.1651 15.8107 72.2319 16.0122C72.6082 17.1419 72.9856 18.2728 73.3666 19.4013C73.3994 19.4974 73.4123 19.6134 73.5447 19.6802C73.7464 19.1412 73.9632 18.615 74.139 18.0747C74.2762 17.6505 74.4755 17.2462 74.5516 16.8021C74.5985 16.7775 74.6185 16.7388 74.6149 16.6872C75.2807 14.906 75.9043 13.1107 76.4939 11.3024C76.4986 11.2767 76.5033 11.2497 76.5092 11.2228C76.5244 11.1899 76.5396 11.1583 76.5549 11.1267L76.5701 11.1149L76.5643 11.0974C76.5783 11.0669 76.5936 11.0376 76.6076 11.0083C76.6698 10.9813 76.7319 10.9556 76.7928 10.9286C76.8925 10.9392 76.9945 10.9696 77.08 10.8876C77.1199 10.8853 77.1609 10.8817 77.2008 10.8794C77.2195 10.8782 77.2371 10.8771 77.2559 10.8759C77.3215 10.8946 77.3836 10.8853 77.4422 10.8536C77.6157 10.8747 77.7904 10.8935 77.9556 10.8114C78.2334 10.8302 78.5077 10.795 78.7832 10.7634C78.9602 10.7774 79.1348 10.7681 79.306 10.7177C79.4044 10.713 79.5029 10.7083 79.6014 10.7036C79.6201 10.7036 79.6389 10.7036 79.6576 10.7036C79.6963 10.7036 79.7362 10.7013 79.7749 10.7013C79.8417 10.7212 79.8991 10.6989 79.9495 10.6567C79.9894 10.6579 80.028 10.6603 80.0679 10.6614C80.1277 10.7036 80.1851 10.6884 80.2425 10.6567C80.2824 10.6532 80.3234 10.6485 80.3633 10.645C80.5168 10.6532 80.6716 10.6614 80.8251 10.6708C80.8193 10.6896 80.8228 10.7071 80.8357 10.7224C80.7595 11.0106 80.7817 11.3048 80.7888 11.5989C80.7688 11.7161 80.756 11.8321 80.7888 11.9493C80.7876 12.0079 80.7853 12.0665 80.7841 12.1263C80.7419 12.2423 80.7571 12.3595 80.7771 12.4767C80.7771 12.5153 80.7771 12.5552 80.7771 12.5939C80.7771 12.6337 80.7794 12.6724 80.7806 12.7122C80.7806 12.731 80.7806 12.7497 80.7806 12.7685C80.7794 12.8271 80.7782 12.8868 80.7759 12.9454C80.7782 13.0638 80.7794 13.181 80.7817 13.2993L80.7782 13.311C80.7724 13.3134 80.7665 13.3146 80.7606 13.3169C80.7653 13.3251 80.7712 13.3333 80.7759 13.3415C80.7759 13.4833 80.7759 13.6251 80.7759 13.7669C80.7478 13.9216 80.7325 14.0775 80.7735 14.2321C80.7735 14.3306 80.7735 14.429 80.7735 14.5275C80.7407 14.6634 80.7067 14.7993 80.7735 14.9353C80.7724 14.9751 80.77 15.0138 80.7689 15.0536C80.7618 15.0806 80.7489 15.1075 80.7489 15.1345C80.7419 15.7544 80.7513 16.3755 80.7407 16.9943C80.7149 18.3583 80.7161 19.7212 80.7243 21.0841C80.7243 21.1615 80.7243 21.2388 80.7231 21.3173C80.7009 21.4931 80.695 21.6701 80.7231 21.8459C80.7231 21.8845 80.7231 21.9232 80.7231 21.9607C80.7067 22.2748 80.654 22.5877 80.7102 22.9017C80.7067 22.9392 80.7044 22.9779 80.7009 23.0154C80.6903 23.463 80.6727 23.9107 80.6692 24.3584C80.6552 25.9779 80.6411 27.5986 80.6411 29.2181C80.6411 29.4619 80.5485 29.5428 80.3258 29.5908C79.674 29.7314 79.0165 29.8463 78.3671 30.0033C77.9322 30.1088 77.4832 30.2201 77.0238 30.2131C77.0202 30.1756 77.0167 30.1369 77.0132 30.0994V21.2576C76.2654 22.7283 75.6922 24.2634 75.0463 25.7681C75.0369 25.8174 75.0275 25.8666 75.0182 25.917C74.6454 26.64 74.3547 27.397 74.0851 28.1635L74.0863 28.1611C73.9902 28.3076 73.8976 28.4553 73.8741 28.6346C73.8694 28.6556 73.8636 28.6767 73.8589 28.699C73.8425 28.7377 73.8249 28.7763 73.8085 28.815L73.805 28.8267C73.696 28.9849 73.6116 29.1537 73.5705 29.3424V29.3471C73.5377 29.3764 73.5084 29.4068 73.5201 29.4549C73.5154 29.4736 73.5108 29.4935 73.5061 29.5123C73.4943 29.5334 73.4815 29.5556 73.4697 29.5767L73.4545 29.5803L73.4557 29.5955C73.4287 29.6447 73.4017 29.6951 73.3736 29.7443C73.3361 29.7068 73.2986 29.6693 73.2599 29.6307C73.2658 29.5849 73.2529 29.5486 73.2072 29.5287L73.2013 29.5193C73.1767 29.4467 73.1579 29.3717 73.1275 29.3014C72.5507 27.956 71.9658 26.6142 71.3973 25.2654C71.0375 24.4099 70.7046 23.5427 70.3506 22.6849C70.2732 22.4962 70.156 22.3228 70.0575 22.1435C70.0341 22.1482 70.0095 22.1529 69.986 22.1576C69.9591 23.0283 69.9216 23.9002 69.986 24.772C69.9415 24.8412 69.9696 24.908 69.9942 24.9736C69.9333 25.617 69.9872 26.2615 69.9907 26.9049C69.9942 27.5998 69.9532 28.2947 70.0177 28.9885C69.9767 29.1256 69.9778 29.2639 70.0036 29.4033L70.006 29.3974Z" fill="white"/>
<path d="M0.991895 8.79803C1.41505 8.59647 1.81945 8.43944 2.22971 8.29881C3.48042 7.87107 4.72878 7.43631 5.98418 7.02146C6.52924 6.84216 7.08368 6.68747 7.64164 6.55388C8.51139 6.34763 9.3788 6.13083 10.2673 6.00192C11.736 5.78864 13.1755 5.83786 14.602 6.27614C15.6523 6.59841 16.6006 7.11638 17.5442 7.66482C19.102 8.56951 20.559 9.62303 22.0523 10.6238C23.65 11.6949 25.2102 12.8176 26.7762 13.9344C27.1314 14.1875 27.5053 14.416 27.8417 14.7043C27.7679 14.7981 27.6729 14.7547 27.5944 14.7547C25.9229 14.7582 24.3076 15.0805 22.7123 15.5621C21.5776 15.9043 20.4511 16.2664 19.3434 16.6848C18.4057 17.0387 17.4832 17.4301 16.5466 17.7864C15.9559 18.0114 15.378 18.2633 14.8071 18.5305C14.6653 18.5973 14.5457 18.5785 14.4039 18.4766C13.4873 17.8098 12.5601 17.1571 11.6364 16.4985C10.8792 15.9582 10.1231 15.4168 9.3659 14.8766C8.41058 14.1957 7.45292 13.5172 6.49994 12.834C5.89275 12.398 5.29143 11.9527 4.68659 11.5133C3.77346 10.8512 2.858 10.1937 1.94604 9.52928C1.63425 9.30194 1.333 9.06053 0.990723 8.79803H0.991895Z" fill="white"/>
<path d="M21.4348 4.86088C21.7408 4.71439 22.0127 4.69564 22.2753 4.64877C23.1767 4.49173 24.0745 4.31127 24.9818 4.19994C25.9008 4.08744 26.8127 3.93509 27.7306 3.8179C29.8381 3.5472 31.9492 3.31165 34.0626 3.09017C34.4694 3.04798 34.8773 3.02454 35.2817 2.97649C35.6627 2.93079 35.9662 3.0597 36.2605 3.2636C37.333 4.00423 38.4079 4.74135 39.4781 5.48432C40.4826 6.18159 41.4743 6.8976 42.4847 7.5855C44.2617 8.79605 45.979 10.0886 47.7325 11.332C48.2483 11.6976 48.7429 12.0937 49.2458 12.4769C49.3044 12.5215 49.4029 12.5531 49.3701 12.6504C49.3407 12.7371 49.2388 12.723 49.1684 12.7371C48.117 12.9422 47.0644 13.1402 46.0141 13.3465C44.7247 13.5996 43.4365 13.8621 42.1459 14.1152C41.0195 14.3367 39.886 14.5265 38.7654 14.7773C38.0914 14.9285 37.4139 15.0644 36.7387 15.2133C36.5664 15.2508 36.4257 15.2238 36.2757 15.1148C35.3555 14.4504 34.4307 13.7918 33.5 13.1402C31.9 12.0199 30.2906 10.9148 28.6953 9.78746C27.0273 8.60855 25.3264 7.47769 23.635 6.33276C22.92 5.84994 22.2014 5.37182 21.436 4.85853L21.4348 4.86088Z" fill="white"/>
<path d="M97.8753 10.7025C98.0101 10.7072 98.1461 10.7131 98.2809 10.7178C98.2984 10.7225 98.316 10.7271 98.3336 10.7318C98.5552 10.8256 98.7954 10.7553 99.0252 10.8127C99.1647 10.8467 99.2432 10.9076 99.3007 11.0318C99.8844 12.301 100.567 13.5209 101.163 14.783C101.745 16.0123 102.379 17.2135 102.984 18.4299C103.087 18.6362 103.217 18.8295 103.347 19.0475C103.468 18.8998 103.427 18.7393 103.43 18.5975C103.464 16.6147 103.491 14.6319 103.522 12.6479C103.526 12.2998 103.545 11.9506 103.539 11.6025C103.536 11.408 103.577 11.3272 103.797 11.3611C104.757 11.5076 105.728 11.585 106.684 11.7584C106.866 11.7912 107.051 11.8193 107.235 11.8217C107.475 11.824 107.567 11.9037 107.559 12.1639C107.534 12.9619 107.541 13.76 107.533 14.558C107.509 16.6592 107.485 18.7604 107.461 20.8616C107.441 22.692 107.424 24.5225 107.403 26.353C107.398 26.7714 107.371 26.7749 106.947 26.7749C105.79 26.7749 104.634 26.7866 103.477 26.8053C103.258 26.8089 103.118 26.7491 103.009 26.5452C102.442 25.487 101.881 24.4264 101.306 23.3717C100.669 22.1999 100.099 20.9905 99.4999 19.7975C99.4823 19.7623 99.4706 19.7248 99.4261 19.7049C99.31 20.0049 99.3077 20.2944 99.303 20.578C99.2702 22.61 99.2444 24.6421 99.2186 26.6753C99.2186 26.7526 99.2385 26.8335 99.1635 26.8897L98.9924 26.9331C98.9724 26.9343 98.9513 26.9354 98.9314 26.9378C98.3172 26.9038 97.7194 27.0339 97.1157 27.1077C97.0184 27.1112 96.9211 27.1147 96.8227 27.1171C96.4124 27.1569 96.0022 27.1968 95.5919 27.2366C95.5532 27.2366 95.5145 27.2389 95.477 27.2389C95.2754 27.2589 95.1957 27.1979 95.2004 26.9682C95.2039 26.776 95.2074 26.5803 95.2098 26.387C95.2215 24.7768 95.2367 23.1667 95.259 21.5565C95.2801 20.012 95.3106 18.4674 95.3352 16.9229C95.3516 15.874 95.368 14.8252 95.3809 13.7764C95.3879 13.1858 95.3891 12.594 95.3926 12.0033C95.4208 11.9459 95.4208 11.8873 95.3973 11.8287C95.4231 11.79 95.4231 11.7502 95.3973 11.7115C95.4477 11.5721 95.3973 11.4338 95.3973 11.2943C95.4958 11.0318 95.3903 10.7471 95.4817 10.4834C95.7923 10.5021 96.1041 10.5209 96.4148 10.5396C96.5062 10.5807 96.6 10.5959 96.6973 10.5619C96.7594 10.5725 96.8227 10.583 96.8848 10.5936C97.0173 10.6533 97.1556 10.6463 97.2939 10.6252C97.3525 10.6357 97.4111 10.6463 97.4697 10.6557C97.6069 10.6709 97.7428 10.6861 97.88 10.7014L97.8753 10.7025Z" fill="white"/>
<path d="M60.2742 22.9531C60.2086 24.2867 60.2226 25.6226 60.2144 26.9574C60.2062 28.3297 60.2179 29.7031 60.205 31.0754C60.1921 32.4524 60.1523 33.8282 60.1417 35.2051C60.1406 35.3762 60.0867 35.4512 59.9483 35.5086C59.1794 35.8286 58.4104 36.1485 57.6438 36.4743C57.0988 36.7051 56.5584 36.9442 56.0157 37.1809C55.9712 37.1997 55.9301 37.2278 55.861 37.1938C55.861 36.3301 55.861 35.4559 55.861 34.5817C55.861 32.7641 55.8563 30.9453 55.8586 29.1277C55.8621 26.7219 55.8715 24.316 55.8774 21.9101C55.8797 21.1601 55.8586 20.4101 55.8879 19.6625C55.8996 19.3613 55.7731 19.3379 55.5562 19.3882C54.9045 19.5394 54.2516 19.6882 53.6045 19.8593C53.2107 19.9636 52.8016 20.0047 52.4206 20.157C52.3456 20.1711 52.2706 20.1839 52.1967 20.198C52.151 19.4316 52.1698 18.6628 52.1487 17.8964C52.11 16.4703 52.1241 15.0429 52.1135 13.6167C52.1135 13.5335 52.117 13.462 52.185 13.4081C52.3105 13.4046 52.4394 13.4339 52.5543 13.3601L52.5754 13.3683L52.5929 13.3531C52.7113 13.3495 52.8297 13.3449 52.9481 13.3413C53.4533 13.2781 53.9656 13.2792 54.4649 13.1644C54.6231 13.148 54.7802 13.1327 54.9385 13.1163L55.1119 13.1034C55.1612 13.1163 55.2057 13.1093 55.2444 13.073L55.269 13.08L55.2889 13.0613C55.3675 13.0566 55.4472 13.0519 55.5257 13.0472C55.6476 13.0636 55.766 13.0449 55.8821 13.005C55.9583 12.998 56.0356 12.9909 56.1118 12.9839C56.2325 13.0074 56.3498 13.0015 56.4588 12.937C56.5408 12.9546 56.6217 12.964 56.6944 12.9077C56.8128 12.9242 56.9335 12.9534 57.0449 12.8796C57.0835 12.8679 57.1234 12.8574 57.1621 12.8456C57.3367 12.8456 57.5161 12.8855 57.6814 12.7917C57.7704 12.8117 57.8607 12.8339 57.9439 12.773L57.9638 12.7824L57.9814 12.7671H57.9849C58.1244 12.7648 58.2686 12.8093 58.3987 12.7191C58.5921 12.7085 58.7867 12.698 58.9801 12.6863C59.0997 12.698 59.2181 12.6992 59.3318 12.6488C59.3916 12.6406 59.4525 12.6324 59.5123 12.6241C59.6483 12.6277 59.7842 12.6359 59.9155 12.5855C60.1124 12.5656 60.3082 12.5445 60.5051 12.5245C60.5239 12.521 60.5415 12.5175 60.5602 12.514C60.6024 12.5105 60.6446 12.507 60.6868 12.5034C60.7196 12.5292 60.7349 12.5034 60.7513 12.4812C60.8849 12.4741 61.0185 12.4683 61.151 12.4613C61.2002 12.473 61.2448 12.4648 61.2776 12.4238C61.43 12.4167 61.5812 12.4085 61.7336 12.4015C61.9879 12.3687 62.2423 12.3359 62.4966 12.3042C62.5564 12.2984 62.615 12.2925 62.6748 12.2866C62.7123 12.3007 62.7381 12.2843 62.7592 12.2538C62.7826 12.2538 62.8061 12.2527 62.8295 12.2515C62.8542 12.2491 62.8788 12.2468 62.9046 12.2433C63.0288 12.2386 63.1601 12.2902 63.2726 12.1964C63.2902 12.1941 63.3066 12.1906 63.3242 12.1882C63.4355 12.2386 63.5481 12.1718 63.6594 12.1882C63.6676 12.2058 63.6758 12.2234 63.6829 12.2421C63.6852 12.3605 63.6876 12.48 63.6887 12.5984C63.6876 12.6945 63.6864 12.7894 63.6852 12.8855C63.6852 12.9265 63.6852 12.9663 63.6852 13.0074C63.6735 13.0261 63.6735 13.0437 63.6852 13.0624C63.6864 13.1023 63.6876 13.1433 63.6887 13.1831C63.6618 13.3964 63.6618 13.6085 63.6876 13.8218C63.6876 13.9003 63.6852 13.98 63.6841 14.0585C63.6805 14.1839 63.6747 14.3105 63.6747 14.4359C63.677 15.5023 63.6805 16.5687 63.6841 17.6351L63.6735 17.6539C63.6559 17.6668 63.6383 17.6785 63.6219 17.6914C63.5997 17.6972 63.5762 17.7019 63.5539 17.7078C63.2328 17.7289 62.9362 17.8566 62.6256 17.9257C61.9305 18.0828 61.2401 18.2562 60.545 18.4144C60.3316 18.4625 60.2707 18.5644 60.3668 18.7601L60.3363 18.8375L60.3199 18.8339H60.3387C60.341 18.882 60.3422 18.93 60.3445 18.9781C60.3141 19.0355 60.3 19.0941 60.341 19.1527C60.341 19.2125 60.341 19.2734 60.341 19.3332C60.2836 19.898 60.2812 20.4629 60.3105 21.0289C60.273 21.0851 60.2789 21.1437 60.3047 21.2035C60.2941 21.3406 60.2683 21.4777 60.3012 21.6148C60.2976 21.6547 60.2941 21.6933 60.2906 21.7332C60.2871 21.739 60.2801 21.7461 60.2812 21.7508C60.2824 21.7625 60.2871 21.7754 60.2906 21.7871C60.2836 21.8855 60.2484 21.984 60.2965 22.0812C60.2965 22.1211 60.2965 22.1609 60.2965 22.1996C60.2449 22.4527 60.2836 22.707 60.2801 22.9613L60.2742 22.9531Z" fill="white"/>
<path d="M90.6755 27.5141C90.4974 26.8813 90.318 26.2485 90.1422 25.6157C90.1 25.4622 89.9839 25.5266 89.9031 25.5395C89.1189 25.6708 88.3359 25.8114 87.5529 25.9473C87.2012 26.0083 86.8484 26.0669 86.4944 26.1196C86.2916 26.1501 86.1779 26.2227 86.1357 26.4583C86.029 27.0571 85.8755 27.6466 85.7442 28.2407C85.6985 28.447 85.5836 28.5372 85.3679 28.5735C84.3938 28.7411 83.4256 28.9415 82.4445 29.0657C82.3894 29.0727 82.3379 29.1091 82.2851 29.1313C82.2312 29.1395 82.1784 29.1466 82.1245 29.1548C81.9815 29.1419 81.9264 29.0821 81.9628 28.9263C82.0542 28.5302 82.1245 28.1282 82.2113 27.7309C82.4656 26.5766 82.7341 25.4258 82.979 24.2704C83.1982 23.2368 83.3741 22.1926 83.6085 21.1625C83.8617 20.0469 84.0949 18.9278 84.313 17.8051C84.3188 17.7629 84.3235 17.7207 84.3294 17.6797C84.4044 17.4524 84.4818 17.2262 84.4595 16.9813C84.4642 16.9555 84.47 16.9297 84.4747 16.9039C84.6295 16.5348 84.7092 16.1481 84.7478 15.752C84.7514 15.7133 84.7549 15.6746 84.7584 15.636C84.9295 15.2223 84.9776 14.7828 85.0432 14.3457C85.0468 14.3153 85.0491 14.286 85.0526 14.2555C85.2507 13.7551 85.3058 13.2207 85.4136 12.7004C85.5625 11.9809 85.7641 11.2707 85.8579 10.5406C85.8626 10.5125 85.8673 10.4844 85.8708 10.4551C85.8872 10.4246 85.9036 10.3941 85.9188 10.3648H85.92C86.3479 10.3238 86.7816 10.3777 87.2071 10.3016C87.2668 10.3016 87.3266 10.3016 87.3864 10.3016C87.4251 10.3391 87.4626 10.3414 87.4989 10.2969C87.5798 10.2969 87.6595 10.2969 87.7404 10.2969C87.7756 10.332 87.8119 10.3543 87.8541 10.3062C87.9526 10.3039 88.051 10.3027 88.1507 10.3004C88.9677 10.3766 89.7858 10.352 90.6052 10.3473C90.6451 10.3449 90.6849 10.3426 90.7248 10.3402C90.7658 10.3426 90.8068 10.3437 90.849 10.3461L90.856 10.3637H90.8748C90.8842 10.3801 90.8947 10.3953 90.9053 10.4117L90.9111 10.4223C90.9264 10.4844 90.9404 10.5477 90.9557 10.6098C90.9463 10.6309 90.951 10.6484 90.9709 10.6602C90.9698 10.741 90.9358 10.8289 91.0166 10.8934C91.06 11.2731 91.1397 11.6457 91.2487 12.0113C91.2534 12.0676 91.2593 12.1238 91.264 12.1801C91.3015 12.3723 91.2933 12.5774 91.4035 12.752C91.3824 12.8012 91.4023 12.8434 91.4292 12.8832C91.4058 13.0063 91.4363 13.1223 91.4832 13.2348C91.489 13.2746 91.4949 13.3145 91.5007 13.3531C91.5007 13.4328 91.4925 13.5125 91.5465 13.5805V13.5828C91.5488 13.6649 91.5312 13.7516 91.598 13.8195C91.6062 13.8582 91.6133 13.8969 91.6215 13.9344C91.6121 13.9824 91.6227 14.0223 91.6672 14.0504C91.6742 14.109 91.6801 14.1688 91.6871 14.2274C91.6648 14.3317 91.707 14.4195 91.7586 14.5051L91.7422 14.511V14.5285C91.7399 14.5567 91.7305 14.5871 91.7363 14.6129C91.9251 15.5434 92.0985 16.4785 92.3131 17.4043C92.4162 17.8473 92.4197 18.3102 92.5956 18.7368C92.6002 18.7953 92.6038 18.8528 92.6084 18.9114C92.6882 19.3204 92.7667 19.7282 92.8464 20.1372C92.8335 20.184 92.8464 20.2227 92.8816 20.2555C92.912 20.4946 92.9308 20.7348 92.9765 20.9704C93.2098 22.1727 93.4442 23.3762 93.6927 24.5762C93.8076 25.1317 93.8791 25.6977 94.0549 26.2403L94.0526 26.2391C94.0983 26.5872 94.144 26.9352 94.1885 27.2833C94.1651 27.2927 94.1416 27.302 94.1182 27.3126C94.0315 27.3137 93.9435 27.3044 93.8592 27.3173C92.8394 27.4813 91.8149 27.602 90.7892 27.7204C90.7646 27.6911 90.7388 27.663 90.7142 27.6337C90.7201 27.5856 90.7212 27.5399 90.6708 27.513L90.6755 27.5141ZM88.3992 17.0668C88.2878 17.1418 88.2808 17.2367 88.262 17.3164C87.9338 18.6957 87.6103 20.0762 87.2844 21.4567C87.2317 21.6782 87.3008 21.7555 87.5329 21.7098C88.0358 21.609 88.5398 21.5012 89.0486 21.4403C89.3064 21.4086 89.3557 21.329 89.3064 21.0899C89.0321 19.7539 88.7672 18.4157 88.3992 17.068V17.0668Z" fill="white"/>
<path d="M53.0322 12.303C52.8587 12.3499 52.6829 12.18 52.507 12.0581C50.5589 10.7116 48.6295 9.33701 46.6661 8.01044C45.5783 7.27567 44.5046 6.52215 43.4204 5.78387C42.2482 4.98699 41.1065 4.14441 39.9496 3.32644C39.592 3.07448 39.2263 2.83542 38.8641 2.5905C38.8008 2.54714 38.7059 2.51432 38.7211 2.42409C38.7422 2.2987 38.8641 2.34557 38.9391 2.34206C41.0338 2.25768 43.1215 2.07604 45.2114 1.92018C46.5723 1.81823 47.9367 1.79596 49.2941 1.65534C49.5602 1.62838 49.7735 1.72682 49.974 1.86627C51.1204 2.66784 52.2597 3.47995 53.4085 4.28035C54.5712 5.09129 55.7575 5.86942 56.9027 6.70262C58.0186 7.51356 59.1638 8.28232 60.2821 9.08857C61.1659 9.7249 62.0685 10.3331 62.9617 10.9565C63.0285 11.0034 63.1504 11.0362 63.1117 11.1429C63.0789 11.2319 62.9652 11.2155 62.8796 11.2249C61.1366 11.4194 59.3959 11.6374 57.6494 11.8026C56.4655 11.914 55.2839 12.0441 54.1024 12.1648C53.773 12.1987 53.4448 12.248 53.0357 12.3019L53.0322 12.303Z" fill="white"/>
<path d="M57.9261 1.18174C58.429 1.15713 58.9776 1.16299 59.518 1.09502C60.0384 1.02939 60.4334 1.22978 60.8273 1.51924C61.7744 2.21533 62.7309 2.89737 63.685 3.58292C64.9475 4.48995 66.2099 5.39816 67.477 6.29934C68.6175 7.11028 69.7663 7.91067 70.9091 8.7181C71.5198 9.15052 72.1282 9.58763 72.7354 10.0236C72.7788 10.0552 72.8608 10.0646 72.8432 10.1408C72.8245 10.2204 72.7389 10.2204 72.6768 10.2357C72.2689 10.3376 71.8481 10.3564 71.4319 10.3997C69.785 10.5708 68.1381 10.7384 66.4936 10.9294C66.0399 10.9822 65.5804 11.0009 65.1256 11.0595C65.0225 11.0724 64.9334 11.0466 64.8502 10.9892C63.6897 10.1911 62.5258 9.39779 61.37 8.59505C60.029 7.6634 58.6927 6.7259 57.3576 5.78722C55.5138 4.48995 53.6735 3.18917 51.832 1.89072C51.7453 1.82978 51.6527 1.77705 51.5612 1.72197C51.5062 1.68799 51.4159 1.67978 51.4346 1.58838C51.4534 1.50166 51.5413 1.51338 51.6046 1.50869C52.0711 1.47588 52.5377 1.44424 53.0054 1.41963C54.5538 1.33877 56.1011 1.26142 57.6495 1.18291C57.7269 1.17939 57.8054 1.18291 57.9261 1.18291V1.18174Z" fill="white"/>
<path d="M77.2748 9.80575C76.7602 9.99911 76.3862 9.45301 75.9361 9.15653C74.8894 8.46746 73.8754 7.72918 72.8475 7.01199C71.3166 5.94323 69.7846 4.87799 68.256 3.80807C67.1272 3.01822 66.0031 2.22134 64.8767 1.42681C64.7419 1.33188 64.6094 1.23227 64.477 1.13266C64.4312 1.09868 64.3691 1.05649 64.3926 0.994383C64.423 0.912351 64.5074 0.941648 64.5719 0.943992C65.1662 0.970945 65.7605 1.00024 66.3548 1.0272C66.8998 1.0518 67.4473 1.11626 67.99 1.08813C68.426 1.0647 68.6757 1.34595 68.9594 1.55571C70.5066 2.70181 72.0621 3.83268 73.6398 4.93776C75.1988 6.02878 76.7438 7.13972 78.2969 8.24012C78.7728 8.57762 79.2522 8.90926 79.7281 9.24442C79.7996 9.29481 79.8688 9.34989 79.9309 9.41083C79.9637 9.44247 80.0047 9.49403 79.9989 9.53036C79.9872 9.60536 79.911 9.58661 79.8559 9.5913C79.0494 9.65926 78.243 9.72606 77.2759 9.80575H77.2748Z" fill="white"/>
<path d="M74.1416 1.28008C74.4335 1.21446 74.6726 1.28125 74.9047 1.30352C75.9714 1.40196 77.0369 1.51094 78.1082 1.54024C78.4001 1.54844 78.59 1.74649 78.794 1.89766C79.7223 2.59024 80.6952 3.21603 81.647 3.87345C82.9786 4.79455 84.3161 5.70744 85.6652 6.60276C86.8386 7.37972 87.9943 8.18246 89.1993 8.91254C89.3552 9.00746 89.5322 9.09887 89.687 9.31449C89.4338 9.31449 89.2333 9.31566 89.0329 9.31449C88.2921 9.30863 87.5478 9.26059 86.8105 9.30863C86.2478 9.34496 85.8129 9.11996 85.3816 8.83754C84.547 8.29027 83.7194 7.73245 82.8907 7.17698C81.4548 6.2137 80.0236 5.24455 78.5865 4.28361C77.3346 3.44572 76.0769 2.61837 74.8238 1.78165C74.6034 1.63399 74.3948 1.46875 74.1416 1.28243V1.28008Z" fill="white"/>
<path d="M97.8234 9.67125C97.0779 9.61617 96.3324 9.52008 95.5857 9.51539C94.6656 9.50836 93.974 9.01734 93.2555 8.55797C91.7985 7.62749 90.3379 6.70522 88.8868 5.76772C87.7615 5.03998 86.6491 4.29232 85.5273 3.55873C84.8674 3.12747 84.2016 2.70677 83.5381 2.28255C83.4573 2.23099 83.3776 2.17942 83.3096 2.06458C83.6718 1.99895 83.9988 2.11145 84.3258 2.14895C85.2835 2.25911 86.2377 2.42552 87.1977 2.49583C87.6947 2.53216 88.0241 2.82161 88.3863 3.06302C89.2748 3.65599 90.1398 4.28529 91.0178 4.89467C92.1665 5.69272 93.3141 6.49077 94.4698 7.2771C95.3372 7.86773 96.2199 8.43726 97.0885 9.02555C97.3499 9.2025 97.6206 9.37359 97.8223 9.67008L97.8234 9.67125Z" fill="white"/>
<path d="M105.869 10.6387C105.478 10.6692 105.096 10.6188 104.714 10.5672C104.579 10.5485 104.443 10.4969 104.311 10.5051C103.376 10.5555 102.64 10.102 101.903 9.61095C100.805 8.8797 99.6806 8.18595 98.5799 7.45938C96.9764 6.4 95.3822 5.32422 93.7846 4.25429C93.5419 4.09257 93.3028 3.92616 93.0613 3.7621C93.0156 3.73046 92.9383 3.71405 92.9723 3.63905C93.0027 3.57109 93.0719 3.60273 93.1282 3.61327C93.7881 3.73984 94.4469 3.87109 95.108 3.99296C95.4807 4.06093 95.8558 4.13476 96.2332 4.16757C96.5779 4.19687 96.8709 4.31757 97.1487 4.51093C98.3396 5.33476 99.5341 6.15508 100.726 6.97774C101.774 7.70079 102.821 8.42501 103.866 9.15041C104.482 9.57697 105.096 10.0047 105.709 10.4324C105.777 10.4793 105.871 10.5074 105.867 10.6399L105.869 10.6387Z" fill="white"/>
<path d="M0.932065 10.0474C5.16947 13.0837 9.3471 16.0779 13.5447 19.0849C13.3524 19.2009 13.2071 19.2958 13.0559 19.379C12.8812 19.4751 12.7171 19.4775 12.5401 19.3521C11.6457 18.7169 10.7467 18.0888 9.84644 17.4618C8.54299 16.5548 7.2325 15.6548 5.93256 14.7431C5.48713 14.4314 5.06515 14.0857 4.62558 13.7657C3.71598 13.1048 2.80285 12.4497 1.8909 11.7923C1.62365 11.6001 1.35522 11.4091 1.09031 11.2134C0.99419 11.1419 0.926204 11.0564 0.930892 10.9204C0.939098 10.6509 0.933237 10.3802 0.933237 10.0485L0.932065 10.0474Z" fill="white"/>
<path d="M0.943298 12.3854C1.46257 12.7628 1.92206 13.1038 2.38742 13.4355C3.15285 13.9815 3.92531 14.5171 4.68956 15.0644C6.09383 16.0698 7.49106 17.0835 8.8965 18.0866C9.77445 18.7136 10.6606 19.33 11.5433 19.9511C11.8293 20.1527 12.1129 20.3566 12.4013 20.5546C12.4904 20.6156 12.5232 20.6976 12.5408 20.7984C12.556 20.8863 12.549 20.9706 12.5408 21.0585C12.4857 21.6515 12.4775 21.6667 11.9875 21.3257C11.0392 20.6648 10.1038 19.9863 9.16258 19.3159C7.97634 18.4698 6.78893 17.6249 5.60386 16.7777C4.71184 16.139 3.8245 15.4933 2.93248 14.8546C2.37218 14.4538 1.81305 14.0519 1.2422 13.6663C1.02652 13.521 0.910477 13.3616 0.939782 13.0909C0.963225 12.8812 0.944471 12.6667 0.944471 12.3843L0.943298 12.3854Z" fill="white"/>
<path d="M0.957655 15.2502C0.983443 15.1002 0.87912 14.8787 0.998682 14.8131C1.12762 14.7416 1.24718 14.949 1.36909 15.0346C2.64793 15.917 3.90098 16.8346 5.1599 17.7451C6.38716 18.6322 7.64842 19.4725 8.86983 20.3678C10.0068 21.201 11.1731 21.9944 12.309 22.8276C12.5141 22.9776 12.6571 23.5776 12.5411 23.7979C12.4766 23.9197 12.4063 23.86 12.3289 23.8061C11.5658 23.267 10.8016 22.7291 10.0385 22.1901C9.00111 21.4576 7.96139 20.7287 6.92754 19.9928C6.15273 19.4408 5.38847 18.876 4.61484 18.324C4.04633 17.9174 3.46962 17.5213 2.89643 17.1228C2.29979 16.708 1.70199 16.2943 1.10652 15.8783C0.873259 15.7154 1.01744 15.4599 0.955311 15.2514L0.957655 15.2502Z" fill="white"/>
<path d="M0.995638 17.0705C2.17484 17.9049 3.2931 18.6947 4.40901 19.4869C5.55656 20.3026 6.71116 21.1088 7.84699 21.942C9.34386 23.0412 10.8817 24.0819 12.3892 25.1659C12.531 25.2678 12.64 25.712 12.5591 25.8573C12.5052 25.9534 12.4489 25.8983 12.3927 25.8608C11.6988 25.3979 10.9966 24.9502 10.3203 24.4592C9.61463 23.9459 8.89023 23.4608 8.1752 22.9615C7.09094 22.2057 6.00902 21.4451 4.92359 20.6916C3.99992 20.0506 3.07156 19.4154 2.14554 18.7768C1.8736 18.5893 1.61337 18.3842 1.33205 18.2131C1.08121 18.0596 0.949923 17.8721 0.993293 17.5686C1.01322 17.4279 0.99681 17.2826 0.99681 17.0693L0.995638 17.0705Z" fill="white"/>
</svg>
